solid CATIA STL
  facet normal  0.000000e+000  0.000000e+000 -1.000000e+000
    outer loop
      vertex -1.750000e+001  0.000000e+000  0.000000e+000
      vertex -2.750000e+001  7.105427e-015  0.000000e+000
      vertex -1.750000e+001  2.000000e+000  0.000000e+000
    endloop
  endfacet
  facet normal -2.087219e-014  3.130829e-014 -9.999999e-001
    outer loop
      vertex  4.000000e+000  6.000000e+000  4.070078e-013
      vertex  2.450000e+001  6.000000e+000 -2.087219e-014
      vertex  1.750000e+001  2.000000e+000  0.000000e+000
    endloop
  endfacet
  facet normal  5.087597e-014  2.734583e-013 -1.000000e+000
    outer loop
      vertex  4.000000e+000  6.000000e+000  4.070078e-013
      vertex  1.750000e+001  2.000000e+000  0.000000e+000
      vertex -4.000000e+000  6.000000e+000  0.000000e+000
    endloop
  endfacet
  facet normal  5.087597e-014  0.000000e+000 -1.000000e+000
    outer loop
      vertex  4.000000e+000  6.000000e+000  4.070078e-013
      vertex -4.000000e+000  6.000000e+000  0.000000e+000
      vertex -4.000000e+000  2.420000e+001  0.000000e+000
    endloop
  endfacet
  facet normal  0.000000e+000 -2.236306e-014 -1.000000e+000
    outer loop
      vertex  4.000000e+000  6.000000e+000  4.070078e-013
      vertex -4.000000e+000  2.420000e+001  0.000000e+000
      vertex  4.000000e+000  2.420000e+001  0.000000e+000
    endloop
  endfacet
  facet normal  1.018156e-015  5.472587e-015 -9.999999e-001
    outer loop
      vertex -2.450000e+001  6.000000e+000 -2.087219e-014
      vertex -4.000000e+000  6.000000e+000  0.000000e+000
      vertex  1.750000e+001  2.000000e+000  0.000000e+000
    endloop
  endfacet
  facet normal  -0.000000e+000 -5.218048e-015 -1.000000e+000
    outer loop
      vertex -2.450000e+001  6.000000e+000 -2.087219e-014
      vertex  1.750000e+001  2.000000e+000  0.000000e+000
      vertex  0.000000e+000  2.000000e+000  0.000000e+000
    endloop
  endfacet
  facet normal  -0.000000e+000 -5.218048e-015 -1.000000e+000
    outer loop
      vertex -2.450000e+001  6.000000e+000 -2.087219e-014
      vertex  0.000000e+000  2.000000e+000  0.000000e+000
      vertex -1.750000e+001  2.000000e+000  0.000000e+000
    endloop
  endfacet
  facet normal  7.730442e-016 -3.865221e-015 -1.000000e+000
    outer loop
      vertex -2.450000e+001  6.000000e+000 -2.087219e-014
      vertex -1.750000e+001  2.000000e+000  0.000000e+000
      vertex -2.750000e+001  7.105427e-015  0.000000e+000
    endloop
  endfacet
  facet normal -6.957398e-015  0.000000e+000 -1.000000e+000
    outer loop
      vertex -2.450000e+001  6.000000e+000 -2.087219e-014
      vertex -2.750000e+001  7.105427e-015  0.000000e+000
      vertex -2.750000e+001  3.400000e+001  0.000000e+000
    endloop
  endfacet
  facet normal -6.957398e-015  0.000000e+000 -1.000000e+000
    outer loop
      vertex -2.450000e+001  6.000000e+000 -2.087219e-014
      vertex -2.750000e+001  3.400000e+001  0.000000e+000
      vertex -2.450000e+001  3.000000e+001 -2.087219e-014
    endloop
  endfacet
  facet normal  0.000000e+000  0.000000e+000 -1.000000e+000
    outer loop
      vertex  2.750000e+001  3.400000e+001  0.000000e+000
      vertex  2.150000e+001  3.000000e+001  0.000000e+000
      vertex  2.350000e+001  3.400000e+001  0.000000e+000
    endloop
  endfacet
  facet normal  0.000000e+000  0.000000e+000 -1.000000e+000
    outer loop
      vertex  2.150000e+001  3.000000e+001  0.000000e+000
      vertex  2.750000e+001  3.400000e+001  0.000000e+000
      vertex  2.450000e+001  3.000000e+001  0.000000e+000
    endloop
  endfacet
  facet normal  0.000000e+000  0.000000e+000 -1.000000e+000
    outer loop
      vertex  2.450000e+001  3.000000e+001  0.000000e+000
      vertex  2.750000e+001  3.400000e+001  0.000000e+000
      vertex  2.750000e+001  0.000000e+000  0.000000e+000
    endloop
  endfacet
  facet normal  8.696747e-015  8.696747e-016 -1.000000e+000
    outer loop
      vertex  2.450000e+001  3.000000e+001  0.000000e+000
      vertex  2.750000e+001  0.000000e+000  0.000000e+000
      vertex  2.450000e+001  6.000000e+000 -2.087219e-014
    endloop
  endfacet
  facet normal  0.000000e+000 -3.478699e-015 -1.000000e+000
    outer loop
      vertex  2.450000e+001  6.000000e+000 -2.087219e-014
      vertex  2.750000e+001  0.000000e+000  0.000000e+000
      vertex  1.750000e+001  0.000000e+000  0.000000e+000
    endloop
  endfacet
  facet normal -2.981742e-015  0.000000e+000 -1.000000e+000
    outer loop
      vertex  2.450000e+001  6.000000e+000 -2.087219e-014
      vertex  1.750000e+001  0.000000e+000  0.000000e+000
      vertex  1.750000e+001  2.000000e+000  0.000000e+000
    endloop
  endfacet
  facet normal  -0.000000e+000  0.000000e+000 -1.000000e+000
    outer loop
      vertex -3.000000e+000  2.520000e+001  0.000000e+000
      vertex  0.000000e+000  2.520000e+001  0.000000e+000
      vertex -4.000000e+000  2.420000e+001  0.000000e+000
    endloop
  endfacet
  facet normal  0.000000e+000  0.000000e+000 -1.000000e+000
    outer loop
      vertex -4.000000e+000  2.420000e+001  0.000000e+000
      vertex  0.000000e+000  2.520000e+001  0.000000e+000
      vertex  3.000000e+000  2.520000e+001  0.000000e+000
    endloop
  endfacet
  facet normal  0.000000e+000  -0.000000e+000 -1.000000e+000
    outer loop
      vertex -4.000000e+000  2.420000e+001  0.000000e+000
      vertex  3.000000e+000  2.520000e+001  0.000000e+000
      vertex  4.000000e+000  2.420000e+001  0.000000e+000
    endloop
  endfacet
  facet normal  0.000000e+000  5.218048e-015 -1.000000e+000
    outer loop
      vertex -2.450000e+001  3.000000e+001 -2.087219e-014
      vertex -2.750000e+001  3.400000e+001  0.000000e+000
      vertex -2.150000e+001  3.000000e+001 -2.087219e-014
    endloop
  endfacet
  facet normal  0.000000e+000  5.218048e-015 -1.000000e+000
    outer loop
      vertex -2.150000e+001  3.000000e+001 -2.087219e-014
      vertex -2.750000e+001  3.400000e+001  0.000000e+000
      vertex -2.350000e+001  3.400000e+001  0.000000e+000
    endloop
  endfacet
  facet normal -1.000000e+000  0.000000e+000  0.000000e+000
    outer loop
      vertex  2.350000e+001  3.000000e+001  1.400000e+001
      vertex  2.350000e+001  3.000000e+001  1.000000e+000
      vertex  2.350000e+001  1.100000e+001  4.526646e+000
    endloop
  endfacet
  facet normal -1.000000e+000  0.000000e+000  0.000000e+000
    outer loop
      vertex  2.350000e+001  3.000000e+001  1.400000e+001
      vertex  2.350000e+001  1.100000e+001  4.526646e+000
      vertex  2.350000e+001  1.100000e+001  1.359316e+001
    endloop
  endfacet
  facet normal -1.000000e+000  0.000000e+000  0.000000e+000
    outer loop
      vertex  2.350000e+001  3.000000e+001  1.400000e+001
      vertex  2.350000e+001  1.100000e+001  1.359316e+001
      vertex  2.350000e+001  6.000000e+000  1.359316e+001
    endloop
  endfacet
  facet normal -1.000000e+000  0.000000e+000  0.000000e+000
    outer loop
      vertex  2.350000e+001  3.000000e+001  1.400000e+001
      vertex  2.350000e+001  6.000000e+000  1.359316e+001
      vertex  2.350000e+001  6.000000e+000  1.400000e+001
    endloop
  endfacet
  facet normal -1.000000e+000  0.000000e+000  0.000000e+000
    outer loop
      vertex  2.350000e+001  1.100000e+001  4.526646e+000
      vertex  2.350000e+001  3.000000e+001  1.000000e+000
      vertex  2.350000e+001  6.000000e+000  4.526646e+000
    endloop
  endfacet
  facet normal -1.000000e+000  0.000000e+000  0.000000e+000
    outer loop
      vertex  2.350000e+001  6.000000e+000  4.526646e+000
      vertex  2.350000e+001  3.000000e+001  1.000000e+000
      vertex  2.350000e+001  6.000000e+000  1.000000e+000
    endloop
  endfacet
  facet normal  0.000000e+000 -1.000000e+000  0.000000e+000
    outer loop
      vertex  2.150000e+001  3.000000e+001  1.500000e+001
      vertex  2.350000e+001  3.000000e+001  1.400000e+001
      vertex  2.450000e+001  3.000000e+001  1.500000e+001
    endloop
  endfacet
  facet normal  0.000000e+000 -1.000000e+000  0.000000e+000
    outer loop
      vertex  2.350000e+001  3.000000e+001  1.400000e+001
      vertex  2.150000e+001  3.000000e+001  1.500000e+001
      vertex  2.350000e+001  3.000000e+001  1.000000e+000
    endloop
  endfacet
  facet normal  -0.000000e+000 -1.000000e+000  0.000000e+000
    outer loop
      vertex  2.350000e+001  3.000000e+001  1.000000e+000
      vertex  2.150000e+001  3.000000e+001  1.500000e+001
      vertex  2.150000e+001  3.000000e+001  0.000000e+000
    endloop
  endfacet
  facet normal  0.000000e+000 -1.000000e+000  0.000000e+000
    outer loop
      vertex  2.350000e+001  3.000000e+001  1.000000e+000
      vertex  2.150000e+001  3.000000e+001  0.000000e+000
      vertex  2.450000e+001  3.000000e+001  0.000000e+000
    endloop
  endfacet
  facet normal  0.000000e+000  1.000000e+000  0.000000e+000
    outer loop
      vertex  2.350000e+001  6.000000e+000  1.000000e+000
      vertex  2.125000e+001  6.000000e+000  5.825684e+000
      vertex  2.350000e+001  6.000000e+000  4.526646e+000
    endloop
  endfacet
  facet normal  0.000000e+000  1.000000e+000  0.000000e+000
    outer loop
      vertex  4.000000e+000  6.000000e+000  4.070078e-013
      vertex  4.000000e+000  6.000000e+000  1.500000e+001
      vertex  2.125000e+001  6.000000e+000  1.359316e+001
    endloop
  endfacet
  facet normal  0.000000e+000  1.000000e+000  0.000000e+000
    outer loop
      vertex  4.000000e+000  6.000000e+000  4.070078e-013
      vertex  2.125000e+001  6.000000e+000  1.359316e+001
      vertex  2.125000e+001  6.000000e+000  9.174315e+000
    endloop
  endfacet
  facet normal  0.000000e+000  1.000000e+000  0.000000e+000
    outer loop
      vertex  4.000000e+000  6.000000e+000  4.070078e-013
      vertex  2.125000e+001  6.000000e+000  9.174315e+000
      vertex  2.125000e+001  6.000000e+000  5.825684e+000
    endloop
  endfacet
  facet normal  0.000000e+000  1.000000e+000  0.000000e+000
    outer loop
      vertex  4.000000e+000  6.000000e+000  4.070078e-013
      vertex  2.125000e+001  6.000000e+000  5.825684e+000
      vertex  2.350000e+001  6.000000e+000  1.000000e+000
    endloop
  endfacet
  facet normal  0.000000e+000  9.999999e-001  0.000000e+000
    outer loop
      vertex  4.000000e+000  6.000000e+000  4.070078e-013
      vertex  2.350000e+001  6.000000e+000  1.000000e+000
      vertex  2.450000e+001  6.000000e+000 -2.087219e-014
    endloop
  endfacet
  facet normal  0.000000e+000  1.000000e+000  0.000000e+000
    outer loop
      vertex  4.000000e+000  6.000000e+000  1.500000e+001
      vertex  2.450000e+001  6.000000e+000  1.500000e+001
      vertex  2.125000e+001  6.000000e+000  1.359316e+001
    endloop
  endfacet
  facet normal  0.000000e+000  1.000000e+000  0.000000e+000
    outer loop
      vertex  2.125000e+001  6.000000e+000  1.359316e+001
      vertex  2.450000e+001  6.000000e+000  1.500000e+001
      vertex  2.350000e+001  6.000000e+000  1.400000e+001
    endloop
  endfacet
  facet normal  0.000000e+000  1.000000e+000  0.000000e+000
    outer loop
      vertex  2.125000e+001  6.000000e+000  1.359316e+001
      vertex  2.350000e+001  6.000000e+000  1.400000e+001
      vertex  2.350000e+001  6.000000e+000  1.359316e+001
    endloop
  endfacet
  facet normal -7.071068e-001  0.000000e+000 -7.071068e-001
    outer loop
      vertex  2.450000e+001  6.000000e+000 -2.087219e-014
      vertex  2.350000e+001  6.000000e+000  1.000000e+000
      vertex  2.450000e+001  3.000000e+001  0.000000e+000
    endloop
  endfacet
  facet normal -7.071068e-001  0.000000e+000 -7.071068e-001
    outer loop
      vertex  2.450000e+001  3.000000e+001  0.000000e+000
      vertex  2.350000e+001  6.000000e+000  1.000000e+000
      vertex  2.350000e+001  3.000000e+001  1.000000e+000
    endloop
  endfacet
  facet normal  1.000000e+000  -0.000000e+000  0.000000e+000
    outer loop
      vertex -2.350000e+001  3.000000e+001  1.400000e+001
      vertex -2.350000e+001  6.000000e+000  1.400000e+001
      vertex -2.350000e+001  3.000000e+001  1.000000e+000
    endloop
  endfacet
  facet normal  1.000000e+000  0.000000e+000  0.000000e+000
    outer loop
      vertex -2.350000e+001  3.000000e+001  1.000000e+000
      vertex -2.350000e+001  6.000000e+000  1.400000e+001
      vertex -2.350000e+001  6.000000e+000  1.000000e+000
    endloop
  endfacet
  facet normal  0.000000e+000  9.999999e-001  -0.000000e+000
    outer loop
      vertex -4.000000e+000  6.000000e+000  1.500000e+001
      vertex -2.350000e+001  6.000000e+000  1.400000e+001
      vertex -2.450000e+001  6.000000e+000  1.500000e+001
    endloop
  endfacet
  facet normal  0.000000e+000  1.000000e+000  0.000000e+000
    outer loop
      vertex -2.350000e+001  6.000000e+000  1.400000e+001
      vertex -4.000000e+000  6.000000e+000  1.500000e+001
      vertex -2.350000e+001  6.000000e+000  1.000000e+000
    endloop
  endfacet
  facet normal  -0.000000e+000  1.000000e+000  0.000000e+000
    outer loop
      vertex -2.350000e+001  6.000000e+000  1.000000e+000
      vertex -4.000000e+000  6.000000e+000  1.500000e+001
      vertex -4.000000e+000  6.000000e+000  0.000000e+000
    endloop
  endfacet
  facet normal  0.000000e+000  9.999999e-001  0.000000e+000
    outer loop
      vertex -2.350000e+001  6.000000e+000  1.000000e+000
      vertex -4.000000e+000  6.000000e+000  0.000000e+000
      vertex -2.450000e+001  6.000000e+000 -2.087219e-014
    endloop
  endfacet
  facet normal  -0.000000e+000 -1.000000e+000  0.000000e+000
    outer loop
      vertex -2.350000e+001  3.000000e+001  1.400000e+001
      vertex -2.150000e+001  3.000000e+001  1.500000e+001
      vertex -2.450000e+001  3.000000e+001  1.500000e+001
    endloop
  endfacet
  facet normal  0.000000e+000 -1.000000e+000  0.000000e+000
    outer loop
      vertex -2.150000e+001  3.000000e+001  1.500000e+001
      vertex -2.350000e+001  3.000000e+001  1.400000e+001
      vertex -2.150000e+001  3.000000e+001 -2.087219e-014
    endloop
  endfacet
  facet normal  0.000000e+000 -1.000000e+000  0.000000e+000
    outer loop
      vertex -2.150000e+001  3.000000e+001 -2.087219e-014
      vertex -2.350000e+001  3.000000e+001  1.400000e+001
      vertex -2.350000e+001  3.000000e+001  1.000000e+000
    endloop
  endfacet
  facet normal  0.000000e+000 -1.000000e+000  -0.000000e+000
    outer loop
      vertex -2.150000e+001  3.000000e+001 -2.087219e-014
      vertex -2.350000e+001  3.000000e+001  1.000000e+000
      vertex -2.450000e+001  3.000000e+001 -2.087219e-014
    endloop
  endfacet
  facet normal  7.071068e-001  0.000000e+000 -7.071068e-001
    outer loop
      vertex -2.450000e+001  6.000000e+000 -2.087219e-014
      vertex -2.450000e+001  3.000000e+001 -2.087219e-014
      vertex -2.350000e+001  6.000000e+000  1.000000e+000
    endloop
  endfacet
  facet normal  7.071068e-001  0.000000e+000 -7.071068e-001
    outer loop
      vertex -2.350000e+001  6.000000e+000  1.000000e+000
      vertex -2.450000e+001  3.000000e+001 -2.087219e-014
      vertex -2.350000e+001  3.000000e+001  1.000000e+000
    endloop
  endfacet
  facet normal  8.944272e-001  4.472136e-001  0.000000e+000
    outer loop
      vertex -2.350000e+001  3.400000e+001  0.000000e+000
      vertex -2.350000e+001  3.400000e+001  1.500000e+001
      vertex -2.150000e+001  3.000000e+001 -2.087219e-014
    endloop
  endfacet
  facet normal  8.944272e-001  4.472136e-001  -0.000000e+000
    outer loop
      vertex -2.150000e+001  3.000000e+001 -2.087219e-014
      vertex -2.350000e+001  3.400000e+001  1.500000e+001
      vertex -2.150000e+001  3.000000e+001  1.500000e+001
    endloop
  endfacet
  facet normal -1.000000e+000  -0.000000e+000  0.000000e+000
    outer loop
      vertex -4.000000e+000  6.000000e+000  1.500000e+001
      vertex -4.000000e+000  2.420000e+001  1.500000e+001
      vertex -4.000000e+000  6.000000e+000  0.000000e+000
    endloop
  endfacet
  facet normal -1.000000e+000  0.000000e+000  0.000000e+000
    outer loop
      vertex -4.000000e+000  6.000000e+000  0.000000e+000
      vertex -4.000000e+000  2.420000e+001  1.500000e+001
      vertex -4.000000e+000  2.420000e+001  0.000000e+000
    endloop
  endfacet
  facet normal  0.000000e+000  0.000000e+000  1.000000e+000
    outer loop
      vertex -4.000000e+000  2.420000e+001  1.500000e+001
      vertex  0.000000e+000  2.520000e+001  1.500000e+001
      vertex -3.000000e+000  2.520000e+001  1.500000e+001
    endloop
  endfacet
  facet normal  -0.000000e+000  0.000000e+000  1.000000e+000
    outer loop
      vertex -1.750000e+001  2.000000e+000  1.500000e+001
      vertex -2.750000e+001  7.105427e-015  1.500000e+001
      vertex -1.750000e+001  0.000000e+000  1.500000e+001
    endloop
  endfacet
  facet normal  0.000000e+000  0.000000e+000  1.000000e+000
    outer loop
      vertex  1.750000e+001  2.000000e+000  1.500000e+001
      vertex  1.750000e+001  0.000000e+000  1.500000e+001
      vertex  2.450000e+001  6.000000e+000  1.500000e+001
    endloop
  endfacet
  facet normal  0.000000e+000  0.000000e+000  9.999999e-001
    outer loop
      vertex  1.750000e+001  2.000000e+000  1.500000e+001
      vertex  2.450000e+001  6.000000e+000  1.500000e+001
      vertex  4.000000e+000  6.000000e+000  1.500000e+001
    endloop
  endfacet
  facet normal  0.000000e+000  0.000000e+000  1.000000e+000
    outer loop
      vertex  1.750000e+001  2.000000e+000  1.500000e+001
      vertex  4.000000e+000  6.000000e+000  1.500000e+001
      vertex -4.000000e+000  6.000000e+000  1.500000e+001
    endloop
  endfacet
  facet normal  0.000000e+000  0.000000e+000  9.999999e-001
    outer loop
      vertex  1.750000e+001  2.000000e+000  1.500000e+001
      vertex -4.000000e+000  6.000000e+000  1.500000e+001
      vertex -2.450000e+001  6.000000e+000  1.500000e+001
    endloop
  endfacet
  facet normal  0.000000e+000  0.000000e+000  1.000000e+000
    outer loop
      vertex -2.450000e+001  6.000000e+000  1.500000e+001
      vertex -2.450000e+001  3.000000e+001  1.500000e+001
      vertex -2.750000e+001  3.400000e+001  1.500000e+001
    endloop
  endfacet
  facet normal  0.000000e+000  0.000000e+000  1.000000e+000
    outer loop
      vertex -2.450000e+001  6.000000e+000  1.500000e+001
      vertex -2.750000e+001  3.400000e+001  1.500000e+001
      vertex -2.750000e+001  7.105427e-015  1.500000e+001
    endloop
  endfacet
  facet normal  0.000000e+000  0.000000e+000  1.000000e+000
    outer loop
      vertex -2.450000e+001  6.000000e+000  1.500000e+001
      vertex -2.750000e+001  7.105427e-015  1.500000e+001
      vertex -1.750000e+001  2.000000e+000  1.500000e+001
    endloop
  endfacet
  facet normal  0.000000e+000  -0.000000e+000  1.000000e+000
    outer loop
      vertex -2.450000e+001  6.000000e+000  1.500000e+001
      vertex -1.750000e+001  2.000000e+000  1.500000e+001
      vertex  0.000000e+000  2.000000e+000  1.500000e+001
    endloop
  endfacet
  facet normal  0.000000e+000  -0.000000e+000  1.000000e+000
    outer loop
      vertex -2.450000e+001  6.000000e+000  1.500000e+001
      vertex  0.000000e+000  2.000000e+000  1.500000e+001
      vertex  1.750000e+001  2.000000e+000  1.500000e+001
    endloop
  endfacet
  facet normal  0.000000e+000  0.000000e+000  1.000000e+000
    outer loop
      vertex  2.350000e+001  3.400000e+001  1.500000e+001
      vertex  2.150000e+001  3.000000e+001  1.500000e+001
      vertex  2.750000e+001  3.400000e+001  1.500000e+001
    endloop
  endfacet
  facet normal  0.000000e+000  0.000000e+000  1.000000e+000
    outer loop
      vertex  2.750000e+001  3.400000e+001  1.500000e+001
      vertex  2.150000e+001  3.000000e+001  1.500000e+001
      vertex  2.450000e+001  3.000000e+001  1.500000e+001
    endloop
  endfacet
  facet normal  -0.000000e+000  0.000000e+000  1.000000e+000
    outer loop
      vertex  2.750000e+001  3.400000e+001  1.500000e+001
      vertex  2.450000e+001  3.000000e+001  1.500000e+001
      vertex  2.750000e+001  0.000000e+000  1.500000e+001
    endloop
  endfacet
  facet normal  0.000000e+000  0.000000e+000  1.000000e+000
    outer loop
      vertex  2.750000e+001  0.000000e+000  1.500000e+001
      vertex  2.450000e+001  3.000000e+001  1.500000e+001
      vertex  2.450000e+001  6.000000e+000  1.500000e+001
    endloop
  endfacet
  facet normal  0.000000e+000  0.000000e+000  1.000000e+000
    outer loop
      vertex  2.750000e+001  0.000000e+000  1.500000e+001
      vertex  2.450000e+001  6.000000e+000  1.500000e+001
      vertex  1.750000e+001  0.000000e+000  1.500000e+001
    endloop
  endfacet
  facet normal  -0.000000e+000  0.000000e+000  1.000000e+000
    outer loop
      vertex  3.000000e+000  2.520000e+001  1.500000e+001
      vertex  0.000000e+000  2.520000e+001  1.500000e+001
      vertex  4.000000e+000  2.420000e+001  1.500000e+001
    endloop
  endfacet
  facet normal  0.000000e+000  0.000000e+000  1.000000e+000
    outer loop
      vertex  4.000000e+000  2.420000e+001  1.500000e+001
      vertex  0.000000e+000  2.520000e+001  1.500000e+001
      vertex -4.000000e+000  2.420000e+001  1.500000e+001
    endloop
  endfacet
  facet normal  -0.000000e+000  0.000000e+000  1.000000e+000
    outer loop
      vertex  4.000000e+000  2.420000e+001  1.500000e+001
      vertex -4.000000e+000  2.420000e+001  1.500000e+001
      vertex  4.000000e+000  6.000000e+000  1.500000e+001
    endloop
  endfacet
  facet normal  0.000000e+000  0.000000e+000  1.000000e+000
    outer loop
      vertex  4.000000e+000  6.000000e+000  1.500000e+001
      vertex -4.000000e+000  2.420000e+001  1.500000e+001
      vertex -4.000000e+000  6.000000e+000  1.500000e+001
    endloop
  endfacet
  facet normal  0.000000e+000  0.000000e+000  1.000000e+000
    outer loop
      vertex -2.450000e+001  3.000000e+001  1.500000e+001
      vertex -2.150000e+001  3.000000e+001  1.500000e+001
      vertex -2.750000e+001  3.400000e+001  1.500000e+001
    endloop
  endfacet
  facet normal  -0.000000e+000  0.000000e+000  1.000000e+000
    outer loop
      vertex -2.750000e+001  3.400000e+001  1.500000e+001
      vertex -2.150000e+001  3.000000e+001  1.500000e+001
      vertex -2.350000e+001  3.400000e+001  1.500000e+001
    endloop
  endfacet
  facet normal  0.000000e+000  1.000000e+000  -0.000000e+000
    outer loop
      vertex -2.350000e+001  3.400000e+001  1.500000e+001
      vertex -2.350000e+001  3.400000e+001  0.000000e+000
      vertex -2.750000e+001  3.400000e+001  1.500000e+001
    endloop
  endfacet
  facet normal  0.000000e+000  1.000000e+000  0.000000e+000
    outer loop
      vertex -2.750000e+001  3.400000e+001  1.500000e+001
      vertex -2.350000e+001  3.400000e+001  0.000000e+000
      vertex -2.750000e+001  3.400000e+001  0.000000e+000
    endloop
  endfacet
  facet normal -7.105427e-016 -1.000000e+000  0.000000e+000
    outer loop
      vertex -2.750000e+001  7.105427e-015  1.500000e+001
      vertex -2.750000e+001  7.105427e-015  0.000000e+000
      vertex -1.750000e+001  0.000000e+000  1.500000e+001
    endloop
  endfacet
  facet normal -7.105427e-016 -1.000000e+000  -0.000000e+000
    outer loop
      vertex -1.750000e+001  0.000000e+000  1.500000e+001
      vertex -2.750000e+001  7.105427e-015  0.000000e+000
      vertex -1.750000e+001  0.000000e+000  0.000000e+000
    endloop
  endfacet
  facet normal  7.071068e-001  0.000000e+000  7.071068e-001
    outer loop
      vertex -2.450000e+001  6.000000e+000  1.500000e+001
      vertex -2.350000e+001  6.000000e+000  1.400000e+001
      vertex -2.450000e+001  3.000000e+001  1.500000e+001
    endloop
  endfacet
  facet normal  7.071068e-001  0.000000e+000  7.071068e-001
    outer loop
      vertex -2.450000e+001  3.000000e+001  1.500000e+001
      vertex -2.350000e+001  6.000000e+000  1.400000e+001
      vertex -2.350000e+001  3.000000e+001  1.400000e+001
    endloop
  endfacet
  facet normal  1.000000e+000  0.000000e+000  0.000000e+000
    outer loop
      vertex  4.000000e+000  6.000000e+000  1.500000e+001
      vertex  4.000000e+000  6.000000e+000  4.070078e-013
      vertex  4.000000e+000  2.420000e+001  1.500000e+001
    endloop
  endfacet
  facet normal  1.000000e+000  0.000000e+000  0.000000e+000
    outer loop
      vertex  4.000000e+000  2.420000e+001  1.500000e+001
      vertex  4.000000e+000  6.000000e+000  4.070078e-013
      vertex  4.000000e+000  2.420000e+001  0.000000e+000
    endloop
  endfacet
  facet normal -8.944272e-001  4.472136e-001  0.000000e+000
    outer loop
      vertex  2.350000e+001  3.400000e+001  0.000000e+000
      vertex  2.150000e+001  3.000000e+001  0.000000e+000
      vertex  2.350000e+001  3.400000e+001  1.500000e+001
    endloop
  endfacet
  facet normal -8.944272e-001  4.472136e-001  0.000000e+000
    outer loop
      vertex  2.350000e+001  3.400000e+001  1.500000e+001
      vertex  2.150000e+001  3.000000e+001  0.000000e+000
      vertex  2.150000e+001  3.000000e+001  1.500000e+001
    endloop
  endfacet
  facet normal  0.000000e+000 -1.000000e+000  0.000000e+000
    outer loop
      vertex  2.750000e+001  0.000000e+000  1.500000e+001
      vertex  1.750000e+001  0.000000e+000  1.500000e+001
      vertex  2.480056e+001  0.000000e+000  1.250938e+001
    endloop
  endfacet
  facet normal  0.000000e+000 -1.000000e+000  0.000000e+000
    outer loop
      vertex  2.750000e+001  0.000000e+000  1.500000e+001
      vertex  2.480056e+001  0.000000e+000  1.250938e+001
      vertex  2.509447e+001  0.000000e+000  1.235229e+001
    endloop
  endfacet
  facet normal  0.000000e+000 -1.000000e+000  0.000000e+000
    outer loop
      vertex  2.750000e+001  0.000000e+000  1.500000e+001
      vertex  2.509447e+001  0.000000e+000  1.235229e+001
      vertex  2.535208e+001  0.000000e+000  1.214087e+001
    endloop
  endfacet
  facet normal  0.000000e+000 -1.000000e+000  0.000000e+000
    outer loop
      vertex  2.750000e+001  0.000000e+000  1.500000e+001
      vertex  2.535208e+001  0.000000e+000  1.214087e+001
      vertex  2.556350e+001  0.000000e+000  1.188326e+001
    endloop
  endfacet
  facet normal  0.000000e+000 -1.000000e+000  0.000000e+000
    outer loop
      vertex  2.750000e+001  0.000000e+000  1.500000e+001
      vertex  2.556350e+001  0.000000e+000  1.188326e+001
      vertex  2.572059e+001  0.000000e+000  1.158935e+001
    endloop
  endfacet
  facet normal  0.000000e+000 -1.000000e+000  0.000000e+000
    outer loop
      vertex  2.750000e+001  0.000000e+000  1.500000e+001
      vertex  2.572059e+001  0.000000e+000  1.158935e+001
      vertex  2.581734e+001  0.000000e+000  1.127044e+001
    endloop
  endfacet
  facet normal  0.000000e+000 -1.000000e+000  0.000000e+000
    outer loop
      vertex  2.750000e+001  0.000000e+000  1.500000e+001
      vertex  2.581734e+001  0.000000e+000  1.127044e+001
      vertex  2.585000e+001  0.000000e+000  1.093879e+001
    endloop
  endfacet
  facet normal  0.000000e+000 -1.000000e+000  0.000000e+000
    outer loop
      vertex  2.750000e+001  0.000000e+000  1.500000e+001
      vertex  2.585000e+001  0.000000e+000  1.093879e+001
      vertex  2.750000e+001  0.000000e+000  0.000000e+000
    endloop
  endfacet
  facet normal  0.000000e+000 -1.000000e+000  0.000000e+000
    outer loop
      vertex  1.750000e+001  0.000000e+000  0.000000e+000
      vertex  2.509447e+001  0.000000e+000  6.086502e+000
      vertex  2.480056e+001  0.000000e+000  5.929405e+000
    endloop
  endfacet
  facet normal  0.000000e+000 -1.000000e+000  0.000000e+000
    outer loop
      vertex  1.750000e+001  0.000000e+000  0.000000e+000
      vertex  2.480056e+001  0.000000e+000  5.929405e+000
      vertex  2.448165e+001  0.000000e+000  5.832665e+000
    endloop
  endfacet
  facet normal  0.000000e+000 -9.999999e-001  0.000000e+000
    outer loop
      vertex  1.750000e+001  0.000000e+000  0.000000e+000
      vertex  2.448165e+001  0.000000e+000  5.832665e+000
      vertex  2.415000e+001  0.000000e+000  5.800000e+000
    endloop
  endfacet
  facet normal  -0.000000e+000 -1.000000e+000  0.000000e+000
    outer loop
      vertex  1.750000e+001  0.000000e+000  0.000000e+000
      vertex  2.415000e+001  0.000000e+000  5.800000e+000
      vertex  2.381835e+001  0.000000e+000  5.832665e+000
    endloop
  endfacet
  facet normal  -0.000000e+000 -1.000000e+000  0.000000e+000
    outer loop
      vertex  1.750000e+001  0.000000e+000  0.000000e+000
      vertex  2.381835e+001  0.000000e+000  5.832665e+000
      vertex  2.349944e+001  0.000000e+000  5.929405e+000
    endloop
  endfacet
  facet normal  -0.000000e+000 -1.000000e+000  0.000000e+000
    outer loop
      vertex  1.750000e+001  0.000000e+000  0.000000e+000
      vertex  2.349944e+001  0.000000e+000  5.929405e+000
      vertex  2.320553e+001  0.000000e+000  6.086502e+000
    endloop
  endfacet
  facet normal  -0.000000e+000 -1.000000e+000  0.000000e+000
    outer loop
      vertex  1.750000e+001  0.000000e+000  0.000000e+000
      vertex  2.320553e+001  0.000000e+000  6.086502e+000
      vertex  2.294792e+001  0.000000e+000  6.297918e+000
    endloop
  endfacet
  facet normal  -0.000000e+000 -1.000000e+000  0.000000e+000
    outer loop
      vertex  1.750000e+001  0.000000e+000  0.000000e+000
      vertex  2.294792e+001  0.000000e+000  6.297918e+000
      vertex  2.273650e+001  0.000000e+000  6.555531e+000
    endloop
  endfacet
  facet normal  -0.000000e+000 -9.999999e-001  0.000000e+000
    outer loop
      vertex  1.750000e+001  0.000000e+000  0.000000e+000
      vertex  2.273650e+001  0.000000e+000  6.555531e+000
      vertex  2.257940e+001  0.000000e+000  6.849438e+000
    endloop
  endfacet
  facet normal  -0.000000e+000 -1.000000e+000  0.000000e+000
    outer loop
      vertex  1.750000e+001  0.000000e+000  0.000000e+000
      vertex  2.257940e+001  0.000000e+000  6.849438e+000
      vertex  2.248266e+001  0.000000e+000  7.168346e+000
    endloop
  endfacet
  facet normal  -0.000000e+000 -9.999999e-001  0.000000e+000
    outer loop
      vertex  1.750000e+001  0.000000e+000  0.000000e+000
      vertex  2.248266e+001  0.000000e+000  7.168346e+000
      vertex  2.245000e+001  0.000000e+000  7.500000e+000
    endloop
  endfacet
  facet normal  -0.000000e+000 -1.000000e+000  0.000000e+000
    outer loop
      vertex  1.750000e+001  0.000000e+000  0.000000e+000
      vertex  2.245000e+001  0.000000e+000  7.500000e+000
      vertex  2.245000e+001  0.000000e+000  1.093879e+001
    endloop
  endfacet
  facet normal  -0.000000e+000 -1.000000e+000  0.000000e+000
    outer loop
      vertex  1.750000e+001  0.000000e+000  0.000000e+000
      vertex  2.245000e+001  0.000000e+000  1.093879e+001
      vertex  1.750000e+001  0.000000e+000  1.500000e+001
    endloop
  endfacet
  facet normal  0.000000e+000 -1.000000e+000  0.000000e+000
    outer loop
      vertex  2.750000e+001  0.000000e+000  0.000000e+000
      vertex  2.585000e+001  0.000000e+000  1.093879e+001
      vertex  2.585000e+001  0.000000e+000  7.500000e+000
    endloop
  endfacet
  facet normal  0.000000e+000 -1.000000e+000  -0.000000e+000
    outer loop
      vertex  2.750000e+001  0.000000e+000  0.000000e+000
      vertex  2.585000e+001  0.000000e+000  7.500000e+000
      vertex  2.581734e+001  0.000000e+000  7.168346e+000
    endloop
  endfacet
  facet normal  0.000000e+000 -1.000000e+000  -0.000000e+000
    outer loop
      vertex  2.750000e+001  0.000000e+000  0.000000e+000
      vertex  2.581734e+001  0.000000e+000  7.168346e+000
      vertex  2.572059e+001  0.000000e+000  6.849438e+000
    endloop
  endfacet
  facet normal  0.000000e+000 -1.000000e+000  -0.000000e+000
    outer loop
      vertex  2.750000e+001  0.000000e+000  0.000000e+000
      vertex  2.572059e+001  0.000000e+000  6.849438e+000
      vertex  2.556350e+001  0.000000e+000  6.555531e+000
    endloop
  endfacet
  facet normal  0.000000e+000 -1.000000e+000  -0.000000e+000
    outer loop
      vertex  2.750000e+001  0.000000e+000  0.000000e+000
      vertex  2.556350e+001  0.000000e+000  6.555531e+000
      vertex  2.535208e+001  0.000000e+000  6.297918e+000
    endloop
  endfacet
  facet normal  0.000000e+000 -1.000000e+000  -0.000000e+000
    outer loop
      vertex  2.750000e+001  0.000000e+000  0.000000e+000
      vertex  2.535208e+001  0.000000e+000  6.297918e+000
      vertex  2.509447e+001  0.000000e+000  6.086502e+000
    endloop
  endfacet
  facet normal  0.000000e+000 -1.000000e+000  -0.000000e+000
    outer loop
      vertex  2.750000e+001  0.000000e+000  0.000000e+000
      vertex  2.509447e+001  0.000000e+000  6.086502e+000
      vertex  1.750000e+001  0.000000e+000  0.000000e+000
    endloop
  endfacet
  facet normal  0.000000e+000 -1.000000e+000  0.000000e+000
    outer loop
      vertex  1.750000e+001  0.000000e+000  1.500000e+001
      vertex  2.245000e+001  0.000000e+000  1.093879e+001
      vertex  2.248266e+001  0.000000e+000  1.127044e+001
    endloop
  endfacet
  facet normal  0.000000e+000 -1.000000e+000  0.000000e+000
    outer loop
      vertex  1.750000e+001  0.000000e+000  1.500000e+001
      vertex  2.248266e+001  0.000000e+000  1.127044e+001
      vertex  2.257940e+001  0.000000e+000  1.158935e+001
    endloop
  endfacet
  facet normal  0.000000e+000 -1.000000e+000  0.000000e+000
    outer loop
      vertex  1.750000e+001  0.000000e+000  1.500000e+001
      vertex  2.257940e+001  0.000000e+000  1.158935e+001
      vertex  2.273650e+001  0.000000e+000  1.188326e+001
    endloop
  endfacet
  facet normal  0.000000e+000 -1.000000e+000  0.000000e+000
    outer loop
      vertex  1.750000e+001  0.000000e+000  1.500000e+001
      vertex  2.273650e+001  0.000000e+000  1.188326e+001
      vertex  2.294792e+001  0.000000e+000  1.214087e+001
    endloop
  endfacet
  facet normal  0.000000e+000 -1.000000e+000  0.000000e+000
    outer loop
      vertex  1.750000e+001  0.000000e+000  1.500000e+001
      vertex  2.294792e+001  0.000000e+000  1.214087e+001
      vertex  2.320553e+001  0.000000e+000  1.235229e+001
    endloop
  endfacet
  facet normal  0.000000e+000 -1.000000e+000  0.000000e+000
    outer loop
      vertex  1.750000e+001  0.000000e+000  1.500000e+001
      vertex  2.320553e+001  0.000000e+000  1.235229e+001
      vertex  2.349944e+001  0.000000e+000  1.250938e+001
    endloop
  endfacet
  facet normal  0.000000e+000 -1.000000e+000  0.000000e+000
    outer loop
      vertex  1.750000e+001  0.000000e+000  1.500000e+001
      vertex  2.349944e+001  0.000000e+000  1.250938e+001
      vertex  2.381835e+001  0.000000e+000  1.260612e+001
    endloop
  endfacet
  facet normal  0.000000e+000 -1.000000e+000  0.000000e+000
    outer loop
      vertex  1.750000e+001  0.000000e+000  1.500000e+001
      vertex  2.381835e+001  0.000000e+000  1.260612e+001
      vertex  2.415000e+001  0.000000e+000  1.263879e+001
    endloop
  endfacet
  facet normal  0.000000e+000 -1.000000e+000  0.000000e+000
    outer loop
      vertex  1.750000e+001  0.000000e+000  1.500000e+001
      vertex  2.415000e+001  0.000000e+000  1.263879e+001
      vertex  2.448165e+001  0.000000e+000  1.260612e+001
    endloop
  endfacet
  facet normal  0.000000e+000 -1.000000e+000  0.000000e+000
    outer loop
      vertex  1.750000e+001  0.000000e+000  1.500000e+001
      vertex  2.448165e+001  0.000000e+000  1.260612e+001
      vertex  2.480056e+001  0.000000e+000  1.250938e+001
    endloop
  endfacet
  facet normal  0.000000e+000  1.000000e+000  -0.000000e+000
    outer loop
      vertex  2.750000e+001  3.400000e+001  1.500000e+001
      vertex  2.750000e+001  3.400000e+001  0.000000e+000
      vertex  2.350000e+001  3.400000e+001  1.500000e+001
    endloop
  endfacet
  facet normal  0.000000e+000  1.000000e+000  0.000000e+000
    outer loop
      vertex  2.350000e+001  3.400000e+001  1.500000e+001
      vertex  2.750000e+001  3.400000e+001  0.000000e+000
      vertex  2.350000e+001  3.400000e+001  0.000000e+000
    endloop
  endfacet
  facet normal -7.071068e-001  0.000000e+000  7.071068e-001
    outer loop
      vertex  2.450000e+001  6.000000e+000  1.500000e+001
      vertex  2.450000e+001  3.000000e+001  1.500000e+001
      vertex  2.350000e+001  6.000000e+000  1.400000e+001
    endloop
  endfacet
  facet normal -7.071068e-001  0.000000e+000  7.071068e-001
    outer loop
      vertex  2.350000e+001  6.000000e+000  1.400000e+001
      vertex  2.450000e+001  3.000000e+001  1.500000e+001
      vertex  2.350000e+001  3.000000e+001  1.400000e+001
    endloop
  endfacet
  facet normal -1.000000e+000  0.000000e+000  0.000000e+000
    outer loop
      vertex  2.585000e+001  0.000000e+000  7.500000e+000
      vertex  2.585000e+001  0.000000e+000  1.093879e+001
      vertex  2.585000e+001  3.000000e+000  7.500000e+000
    endloop
  endfacet
  facet normal -1.000000e+000  0.000000e+000  0.000000e+000
    outer loop
      vertex  2.585000e+001  3.000000e+000  7.500000e+000
      vertex  2.585000e+001  0.000000e+000  1.093879e+001
      vertex  2.585000e+001  3.000000e+000  1.093879e+001
    endloop
  endfacet
  facet normal -9.801638e-002  0.000000e+000  9.951847e-001
    outer loop
      vertex  2.415000e+001  3.000000e+000  5.800000e+000
      vertex  2.448165e+001  0.000000e+000  5.832665e+000
      vertex  2.448165e+001  3.000000e+000  5.832665e+000
    endloop
  endfacet
  facet normal -2.902843e-001  0.000000e+000  9.569404e-001
    outer loop
      vertex  2.448165e+001  3.000000e+000  5.832665e+000
      vertex  2.448165e+001  0.000000e+000  5.832665e+000
      vertex  2.480056e+001  0.000000e+000  5.929405e+000
    endloop
  endfacet
  facet normal -2.902843e-001  0.000000e+000  9.569404e-001
    outer loop
      vertex  2.448165e+001  3.000000e+000  5.832665e+000
      vertex  2.480056e+001  0.000000e+000  5.929405e+000
      vertex  2.480056e+001  3.000000e+000  5.929405e+000
    endloop
  endfacet
  facet normal -4.713972e-001  0.000000e+000  8.819210e-001
    outer loop
      vertex  2.480056e+001  3.000000e+000  5.929405e+000
      vertex  2.480056e+001  0.000000e+000  5.929405e+000
      vertex  2.509447e+001  0.000000e+000  6.086502e+000
    endloop
  endfacet
  facet normal -4.713972e-001  0.000000e+000  8.819210e-001
    outer loop
      vertex  2.480056e+001  3.000000e+000  5.929405e+000
      vertex  2.509447e+001  0.000000e+000  6.086502e+000
      vertex  2.509447e+001  3.000000e+000  6.086502e+000
    endloop
  endfacet
  facet normal -6.343929e-001  0.000000e+000  7.730106e-001
    outer loop
      vertex  2.509447e+001  3.000000e+000  6.086502e+000
      vertex  2.509447e+001  0.000000e+000  6.086502e+000
      vertex  2.535208e+001  0.000000e+000  6.297918e+000
    endloop
  endfacet
  facet normal -6.343929e-001  0.000000e+000  7.730106e-001
    outer loop
      vertex  2.509447e+001  3.000000e+000  6.086502e+000
      vertex  2.535208e+001  0.000000e+000  6.297918e+000
      vertex  2.535208e+001  3.000000e+000  6.297918e+000
    endloop
  endfacet
  facet normal -7.730114e-001  0.000000e+000  6.343921e-001
    outer loop
      vertex  2.535208e+001  3.000000e+000  6.297918e+000
      vertex  2.535208e+001  0.000000e+000  6.297918e+000
      vertex  2.556350e+001  0.000000e+000  6.555531e+000
    endloop
  endfacet
  facet normal -7.730114e-001  0.000000e+000  6.343921e-001
    outer loop
      vertex  2.535208e+001  3.000000e+000  6.297918e+000
      vertex  2.556350e+001  0.000000e+000  6.555531e+000
      vertex  2.556350e+001  3.000000e+000  6.555531e+000
    endloop
  endfacet
  facet normal -8.819213e-001  0.000000e+000  4.713966e-001
    outer loop
      vertex  2.556350e+001  3.000000e+000  6.555531e+000
      vertex  2.556350e+001  0.000000e+000  6.555531e+000
      vertex  2.572059e+001  0.000000e+000  6.849438e+000
    endloop
  endfacet
  facet normal -8.819213e-001  0.000000e+000  4.713966e-001
    outer loop
      vertex  2.556350e+001  3.000000e+000  6.555531e+000
      vertex  2.572059e+001  0.000000e+000  6.849438e+000
      vertex  2.572059e+001  3.000000e+000  6.849438e+000
    endloop
  endfacet
  facet normal -9.569395e-001  0.000000e+000  2.902873e-001
    outer loop
      vertex  2.572059e+001  3.000000e+000  6.849438e+000
      vertex  2.572059e+001  0.000000e+000  6.849438e+000
      vertex  2.581734e+001  0.000000e+000  7.168346e+000
    endloop
  endfacet
  facet normal -9.569395e-001  0.000000e+000  2.902873e-001
    outer loop
      vertex  2.572059e+001  3.000000e+000  6.849438e+000
      vertex  2.581734e+001  0.000000e+000  7.168346e+000
      vertex  2.581734e+001  3.000000e+000  7.168346e+000
    endloop
  endfacet
  facet normal -9.951846e-001  0.000000e+000  9.801780e-002
    outer loop
      vertex  2.581734e+001  3.000000e+000  7.168346e+000
      vertex  2.581734e+001  0.000000e+000  7.168346e+000
      vertex  2.585000e+001  0.000000e+000  7.500000e+000
    endloop
  endfacet
  facet normal -9.951846e-001  0.000000e+000  9.801780e-002
    outer loop
      vertex  2.581734e+001  3.000000e+000  7.168346e+000
      vertex  2.585000e+001  0.000000e+000  7.500000e+000
      vertex  2.585000e+001  3.000000e+000  7.500000e+000
    endloop
  endfacet
  facet normal -9.801638e-002  0.000000e+000  9.951847e-001
    outer loop
      vertex  2.448165e+001  0.000000e+000  5.832665e+000
      vertex  2.415000e+001  3.000000e+000  5.800000e+000
      vertex  2.415000e+001  0.000000e+000  5.800000e+000
    endloop
  endfacet
  facet normal  9.801638e-002  -0.000000e+000  9.951847e-001
    outer loop
      vertex  2.415000e+001  0.000000e+000  5.800000e+000
      vertex  2.415000e+001  3.000000e+000  5.800000e+000
      vertex  2.381835e+001  3.000000e+000  5.832665e+000
    endloop
  endfacet
  facet normal  9.801638e-002  0.000000e+000  9.951847e-001
    outer loop
      vertex  2.415000e+001  0.000000e+000  5.800000e+000
      vertex  2.381835e+001  3.000000e+000  5.832665e+000
      vertex  2.381835e+001  0.000000e+000  5.832665e+000
    endloop
  endfacet
  facet normal  2.902843e-001  -0.000000e+000  9.569404e-001
    outer loop
      vertex  2.381835e+001  0.000000e+000  5.832665e+000
      vertex  2.381835e+001  3.000000e+000  5.832665e+000
      vertex  2.349944e+001  3.000000e+000  5.929405e+000
    endloop
  endfacet
  facet normal  2.902843e-001  0.000000e+000  9.569404e-001
    outer loop
      vertex  2.381835e+001  0.000000e+000  5.832665e+000
      vertex  2.349944e+001  3.000000e+000  5.929405e+000
      vertex  2.349944e+001  0.000000e+000  5.929405e+000
    endloop
  endfacet
  facet normal  4.713972e-001  -0.000000e+000  8.819210e-001
    outer loop
      vertex  2.349944e+001  0.000000e+000  5.929405e+000
      vertex  2.349944e+001  3.000000e+000  5.929405e+000
      vertex  2.320553e+001  3.000000e+000  6.086502e+000
    endloop
  endfacet
  facet normal  4.713972e-001  0.000000e+000  8.819210e-001
    outer loop
      vertex  2.349944e+001  0.000000e+000  5.929405e+000
      vertex  2.320553e+001  3.000000e+000  6.086502e+000
      vertex  2.320553e+001  0.000000e+000  6.086502e+000
    endloop
  endfacet
  facet normal  6.343929e-001  -0.000000e+000  7.730106e-001
    outer loop
      vertex  2.320553e+001  0.000000e+000  6.086502e+000
      vertex  2.320553e+001  3.000000e+000  6.086502e+000
      vertex  2.294792e+001  3.000000e+000  6.297918e+000
    endloop
  endfacet
  facet normal  6.343929e-001  0.000000e+000  7.730106e-001
    outer loop
      vertex  2.320553e+001  0.000000e+000  6.086502e+000
      vertex  2.294792e+001  3.000000e+000  6.297918e+000
      vertex  2.294792e+001  0.000000e+000  6.297918e+000
    endloop
  endfacet
  facet normal  7.730114e-001  -0.000000e+000  6.343921e-001
    outer loop
      vertex  2.294792e+001  0.000000e+000  6.297918e+000
      vertex  2.294792e+001  3.000000e+000  6.297918e+000
      vertex  2.273650e+001  3.000000e+000  6.555531e+000
    endloop
  endfacet
  facet normal  7.730114e-001  0.000000e+000  6.343921e-001
    outer loop
      vertex  2.294792e+001  0.000000e+000  6.297918e+000
      vertex  2.273650e+001  3.000000e+000  6.555531e+000
      vertex  2.273650e+001  0.000000e+000  6.555531e+000
    endloop
  endfacet
  facet normal  8.819213e-001  -0.000000e+000  4.713966e-001
    outer loop
      vertex  2.273650e+001  0.000000e+000  6.555531e+000
      vertex  2.273650e+001  3.000000e+000  6.555531e+000
      vertex  2.257940e+001  3.000000e+000  6.849438e+000
    endloop
  endfacet
  facet normal  8.819213e-001  0.000000e+000  4.713966e-001
    outer loop
      vertex  2.273650e+001  0.000000e+000  6.555531e+000
      vertex  2.257940e+001  3.000000e+000  6.849438e+000
      vertex  2.257940e+001  0.000000e+000  6.849438e+000
    endloop
  endfacet
  facet normal  9.569395e-001  -0.000000e+000  2.902873e-001
    outer loop
      vertex  2.257940e+001  0.000000e+000  6.849438e+000
      vertex  2.257940e+001  3.000000e+000  6.849438e+000
      vertex  2.248266e+001  3.000000e+000  7.168346e+000
    endloop
  endfacet
  facet normal  9.569395e-001  0.000000e+000  2.902873e-001
    outer loop
      vertex  2.257940e+001  0.000000e+000  6.849438e+000
      vertex  2.248266e+001  3.000000e+000  7.168346e+000
      vertex  2.248266e+001  0.000000e+000  7.168346e+000
    endloop
  endfacet
  facet normal  9.951852e-001  -0.000000e+000  9.801213e-002
    outer loop
      vertex  2.248266e+001  0.000000e+000  7.168346e+000
      vertex  2.248266e+001  3.000000e+000  7.168346e+000
      vertex  2.245000e+001  3.000000e+000  7.500000e+000
    endloop
  endfacet
  facet normal  9.951852e-001  0.000000e+000  9.801213e-002
    outer loop
      vertex  2.248266e+001  0.000000e+000  7.168346e+000
      vertex  2.245000e+001  3.000000e+000  7.500000e+000
      vertex  2.245000e+001  0.000000e+000  7.500000e+000
    endloop
  endfacet
  facet normal  9.801780e-002  0.000000e+000 -9.951846e-001
    outer loop
      vertex  2.415000e+001  3.000000e+000  1.263879e+001
      vertex  2.381835e+001  0.000000e+000  1.260612e+001
      vertex  2.381835e+001  3.000000e+000  1.260612e+001
    endloop
  endfacet
  facet normal  2.902843e-001  0.000000e+000 -9.569404e-001
    outer loop
      vertex  2.381835e+001  3.000000e+000  1.260612e+001
      vertex  2.381835e+001  0.000000e+000  1.260612e+001
      vertex  2.349944e+001  0.000000e+000  1.250938e+001
    endloop
  endfacet
  facet normal  2.902843e-001  0.000000e+000 -9.569404e-001
    outer loop
      vertex  2.381835e+001  3.000000e+000  1.260612e+001
      vertex  2.349944e+001  0.000000e+000  1.250938e+001
      vertex  2.349944e+001  3.000000e+000  1.250938e+001
    endloop
  endfacet
  facet normal  4.713972e-001  0.000000e+000 -8.819210e-001
    outer loop
      vertex  2.349944e+001  3.000000e+000  1.250938e+001
      vertex  2.349944e+001  0.000000e+000  1.250938e+001
      vertex  2.320553e+001  0.000000e+000  1.235229e+001
    endloop
  endfacet
  facet normal  4.713972e-001  0.000000e+000 -8.819210e-001
    outer loop
      vertex  2.349944e+001  3.000000e+000  1.250938e+001
      vertex  2.320553e+001  0.000000e+000  1.235229e+001
      vertex  2.320553e+001  3.000000e+000  1.235229e+001
    endloop
  endfacet
  facet normal  6.343938e-001  0.000000e+000 -7.730100e-001
    outer loop
      vertex  2.320553e+001  3.000000e+000  1.235229e+001
      vertex  2.320553e+001  0.000000e+000  1.235229e+001
      vertex  2.294792e+001  0.000000e+000  1.214087e+001
    endloop
  endfacet
  facet normal  6.343938e-001  0.000000e+000 -7.730100e-001
    outer loop
      vertex  2.320553e+001  3.000000e+000  1.235229e+001
      vertex  2.294792e+001  0.000000e+000  1.214087e+001
      vertex  2.294792e+001  3.000000e+000  1.214087e+001
    endloop
  endfacet
  facet normal  7.730114e-001  0.000000e+000 -6.343921e-001
    outer loop
      vertex  2.294792e+001  3.000000e+000  1.214087e+001
      vertex  2.294792e+001  0.000000e+000  1.214087e+001
      vertex  2.273650e+001  0.000000e+000  1.188326e+001
    endloop
  endfacet
  facet normal  7.730114e-001  0.000000e+000 -6.343921e-001
    outer loop
      vertex  2.294792e+001  3.000000e+000  1.214087e+001
      vertex  2.273650e+001  0.000000e+000  1.188326e+001
      vertex  2.273650e+001  3.000000e+000  1.188326e+001
    endloop
  endfacet
  facet normal  8.819210e-001  0.000000e+000 -4.713972e-001
    outer loop
      vertex  2.273650e+001  3.000000e+000  1.188326e+001
      vertex  2.273650e+001  0.000000e+000  1.188326e+001
      vertex  2.257940e+001  0.000000e+000  1.158935e+001
    endloop
  endfacet
  facet normal  8.819210e-001  0.000000e+000 -4.713972e-001
    outer loop
      vertex  2.273650e+001  3.000000e+000  1.188326e+001
      vertex  2.257940e+001  0.000000e+000  1.158935e+001
      vertex  2.257940e+001  3.000000e+000  1.158935e+001
    endloop
  endfacet
  facet normal  9.569396e-001  0.000000e+000 -2.902869e-001
    outer loop
      vertex  2.257940e+001  3.000000e+000  1.158935e+001
      vertex  2.257940e+001  0.000000e+000  1.158935e+001
      vertex  2.248266e+001  0.000000e+000  1.127044e+001
    endloop
  endfacet
  facet normal  9.569396e-001  0.000000e+000 -2.902869e-001
    outer loop
      vertex  2.257940e+001  3.000000e+000  1.158935e+001
      vertex  2.248266e+001  0.000000e+000  1.127044e+001
      vertex  2.248266e+001  3.000000e+000  1.127044e+001
    endloop
  endfacet
  facet normal  9.951852e-001  0.000000e+000 -9.801213e-002
    outer loop
      vertex  2.248266e+001  3.000000e+000  1.127044e+001
      vertex  2.248266e+001  0.000000e+000  1.127044e+001
      vertex  2.245000e+001  0.000000e+000  1.093879e+001
    endloop
  endfacet
  facet normal  9.951852e-001  0.000000e+000 -9.801213e-002
    outer loop
      vertex  2.248266e+001  3.000000e+000  1.127044e+001
      vertex  2.245000e+001  0.000000e+000  1.093879e+001
      vertex  2.245000e+001  3.000000e+000  1.093879e+001
    endloop
  endfacet
  facet normal  9.801780e-002  0.000000e+000 -9.951846e-001
    outer loop
      vertex  2.381835e+001  0.000000e+000  1.260612e+001
      vertex  2.415000e+001  3.000000e+000  1.263879e+001
      vertex  2.415000e+001  0.000000e+000  1.263879e+001
    endloop
  endfacet
  facet normal -9.801780e-002  0.000000e+000 -9.951846e-001
    outer loop
      vertex  2.415000e+001  0.000000e+000  1.263879e+001
      vertex  2.415000e+001  3.000000e+000  1.263879e+001
      vertex  2.448165e+001  3.000000e+000  1.260612e+001
    endloop
  endfacet
  facet normal -9.801780e-002  -0.000000e+000 -9.951846e-001
    outer loop
      vertex  2.415000e+001  0.000000e+000  1.263879e+001
      vertex  2.448165e+001  3.000000e+000  1.260612e+001
      vertex  2.448165e+001  0.000000e+000  1.260612e+001
    endloop
  endfacet
  facet normal -2.902843e-001  0.000000e+000 -9.569404e-001
    outer loop
      vertex  2.448165e+001  0.000000e+000  1.260612e+001
      vertex  2.448165e+001  3.000000e+000  1.260612e+001
      vertex  2.480056e+001  3.000000e+000  1.250938e+001
    endloop
  endfacet
  facet normal -2.902843e-001  -0.000000e+000 -9.569404e-001
    outer loop
      vertex  2.448165e+001  0.000000e+000  1.260612e+001
      vertex  2.480056e+001  3.000000e+000  1.250938e+001
      vertex  2.480056e+001  0.000000e+000  1.250938e+001
    endloop
  endfacet
  facet normal -4.713972e-001  0.000000e+000 -8.819210e-001
    outer loop
      vertex  2.480056e+001  0.000000e+000  1.250938e+001
      vertex  2.480056e+001  3.000000e+000  1.250938e+001
      vertex  2.509447e+001  3.000000e+000  1.235229e+001
    endloop
  endfacet
  facet normal -4.713972e-001  -0.000000e+000 -8.819210e-001
    outer loop
      vertex  2.480056e+001  0.000000e+000  1.250938e+001
      vertex  2.509447e+001  3.000000e+000  1.235229e+001
      vertex  2.509447e+001  0.000000e+000  1.235229e+001
    endloop
  endfacet
  facet normal -6.343938e-001  0.000000e+000 -7.730100e-001
    outer loop
      vertex  2.509447e+001  0.000000e+000  1.235229e+001
      vertex  2.509447e+001  3.000000e+000  1.235229e+001
      vertex  2.535208e+001  3.000000e+000  1.214087e+001
    endloop
  endfacet
  facet normal -6.343938e-001  -0.000000e+000 -7.730100e-001
    outer loop
      vertex  2.509447e+001  0.000000e+000  1.235229e+001
      vertex  2.535208e+001  3.000000e+000  1.214087e+001
      vertex  2.535208e+001  0.000000e+000  1.214087e+001
    endloop
  endfacet
  facet normal -7.730114e-001  0.000000e+000 -6.343921e-001
    outer loop
      vertex  2.535208e+001  0.000000e+000  1.214087e+001
      vertex  2.535208e+001  3.000000e+000  1.214087e+001
      vertex  2.556350e+001  3.000000e+000  1.188326e+001
    endloop
  endfacet
  facet normal -7.730114e-001  -0.000000e+000 -6.343921e-001
    outer loop
      vertex  2.535208e+001  0.000000e+000  1.214087e+001
      vertex  2.556350e+001  3.000000e+000  1.188326e+001
      vertex  2.556350e+001  0.000000e+000  1.188326e+001
    endloop
  endfacet
  facet normal -8.819210e-001  0.000000e+000 -4.713972e-001
    outer loop
      vertex  2.556350e+001  0.000000e+000  1.188326e+001
      vertex  2.556350e+001  3.000000e+000  1.188326e+001
      vertex  2.572059e+001  3.000000e+000  1.158935e+001
    endloop
  endfacet
  facet normal -8.819210e-001  -0.000000e+000 -4.713972e-001
    outer loop
      vertex  2.556350e+001  0.000000e+000  1.188326e+001
      vertex  2.572059e+001  3.000000e+000  1.158935e+001
      vertex  2.572059e+001  0.000000e+000  1.158935e+001
    endloop
  endfacet
  facet normal -9.569396e-001  0.000000e+000 -2.902869e-001
    outer loop
      vertex  2.572059e+001  0.000000e+000  1.158935e+001
      vertex  2.572059e+001  3.000000e+000  1.158935e+001
      vertex  2.581734e+001  3.000000e+000  1.127044e+001
    endloop
  endfacet
  facet normal -9.569396e-001  -0.000000e+000 -2.902869e-001
    outer loop
      vertex  2.572059e+001  0.000000e+000  1.158935e+001
      vertex  2.581734e+001  3.000000e+000  1.127044e+001
      vertex  2.581734e+001  0.000000e+000  1.127044e+001
    endloop
  endfacet
  facet normal -9.951846e-001  0.000000e+000 -9.801780e-002
    outer loop
      vertex  2.581734e+001  0.000000e+000  1.127044e+001
      vertex  2.581734e+001  3.000000e+000  1.127044e+001
      vertex  2.585000e+001  3.000000e+000  1.093879e+001
    endloop
  endfacet
  facet normal -9.951846e-001  -0.000000e+000 -9.801780e-002
    outer loop
      vertex  2.581734e+001  0.000000e+000  1.127044e+001
      vertex  2.585000e+001  3.000000e+000  1.093879e+001
      vertex  2.585000e+001  0.000000e+000  1.093879e+001
    endloop
  endfacet
  facet normal  1.000000e+000  0.000000e+000  0.000000e+000
    outer loop
      vertex  2.245000e+001  0.000000e+000  7.500000e+000
      vertex  2.245000e+001  3.000000e+000  7.500000e+000
      vertex  2.245000e+001  0.000000e+000  1.093879e+001
    endloop
  endfacet
  facet normal  1.000000e+000  -0.000000e+000  0.000000e+000
    outer loop
      vertex  2.245000e+001  0.000000e+000  1.093879e+001
      vertex  2.245000e+001  3.000000e+000  7.500000e+000
      vertex  2.245000e+001  3.000000e+000  1.093879e+001
    endloop
  endfacet
  facet normal  9.999999e-001  0.000000e+000  0.000000e+000
    outer loop
      vertex  2.125000e+001  6.000000e+000  5.825684e+000
      vertex  2.125000e+001  6.000000e+000  9.174315e+000
      vertex  2.125000e+001  3.000000e+000  5.825684e+000
    endloop
  endfacet
  facet normal  9.999999e-001  0.000000e+000  0.000000e+000
    outer loop
      vertex  2.125000e+001  3.000000e+000  5.825684e+000
      vertex  2.125000e+001  6.000000e+000  9.174315e+000
      vertex  2.125000e+001  3.000000e+000  9.174315e+000
    endloop
  endfacet
  facet normal  1.000000e+000  0.000000e+000  0.000000e+000
    outer loop
      vertex  2.125000e+001  6.000000e+000  9.174315e+000
      vertex  2.125000e+001  6.000000e+000  1.359316e+001
      vertex  2.125000e+001  3.000000e+000  9.174315e+000
    endloop
  endfacet
  facet normal  1.000000e+000  0.000000e+000  0.000000e+000
    outer loop
      vertex  2.125000e+001  3.000000e+000  9.174315e+000
      vertex  2.125000e+001  6.000000e+000  1.359316e+001
      vertex  2.125000e+001  3.000000e+000  1.359316e+001
    endloop
  endfacet
  facet normal  0.000000e+000  0.000000e+000 -1.000000e+000
    outer loop
      vertex  2.125000e+001  3.000000e+000  1.359316e+001
      vertex  2.125000e+001  6.000000e+000  1.359316e+001
      vertex  2.705000e+001  3.000000e+000  1.359316e+001
    endloop
  endfacet
  facet normal  0.000000e+000  0.000000e+000 -1.000000e+000
    outer loop
      vertex  2.705000e+001  3.000000e+000  1.359316e+001
      vertex  2.125000e+001  6.000000e+000  1.359316e+001
      vertex  2.350000e+001  6.000000e+000  1.359316e+001
    endloop
  endfacet
  facet normal  0.000000e+000  0.000000e+000 -1.000000e+000
    outer loop
      vertex  2.705000e+001  3.000000e+000  1.359316e+001
      vertex  2.350000e+001  6.000000e+000  1.359316e+001
      vertex  2.705000e+001  1.100000e+001  1.359316e+001
    endloop
  endfacet
  facet normal  -0.000000e+000  0.000000e+000 -1.000000e+000
    outer loop
      vertex  2.705000e+001  1.100000e+001  1.359316e+001
      vertex  2.350000e+001  6.000000e+000  1.359316e+001
      vertex  2.350000e+001  1.100000e+001  1.359316e+001
    endloop
  endfacet
  facet normal  5.000000e-001  0.000000e+000  8.660253e-001
    outer loop
      vertex  2.415000e+001  1.100000e+001  4.151369e+000
      vertex  2.350000e+001  1.100000e+001  4.526646e+000
      vertex  2.415000e+001  3.000000e+000  4.151369e+000
    endloop
  endfacet
  facet normal  5.000001e-001  0.000000e+000  8.660254e-001
    outer loop
      vertex  2.415000e+001  3.000000e+000  4.151369e+000
      vertex  2.350000e+001  1.100000e+001  4.526646e+000
      vertex  2.350000e+001  6.000000e+000  4.526646e+000
    endloop
  endfacet
  facet normal  5.000000e-001 -2.373294e-008  8.660254e-001
    outer loop
      vertex  2.415000e+001  3.000000e+000  4.151369e+000
      vertex  2.350000e+001  6.000000e+000  4.526646e+000
      vertex  2.125000e+001  3.000000e+000  5.825684e+000
    endloop
  endfacet
  facet normal  4.999999e-001  -0.000000e+000  8.660254e-001
    outer loop
      vertex  2.125000e+001  3.000000e+000  5.825684e+000
      vertex  2.350000e+001  6.000000e+000  4.526646e+000
      vertex  2.125000e+001  6.000000e+000  5.825684e+000
    endloop
  endfacet
  facet normal  0.000000e+000 -1.000000e+000  0.000000e+000
    outer loop
      vertex  2.350000e+001  1.100000e+001  1.359316e+001
      vertex  2.350000e+001  1.100000e+001  4.526646e+000
      vertex  2.705000e+001  1.100000e+001  1.359316e+001
    endloop
  endfacet
  facet normal  0.000000e+000 -9.999999e-001  -0.000000e+000
    outer loop
      vertex  2.705000e+001  1.100000e+001  1.359316e+001
      vertex  2.350000e+001  1.100000e+001  4.526646e+000
      vertex  2.705000e+001  1.100000e+001  9.174315e+000
    endloop
  endfacet
  facet normal  0.000000e+000 -1.000000e+000  0.000000e+000
    outer loop
      vertex  2.350000e+001  1.100000e+001  4.526646e+000
      vertex  2.415000e+001  1.100000e+001  4.151369e+000
      vertex  2.705000e+001  1.100000e+001  9.174315e+000
    endloop
  endfacet
  facet normal  0.000000e+000 -1.000000e+000  -0.000000e+000
    outer loop
      vertex  2.705000e+001  1.100000e+001  9.174315e+000
      vertex  2.415000e+001  1.100000e+001  4.151369e+000
      vertex  2.705000e+001  1.100000e+001  5.825684e+000
    endloop
  endfacet
  facet normal  0.000000e+000  1.000000e+000  0.000000e+000
    outer loop
      vertex  2.705000e+001  3.000000e+000  9.174315e+000
      vertex  2.585000e+001  3.000000e+000  7.500000e+000
      vertex  2.585000e+001  3.000000e+000  1.093879e+001
    endloop
  endfacet
  facet normal  -0.000000e+000  1.000000e+000  -0.000000e+000
    outer loop
      vertex  2.705000e+001  3.000000e+000  9.174315e+000
      vertex  2.585000e+001  3.000000e+000  1.093879e+001
      vertex  2.581734e+001  3.000000e+000  1.127044e+001
    endloop
  endfacet
  facet normal  -0.000000e+000  1.000000e+000  -0.000000e+000
    outer loop
      vertex  2.705000e+001  3.000000e+000  9.174315e+000
      vertex  2.581734e+001  3.000000e+000  1.127044e+001
      vertex  2.572059e+001  3.000000e+000  1.158935e+001
    endloop
  endfacet
  facet normal  0.000000e+000  1.000000e+000  0.000000e+000
    outer loop
      vertex  2.125000e+001  3.000000e+000  9.174315e+000
      vertex  2.257940e+001  3.000000e+000  1.158935e+001
      vertex  2.248266e+001  3.000000e+000  1.127044e+001
    endloop
  endfacet
  facet normal  0.000000e+000  1.000000e+000  0.000000e+000
    outer loop
      vertex  2.125000e+001  3.000000e+000  9.174315e+000
      vertex  2.248266e+001  3.000000e+000  1.127044e+001
      vertex  2.245000e+001  3.000000e+000  1.093879e+001
    endloop
  endfacet
  facet normal  0.000000e+000  1.000000e+000  0.000000e+000
    outer loop
      vertex  2.125000e+001  3.000000e+000  9.174315e+000
      vertex  2.245000e+001  3.000000e+000  1.093879e+001
      vertex  2.245000e+001  3.000000e+000  7.500000e+000
    endloop
  endfacet
  facet normal  0.000000e+000  1.000000e+000  0.000000e+000
    outer loop
      vertex  2.125000e+001  3.000000e+000  9.174315e+000
      vertex  2.245000e+001  3.000000e+000  7.500000e+000
      vertex  2.125000e+001  3.000000e+000  5.825684e+000
    endloop
  endfacet
  facet normal  0.000000e+000  1.000000e+000  -0.000000e+000
    outer loop
      vertex  2.705000e+001  3.000000e+000  1.359316e+001
      vertex  2.705000e+001  3.000000e+000  9.174315e+000
      vertex  2.572059e+001  3.000000e+000  1.158935e+001
    endloop
  endfacet
  facet normal  0.000000e+000  1.000000e+000  -0.000000e+000
    outer loop
      vertex  2.705000e+001  3.000000e+000  1.359316e+001
      vertex  2.572059e+001  3.000000e+000  1.158935e+001
      vertex  2.556350e+001  3.000000e+000  1.188326e+001
    endloop
  endfacet
  facet normal  0.000000e+000  9.999999e-001  -0.000000e+000
    outer loop
      vertex  2.705000e+001  3.000000e+000  1.359316e+001
      vertex  2.556350e+001  3.000000e+000  1.188326e+001
      vertex  2.535208e+001  3.000000e+000  1.214087e+001
    endloop
  endfacet
  facet normal  0.000000e+000  9.999999e-001  -0.000000e+000
    outer loop
      vertex  2.705000e+001  3.000000e+000  1.359316e+001
      vertex  2.535208e+001  3.000000e+000  1.214087e+001
      vertex  2.509447e+001  3.000000e+000  1.235229e+001
    endloop
  endfacet
  facet normal  0.000000e+000  1.000000e+000  -0.000000e+000
    outer loop
      vertex  2.705000e+001  3.000000e+000  1.359316e+001
      vertex  2.509447e+001  3.000000e+000  1.235229e+001
      vertex  2.480056e+001  3.000000e+000  1.250938e+001
    endloop
  endfacet
  facet normal  0.000000e+000  1.000000e+000  -0.000000e+000
    outer loop
      vertex  2.705000e+001  3.000000e+000  1.359316e+001
      vertex  2.480056e+001  3.000000e+000  1.250938e+001
      vertex  2.448165e+001  3.000000e+000  1.260612e+001
    endloop
  endfacet
  facet normal  0.000000e+000  1.000000e+000  -0.000000e+000
    outer loop
      vertex  2.705000e+001  3.000000e+000  1.359316e+001
      vertex  2.448165e+001  3.000000e+000  1.260612e+001
      vertex  2.415000e+001  3.000000e+000  1.263879e+001
    endloop
  endfacet
  facet normal  0.000000e+000  1.000000e+000  -0.000000e+000
    outer loop
      vertex  2.705000e+001  3.000000e+000  1.359316e+001
      vertex  2.415000e+001  3.000000e+000  1.263879e+001
      vertex  2.125000e+001  3.000000e+000  1.359316e+001
    endloop
  endfacet
  facet normal  0.000000e+000  1.000000e+000  0.000000e+000
    outer loop
      vertex  2.705000e+001  3.000000e+000  5.825684e+000
      vertex  2.415000e+001  3.000000e+000  4.151369e+000
      vertex  2.415000e+001  3.000000e+000  5.800000e+000
    endloop
  endfacet
  facet normal  0.000000e+000  1.000000e+000  0.000000e+000
    outer loop
      vertex  2.705000e+001  3.000000e+000  5.825684e+000
      vertex  2.415000e+001  3.000000e+000  5.800000e+000
      vertex  2.448165e+001  3.000000e+000  5.832665e+000
    endloop
  endfacet
  facet normal  -0.000000e+000  1.000000e+000  0.000000e+000
    outer loop
      vertex  2.705000e+001  3.000000e+000  5.825684e+000
      vertex  2.448165e+001  3.000000e+000  5.832665e+000
      vertex  2.480056e+001  3.000000e+000  5.929405e+000
    endloop
  endfacet
  facet normal  -0.000000e+000  1.000000e+000  0.000000e+000
    outer loop
      vertex  2.705000e+001  3.000000e+000  5.825684e+000
      vertex  2.480056e+001  3.000000e+000  5.929405e+000
      vertex  2.509447e+001  3.000000e+000  6.086502e+000
    endloop
  endfacet
  facet normal  -0.000000e+000  1.000000e+000  0.000000e+000
    outer loop
      vertex  2.705000e+001  3.000000e+000  5.825684e+000
      vertex  2.509447e+001  3.000000e+000  6.086502e+000
      vertex  2.535208e+001  3.000000e+000  6.297918e+000
    endloop
  endfacet
  facet normal  -0.000000e+000  1.000000e+000  0.000000e+000
    outer loop
      vertex  2.705000e+001  3.000000e+000  5.825684e+000
      vertex  2.535208e+001  3.000000e+000  6.297918e+000
      vertex  2.556350e+001  3.000000e+000  6.555531e+000
    endloop
  endfacet
  facet normal  -0.000000e+000  1.000000e+000  0.000000e+000
    outer loop
      vertex  2.705000e+001  3.000000e+000  5.825684e+000
      vertex  2.556350e+001  3.000000e+000  6.555531e+000
      vertex  2.572059e+001  3.000000e+000  6.849438e+000
    endloop
  endfacet
  facet normal  -0.000000e+000  1.000000e+000  0.000000e+000
    outer loop
      vertex  2.705000e+001  3.000000e+000  5.825684e+000
      vertex  2.572059e+001  3.000000e+000  6.849438e+000
      vertex  2.581734e+001  3.000000e+000  7.168346e+000
    endloop
  endfacet
  facet normal  -0.000000e+000  1.000000e+000  0.000000e+000
    outer loop
      vertex  2.705000e+001  3.000000e+000  5.825684e+000
      vertex  2.581734e+001  3.000000e+000  7.168346e+000
      vertex  2.585000e+001  3.000000e+000  7.500000e+000
    endloop
  endfacet
  facet normal  -0.000000e+000  1.000000e+000  0.000000e+000
    outer loop
      vertex  2.705000e+001  3.000000e+000  5.825684e+000
      vertex  2.585000e+001  3.000000e+000  7.500000e+000
      vertex  2.705000e+001  3.000000e+000  9.174315e+000
    endloop
  endfacet
  facet normal  0.000000e+000  1.000000e+000  0.000000e+000
    outer loop
      vertex  2.125000e+001  3.000000e+000  1.359316e+001
      vertex  2.415000e+001  3.000000e+000  1.263879e+001
      vertex  2.381835e+001  3.000000e+000  1.260612e+001
    endloop
  endfacet
  facet normal  0.000000e+000  1.000000e+000  0.000000e+000
    outer loop
      vertex  2.125000e+001  3.000000e+000  1.359316e+001
      vertex  2.381835e+001  3.000000e+000  1.260612e+001
      vertex  2.349944e+001  3.000000e+000  1.250938e+001
    endloop
  endfacet
  facet normal  0.000000e+000  1.000000e+000  0.000000e+000
    outer loop
      vertex  2.125000e+001  3.000000e+000  1.359316e+001
      vertex  2.349944e+001  3.000000e+000  1.250938e+001
      vertex  2.320553e+001  3.000000e+000  1.235229e+001
    endloop
  endfacet
  facet normal  0.000000e+000  9.999999e-001  0.000000e+000
    outer loop
      vertex  2.125000e+001  3.000000e+000  1.359316e+001
      vertex  2.320553e+001  3.000000e+000  1.235229e+001
      vertex  2.294792e+001  3.000000e+000  1.214087e+001
    endloop
  endfacet
  facet normal  0.000000e+000  9.999999e-001  0.000000e+000
    outer loop
      vertex  2.125000e+001  3.000000e+000  1.359316e+001
      vertex  2.294792e+001  3.000000e+000  1.214087e+001
      vertex  2.273650e+001  3.000000e+000  1.188326e+001
    endloop
  endfacet
  facet normal  0.000000e+000  1.000000e+000  0.000000e+000
    outer loop
      vertex  2.125000e+001  3.000000e+000  1.359316e+001
      vertex  2.273650e+001  3.000000e+000  1.188326e+001
      vertex  2.257940e+001  3.000000e+000  1.158935e+001
    endloop
  endfacet
  facet normal  0.000000e+000  1.000000e+000  0.000000e+000
    outer loop
      vertex  2.125000e+001  3.000000e+000  1.359316e+001
      vertex  2.257940e+001  3.000000e+000  1.158935e+001
      vertex  2.125000e+001  3.000000e+000  9.174315e+000
    endloop
  endfacet
  facet normal  0.000000e+000  1.000000e+000  0.000000e+000
    outer loop
      vertex  2.125000e+001  3.000000e+000  5.825684e+000
      vertex  2.245000e+001  3.000000e+000  7.500000e+000
      vertex  2.248266e+001  3.000000e+000  7.168346e+000
    endloop
  endfacet
  facet normal  0.000000e+000  1.000000e+000  0.000000e+000
    outer loop
      vertex  2.125000e+001  3.000000e+000  5.825684e+000
      vertex  2.248266e+001  3.000000e+000  7.168346e+000
      vertex  2.257940e+001  3.000000e+000  6.849438e+000
    endloop
  endfacet
  facet normal  0.000000e+000  1.000000e+000  0.000000e+000
    outer loop
      vertex  2.125000e+001  3.000000e+000  5.825684e+000
      vertex  2.257940e+001  3.000000e+000  6.849438e+000
      vertex  2.273650e+001  3.000000e+000  6.555531e+000
    endloop
  endfacet
  facet normal  0.000000e+000  1.000000e+000  0.000000e+000
    outer loop
      vertex  2.125000e+001  3.000000e+000  5.825684e+000
      vertex  2.273650e+001  3.000000e+000  6.555531e+000
      vertex  2.294792e+001  3.000000e+000  6.297918e+000
    endloop
  endfacet
  facet normal  0.000000e+000  1.000000e+000  0.000000e+000
    outer loop
      vertex  2.125000e+001  3.000000e+000  5.825684e+000
      vertex  2.294792e+001  3.000000e+000  6.297918e+000
      vertex  2.320553e+001  3.000000e+000  6.086502e+000
    endloop
  endfacet
  facet normal  0.000000e+000  1.000000e+000  0.000000e+000
    outer loop
      vertex  2.125000e+001  3.000000e+000  5.825684e+000
      vertex  2.320553e+001  3.000000e+000  6.086502e+000
      vertex  2.349944e+001  3.000000e+000  5.929405e+000
    endloop
  endfacet
  facet normal  0.000000e+000  1.000000e+000  0.000000e+000
    outer loop
      vertex  2.125000e+001  3.000000e+000  5.825684e+000
      vertex  2.349944e+001  3.000000e+000  5.929405e+000
      vertex  2.381835e+001  3.000000e+000  5.832665e+000
    endloop
  endfacet
  facet normal  0.000000e+000  1.000000e+000  0.000000e+000
    outer loop
      vertex  2.125000e+001  3.000000e+000  5.825684e+000
      vertex  2.381835e+001  3.000000e+000  5.832665e+000
      vertex  2.415000e+001  3.000000e+000  5.800000e+000
    endloop
  endfacet
  facet normal  0.000000e+000  1.000000e+000  0.000000e+000
    outer loop
      vertex  2.125000e+001  3.000000e+000  5.825684e+000
      vertex  2.415000e+001  3.000000e+000  5.800000e+000
      vertex  2.415000e+001  3.000000e+000  4.151369e+000
    endloop
  endfacet
  facet normal -5.000000e-001  0.000000e+000  8.660254e-001
    outer loop
      vertex  2.705000e+001  1.100000e+001  5.825684e+000
      vertex  2.415000e+001  1.100000e+001  4.151369e+000
      vertex  2.705000e+001  3.000000e+000  5.825684e+000
    endloop
  endfacet
  facet normal -5.000000e-001  0.000000e+000  8.660254e-001
    outer loop
      vertex  2.705000e+001  3.000000e+000  5.825684e+000
      vertex  2.415000e+001  1.100000e+001  4.151369e+000
      vertex  2.415000e+001  3.000000e+000  4.151369e+000
    endloop
  endfacet
  facet normal -1.000000e+000  0.000000e+000  0.000000e+000
    outer loop
      vertex  2.705000e+001  1.100000e+001  9.174315e+000
      vertex  2.705000e+001  1.100000e+001  5.825684e+000
      vertex  2.705000e+001  3.000000e+000  9.174315e+000
    endloop
  endfacet
  facet normal -1.000000e+000  0.000000e+000  0.000000e+000
    outer loop
      vertex  2.705000e+001  3.000000e+000  9.174315e+000
      vertex  2.705000e+001  1.100000e+001  5.825684e+000
      vertex  2.705000e+001  3.000000e+000  5.825684e+000
    endloop
  endfacet
  facet normal -1.000000e+000  0.000000e+000  0.000000e+000
    outer loop
      vertex  2.705000e+001  1.100000e+001  1.359316e+001
      vertex  2.705000e+001  1.100000e+001  9.174315e+000
      vertex  2.705000e+001  3.000000e+000  1.359316e+001
    endloop
  endfacet
  facet normal -1.000000e+000  0.000000e+000  0.000000e+000
    outer loop
      vertex  2.705000e+001  3.000000e+000  1.359316e+001
      vertex  2.705000e+001  1.100000e+001  9.174315e+000
      vertex  2.705000e+001  3.000000e+000  9.174315e+000
    endloop
  endfacet
  facet normal -7.071068e-001  7.071068e-001  0.000000e+000
    outer loop
      vertex -4.000000e+000  2.420000e+001  0.000000e+000
      vertex -4.000000e+000  2.420000e+001  1.500000e+001
      vertex -3.000000e+000  2.520000e+001  0.000000e+000
    endloop
  endfacet
  facet normal -7.071068e-001  7.071068e-001  0.000000e+000
    outer loop
      vertex -3.000000e+000  2.520000e+001  0.000000e+000
      vertex -4.000000e+000  2.420000e+001  1.500000e+001
      vertex -3.000000e+000  2.520000e+001  1.500000e+001
    endloop
  endfacet
  facet normal  0.000000e+000  1.000000e+000  0.000000e+000
    outer loop
      vertex  0.000000e+000  2.520000e+001  0.000000e+000
      vertex -3.000000e+000  2.520000e+001  0.000000e+000
      vertex  0.000000e+000  2.520000e+001  1.500000e+001
    endloop
  endfacet
  facet normal  0.000000e+000  1.000000e+000  0.000000e+000
    outer loop
      vertex  0.000000e+000  2.520000e+001  1.500000e+001
      vertex -3.000000e+000  2.520000e+001  0.000000e+000
      vertex -3.000000e+000  2.520000e+001  1.500000e+001
    endloop
  endfacet
  facet normal  0.000000e+000  1.000000e+000  0.000000e+000
    outer loop
      vertex  3.000000e+000  2.520000e+001  0.000000e+000
      vertex  0.000000e+000  2.520000e+001  0.000000e+000
      vertex  3.000000e+000  2.520000e+001  1.500000e+001
    endloop
  endfacet
  facet normal  0.000000e+000  1.000000e+000  0.000000e+000
    outer loop
      vertex  3.000000e+000  2.520000e+001  1.500000e+001
      vertex  0.000000e+000  2.520000e+001  0.000000e+000
      vertex  0.000000e+000  2.520000e+001  1.500000e+001
    endloop
  endfacet
  facet normal  7.071068e-001  7.071068e-001  0.000000e+000
    outer loop
      vertex  4.000000e+000  2.420000e+001  0.000000e+000
      vertex  3.000000e+000  2.520000e+001  0.000000e+000
      vertex  4.000000e+000  2.420000e+001  1.500000e+001
    endloop
  endfacet
  facet normal  7.071068e-001  7.071068e-001  0.000000e+000
    outer loop
      vertex  4.000000e+000  2.420000e+001  1.500000e+001
      vertex  3.000000e+000  2.520000e+001  0.000000e+000
      vertex  3.000000e+000  2.520000e+001  1.500000e+001
    endloop
  endfacet
  facet normal  1.000000e+000  -0.000000e+000  0.000000e+000
    outer loop
      vertex  2.750000e+001  3.400000e+001  1.500000e+001
      vertex  2.750000e+001  0.000000e+000  1.500000e+001
      vertex  2.750000e+001  3.400000e+001  0.000000e+000
    endloop
  endfacet
  facet normal  1.000000e+000  0.000000e+000  0.000000e+000
    outer loop
      vertex  2.750000e+001  3.400000e+001  0.000000e+000
      vertex  2.750000e+001  0.000000e+000  1.500000e+001
      vertex  2.750000e+001  0.000000e+000  0.000000e+000
    endloop
  endfacet
  facet normal -1.000000e+000  0.000000e+000  0.000000e+000
    outer loop
      vertex  1.750000e+001  0.000000e+000  0.000000e+000
      vertex  1.750000e+001  0.000000e+000  1.500000e+001
      vertex  1.750000e+001  2.000000e+000  0.000000e+000
    endloop
  endfacet
  facet normal -1.000000e+000  0.000000e+000  0.000000e+000
    outer loop
      vertex  1.750000e+001  2.000000e+000  0.000000e+000
      vertex  1.750000e+001  0.000000e+000  1.500000e+001
      vertex  1.750000e+001  2.000000e+000  1.500000e+001
    endloop
  endfacet
  facet normal  0.000000e+000 -1.000000e+000  0.000000e+000
    outer loop
      vertex  0.000000e+000  2.000000e+000  1.500000e+001
      vertex  0.000000e+000  2.000000e+000  0.000000e+000
      vertex  1.750000e+001  2.000000e+000  1.500000e+001
    endloop
  endfacet
  facet normal  0.000000e+000 -1.000000e+000  -0.000000e+000
    outer loop
      vertex  1.750000e+001  2.000000e+000  1.500000e+001
      vertex  0.000000e+000  2.000000e+000  0.000000e+000
      vertex  1.750000e+001  2.000000e+000  0.000000e+000
    endloop
  endfacet
  facet normal  0.000000e+000 -1.000000e+000  0.000000e+000
    outer loop
      vertex -1.750000e+001  2.000000e+000  1.500000e+001
      vertex -1.750000e+001  2.000000e+000  0.000000e+000
      vertex  0.000000e+000  2.000000e+000  1.500000e+001
    endloop
  endfacet
  facet normal  0.000000e+000 -1.000000e+000  -0.000000e+000
    outer loop
      vertex  0.000000e+000  2.000000e+000  1.500000e+001
      vertex -1.750000e+001  2.000000e+000  0.000000e+000
      vertex  0.000000e+000  2.000000e+000  0.000000e+000
    endloop
  endfacet
  facet normal  1.000000e+000  0.000000e+000  0.000000e+000
    outer loop
      vertex -1.750000e+001  0.000000e+000  0.000000e+000
      vertex -1.750000e+001  2.000000e+000  0.000000e+000
      vertex -1.750000e+001  0.000000e+000  1.500000e+001
    endloop
  endfacet
  facet normal  1.000000e+000  -0.000000e+000  0.000000e+000
    outer loop
      vertex -1.750000e+001  0.000000e+000  1.500000e+001
      vertex -1.750000e+001  2.000000e+000  0.000000e+000
      vertex -1.750000e+001  2.000000e+000  1.500000e+001
    endloop
  endfacet
  facet normal -1.000000e+000  0.000000e+000  0.000000e+000
    outer loop
      vertex -2.750000e+001  3.400000e+001  1.500000e+001
      vertex -2.750000e+001  3.400000e+001  0.000000e+000
      vertex -2.750000e+001  7.105427e-015  1.500000e+001
    endloop
  endfacet
  facet normal -1.000000e+000  0.000000e+000  0.000000e+000
    outer loop
      vertex -2.750000e+001  7.105427e-015  1.500000e+001
      vertex -2.750000e+001  3.400000e+001  0.000000e+000
      vertex -2.750000e+001  7.105427e-015  0.000000e+000
    endloop
  endfacet
endsolid CATIA STL
