solid CATIA STL
  facet normal  0.000000e+000  0.000000e+000 -1.000000e+000
    outer loop
      vertex -1.750000e+001  2.000000e+000  0.000000e+000
      vertex -1.750000e+001  0.000000e+000  0.000000e+000
      vertex -2.750000e+001  0.000000e+000  0.000000e+000
    endloop
  endfacet
  facet normal  0.000000e+000  0.000000e+000 -1.000000e+000
    outer loop
      vertex -3.750000e+001  8.881784e-016  0.000000e+000
      vertex -1.750000e+001  2.000000e+000  0.000000e+000
      vertex -2.750000e+001  0.000000e+000  0.000000e+000
    endloop
  endfacet
  facet normal  -0.000000e+000  0.000000e+000 -1.000000e+000
    outer loop
      vertex -3.000000e+000  2.520000e+001  0.000000e+000
      vertex  0.000000e+000  2.520000e+001  0.000000e+000
      vertex -4.000000e+000  2.420000e+001  0.000000e+000
    endloop
  endfacet
  facet normal  0.000000e+000  0.000000e+000 -1.000000e+000
    outer loop
      vertex -3.750000e+001  6.000000e+000  0.000000e+000
      vertex  1.750000e+001  2.000000e+000  0.000000e+000
      vertex  0.000000e+000  2.000000e+000  0.000000e+000
    endloop
  endfacet
  facet normal  0.000000e+000  0.000000e+000 -1.000000e+000
    outer loop
      vertex -3.750000e+001  6.000000e+000  0.000000e+000
      vertex  0.000000e+000  2.000000e+000  0.000000e+000
      vertex -1.750000e+001  2.000000e+000  0.000000e+000
    endloop
  endfacet
  facet normal  -0.000000e+000  0.000000e+000 -1.000000e+000
    outer loop
      vertex -3.750000e+001  6.000000e+000  0.000000e+000
      vertex -1.750000e+001  2.000000e+000  0.000000e+000
      vertex -3.750000e+001  8.881784e-016  0.000000e+000
    endloop
  endfacet
  facet normal  0.000000e+000  0.000000e+000 -1.000000e+000
    outer loop
      vertex  1.750000e+001  2.000000e+000  0.000000e+000
      vertex -3.750000e+001  6.000000e+000  0.000000e+000
      vertex -2.750000e+001  6.000000e+000  0.000000e+000
    endloop
  endfacet
  facet normal -6.957398e-015 -7.827072e-014 -1.000000e+000
    outer loop
      vertex  1.750000e+001  2.000000e+000  0.000000e+000
      vertex -2.750000e+001  6.000000e+000  0.000000e+000
      vertex -2.450000e+001  6.000000e+000 -2.087219e-014
    endloop
  endfacet
  facet normal  1.018156e-015  5.472587e-015 -9.999999e-001
    outer loop
      vertex  1.750000e+001  2.000000e+000  0.000000e+000
      vertex -2.450000e+001  6.000000e+000 -2.087219e-014
      vertex -4.000000e+000  6.000000e+000  0.000000e+000
    endloop
  endfacet
  facet normal  0.000000e+000  0.000000e+000 -1.000000e+000
    outer loop
      vertex  1.750000e+001  2.000000e+000  0.000000e+000
      vertex -4.000000e+000  6.000000e+000  0.000000e+000
      vertex  4.000000e+000  6.000000e+000  0.000000e+000
    endloop
  endfacet
  facet normal  0.000000e+000  0.000000e+000 -9.999999e-001
    outer loop
      vertex  1.750000e+001  2.000000e+000  0.000000e+000
      vertex  4.000000e+000  6.000000e+000  0.000000e+000
      vertex  2.450000e+001  6.000000e+000  0.000000e+000
    endloop
  endfacet
  facet normal  0.000000e+000  -0.000000e+000 -1.000000e+000
    outer loop
      vertex  1.750000e+001  2.000000e+000  0.000000e+000
      vertex  2.450000e+001  6.000000e+000  0.000000e+000
      vertex  2.750000e+001  0.000000e+000  0.000000e+000
    endloop
  endfacet
  facet normal  0.000000e+000  0.000000e+000 -1.000000e+000
    outer loop
      vertex  1.750000e+001  2.000000e+000  0.000000e+000
      vertex  2.750000e+001  0.000000e+000  0.000000e+000
      vertex  1.750000e+001  0.000000e+000  0.000000e+000
    endloop
  endfacet
  facet normal  -0.000000e+000  0.000000e+000 -1.000000e+000
    outer loop
      vertex  0.000000e+000  2.520000e+001  0.000000e+000
      vertex  3.000000e+000  2.520000e+001  0.000000e+000
      vertex -4.000000e+000  2.420000e+001  0.000000e+000
    endloop
  endfacet
  facet normal  0.000000e+000  0.000000e+000 -1.000000e+000
    outer loop
      vertex -4.000000e+000  2.420000e+001  0.000000e+000
      vertex  3.000000e+000  2.520000e+001  0.000000e+000
      vertex  4.000000e+000  2.420000e+001  0.000000e+000
    endloop
  endfacet
  facet normal  -0.000000e+000  0.000000e+000 -1.000000e+000
    outer loop
      vertex -4.000000e+000  2.420000e+001  0.000000e+000
      vertex  4.000000e+000  2.420000e+001  0.000000e+000
      vertex -4.000000e+000  6.000000e+000  0.000000e+000
    endloop
  endfacet
  facet normal  0.000000e+000  0.000000e+000 -1.000000e+000
    outer loop
      vertex -4.000000e+000  6.000000e+000  0.000000e+000
      vertex  4.000000e+000  2.420000e+001  0.000000e+000
      vertex  4.000000e+000  6.000000e+000  0.000000e+000
    endloop
  endfacet
  facet normal  0.000000e+000  -0.000000e+000 -1.000000e+000
    outer loop
      vertex  2.150000e+001  3.000000e+001  0.000000e+000
      vertex  2.350000e+001  3.400000e+001  0.000000e+000
      vertex  2.450000e+001  3.000000e+001  0.000000e+000
    endloop
  endfacet
  facet normal  0.000000e+000  0.000000e+000 -1.000000e+000
    outer loop
      vertex  2.450000e+001  3.000000e+001  0.000000e+000
      vertex  2.350000e+001  3.400000e+001  0.000000e+000
      vertex  2.750000e+001  3.400000e+001  0.000000e+000
    endloop
  endfacet
  facet normal  0.000000e+000  0.000000e+000 -1.000000e+000
    outer loop
      vertex  2.450000e+001  3.000000e+001  0.000000e+000
      vertex  2.750000e+001  3.400000e+001  0.000000e+000
      vertex  2.450000e+001  6.000000e+000  0.000000e+000
    endloop
  endfacet
  facet normal  0.000000e+000  0.000000e+000 -1.000000e+000
    outer loop
      vertex  2.450000e+001  6.000000e+000  0.000000e+000
      vertex  2.750000e+001  3.400000e+001  0.000000e+000
      vertex  2.750000e+001  0.000000e+000  0.000000e+000
    endloop
  endfacet
  facet normal -6.957398e-015  0.000000e+000 -1.000000e+000
    outer loop
      vertex -2.450000e+001  6.000000e+000 -2.087219e-014
      vertex -2.750000e+001  6.000000e+000  0.000000e+000
      vertex -2.450000e+001  3.000000e+001 -2.087219e-014
    endloop
  endfacet
  facet normal -6.957398e-015  0.000000e+000 -1.000000e+000
    outer loop
      vertex -2.450000e+001  3.000000e+001 -2.087219e-014
      vertex -2.750000e+001  6.000000e+000  0.000000e+000
      vertex -2.750000e+001  3.400000e+001  0.000000e+000
    endloop
  endfacet
  facet normal  0.000000e+000  5.218048e-015 -1.000000e+000
    outer loop
      vertex -2.450000e+001  3.000000e+001 -2.087219e-014
      vertex -2.750000e+001  3.400000e+001  0.000000e+000
      vertex -2.150000e+001  3.000000e+001 -2.087219e-014
    endloop
  endfacet
  facet normal  0.000000e+000  5.218048e-015 -1.000000e+000
    outer loop
      vertex -2.150000e+001  3.000000e+001 -2.087219e-014
      vertex -2.750000e+001  3.400000e+001  0.000000e+000
      vertex -2.350000e+001  3.400000e+001  0.000000e+000
    endloop
  endfacet
  facet normal -1.000000e+000  0.000000e+000  0.000000e+000
    outer loop
      vertex  2.350000e+001  3.000000e+001  1.400000e+001
      vertex  2.350000e+001  3.000000e+001  1.000000e+000
      vertex  2.350000e+001  1.100000e+001  4.526646e+000
    endloop
  endfacet
  facet normal -1.000000e+000  0.000000e+000  0.000000e+000
    outer loop
      vertex  2.350000e+001  3.000000e+001  1.400000e+001
      vertex  2.350000e+001  1.100000e+001  4.526646e+000
      vertex  2.350000e+001  1.100000e+001  1.047335e+001
    endloop
  endfacet
  facet normal -1.000000e+000  0.000000e+000  0.000000e+000
    outer loop
      vertex  2.350000e+001  3.000000e+001  1.400000e+001
      vertex  2.350000e+001  1.100000e+001  1.047335e+001
      vertex  2.350000e+001  6.000000e+000  1.047335e+001
    endloop
  endfacet
  facet normal -1.000000e+000  0.000000e+000  0.000000e+000
    outer loop
      vertex  2.350000e+001  3.000000e+001  1.400000e+001
      vertex  2.350000e+001  6.000000e+000  1.047335e+001
      vertex  2.350000e+001  6.000000e+000  1.400000e+001
    endloop
  endfacet
  facet normal -1.000000e+000  0.000000e+000  0.000000e+000
    outer loop
      vertex  2.350000e+001  1.100000e+001  4.526646e+000
      vertex  2.350000e+001  3.000000e+001  1.000000e+000
      vertex  2.350000e+001  6.000000e+000  4.526646e+000
    endloop
  endfacet
  facet normal -1.000000e+000  0.000000e+000  0.000000e+000
    outer loop
      vertex  2.350000e+001  6.000000e+000  4.526646e+000
      vertex  2.350000e+001  3.000000e+001  1.000000e+000
      vertex  2.350000e+001  6.000000e+000  1.000000e+000
    endloop
  endfacet
  facet normal  0.000000e+000 -1.000000e+000  0.000000e+000
    outer loop
      vertex  2.150000e+001  3.000000e+001  1.500000e+001
      vertex  2.350000e+001  3.000000e+001  1.400000e+001
      vertex  2.450000e+001  3.000000e+001  1.500000e+001
    endloop
  endfacet
  facet normal  0.000000e+000 -1.000000e+000  0.000000e+000
    outer loop
      vertex  2.350000e+001  3.000000e+001  1.400000e+001
      vertex  2.150000e+001  3.000000e+001  1.500000e+001
      vertex  2.350000e+001  3.000000e+001  1.000000e+000
    endloop
  endfacet
  facet normal  -0.000000e+000 -1.000000e+000  0.000000e+000
    outer loop
      vertex  2.350000e+001  3.000000e+001  1.000000e+000
      vertex  2.150000e+001  3.000000e+001  1.500000e+001
      vertex  2.150000e+001  3.000000e+001  0.000000e+000
    endloop
  endfacet
  facet normal  0.000000e+000 -1.000000e+000  0.000000e+000
    outer loop
      vertex  2.350000e+001  3.000000e+001  1.000000e+000
      vertex  2.150000e+001  3.000000e+001  0.000000e+000
      vertex  2.450000e+001  3.000000e+001  0.000000e+000
    endloop
  endfacet
  facet normal  0.000000e+000  9.999999e-001  0.000000e+000
    outer loop
      vertex  4.000000e+000  6.000000e+000  1.500000e+001
      vertex  2.450000e+001  6.000000e+000  1.500000e+001
      vertex  2.350000e+001  6.000000e+000  1.400000e+001
    endloop
  endfacet
  facet normal  0.000000e+000  1.000000e+000  0.000000e+000
    outer loop
      vertex  4.000000e+000  6.000000e+000  1.500000e+001
      vertex  2.350000e+001  6.000000e+000  1.400000e+001
      vertex  2.350000e+001  6.000000e+000  1.047335e+001
    endloop
  endfacet
  facet normal  0.000000e+000  1.000000e+000  0.000000e+000
    outer loop
      vertex  4.000000e+000  6.000000e+000  1.500000e+001
      vertex  2.350000e+001  6.000000e+000  1.047335e+001
      vertex  2.125000e+001  6.000000e+000  9.174315e+000
    endloop
  endfacet
  facet normal  0.000000e+000  1.000000e+000  0.000000e+000
    outer loop
      vertex  4.000000e+000  6.000000e+000  1.500000e+001
      vertex  2.125000e+001  6.000000e+000  9.174315e+000
      vertex  2.125000e+001  6.000000e+000  5.825684e+000
    endloop
  endfacet
  facet normal  0.000000e+000  1.000000e+000  0.000000e+000
    outer loop
      vertex  4.000000e+000  6.000000e+000  1.500000e+001
      vertex  2.125000e+001  6.000000e+000  5.825684e+000
      vertex  4.000000e+000  6.000000e+000  0.000000e+000
    endloop
  endfacet
  facet normal  0.000000e+000  1.000000e+000  0.000000e+000
    outer loop
      vertex  2.125000e+001  6.000000e+000  5.825684e+000
      vertex  2.350000e+001  6.000000e+000  4.526646e+000
      vertex  4.000000e+000  6.000000e+000  0.000000e+000
    endloop
  endfacet
  facet normal  0.000000e+000  1.000000e+000  0.000000e+000
    outer loop
      vertex  4.000000e+000  6.000000e+000  0.000000e+000
      vertex  2.350000e+001  6.000000e+000  4.526646e+000
      vertex  2.350000e+001  6.000000e+000  1.000000e+000
    endloop
  endfacet
  facet normal  0.000000e+000  9.999999e-001  0.000000e+000
    outer loop
      vertex  4.000000e+000  6.000000e+000  0.000000e+000
      vertex  2.350000e+001  6.000000e+000  1.000000e+000
      vertex  2.450000e+001  6.000000e+000  0.000000e+000
    endloop
  endfacet
  facet normal -7.071068e-001  0.000000e+000 -7.071068e-001
    outer loop
      vertex  2.450000e+001  6.000000e+000  0.000000e+000
      vertex  2.350000e+001  6.000000e+000  1.000000e+000
      vertex  2.450000e+001  3.000000e+001  0.000000e+000
    endloop
  endfacet
  facet normal -7.071068e-001  0.000000e+000 -7.071068e-001
    outer loop
      vertex  2.450000e+001  3.000000e+001  0.000000e+000
      vertex  2.350000e+001  6.000000e+000  1.000000e+000
      vertex  2.350000e+001  3.000000e+001  1.000000e+000
    endloop
  endfacet
  facet normal  1.000000e+000  0.000000e+000  0.000000e+000
    outer loop
      vertex -2.350000e+001  3.000000e+001  1.000000e+000
      vertex -2.350000e+001  3.000000e+001  1.400000e+001
      vertex -2.350000e+001  6.000000e+000  1.000000e+000
    endloop
  endfacet
  facet normal  1.000000e+000  0.000000e+000  0.000000e+000
    outer loop
      vertex -2.350000e+001  6.000000e+000  1.000000e+000
      vertex -2.350000e+001  3.000000e+001  1.400000e+001
      vertex -2.350000e+001  6.000000e+000  1.400000e+001
    endloop
  endfacet
  facet normal  0.000000e+000  9.999999e-001  0.000000e+000
    outer loop
      vertex -2.450000e+001  6.000000e+000  1.500000e+001
      vertex -4.000000e+000  6.000000e+000  1.500000e+001
      vertex -2.350000e+001  6.000000e+000  1.400000e+001
    endloop
  endfacet
  facet normal  0.000000e+000  1.000000e+000  0.000000e+000
    outer loop
      vertex -2.350000e+001  6.000000e+000  1.400000e+001
      vertex -4.000000e+000  6.000000e+000  1.500000e+001
      vertex -2.350000e+001  6.000000e+000  1.000000e+000
    endloop
  endfacet
  facet normal  -0.000000e+000  1.000000e+000  0.000000e+000
    outer loop
      vertex -2.350000e+001  6.000000e+000  1.000000e+000
      vertex -4.000000e+000  6.000000e+000  1.500000e+001
      vertex -4.000000e+000  6.000000e+000  0.000000e+000
    endloop
  endfacet
  facet normal  0.000000e+000  9.999999e-001  0.000000e+000
    outer loop
      vertex -2.350000e+001  6.000000e+000  1.000000e+000
      vertex -4.000000e+000  6.000000e+000  0.000000e+000
      vertex -2.450000e+001  6.000000e+000 -2.087219e-014
    endloop
  endfacet
  facet normal  -0.000000e+000 -1.000000e+000  0.000000e+000
    outer loop
      vertex -2.350000e+001  3.000000e+001  1.400000e+001
      vertex -2.150000e+001  3.000000e+001  1.500000e+001
      vertex -2.450000e+001  3.000000e+001  1.500000e+001
    endloop
  endfacet
  facet normal  0.000000e+000 -1.000000e+000  0.000000e+000
    outer loop
      vertex -2.150000e+001  3.000000e+001  1.500000e+001
      vertex -2.350000e+001  3.000000e+001  1.400000e+001
      vertex -2.150000e+001  3.000000e+001 -2.087219e-014
    endloop
  endfacet
  facet normal  0.000000e+000 -1.000000e+000  0.000000e+000
    outer loop
      vertex -2.150000e+001  3.000000e+001 -2.087219e-014
      vertex -2.350000e+001  3.000000e+001  1.400000e+001
      vertex -2.350000e+001  3.000000e+001  1.000000e+000
    endloop
  endfacet
  facet normal  0.000000e+000 -1.000000e+000  -0.000000e+000
    outer loop
      vertex -2.150000e+001  3.000000e+001 -2.087219e-014
      vertex -2.350000e+001  3.000000e+001  1.000000e+000
      vertex -2.450000e+001  3.000000e+001 -2.087219e-014
    endloop
  endfacet
  facet normal  7.071068e-001  0.000000e+000 -7.071068e-001
    outer loop
      vertex -2.350000e+001  6.000000e+000  1.000000e+000
      vertex -2.450000e+001  6.000000e+000 -2.087219e-014
      vertex -2.350000e+001  3.000000e+001  1.000000e+000
    endloop
  endfacet
  facet normal  7.071068e-001  0.000000e+000 -7.071068e-001
    outer loop
      vertex -2.350000e+001  3.000000e+001  1.000000e+000
      vertex -2.450000e+001  6.000000e+000 -2.087219e-014
      vertex -2.450000e+001  3.000000e+001 -2.087219e-014
    endloop
  endfacet
  facet normal  8.944272e-001  4.472136e-001  0.000000e+000
    outer loop
      vertex -2.150000e+001  3.000000e+001 -2.087219e-014
      vertex -2.350000e+001  3.400000e+001  0.000000e+000
      vertex -2.150000e+001  3.000000e+001  1.500000e+001
    endloop
  endfacet
  facet normal  8.944272e-001  4.472136e-001  0.000000e+000
    outer loop
      vertex -2.150000e+001  3.000000e+001  1.500000e+001
      vertex -2.350000e+001  3.400000e+001  0.000000e+000
      vertex -2.350000e+001  3.400000e+001  1.500000e+001
    endloop
  endfacet
  facet normal -1.000000e+000  0.000000e+000  0.000000e+000
    outer loop
      vertex -4.000000e+000  6.000000e+000  0.000000e+000
      vertex -4.000000e+000  6.000000e+000  1.500000e+001
      vertex -4.000000e+000  2.420000e+001  0.000000e+000
    endloop
  endfacet
  facet normal -1.000000e+000  0.000000e+000  0.000000e+000
    outer loop
      vertex -4.000000e+000  2.420000e+001  0.000000e+000
      vertex -4.000000e+000  6.000000e+000  1.500000e+001
      vertex -4.000000e+000  2.420000e+001  1.500000e+001
    endloop
  endfacet
  facet normal  0.000000e+000  -0.000000e+000  1.000000e+000
    outer loop
      vertex -2.750000e+001  0.000000e+000  1.500000e+001
      vertex -1.750000e+001  0.000000e+000  1.500000e+001
      vertex -1.750000e+001  2.000000e+000  1.500000e+001
    endloop
  endfacet
  facet normal  0.000000e+000  0.000000e+000  1.000000e+000
    outer loop
      vertex -2.750000e+001  0.000000e+000  1.500000e+001
      vertex -1.750000e+001  2.000000e+000  1.500000e+001
      vertex -3.750000e+001  8.881784e-016  1.500000e+001
    endloop
  endfacet
  facet normal  0.000000e+000  0.000000e+000  1.000000e+000
    outer loop
      vertex -4.000000e+000  2.420000e+001  1.500000e+001
      vertex  0.000000e+000  2.520000e+001  1.500000e+001
      vertex -3.000000e+000  2.520000e+001  1.500000e+001
    endloop
  endfacet
  facet normal  0.000000e+000  0.000000e+000  1.000000e+000
    outer loop
      vertex -3.750000e+001  6.000000e+000  1.500000e+001
      vertex -3.750000e+001  8.881784e-016  1.500000e+001
      vertex -1.750000e+001  2.000000e+000  1.500000e+001
    endloop
  endfacet
  facet normal  0.000000e+000  -0.000000e+000  1.000000e+000
    outer loop
      vertex -3.750000e+001  6.000000e+000  1.500000e+001
      vertex -1.750000e+001  2.000000e+000  1.500000e+001
      vertex  0.000000e+000  2.000000e+000  1.500000e+001
    endloop
  endfacet
  facet normal  0.000000e+000  -0.000000e+000  1.000000e+000
    outer loop
      vertex -3.750000e+001  6.000000e+000  1.500000e+001
      vertex  0.000000e+000  2.000000e+000  1.500000e+001
      vertex  1.750000e+001  2.000000e+000  1.500000e+001
    endloop
  endfacet
  facet normal  0.000000e+000  0.000000e+000  1.000000e+000
    outer loop
      vertex  1.750000e+001  2.000000e+000  1.500000e+001
      vertex  1.750000e+001  0.000000e+000  1.500000e+001
      vertex  2.750000e+001  0.000000e+000  1.500000e+001
    endloop
  endfacet
  facet normal  0.000000e+000  0.000000e+000  1.000000e+000
    outer loop
      vertex  1.750000e+001  2.000000e+000  1.500000e+001
      vertex  2.750000e+001  0.000000e+000  1.500000e+001
      vertex  2.450000e+001  6.000000e+000  1.500000e+001
    endloop
  endfacet
  facet normal  0.000000e+000  0.000000e+000  9.999999e-001
    outer loop
      vertex  1.750000e+001  2.000000e+000  1.500000e+001
      vertex  2.450000e+001  6.000000e+000  1.500000e+001
      vertex  4.000000e+000  6.000000e+000  1.500000e+001
    endloop
  endfacet
  facet normal  0.000000e+000  0.000000e+000  1.000000e+000
    outer loop
      vertex  1.750000e+001  2.000000e+000  1.500000e+001
      vertex  4.000000e+000  6.000000e+000  1.500000e+001
      vertex -4.000000e+000  6.000000e+000  1.500000e+001
    endloop
  endfacet
  facet normal  0.000000e+000  0.000000e+000  9.999999e-001
    outer loop
      vertex  1.750000e+001  2.000000e+000  1.500000e+001
      vertex -4.000000e+000  6.000000e+000  1.500000e+001
      vertex -2.450000e+001  6.000000e+000  1.500000e+001
    endloop
  endfacet
  facet normal  0.000000e+000  0.000000e+000  1.000000e+000
    outer loop
      vertex  1.750000e+001  2.000000e+000  1.500000e+001
      vertex -2.450000e+001  6.000000e+000  1.500000e+001
      vertex -2.750000e+001  6.000000e+000  1.500000e+001
    endloop
  endfacet
  facet normal  0.000000e+000  0.000000e+000  1.000000e+000
    outer loop
      vertex  1.750000e+001  2.000000e+000  1.500000e+001
      vertex -2.750000e+001  6.000000e+000  1.500000e+001
      vertex -3.750000e+001  6.000000e+000  1.500000e+001
    endloop
  endfacet
  facet normal  -0.000000e+000  0.000000e+000  1.000000e+000
    outer loop
      vertex  3.000000e+000  2.520000e+001  1.500000e+001
      vertex  0.000000e+000  2.520000e+001  1.500000e+001
      vertex  4.000000e+000  2.420000e+001  1.500000e+001
    endloop
  endfacet
  facet normal  0.000000e+000  0.000000e+000  1.000000e+000
    outer loop
      vertex  4.000000e+000  2.420000e+001  1.500000e+001
      vertex  0.000000e+000  2.520000e+001  1.500000e+001
      vertex -4.000000e+000  2.420000e+001  1.500000e+001
    endloop
  endfacet
  facet normal  -0.000000e+000  0.000000e+000  1.000000e+000
    outer loop
      vertex  4.000000e+000  2.420000e+001  1.500000e+001
      vertex -4.000000e+000  2.420000e+001  1.500000e+001
      vertex  4.000000e+000  6.000000e+000  1.500000e+001
    endloop
  endfacet
  facet normal  0.000000e+000  0.000000e+000  1.000000e+000
    outer loop
      vertex  4.000000e+000  6.000000e+000  1.500000e+001
      vertex -4.000000e+000  2.420000e+001  1.500000e+001
      vertex -4.000000e+000  6.000000e+000  1.500000e+001
    endloop
  endfacet
  facet normal  0.000000e+000  0.000000e+000  1.000000e+000
    outer loop
      vertex  2.350000e+001  3.400000e+001  1.500000e+001
      vertex  2.150000e+001  3.000000e+001  1.500000e+001
      vertex  2.750000e+001  3.400000e+001  1.500000e+001
    endloop
  endfacet
  facet normal  0.000000e+000  0.000000e+000  1.000000e+000
    outer loop
      vertex  2.750000e+001  3.400000e+001  1.500000e+001
      vertex  2.150000e+001  3.000000e+001  1.500000e+001
      vertex  2.450000e+001  3.000000e+001  1.500000e+001
    endloop
  endfacet
  facet normal  -0.000000e+000  0.000000e+000  1.000000e+000
    outer loop
      vertex  2.750000e+001  3.400000e+001  1.500000e+001
      vertex  2.450000e+001  3.000000e+001  1.500000e+001
      vertex  2.750000e+001  0.000000e+000  1.500000e+001
    endloop
  endfacet
  facet normal  0.000000e+000  0.000000e+000  1.000000e+000
    outer loop
      vertex  2.750000e+001  0.000000e+000  1.500000e+001
      vertex  2.450000e+001  3.000000e+001  1.500000e+001
      vertex  2.450000e+001  6.000000e+000  1.500000e+001
    endloop
  endfacet
  facet normal  0.000000e+000  0.000000e+000  1.000000e+000
    outer loop
      vertex -2.750000e+001  6.000000e+000  1.500000e+001
      vertex -2.450000e+001  6.000000e+000  1.500000e+001
      vertex -2.750000e+001  3.400000e+001  1.500000e+001
    endloop
  endfacet
  facet normal  0.000000e+000  0.000000e+000  1.000000e+000
    outer loop
      vertex -2.750000e+001  3.400000e+001  1.500000e+001
      vertex -2.450000e+001  6.000000e+000  1.500000e+001
      vertex -2.450000e+001  3.000000e+001  1.500000e+001
    endloop
  endfacet
  facet normal  0.000000e+000  -0.000000e+000  1.000000e+000
    outer loop
      vertex -2.750000e+001  3.400000e+001  1.500000e+001
      vertex -2.450000e+001  3.000000e+001  1.500000e+001
      vertex -2.350000e+001  3.400000e+001  1.500000e+001
    endloop
  endfacet
  facet normal  0.000000e+000  0.000000e+000  1.000000e+000
    outer loop
      vertex -2.350000e+001  3.400000e+001  1.500000e+001
      vertex -2.450000e+001  3.000000e+001  1.500000e+001
      vertex -2.150000e+001  3.000000e+001  1.500000e+001
    endloop
  endfacet
  facet normal  0.000000e+000  1.000000e+000  -0.000000e+000
    outer loop
      vertex -2.350000e+001  3.400000e+001  1.500000e+001
      vertex -2.350000e+001  3.400000e+001  0.000000e+000
      vertex -2.750000e+001  3.400000e+001  1.500000e+001
    endloop
  endfacet
  facet normal  0.000000e+000  1.000000e+000  0.000000e+000
    outer loop
      vertex -2.750000e+001  3.400000e+001  1.500000e+001
      vertex -2.350000e+001  3.400000e+001  0.000000e+000
      vertex -2.750000e+001  3.400000e+001  0.000000e+000
    endloop
  endfacet
  facet normal  0.000000e+000 -1.000000e+000  -0.000000e+000
    outer loop
      vertex -1.750000e+001  0.000000e+000  0.000000e+000
      vertex -1.750000e+001  0.000000e+000  1.500000e+001
      vertex -2.750000e+001  0.000000e+000  0.000000e+000
    endloop
  endfacet
  facet normal  0.000000e+000 -1.000000e+000  0.000000e+000
    outer loop
      vertex -2.750000e+001  0.000000e+000  0.000000e+000
      vertex -1.750000e+001  0.000000e+000  1.500000e+001
      vertex -2.750000e+001  0.000000e+000  1.500000e+001
    endloop
  endfacet
  facet normal  7.071068e-001  0.000000e+000  7.071068e-001
    outer loop
      vertex -2.450000e+001  6.000000e+000  1.500000e+001
      vertex -2.350000e+001  6.000000e+000  1.400000e+001
      vertex -2.450000e+001  3.000000e+001  1.500000e+001
    endloop
  endfacet
  facet normal  7.071068e-001  0.000000e+000  7.071068e-001
    outer loop
      vertex -2.450000e+001  3.000000e+001  1.500000e+001
      vertex -2.350000e+001  6.000000e+000  1.400000e+001
      vertex -2.350000e+001  3.000000e+001  1.400000e+001
    endloop
  endfacet
  facet normal  1.000000e+000  0.000000e+000  0.000000e+000
    outer loop
      vertex  4.000000e+000  6.000000e+000  1.500000e+001
      vertex  4.000000e+000  6.000000e+000  0.000000e+000
      vertex  4.000000e+000  2.420000e+001  1.500000e+001
    endloop
  endfacet
  facet normal  1.000000e+000  0.000000e+000  0.000000e+000
    outer loop
      vertex  4.000000e+000  2.420000e+001  1.500000e+001
      vertex  4.000000e+000  6.000000e+000  0.000000e+000
      vertex  4.000000e+000  2.420000e+001  0.000000e+000
    endloop
  endfacet
  facet normal -8.944272e-001  4.472136e-001  0.000000e+000
    outer loop
      vertex  2.350000e+001  3.400000e+001  0.000000e+000
      vertex  2.150000e+001  3.000000e+001  0.000000e+000
      vertex  2.350000e+001  3.400000e+001  1.500000e+001
    endloop
  endfacet
  facet normal -8.944272e-001  4.472136e-001  0.000000e+000
    outer loop
      vertex  2.350000e+001  3.400000e+001  1.500000e+001
      vertex  2.150000e+001  3.000000e+001  0.000000e+000
      vertex  2.150000e+001  3.000000e+001  1.500000e+001
    endloop
  endfacet
  facet normal  0.000000e+000 -1.000000e+000  0.000000e+000
    outer loop
      vertex  1.750000e+001  0.000000e+000  0.000000e+000
      vertex  2.750000e+001  0.000000e+000  0.000000e+000
      vertex  2.439194e+001  0.000000e+000  5.817304e+000
    endloop
  endfacet
  facet normal  -0.000000e+000 -1.000000e+000  0.000000e+000
    outer loop
      vertex  1.750000e+001  0.000000e+000  0.000000e+000
      vertex  2.439194e+001  0.000000e+000  5.817304e+000
      vertex  2.390806e+001  0.000000e+000  5.817304e+000
    endloop
  endfacet
  facet normal  -0.000000e+000 -1.000000e+000  0.000000e+000
    outer loop
      vertex  1.750000e+001  0.000000e+000  0.000000e+000
      vertex  2.390806e+001  0.000000e+000  5.817304e+000
      vertex  2.344379e+001  0.000000e+000  5.953626e+000
    endloop
  endfacet
  facet normal  -0.000000e+000 -1.000000e+000  0.000000e+000
    outer loop
      vertex  1.750000e+001  0.000000e+000  0.000000e+000
      vertex  2.344379e+001  0.000000e+000  5.953626e+000
      vertex  2.303674e+001  0.000000e+000  6.215226e+000
    endloop
  endfacet
  facet normal  -0.000000e+000 -1.000000e+000  0.000000e+000
    outer loop
      vertex  1.750000e+001  0.000000e+000  0.000000e+000
      vertex  2.303674e+001  0.000000e+000  6.215226e+000
      vertex  2.271987e+001  0.000000e+000  6.580911e+000
    endloop
  endfacet
  facet normal  -0.000000e+000 -1.000000e+000  0.000000e+000
    outer loop
      vertex  1.750000e+001  0.000000e+000  0.000000e+000
      vertex  2.271987e+001  0.000000e+000  6.580911e+000
      vertex  2.251886e+001  0.000000e+000  7.021055e+000
    endloop
  endfacet
  facet normal  -0.000000e+000 -1.000000e+000  0.000000e+000
    outer loop
      vertex  1.750000e+001  0.000000e+000  0.000000e+000
      vertex  2.251886e+001  0.000000e+000  7.021055e+000
      vertex  2.245000e+001  0.000000e+000  7.500000e+000
    endloop
  endfacet
  facet normal  -0.000000e+000 -1.000000e+000  0.000000e+000
    outer loop
      vertex  1.750000e+001  0.000000e+000  0.000000e+000
      vertex  2.245000e+001  0.000000e+000  7.500000e+000
      vertex  2.251886e+001  0.000000e+000  7.978945e+000
    endloop
  endfacet
  facet normal  -0.000000e+000 -1.000000e+000  0.000000e+000
    outer loop
      vertex  1.750000e+001  0.000000e+000  0.000000e+000
      vertex  2.251886e+001  0.000000e+000  7.978945e+000
      vertex  2.271987e+001  0.000000e+000  8.419089e+000
    endloop
  endfacet
  facet normal  0.000000e+000 -1.000000e+000  0.000000e+000
    outer loop
      vertex  1.750000e+001  0.000000e+000  1.500000e+001
      vertex  1.750000e+001  0.000000e+000  0.000000e+000
      vertex  2.271987e+001  0.000000e+000  8.419089e+000
    endloop
  endfacet
  facet normal  0.000000e+000 -1.000000e+000  0.000000e+000
    outer loop
      vertex  1.750000e+001  0.000000e+000  1.500000e+001
      vertex  2.271987e+001  0.000000e+000  8.419089e+000
      vertex  2.303674e+001  0.000000e+000  8.784774e+000
    endloop
  endfacet
  facet normal  0.000000e+000 -9.999999e-001  0.000000e+000
    outer loop
      vertex  1.750000e+001  0.000000e+000  1.500000e+001
      vertex  2.303674e+001  0.000000e+000  8.784774e+000
      vertex  2.344379e+001  0.000000e+000  9.046374e+000
    endloop
  endfacet
  facet normal  0.000000e+000 -1.000000e+000  0.000000e+000
    outer loop
      vertex  1.750000e+001  0.000000e+000  1.500000e+001
      vertex  2.344379e+001  0.000000e+000  9.046374e+000
      vertex  2.390806e+001  0.000000e+000  9.182696e+000
    endloop
  endfacet
  facet normal  0.000000e+000 -1.000000e+000  0.000000e+000
    outer loop
      vertex  1.750000e+001  0.000000e+000  1.500000e+001
      vertex  2.390806e+001  0.000000e+000  9.182696e+000
      vertex  2.439194e+001  0.000000e+000  9.182696e+000
    endloop
  endfacet
  facet normal  0.000000e+000 -1.000000e+000  0.000000e+000
    outer loop
      vertex  1.750000e+001  0.000000e+000  1.500000e+001
      vertex  2.439194e+001  0.000000e+000  9.182696e+000
      vertex  2.750000e+001  0.000000e+000  1.500000e+001
    endloop
  endfacet
  facet normal  0.000000e+000 -1.000000e+000  -0.000000e+000
    outer loop
      vertex  2.750000e+001  0.000000e+000  0.000000e+000
      vertex  2.750000e+001  0.000000e+000  1.500000e+001
      vertex  2.585000e+001  0.000000e+000  7.500000e+000
    endloop
  endfacet
  facet normal  0.000000e+000 -1.000000e+000  -0.000000e+000
    outer loop
      vertex  2.750000e+001  0.000000e+000  0.000000e+000
      vertex  2.585000e+001  0.000000e+000  7.500000e+000
      vertex  2.578114e+001  0.000000e+000  7.021055e+000
    endloop
  endfacet
  facet normal  0.000000e+000 -1.000000e+000  -0.000000e+000
    outer loop
      vertex  2.750000e+001  0.000000e+000  0.000000e+000
      vertex  2.578114e+001  0.000000e+000  7.021055e+000
      vertex  2.558013e+001  0.000000e+000  6.580911e+000
    endloop
  endfacet
  facet normal  0.000000e+000 -1.000000e+000  -0.000000e+000
    outer loop
      vertex  2.750000e+001  0.000000e+000  0.000000e+000
      vertex  2.558013e+001  0.000000e+000  6.580911e+000
      vertex  2.526326e+001  0.000000e+000  6.215226e+000
    endloop
  endfacet
  facet normal  0.000000e+000 -1.000000e+000  -0.000000e+000
    outer loop
      vertex  2.750000e+001  0.000000e+000  0.000000e+000
      vertex  2.526326e+001  0.000000e+000  6.215226e+000
      vertex  2.485620e+001  0.000000e+000  5.953626e+000
    endloop
  endfacet
  facet normal  0.000000e+000 -1.000000e+000  -0.000000e+000
    outer loop
      vertex  2.750000e+001  0.000000e+000  0.000000e+000
      vertex  2.485620e+001  0.000000e+000  5.953626e+000
      vertex  2.439194e+001  0.000000e+000  5.817304e+000
    endloop
  endfacet
  facet normal  0.000000e+000 -1.000000e+000  0.000000e+000
    outer loop
      vertex  2.750000e+001  0.000000e+000  1.500000e+001
      vertex  2.439194e+001  0.000000e+000  9.182696e+000
      vertex  2.485620e+001  0.000000e+000  9.046374e+000
    endloop
  endfacet
  facet normal  0.000000e+000 -1.000000e+000  0.000000e+000
    outer loop
      vertex  2.750000e+001  0.000000e+000  1.500000e+001
      vertex  2.485620e+001  0.000000e+000  9.046374e+000
      vertex  2.526326e+001  0.000000e+000  8.784774e+000
    endloop
  endfacet
  facet normal  0.000000e+000 -1.000000e+000  0.000000e+000
    outer loop
      vertex  2.750000e+001  0.000000e+000  1.500000e+001
      vertex  2.526326e+001  0.000000e+000  8.784774e+000
      vertex  2.558013e+001  0.000000e+000  8.419089e+000
    endloop
  endfacet
  facet normal  0.000000e+000 -1.000000e+000  0.000000e+000
    outer loop
      vertex  2.750000e+001  0.000000e+000  1.500000e+001
      vertex  2.558013e+001  0.000000e+000  8.419089e+000
      vertex  2.578114e+001  0.000000e+000  7.978945e+000
    endloop
  endfacet
  facet normal  0.000000e+000 -1.000000e+000  0.000000e+000
    outer loop
      vertex  2.750000e+001  0.000000e+000  1.500000e+001
      vertex  2.578114e+001  0.000000e+000  7.978945e+000
      vertex  2.585000e+001  0.000000e+000  7.500000e+000
    endloop
  endfacet
  facet normal  0.000000e+000  1.000000e+000  -0.000000e+000
    outer loop
      vertex  2.750000e+001  3.400000e+001  1.500000e+001
      vertex  2.750000e+001  3.400000e+001  0.000000e+000
      vertex  2.350000e+001  3.400000e+001  1.500000e+001
    endloop
  endfacet
  facet normal  0.000000e+000  1.000000e+000  0.000000e+000
    outer loop
      vertex  2.350000e+001  3.400000e+001  1.500000e+001
      vertex  2.750000e+001  3.400000e+001  0.000000e+000
      vertex  2.350000e+001  3.400000e+001  0.000000e+000
    endloop
  endfacet
  facet normal -7.071068e-001  0.000000e+000  7.071068e-001
    outer loop
      vertex  2.350000e+001  6.000000e+000  1.400000e+001
      vertex  2.450000e+001  6.000000e+000  1.500000e+001
      vertex  2.350000e+001  3.000000e+001  1.400000e+001
    endloop
  endfacet
  facet normal -7.071068e-001  0.000000e+000  7.071068e-001
    outer loop
      vertex  2.350000e+001  3.000000e+001  1.400000e+001
      vertex  2.450000e+001  6.000000e+000  1.500000e+001
      vertex  2.450000e+001  3.000000e+001  1.500000e+001
    endloop
  endfacet
  facet normal  0.000000e+000  9.999999e-001  0.000000e+000
    outer loop
      vertex -3.750000e+001  6.000000e+000  1.500000e+001
      vertex -2.750000e+001  6.000000e+000  1.500000e+001
      vertex -3.010000e+001  6.000000e+000  9.174315e+000
    endloop
  endfacet
  facet normal  0.000000e+000  1.000000e+000  0.000000e+000
    outer loop
      vertex -3.750000e+001  6.000000e+000  1.500000e+001
      vertex -3.010000e+001  6.000000e+000  9.174315e+000
      vertex -3.300000e+001  6.000000e+000  1.084863e+001
    endloop
  endfacet
  facet normal  0.000000e+000  1.000000e+000  0.000000e+000
    outer loop
      vertex -3.750000e+001  6.000000e+000  1.500000e+001
      vertex -3.300000e+001  6.000000e+000  1.084863e+001
      vertex -3.590000e+001  6.000000e+000  9.174315e+000
    endloop
  endfacet
  facet normal  0.000000e+000  1.000000e+000  0.000000e+000
    outer loop
      vertex -3.750000e+001  6.000000e+000  1.500000e+001
      vertex -3.590000e+001  6.000000e+000  9.174315e+000
      vertex -3.590000e+001  6.000000e+000  5.825684e+000
    endloop
  endfacet
  facet normal  0.000000e+000  9.999999e-001  0.000000e+000
    outer loop
      vertex -3.750000e+001  6.000000e+000  1.500000e+001
      vertex -3.590000e+001  6.000000e+000  5.825684e+000
      vertex -3.750000e+001  6.000000e+000  0.000000e+000
    endloop
  endfacet
  facet normal  0.000000e+000  1.000000e+000  0.000000e+000
    outer loop
      vertex -3.010000e+001  6.000000e+000  9.174315e+000
      vertex -2.750000e+001  6.000000e+000  1.500000e+001
      vertex -3.010000e+001  6.000000e+000  5.825684e+000
    endloop
  endfacet
  facet normal  -0.000000e+000  1.000000e+000  0.000000e+000
    outer loop
      vertex -3.010000e+001  6.000000e+000  5.825684e+000
      vertex -2.750000e+001  6.000000e+000  1.500000e+001
      vertex -2.750000e+001  6.000000e+000  0.000000e+000
    endloop
  endfacet
  facet normal  0.000000e+000  1.000000e+000  0.000000e+000
    outer loop
      vertex -3.010000e+001  6.000000e+000  5.825684e+000
      vertex -2.750000e+001  6.000000e+000  0.000000e+000
      vertex -3.300000e+001  6.000000e+000  4.151369e+000
    endloop
  endfacet
  facet normal  0.000000e+000  1.000000e+000  0.000000e+000
    outer loop
      vertex -3.300000e+001  6.000000e+000  4.151369e+000
      vertex -2.750000e+001  6.000000e+000  0.000000e+000
      vertex -3.750000e+001  6.000000e+000  0.000000e+000
    endloop
  endfacet
  facet normal  0.000000e+000  9.999999e-001  0.000000e+000
    outer loop
      vertex -3.300000e+001  6.000000e+000  4.151369e+000
      vertex -3.750000e+001  6.000000e+000  0.000000e+000
      vertex -3.590000e+001  6.000000e+000  5.825684e+000
    endloop
  endfacet
  facet normal -9.898213e-001  0.000000e+000  1.423168e-001
    outer loop
      vertex  2.585000e+001  0.000000e+000  7.500000e+000
      vertex  2.585000e+001  3.000000e+000  7.500000e+000
      vertex  2.578114e+001  0.000000e+000  7.021055e+000
    endloop
  endfacet
  facet normal -9.898213e-001  0.000000e+000  1.423168e-001
    outer loop
      vertex  2.578114e+001  0.000000e+000  7.021055e+000
      vertex  2.585000e+001  3.000000e+000  7.500000e+000
      vertex  2.578114e+001  3.000000e+000  7.021055e+000
    endloop
  endfacet
  facet normal -9.096329e-001  0.000000e+000  4.154131e-001
    outer loop
      vertex  2.578114e+001  0.000000e+000  7.021055e+000
      vertex  2.578114e+001  3.000000e+000  7.021055e+000
      vertex  2.558013e+001  0.000000e+000  6.580911e+000
    endloop
  endfacet
  facet normal -9.096329e-001  0.000000e+000  4.154131e-001
    outer loop
      vertex  2.558013e+001  0.000000e+000  6.580911e+000
      vertex  2.578114e+001  3.000000e+000  7.021055e+000
      vertex  2.558013e+001  3.000000e+000  6.580911e+000
    endloop
  endfacet
  facet normal -7.557496e-001  0.000000e+000  6.548607e-001
    outer loop
      vertex  2.558013e+001  0.000000e+000  6.580911e+000
      vertex  2.558013e+001  3.000000e+000  6.580911e+000
      vertex  2.526326e+001  0.000000e+000  6.215226e+000
    endloop
  endfacet
  facet normal -7.557496e-001  0.000000e+000  6.548607e-001
    outer loop
      vertex  2.526326e+001  0.000000e+000  6.215226e+000
      vertex  2.558013e+001  3.000000e+000  6.580911e+000
      vertex  2.526326e+001  3.000000e+000  6.215226e+000
    endloop
  endfacet
  facet normal -5.406398e-001  0.000000e+000  8.412543e-001
    outer loop
      vertex  2.526326e+001  0.000000e+000  6.215226e+000
      vertex  2.526326e+001  3.000000e+000  6.215226e+000
      vertex  2.485620e+001  0.000000e+000  5.953626e+000
    endloop
  endfacet
  facet normal -5.406398e-001  0.000000e+000  8.412543e-001
    outer loop
      vertex  2.485620e+001  0.000000e+000  5.953626e+000
      vertex  2.526326e+001  3.000000e+000  6.215226e+000
      vertex  2.485620e+001  3.000000e+000  5.953626e+000
    endloop
  endfacet
  facet normal -2.817329e-001  0.000000e+000  9.594929e-001
    outer loop
      vertex  2.485620e+001  0.000000e+000  5.953626e+000
      vertex  2.485620e+001  3.000000e+000  5.953626e+000
      vertex  2.439194e+001  0.000000e+000  5.817304e+000
    endloop
  endfacet
  facet normal -2.817329e-001  0.000000e+000  9.594929e-001
    outer loop
      vertex  2.439194e+001  0.000000e+000  5.817304e+000
      vertex  2.485620e+001  3.000000e+000  5.953626e+000
      vertex  2.439194e+001  3.000000e+000  5.817304e+000
    endloop
  endfacet
  facet normal  0.000000e+000  0.000000e+000  1.000000e+000
    outer loop
      vertex  2.439194e+001  0.000000e+000  5.817304e+000
      vertex  2.439194e+001  3.000000e+000  5.817304e+000
      vertex  2.390806e+001  0.000000e+000  5.817304e+000
    endloop
  endfacet
  facet normal  0.000000e+000  0.000000e+000  1.000000e+000
    outer loop
      vertex  2.390806e+001  0.000000e+000  5.817304e+000
      vertex  2.439194e+001  3.000000e+000  5.817304e+000
      vertex  2.390806e+001  3.000000e+000  5.817304e+000
    endloop
  endfacet
  facet normal  2.817329e-001  0.000000e+000  9.594929e-001
    outer loop
      vertex  2.390806e+001  0.000000e+000  5.817304e+000
      vertex  2.390806e+001  3.000000e+000  5.817304e+000
      vertex  2.344379e+001  0.000000e+000  5.953626e+000
    endloop
  endfacet
  facet normal  2.817329e-001  -0.000000e+000  9.594929e-001
    outer loop
      vertex  2.344379e+001  0.000000e+000  5.953626e+000
      vertex  2.390806e+001  3.000000e+000  5.817304e+000
      vertex  2.344379e+001  3.000000e+000  5.953626e+000
    endloop
  endfacet
  facet normal  5.406415e-001  0.000000e+000  8.412531e-001
    outer loop
      vertex  2.344379e+001  0.000000e+000  5.953626e+000
      vertex  2.344379e+001  3.000000e+000  5.953626e+000
      vertex  2.303674e+001  0.000000e+000  6.215226e+000
    endloop
  endfacet
  facet normal  5.406415e-001  -0.000000e+000  8.412531e-001
    outer loop
      vertex  2.303674e+001  0.000000e+000  6.215226e+000
      vertex  2.344379e+001  3.000000e+000  5.953626e+000
      vertex  2.303674e+001  3.000000e+000  6.215226e+000
    endloop
  endfacet
  facet normal  7.557496e-001  0.000000e+000  6.548607e-001
    outer loop
      vertex  2.303674e+001  0.000000e+000  6.215226e+000
      vertex  2.303674e+001  3.000000e+000  6.215226e+000
      vertex  2.271987e+001  0.000000e+000  6.580911e+000
    endloop
  endfacet
  facet normal  7.557496e-001  -0.000000e+000  6.548607e-001
    outer loop
      vertex  2.271987e+001  0.000000e+000  6.580911e+000
      vertex  2.303674e+001  3.000000e+000  6.215226e+000
      vertex  2.271987e+001  3.000000e+000  6.580911e+000
    endloop
  endfacet
  facet normal  9.096314e-001  0.000000e+000  4.154164e-001
    outer loop
      vertex  2.271987e+001  0.000000e+000  6.580911e+000
      vertex  2.271987e+001  3.000000e+000  6.580911e+000
      vertex  2.251886e+001  0.000000e+000  7.021055e+000
    endloop
  endfacet
  facet normal  9.096314e-001  -0.000000e+000  4.154164e-001
    outer loop
      vertex  2.251886e+001  0.000000e+000  7.021055e+000
      vertex  2.271987e+001  3.000000e+000  6.580911e+000
      vertex  2.251886e+001  3.000000e+000  7.021055e+000
    endloop
  endfacet
  facet normal  9.898217e-001  0.000000e+000  1.423130e-001
    outer loop
      vertex  2.251886e+001  0.000000e+000  7.021055e+000
      vertex  2.251886e+001  3.000000e+000  7.021055e+000
      vertex  2.245000e+001  0.000000e+000  7.500000e+000
    endloop
  endfacet
  facet normal  9.898217e-001  -0.000000e+000  1.423130e-001
    outer loop
      vertex  2.245000e+001  0.000000e+000  7.500000e+000
      vertex  2.251886e+001  3.000000e+000  7.021055e+000
      vertex  2.245000e+001  3.000000e+000  7.500000e+000
    endloop
  endfacet
  facet normal  9.898217e-001  0.000000e+000 -1.423130e-001
    outer loop
      vertex  2.245000e+001  0.000000e+000  7.500000e+000
      vertex  2.245000e+001  3.000000e+000  7.500000e+000
      vertex  2.251886e+001  0.000000e+000  7.978945e+000
    endloop
  endfacet
  facet normal  9.898217e-001  0.000000e+000 -1.423130e-001
    outer loop
      vertex  2.251886e+001  0.000000e+000  7.978945e+000
      vertex  2.245000e+001  3.000000e+000  7.500000e+000
      vertex  2.251886e+001  3.000000e+000  7.978945e+000
    endloop
  endfacet
  facet normal  9.096314e-001  0.000000e+000 -4.154164e-001
    outer loop
      vertex  2.251886e+001  0.000000e+000  7.978945e+000
      vertex  2.251886e+001  3.000000e+000  7.978945e+000
      vertex  2.271987e+001  0.000000e+000  8.419089e+000
    endloop
  endfacet
  facet normal  9.096314e-001  0.000000e+000 -4.154164e-001
    outer loop
      vertex  2.271987e+001  0.000000e+000  8.419089e+000
      vertex  2.251886e+001  3.000000e+000  7.978945e+000
      vertex  2.271987e+001  3.000000e+000  8.419089e+000
    endloop
  endfacet
  facet normal  7.557491e-001  0.000000e+000 -6.548612e-001
    outer loop
      vertex  2.271987e+001  0.000000e+000  8.419089e+000
      vertex  2.271987e+001  3.000000e+000  8.419089e+000
      vertex  2.303674e+001  0.000000e+000  8.784774e+000
    endloop
  endfacet
  facet normal  7.557491e-001  0.000000e+000 -6.548612e-001
    outer loop
      vertex  2.303674e+001  0.000000e+000  8.784774e+000
      vertex  2.271987e+001  3.000000e+000  8.419089e+000
      vertex  2.303674e+001  3.000000e+000  8.784774e+000
    endloop
  endfacet
  facet normal  5.406423e-001  0.000000e+000 -8.412526e-001
    outer loop
      vertex  2.303674e+001  0.000000e+000  8.784774e+000
      vertex  2.303674e+001  3.000000e+000  8.784774e+000
      vertex  2.344379e+001  0.000000e+000  9.046374e+000
    endloop
  endfacet
  facet normal  5.406423e-001  0.000000e+000 -8.412526e-001
    outer loop
      vertex  2.344379e+001  0.000000e+000  9.046374e+000
      vertex  2.303674e+001  3.000000e+000  8.784774e+000
      vertex  2.344379e+001  3.000000e+000  9.046374e+000
    endloop
  endfacet
  facet normal  2.817329e-001  0.000000e+000 -9.594929e-001
    outer loop
      vertex  2.344379e+001  0.000000e+000  9.046374e+000
      vertex  2.344379e+001  3.000000e+000  9.046374e+000
      vertex  2.390806e+001  0.000000e+000  9.182696e+000
    endloop
  endfacet
  facet normal  2.817329e-001  0.000000e+000 -9.594929e-001
    outer loop
      vertex  2.390806e+001  0.000000e+000  9.182696e+000
      vertex  2.344379e+001  3.000000e+000  9.046374e+000
      vertex  2.390806e+001  3.000000e+000  9.182696e+000
    endloop
  endfacet
  facet normal  0.000000e+000  0.000000e+000 -1.000000e+000
    outer loop
      vertex  2.390806e+001  0.000000e+000  9.182696e+000
      vertex  2.390806e+001  3.000000e+000  9.182696e+000
      vertex  2.439194e+001  0.000000e+000  9.182696e+000
    endloop
  endfacet
  facet normal  0.000000e+000  0.000000e+000 -1.000000e+000
    outer loop
      vertex  2.439194e+001  0.000000e+000  9.182696e+000
      vertex  2.390806e+001  3.000000e+000  9.182696e+000
      vertex  2.439194e+001  3.000000e+000  9.182696e+000
    endloop
  endfacet
  facet normal -2.817329e-001  -0.000000e+000 -9.594929e-001
    outer loop
      vertex  2.439194e+001  0.000000e+000  9.182696e+000
      vertex  2.439194e+001  3.000000e+000  9.182696e+000
      vertex  2.485620e+001  0.000000e+000  9.046374e+000
    endloop
  endfacet
  facet normal -2.817329e-001  0.000000e+000 -9.594929e-001
    outer loop
      vertex  2.485620e+001  0.000000e+000  9.046374e+000
      vertex  2.439194e+001  3.000000e+000  9.182696e+000
      vertex  2.485620e+001  3.000000e+000  9.046374e+000
    endloop
  endfacet
  facet normal -5.406404e-001  -0.000000e+000 -8.412538e-001
    outer loop
      vertex  2.485620e+001  0.000000e+000  9.046374e+000
      vertex  2.485620e+001  3.000000e+000  9.046374e+000
      vertex  2.526326e+001  0.000000e+000  8.784774e+000
    endloop
  endfacet
  facet normal -5.406404e-001  0.000000e+000 -8.412538e-001
    outer loop
      vertex  2.526326e+001  0.000000e+000  8.784774e+000
      vertex  2.485620e+001  3.000000e+000  9.046374e+000
      vertex  2.526326e+001  3.000000e+000  8.784774e+000
    endloop
  endfacet
  facet normal -7.557491e-001  -0.000000e+000 -6.548612e-001
    outer loop
      vertex  2.526326e+001  0.000000e+000  8.784774e+000
      vertex  2.526326e+001  3.000000e+000  8.784774e+000
      vertex  2.558013e+001  0.000000e+000  8.419089e+000
    endloop
  endfacet
  facet normal -7.557491e-001  0.000000e+000 -6.548612e-001
    outer loop
      vertex  2.558013e+001  0.000000e+000  8.419089e+000
      vertex  2.526326e+001  3.000000e+000  8.784774e+000
      vertex  2.558013e+001  3.000000e+000  8.419089e+000
    endloop
  endfacet
  facet normal -9.096329e-001  -0.000000e+000 -4.154131e-001
    outer loop
      vertex  2.558013e+001  0.000000e+000  8.419089e+000
      vertex  2.558013e+001  3.000000e+000  8.419089e+000
      vertex  2.578114e+001  0.000000e+000  7.978945e+000
    endloop
  endfacet
  facet normal -9.096329e-001  0.000000e+000 -4.154131e-001
    outer loop
      vertex  2.578114e+001  0.000000e+000  7.978945e+000
      vertex  2.558013e+001  3.000000e+000  8.419089e+000
      vertex  2.578114e+001  3.000000e+000  7.978945e+000
    endloop
  endfacet
  facet normal -9.898213e-001  -0.000000e+000 -1.423168e-001
    outer loop
      vertex  2.578114e+001  0.000000e+000  7.978945e+000
      vertex  2.578114e+001  3.000000e+000  7.978945e+000
      vertex  2.585000e+001  0.000000e+000  7.500000e+000
    endloop
  endfacet
  facet normal -9.898213e-001  0.000000e+000 -1.423168e-001
    outer loop
      vertex  2.585000e+001  0.000000e+000  7.500000e+000
      vertex  2.578114e+001  3.000000e+000  7.978945e+000
      vertex  2.585000e+001  3.000000e+000  7.500000e+000
    endloop
  endfacet
  facet normal -9.898213e-001  0.000000e+000  1.423168e-001
    outer loop
      vertex -3.130000e+001  0.000000e+000  7.500000e+000
      vertex -3.130000e+001  3.000000e+000  7.500000e+000
      vertex -3.136886e+001  0.000000e+000  7.021055e+000
    endloop
  endfacet
  facet normal -9.898213e-001  0.000000e+000  1.423168e-001
    outer loop
      vertex -3.136886e+001  0.000000e+000  7.021055e+000
      vertex -3.130000e+001  3.000000e+000  7.500000e+000
      vertex -3.136886e+001  3.000000e+000  7.021055e+000
    endloop
  endfacet
  facet normal -9.096329e-001  0.000000e+000  4.154131e-001
    outer loop
      vertex -3.136886e+001  0.000000e+000  7.021055e+000
      vertex -3.136886e+001  3.000000e+000  7.021055e+000
      vertex -3.156987e+001  0.000000e+000  6.580911e+000
    endloop
  endfacet
  facet normal -9.096329e-001  0.000000e+000  4.154131e-001
    outer loop
      vertex -3.156987e+001  0.000000e+000  6.580911e+000
      vertex -3.136886e+001  3.000000e+000  7.021055e+000
      vertex -3.156987e+001  3.000000e+000  6.580911e+000
    endloop
  endfacet
  facet normal -7.557496e-001  0.000000e+000  6.548607e-001
    outer loop
      vertex -3.156987e+001  0.000000e+000  6.580911e+000
      vertex -3.156987e+001  3.000000e+000  6.580911e+000
      vertex -3.188674e+001  0.000000e+000  6.215226e+000
    endloop
  endfacet
  facet normal -7.557496e-001  0.000000e+000  6.548607e-001
    outer loop
      vertex -3.188674e+001  0.000000e+000  6.215226e+000
      vertex -3.156987e+001  3.000000e+000  6.580911e+000
      vertex -3.188674e+001  3.000000e+000  6.215226e+000
    endloop
  endfacet
  facet normal -5.406415e-001  0.000000e+000  8.412531e-001
    outer loop
      vertex -3.188674e+001  0.000000e+000  6.215226e+000
      vertex -3.188674e+001  3.000000e+000  6.215226e+000
      vertex -3.229379e+001  0.000000e+000  5.953626e+000
    endloop
  endfacet
  facet normal -5.406415e-001  0.000000e+000  8.412531e-001
    outer loop
      vertex -3.229379e+001  0.000000e+000  5.953626e+000
      vertex -3.188674e+001  3.000000e+000  6.215226e+000
      vertex -3.229379e+001  3.000000e+000  5.953626e+000
    endloop
  endfacet
  facet normal -2.817318e-001  0.000000e+000  9.594932e-001
    outer loop
      vertex -3.229379e+001  0.000000e+000  5.953626e+000
      vertex -3.229379e+001  3.000000e+000  5.953626e+000
      vertex -3.275806e+001  0.000000e+000  5.817304e+000
    endloop
  endfacet
  facet normal -2.817318e-001  0.000000e+000  9.594932e-001
    outer loop
      vertex -3.275806e+001  0.000000e+000  5.817304e+000
      vertex -3.229379e+001  3.000000e+000  5.953626e+000
      vertex -3.275806e+001  3.000000e+000  5.817304e+000
    endloop
  endfacet
  facet normal  0.000000e+000  0.000000e+000  1.000000e+000
    outer loop
      vertex -3.275806e+001  0.000000e+000  5.817304e+000
      vertex -3.275806e+001  3.000000e+000  5.817304e+000
      vertex -3.324194e+001  0.000000e+000  5.817304e+000
    endloop
  endfacet
  facet normal  0.000000e+000  0.000000e+000  1.000000e+000
    outer loop
      vertex -3.324194e+001  0.000000e+000  5.817304e+000
      vertex -3.275806e+001  3.000000e+000  5.817304e+000
      vertex -3.324194e+001  3.000000e+000  5.817304e+000
    endloop
  endfacet
  facet normal  2.817318e-001  0.000000e+000  9.594932e-001
    outer loop
      vertex -3.324194e+001  0.000000e+000  5.817304e+000
      vertex -3.324194e+001  3.000000e+000  5.817304e+000
      vertex -3.370621e+001  0.000000e+000  5.953626e+000
    endloop
  endfacet
  facet normal  2.817318e-001  -0.000000e+000  9.594932e-001
    outer loop
      vertex -3.370621e+001  0.000000e+000  5.953626e+000
      vertex -3.324194e+001  3.000000e+000  5.817304e+000
      vertex -3.370621e+001  3.000000e+000  5.953626e+000
    endloop
  endfacet
  facet normal  5.406434e-001  0.000000e+000  8.412520e-001
    outer loop
      vertex -3.370621e+001  0.000000e+000  5.953626e+000
      vertex -3.370621e+001  3.000000e+000  5.953626e+000
      vertex -3.411326e+001  0.000000e+000  6.215226e+000
    endloop
  endfacet
  facet normal  5.406434e-001  -0.000000e+000  8.412520e-001
    outer loop
      vertex -3.411326e+001  0.000000e+000  6.215226e+000
      vertex -3.370621e+001  3.000000e+000  5.953626e+000
      vertex -3.411326e+001  3.000000e+000  6.215226e+000
    endloop
  endfacet
  facet normal  7.557496e-001  0.000000e+000  6.548607e-001
    outer loop
      vertex -3.411326e+001  0.000000e+000  6.215226e+000
      vertex -3.411326e+001  3.000000e+000  6.215226e+000
      vertex -3.443013e+001  0.000000e+000  6.580911e+000
    endloop
  endfacet
  facet normal  7.557496e-001  -0.000000e+000  6.548607e-001
    outer loop
      vertex -3.443013e+001  0.000000e+000  6.580911e+000
      vertex -3.411326e+001  3.000000e+000  6.215226e+000
      vertex -3.443013e+001  3.000000e+000  6.580911e+000
    endloop
  endfacet
  facet normal  9.096314e-001  0.000000e+000  4.154164e-001
    outer loop
      vertex -3.443013e+001  0.000000e+000  6.580911e+000
      vertex -3.443013e+001  3.000000e+000  6.580911e+000
      vertex -3.463114e+001  0.000000e+000  7.021055e+000
    endloop
  endfacet
  facet normal  9.096314e-001  -0.000000e+000  4.154164e-001
    outer loop
      vertex -3.463114e+001  0.000000e+000  7.021055e+000
      vertex -3.443013e+001  3.000000e+000  6.580911e+000
      vertex -3.463114e+001  3.000000e+000  7.021055e+000
    endloop
  endfacet
  facet normal  9.898213e-001  0.000000e+000  1.423168e-001
    outer loop
      vertex -3.463114e+001  0.000000e+000  7.021055e+000
      vertex -3.463114e+001  3.000000e+000  7.021055e+000
      vertex -3.470000e+001  0.000000e+000  7.500000e+000
    endloop
  endfacet
  facet normal  9.898213e-001  -0.000000e+000  1.423168e-001
    outer loop
      vertex -3.470000e+001  0.000000e+000  7.500000e+000
      vertex -3.463114e+001  3.000000e+000  7.021055e+000
      vertex -3.470000e+001  3.000000e+000  7.500000e+000
    endloop
  endfacet
  facet normal  9.898213e-001  0.000000e+000 -1.423168e-001
    outer loop
      vertex -3.470000e+001  0.000000e+000  7.500000e+000
      vertex -3.470000e+001  3.000000e+000  7.500000e+000
      vertex -3.463114e+001  0.000000e+000  7.978945e+000
    endloop
  endfacet
  facet normal  9.898213e-001  0.000000e+000 -1.423168e-001
    outer loop
      vertex -3.463114e+001  0.000000e+000  7.978945e+000
      vertex -3.470000e+001  3.000000e+000  7.500000e+000
      vertex -3.463114e+001  3.000000e+000  7.978945e+000
    endloop
  endfacet
  facet normal  9.096314e-001  0.000000e+000 -4.154164e-001
    outer loop
      vertex -3.463114e+001  0.000000e+000  7.978945e+000
      vertex -3.463114e+001  3.000000e+000  7.978945e+000
      vertex -3.443013e+001  0.000000e+000  8.419089e+000
    endloop
  endfacet
  facet normal  9.096314e-001  0.000000e+000 -4.154164e-001
    outer loop
      vertex -3.443013e+001  0.000000e+000  8.419089e+000
      vertex -3.463114e+001  3.000000e+000  7.978945e+000
      vertex -3.443013e+001  3.000000e+000  8.419089e+000
    endloop
  endfacet
  facet normal  7.557491e-001  0.000000e+000 -6.548612e-001
    outer loop
      vertex -3.443013e+001  0.000000e+000  8.419089e+000
      vertex -3.443013e+001  3.000000e+000  8.419089e+000
      vertex -3.411326e+001  0.000000e+000  8.784774e+000
    endloop
  endfacet
  facet normal  7.557491e-001  0.000000e+000 -6.548612e-001
    outer loop
      vertex -3.411326e+001  0.000000e+000  8.784774e+000
      vertex -3.443013e+001  3.000000e+000  8.419089e+000
      vertex -3.411326e+001  3.000000e+000  8.784774e+000
    endloop
  endfacet
  facet normal  5.406440e-001  0.000000e+000 -8.412515e-001
    outer loop
      vertex -3.411326e+001  0.000000e+000  8.784774e+000
      vertex -3.411326e+001  3.000000e+000  8.784774e+000
      vertex -3.370621e+001  0.000000e+000  9.046374e+000
    endloop
  endfacet
  facet normal  5.406440e-001  0.000000e+000 -8.412515e-001
    outer loop
      vertex -3.370621e+001  0.000000e+000  9.046374e+000
      vertex -3.411326e+001  3.000000e+000  8.784774e+000
      vertex -3.370621e+001  3.000000e+000  9.046374e+000
    endloop
  endfacet
  facet normal  2.817318e-001  0.000000e+000 -9.594932e-001
    outer loop
      vertex -3.370621e+001  0.000000e+000  9.046374e+000
      vertex -3.370621e+001  3.000000e+000  9.046374e+000
      vertex -3.324194e+001  0.000000e+000  9.182696e+000
    endloop
  endfacet
  facet normal  2.817318e-001  0.000000e+000 -9.594932e-001
    outer loop
      vertex -3.324194e+001  0.000000e+000  9.182696e+000
      vertex -3.370621e+001  3.000000e+000  9.046374e+000
      vertex -3.324194e+001  3.000000e+000  9.182696e+000
    endloop
  endfacet
  facet normal  0.000000e+000  0.000000e+000 -1.000000e+000
    outer loop
      vertex -3.324194e+001  0.000000e+000  9.182696e+000
      vertex -3.324194e+001  3.000000e+000  9.182696e+000
      vertex -3.275806e+001  0.000000e+000  9.182696e+000
    endloop
  endfacet
  facet normal  0.000000e+000  0.000000e+000 -1.000000e+000
    outer loop
      vertex -3.275806e+001  0.000000e+000  9.182696e+000
      vertex -3.324194e+001  3.000000e+000  9.182696e+000
      vertex -3.275806e+001  3.000000e+000  9.182696e+000
    endloop
  endfacet
  facet normal -2.817318e-001  -0.000000e+000 -9.594932e-001
    outer loop
      vertex -3.275806e+001  0.000000e+000  9.182696e+000
      vertex -3.275806e+001  3.000000e+000  9.182696e+000
      vertex -3.229379e+001  0.000000e+000  9.046374e+000
    endloop
  endfacet
  facet normal -2.817318e-001  0.000000e+000 -9.594932e-001
    outer loop
      vertex -3.229379e+001  0.000000e+000  9.046374e+000
      vertex -3.275806e+001  3.000000e+000  9.182696e+000
      vertex -3.229379e+001  3.000000e+000  9.046374e+000
    endloop
  endfacet
  facet normal -5.406423e-001  -0.000000e+000 -8.412526e-001
    outer loop
      vertex -3.229379e+001  0.000000e+000  9.046374e+000
      vertex -3.229379e+001  3.000000e+000  9.046374e+000
      vertex -3.188674e+001  0.000000e+000  8.784774e+000
    endloop
  endfacet
  facet normal -5.406423e-001  0.000000e+000 -8.412526e-001
    outer loop
      vertex -3.188674e+001  0.000000e+000  8.784774e+000
      vertex -3.229379e+001  3.000000e+000  9.046374e+000
      vertex -3.188674e+001  3.000000e+000  8.784774e+000
    endloop
  endfacet
  facet normal -7.557491e-001  -0.000000e+000 -6.548612e-001
    outer loop
      vertex -3.188674e+001  0.000000e+000  8.784774e+000
      vertex -3.188674e+001  3.000000e+000  8.784774e+000
      vertex -3.156987e+001  0.000000e+000  8.419089e+000
    endloop
  endfacet
  facet normal -7.557491e-001  0.000000e+000 -6.548612e-001
    outer loop
      vertex -3.156987e+001  0.000000e+000  8.419089e+000
      vertex -3.188674e+001  3.000000e+000  8.784774e+000
      vertex -3.156987e+001  3.000000e+000  8.419089e+000
    endloop
  endfacet
  facet normal -9.096329e-001  -0.000000e+000 -4.154131e-001
    outer loop
      vertex -3.156987e+001  0.000000e+000  8.419089e+000
      vertex -3.156987e+001  3.000000e+000  8.419089e+000
      vertex -3.136886e+001  0.000000e+000  7.978945e+000
    endloop
  endfacet
  facet normal -9.096329e-001  0.000000e+000 -4.154131e-001
    outer loop
      vertex -3.136886e+001  0.000000e+000  7.978945e+000
      vertex -3.156987e+001  3.000000e+000  8.419089e+000
      vertex -3.136886e+001  3.000000e+000  7.978945e+000
    endloop
  endfacet
  facet normal -9.898213e-001  -0.000000e+000 -1.423168e-001
    outer loop
      vertex -3.136886e+001  0.000000e+000  7.978945e+000
      vertex -3.136886e+001  3.000000e+000  7.978945e+000
      vertex -3.130000e+001  0.000000e+000  7.500000e+000
    endloop
  endfacet
  facet normal -9.898213e-001  0.000000e+000 -1.423168e-001
    outer loop
      vertex -3.130000e+001  0.000000e+000  7.500000e+000
      vertex -3.136886e+001  3.000000e+000  7.978945e+000
      vertex -3.130000e+001  3.000000e+000  7.500000e+000
    endloop
  endfacet
  facet normal -9.999999e-001  0.000000e+000  0.000000e+000
    outer loop
      vertex -3.010000e+001  6.000000e+000  9.174315e+000
      vertex -3.010000e+001  6.000000e+000  5.825684e+000
      vertex -3.010000e+001  3.000000e+000  9.174315e+000
    endloop
  endfacet
  facet normal -9.999999e-001  0.000000e+000  0.000000e+000
    outer loop
      vertex -3.010000e+001  3.000000e+000  9.174315e+000
      vertex -3.010000e+001  6.000000e+000  5.825684e+000
      vertex -3.010000e+001  3.000000e+000  5.825684e+000
    endloop
  endfacet
  facet normal -5.000000e-001  0.000000e+000  8.660254e-001
    outer loop
      vertex -3.010000e+001  6.000000e+000  5.825684e+000
      vertex -3.300000e+001  6.000000e+000  4.151369e+000
      vertex -3.010000e+001  3.000000e+000  5.825684e+000
    endloop
  endfacet
  facet normal -5.000000e-001  0.000000e+000  8.660254e-001
    outer loop
      vertex -3.010000e+001  3.000000e+000  5.825684e+000
      vertex -3.300000e+001  6.000000e+000  4.151369e+000
      vertex -3.300000e+001  3.000000e+000  4.151369e+000
    endloop
  endfacet
  facet normal  4.999997e-001  0.000000e+000  8.660255e-001
    outer loop
      vertex -3.300000e+001  6.000000e+000  4.151369e+000
      vertex -3.590000e+001  6.000000e+000  5.825684e+000
      vertex -3.300000e+001  3.000000e+000  4.151369e+000
    endloop
  endfacet
  facet normal  4.999997e-001  0.000000e+000  8.660255e-001
    outer loop
      vertex -3.300000e+001  3.000000e+000  4.151369e+000
      vertex -3.590000e+001  6.000000e+000  5.825684e+000
      vertex -3.590000e+001  3.000000e+000  5.825684e+000
    endloop
  endfacet
  facet normal  9.999999e-001  0.000000e+000  0.000000e+000
    outer loop
      vertex -3.590000e+001  6.000000e+000  5.825684e+000
      vertex -3.590000e+001  6.000000e+000  9.174315e+000
      vertex -3.590000e+001  3.000000e+000  5.825684e+000
    endloop
  endfacet
  facet normal  9.999999e-001  0.000000e+000  0.000000e+000
    outer loop
      vertex -3.590000e+001  3.000000e+000  5.825684e+000
      vertex -3.590000e+001  6.000000e+000  9.174315e+000
      vertex -3.590000e+001  3.000000e+000  9.174315e+000
    endloop
  endfacet
  facet normal  4.999999e-001  0.000000e+000 -8.660254e-001
    outer loop
      vertex -3.590000e+001  6.000000e+000  9.174315e+000
      vertex -3.300000e+001  6.000000e+000  1.084863e+001
      vertex -3.590000e+001  3.000000e+000  9.174315e+000
    endloop
  endfacet
  facet normal  4.999999e-001  0.000000e+000 -8.660254e-001
    outer loop
      vertex -3.590000e+001  3.000000e+000  9.174315e+000
      vertex -3.300000e+001  6.000000e+000  1.084863e+001
      vertex -3.300000e+001  3.000000e+000  1.084863e+001
    endloop
  endfacet
  facet normal -5.000002e-001  0.000000e+000 -8.660253e-001
    outer loop
      vertex -3.300000e+001  6.000000e+000  1.084863e+001
      vertex -3.010000e+001  6.000000e+000  9.174315e+000
      vertex -3.300000e+001  3.000000e+000  1.084863e+001
    endloop
  endfacet
  facet normal -5.000002e-001  0.000000e+000 -8.660253e-001
    outer loop
      vertex -3.300000e+001  3.000000e+000  1.084863e+001
      vertex -3.010000e+001  6.000000e+000  9.174315e+000
      vertex -3.010000e+001  3.000000e+000  9.174315e+000
    endloop
  endfacet
  facet normal  -0.000000e+000  1.000000e+000  0.000000e+000
    outer loop
      vertex -3.300000e+001  3.000000e+000  4.151369e+000
      vertex -3.324194e+001  3.000000e+000  5.817304e+000
      vertex -3.275806e+001  3.000000e+000  5.817304e+000
    endloop
  endfacet
  facet normal  0.000000e+000  1.000000e+000  0.000000e+000
    outer loop
      vertex -3.300000e+001  3.000000e+000  1.084863e+001
      vertex -3.275806e+001  3.000000e+000  9.182696e+000
      vertex -3.324194e+001  3.000000e+000  9.182696e+000
    endloop
  endfacet
  facet normal  0.000000e+000  1.000000e+000  0.000000e+000
    outer loop
      vertex -3.590000e+001  3.000000e+000  9.174315e+000
      vertex -3.300000e+001  3.000000e+000  1.084863e+001
      vertex -3.324194e+001  3.000000e+000  9.182696e+000
    endloop
  endfacet
  facet normal  0.000000e+000  1.000000e+000  0.000000e+000
    outer loop
      vertex -3.590000e+001  3.000000e+000  9.174315e+000
      vertex -3.324194e+001  3.000000e+000  9.182696e+000
      vertex -3.370621e+001  3.000000e+000  9.046374e+000
    endloop
  endfacet
  facet normal  0.000000e+000  1.000000e+000  0.000000e+000
    outer loop
      vertex -3.590000e+001  3.000000e+000  9.174315e+000
      vertex -3.370621e+001  3.000000e+000  9.046374e+000
      vertex -3.411326e+001  3.000000e+000  8.784774e+000
    endloop
  endfacet
  facet normal  0.000000e+000  1.000000e+000  0.000000e+000
    outer loop
      vertex -3.590000e+001  3.000000e+000  9.174315e+000
      vertex -3.411326e+001  3.000000e+000  8.784774e+000
      vertex -3.443013e+001  3.000000e+000  8.419089e+000
    endloop
  endfacet
  facet normal  0.000000e+000  1.000000e+000  0.000000e+000
    outer loop
      vertex -3.590000e+001  3.000000e+000  9.174315e+000
      vertex -3.443013e+001  3.000000e+000  8.419089e+000
      vertex -3.590000e+001  3.000000e+000  5.825684e+000
    endloop
  endfacet
  facet normal  0.000000e+000  1.000000e+000  0.000000e+000
    outer loop
      vertex -3.010000e+001  3.000000e+000  5.825684e+000
      vertex -3.300000e+001  3.000000e+000  4.151369e+000
      vertex -3.275806e+001  3.000000e+000  5.817304e+000
    endloop
  endfacet
  facet normal  0.000000e+000  1.000000e+000  0.000000e+000
    outer loop
      vertex -3.010000e+001  3.000000e+000  5.825684e+000
      vertex -3.275806e+001  3.000000e+000  5.817304e+000
      vertex -3.229379e+001  3.000000e+000  5.953626e+000
    endloop
  endfacet
  facet normal  -0.000000e+000  9.999999e-001  0.000000e+000
    outer loop
      vertex -3.010000e+001  3.000000e+000  5.825684e+000
      vertex -3.229379e+001  3.000000e+000  5.953626e+000
      vertex -3.188674e+001  3.000000e+000  6.215226e+000
    endloop
  endfacet
  facet normal  -0.000000e+000  1.000000e+000  0.000000e+000
    outer loop
      vertex -3.010000e+001  3.000000e+000  5.825684e+000
      vertex -3.188674e+001  3.000000e+000  6.215226e+000
      vertex -3.156987e+001  3.000000e+000  6.580911e+000
    endloop
  endfacet
  facet normal  -0.000000e+000  1.000000e+000  0.000000e+000
    outer loop
      vertex -3.010000e+001  3.000000e+000  5.825684e+000
      vertex -3.156987e+001  3.000000e+000  6.580911e+000
      vertex -3.136886e+001  3.000000e+000  7.021055e+000
    endloop
  endfacet
  facet normal  -0.000000e+000  1.000000e+000  0.000000e+000
    outer loop
      vertex -3.010000e+001  3.000000e+000  5.825684e+000
      vertex -3.136886e+001  3.000000e+000  7.021055e+000
      vertex -3.130000e+001  3.000000e+000  7.500000e+000
    endloop
  endfacet
  facet normal  -0.000000e+000  1.000000e+000  -0.000000e+000
    outer loop
      vertex -3.010000e+001  3.000000e+000  5.825684e+000
      vertex -3.130000e+001  3.000000e+000  7.500000e+000
      vertex -3.136886e+001  3.000000e+000  7.978945e+000
    endloop
  endfacet
  facet normal  -0.000000e+000  1.000000e+000  -0.000000e+000
    outer loop
      vertex -3.010000e+001  3.000000e+000  5.825684e+000
      vertex -3.136886e+001  3.000000e+000  7.978945e+000
      vertex -3.156987e+001  3.000000e+000  8.419089e+000
    endloop
  endfacet
  facet normal  0.000000e+000  1.000000e+000  -0.000000e+000
    outer loop
      vertex -3.010000e+001  3.000000e+000  9.174315e+000
      vertex -3.010000e+001  3.000000e+000  5.825684e+000
      vertex -3.156987e+001  3.000000e+000  8.419089e+000
    endloop
  endfacet
  facet normal  0.000000e+000  1.000000e+000  -0.000000e+000
    outer loop
      vertex -3.010000e+001  3.000000e+000  9.174315e+000
      vertex -3.156987e+001  3.000000e+000  8.419089e+000
      vertex -3.188674e+001  3.000000e+000  8.784774e+000
    endloop
  endfacet
  facet normal  0.000000e+000  1.000000e+000  -0.000000e+000
    outer loop
      vertex -3.010000e+001  3.000000e+000  9.174315e+000
      vertex -3.188674e+001  3.000000e+000  8.784774e+000
      vertex -3.229379e+001  3.000000e+000  9.046374e+000
    endloop
  endfacet
  facet normal  0.000000e+000  9.999999e-001  -0.000000e+000
    outer loop
      vertex -3.010000e+001  3.000000e+000  9.174315e+000
      vertex -3.229379e+001  3.000000e+000  9.046374e+000
      vertex -3.275806e+001  3.000000e+000  9.182696e+000
    endloop
  endfacet
  facet normal  -0.000000e+000  1.000000e+000  -0.000000e+000
    outer loop
      vertex -3.010000e+001  3.000000e+000  9.174315e+000
      vertex -3.275806e+001  3.000000e+000  9.182696e+000
      vertex -3.300000e+001  3.000000e+000  1.084863e+001
    endloop
  endfacet
  facet normal  0.000000e+000  1.000000e+000  0.000000e+000
    outer loop
      vertex -3.590000e+001  3.000000e+000  5.825684e+000
      vertex -3.443013e+001  3.000000e+000  8.419089e+000
      vertex -3.463114e+001  3.000000e+000  7.978945e+000
    endloop
  endfacet
  facet normal  0.000000e+000  1.000000e+000  0.000000e+000
    outer loop
      vertex -3.590000e+001  3.000000e+000  5.825684e+000
      vertex -3.463114e+001  3.000000e+000  7.978945e+000
      vertex -3.470000e+001  3.000000e+000  7.500000e+000
    endloop
  endfacet
  facet normal  0.000000e+000  1.000000e+000  0.000000e+000
    outer loop
      vertex -3.590000e+001  3.000000e+000  5.825684e+000
      vertex -3.470000e+001  3.000000e+000  7.500000e+000
      vertex -3.463114e+001  3.000000e+000  7.021055e+000
    endloop
  endfacet
  facet normal  0.000000e+000  1.000000e+000  0.000000e+000
    outer loop
      vertex -3.590000e+001  3.000000e+000  5.825684e+000
      vertex -3.463114e+001  3.000000e+000  7.021055e+000
      vertex -3.443013e+001  3.000000e+000  6.580911e+000
    endloop
  endfacet
  facet normal  0.000000e+000  1.000000e+000  0.000000e+000
    outer loop
      vertex -3.590000e+001  3.000000e+000  5.825684e+000
      vertex -3.443013e+001  3.000000e+000  6.580911e+000
      vertex -3.411326e+001  3.000000e+000  6.215226e+000
    endloop
  endfacet
  facet normal  0.000000e+000  1.000000e+000  0.000000e+000
    outer loop
      vertex -3.590000e+001  3.000000e+000  5.825684e+000
      vertex -3.411326e+001  3.000000e+000  6.215226e+000
      vertex -3.370621e+001  3.000000e+000  5.953626e+000
    endloop
  endfacet
  facet normal  0.000000e+000  1.000000e+000  0.000000e+000
    outer loop
      vertex -3.590000e+001  3.000000e+000  5.825684e+000
      vertex -3.370621e+001  3.000000e+000  5.953626e+000
      vertex -3.324194e+001  3.000000e+000  5.817304e+000
    endloop
  endfacet
  facet normal  0.000000e+000  1.000000e+000  0.000000e+000
    outer loop
      vertex -3.590000e+001  3.000000e+000  5.825684e+000
      vertex -3.324194e+001  3.000000e+000  5.817304e+000
      vertex -3.300000e+001  3.000000e+000  4.151369e+000
    endloop
  endfacet
  facet normal  9.999999e-001  0.000000e+000  0.000000e+000
    outer loop
      vertex  2.125000e+001  6.000000e+000  5.825684e+000
      vertex  2.125000e+001  6.000000e+000  9.174315e+000
      vertex  2.125000e+001  3.000000e+000  5.825684e+000
    endloop
  endfacet
  facet normal  9.999999e-001  0.000000e+000  0.000000e+000
    outer loop
      vertex  2.125000e+001  3.000000e+000  5.825684e+000
      vertex  2.125000e+001  6.000000e+000  9.174315e+000
      vertex  2.125000e+001  3.000000e+000  9.174315e+000
    endloop
  endfacet
  facet normal  5.000002e-001  0.000000e+000 -8.660253e-001
    outer loop
      vertex  2.125000e+001  3.000000e+000  9.174315e+000
      vertex  2.125000e+001  6.000000e+000  9.174315e+000
      vertex  2.415000e+001  3.000000e+000  1.084863e+001
    endloop
  endfacet
  facet normal  5.000002e-001  4.654249e-008 -8.660253e-001
    outer loop
      vertex  2.415000e+001  3.000000e+000  1.084863e+001
      vertex  2.125000e+001  6.000000e+000  9.174315e+000
      vertex  2.350000e+001  6.000000e+000  1.047335e+001
    endloop
  endfacet
  facet normal  5.000000e-001  0.000000e+000 -8.660253e-001
    outer loop
      vertex  2.415000e+001  3.000000e+000  1.084863e+001
      vertex  2.350000e+001  6.000000e+000  1.047335e+001
      vertex  2.415000e+001  1.100000e+001  1.084863e+001
    endloop
  endfacet
  facet normal  5.000001e-001  0.000000e+000 -8.660254e-001
    outer loop
      vertex  2.415000e+001  1.100000e+001  1.084863e+001
      vertex  2.350000e+001  6.000000e+000  1.047335e+001
      vertex  2.350000e+001  1.100000e+001  1.047335e+001
    endloop
  endfacet
  facet normal  5.000000e-001  0.000000e+000  8.660253e-001
    outer loop
      vertex  2.415000e+001  1.100000e+001  4.151369e+000
      vertex  2.350000e+001  1.100000e+001  4.526646e+000
      vertex  2.415000e+001  3.000000e+000  4.151369e+000
    endloop
  endfacet
  facet normal  5.000001e-001  0.000000e+000  8.660254e-001
    outer loop
      vertex  2.415000e+001  3.000000e+000  4.151369e+000
      vertex  2.350000e+001  1.100000e+001  4.526646e+000
      vertex  2.350000e+001  6.000000e+000  4.526646e+000
    endloop
  endfacet
  facet normal  5.000000e-001 -2.559504e-008  8.660254e-001
    outer loop
      vertex  2.415000e+001  3.000000e+000  4.151369e+000
      vertex  2.350000e+001  6.000000e+000  4.526646e+000
      vertex  2.125000e+001  3.000000e+000  5.825684e+000
    endloop
  endfacet
  facet normal  4.999999e-001  -0.000000e+000  8.660254e-001
    outer loop
      vertex  2.125000e+001  3.000000e+000  5.825684e+000
      vertex  2.350000e+001  6.000000e+000  4.526646e+000
      vertex  2.125000e+001  6.000000e+000  5.825684e+000
    endloop
  endfacet
  facet normal  0.000000e+000 -9.999999e-001  -0.000000e+000
    outer loop
      vertex  2.705000e+001  1.100000e+001  9.174315e+000
      vertex  2.415000e+001  1.100000e+001  1.084863e+001
      vertex  2.350000e+001  1.100000e+001  1.047335e+001
    endloop
  endfacet
  facet normal  0.000000e+000 -1.000000e+000  0.000000e+000
    outer loop
      vertex  2.705000e+001  1.100000e+001  9.174315e+000
      vertex  2.350000e+001  1.100000e+001  1.047335e+001
      vertex  2.705000e+001  1.100000e+001  5.825684e+000
    endloop
  endfacet
  facet normal  -0.000000e+000 -9.999999e-001  0.000000e+000
    outer loop
      vertex  2.705000e+001  1.100000e+001  5.825684e+000
      vertex  2.350000e+001  1.100000e+001  1.047335e+001
      vertex  2.350000e+001  1.100000e+001  4.526646e+000
    endloop
  endfacet
  facet normal  0.000000e+000 -1.000000e+000  0.000000e+000
    outer loop
      vertex  2.705000e+001  1.100000e+001  5.825684e+000
      vertex  2.350000e+001  1.100000e+001  4.526646e+000
      vertex  2.415000e+001  1.100000e+001  4.151369e+000
    endloop
  endfacet
  facet normal  0.000000e+000  1.000000e+000  0.000000e+000
    outer loop
      vertex  2.415000e+001  3.000000e+000  1.084863e+001
      vertex  2.439194e+001  3.000000e+000  9.182696e+000
      vertex  2.390806e+001  3.000000e+000  9.182696e+000
    endloop
  endfacet
  facet normal  -0.000000e+000  1.000000e+000  0.000000e+000
    outer loop
      vertex  2.415000e+001  3.000000e+000  4.151369e+000
      vertex  2.390806e+001  3.000000e+000  5.817304e+000
      vertex  2.439194e+001  3.000000e+000  5.817304e+000
    endloop
  endfacet
  facet normal  0.000000e+000  1.000000e+000  0.000000e+000
    outer loop
      vertex  2.705000e+001  3.000000e+000  5.825684e+000
      vertex  2.415000e+001  3.000000e+000  4.151369e+000
      vertex  2.439194e+001  3.000000e+000  5.817304e+000
    endloop
  endfacet
  facet normal  0.000000e+000  1.000000e+000  0.000000e+000
    outer loop
      vertex  2.705000e+001  3.000000e+000  5.825684e+000
      vertex  2.439194e+001  3.000000e+000  5.817304e+000
      vertex  2.485620e+001  3.000000e+000  5.953626e+000
    endloop
  endfacet
  facet normal  -0.000000e+000  1.000000e+000  0.000000e+000
    outer loop
      vertex  2.705000e+001  3.000000e+000  5.825684e+000
      vertex  2.485620e+001  3.000000e+000  5.953626e+000
      vertex  2.526326e+001  3.000000e+000  6.215226e+000
    endloop
  endfacet
  facet normal  -0.000000e+000  1.000000e+000  0.000000e+000
    outer loop
      vertex  2.705000e+001  3.000000e+000  5.825684e+000
      vertex  2.526326e+001  3.000000e+000  6.215226e+000
      vertex  2.558013e+001  3.000000e+000  6.580911e+000
    endloop
  endfacet
  facet normal  -0.000000e+000  1.000000e+000  0.000000e+000
    outer loop
      vertex  2.705000e+001  3.000000e+000  5.825684e+000
      vertex  2.558013e+001  3.000000e+000  6.580911e+000
      vertex  2.578114e+001  3.000000e+000  7.021055e+000
    endloop
  endfacet
  facet normal  -0.000000e+000  1.000000e+000  0.000000e+000
    outer loop
      vertex  2.705000e+001  3.000000e+000  5.825684e+000
      vertex  2.578114e+001  3.000000e+000  7.021055e+000
      vertex  2.585000e+001  3.000000e+000  7.500000e+000
    endloop
  endfacet
  facet normal  -0.000000e+000  1.000000e+000  -0.000000e+000
    outer loop
      vertex  2.705000e+001  3.000000e+000  5.825684e+000
      vertex  2.585000e+001  3.000000e+000  7.500000e+000
      vertex  2.578114e+001  3.000000e+000  7.978945e+000
    endloop
  endfacet
  facet normal  -0.000000e+000  1.000000e+000  -0.000000e+000
    outer loop
      vertex  2.705000e+001  3.000000e+000  5.825684e+000
      vertex  2.578114e+001  3.000000e+000  7.978945e+000
      vertex  2.558013e+001  3.000000e+000  8.419089e+000
    endloop
  endfacet
  facet normal  0.000000e+000  1.000000e+000  0.000000e+000
    outer loop
      vertex  2.125000e+001  3.000000e+000  9.174315e+000
      vertex  2.415000e+001  3.000000e+000  1.084863e+001
      vertex  2.390806e+001  3.000000e+000  9.182696e+000
    endloop
  endfacet
  facet normal  0.000000e+000  9.999999e-001  0.000000e+000
    outer loop
      vertex  2.125000e+001  3.000000e+000  9.174315e+000
      vertex  2.390806e+001  3.000000e+000  9.182696e+000
      vertex  2.344379e+001  3.000000e+000  9.046374e+000
    endloop
  endfacet
  facet normal  0.000000e+000  1.000000e+000  0.000000e+000
    outer loop
      vertex  2.125000e+001  3.000000e+000  9.174315e+000
      vertex  2.344379e+001  3.000000e+000  9.046374e+000
      vertex  2.303674e+001  3.000000e+000  8.784774e+000
    endloop
  endfacet
  facet normal  0.000000e+000  1.000000e+000  0.000000e+000
    outer loop
      vertex  2.125000e+001  3.000000e+000  9.174315e+000
      vertex  2.303674e+001  3.000000e+000  8.784774e+000
      vertex  2.271987e+001  3.000000e+000  8.419089e+000
    endloop
  endfacet
  facet normal  0.000000e+000  1.000000e+000  0.000000e+000
    outer loop
      vertex  2.125000e+001  3.000000e+000  9.174315e+000
      vertex  2.271987e+001  3.000000e+000  8.419089e+000
      vertex  2.125000e+001  3.000000e+000  5.825684e+000
    endloop
  endfacet
  facet normal  0.000000e+000  1.000000e+000  -0.000000e+000
    outer loop
      vertex  2.705000e+001  3.000000e+000  9.174315e+000
      vertex  2.705000e+001  3.000000e+000  5.825684e+000
      vertex  2.558013e+001  3.000000e+000  8.419089e+000
    endloop
  endfacet
  facet normal  0.000000e+000  1.000000e+000  -0.000000e+000
    outer loop
      vertex  2.705000e+001  3.000000e+000  9.174315e+000
      vertex  2.558013e+001  3.000000e+000  8.419089e+000
      vertex  2.526326e+001  3.000000e+000  8.784774e+000
    endloop
  endfacet
  facet normal  0.000000e+000  1.000000e+000  -0.000000e+000
    outer loop
      vertex  2.705000e+001  3.000000e+000  9.174315e+000
      vertex  2.526326e+001  3.000000e+000  8.784774e+000
      vertex  2.485620e+001  3.000000e+000  9.046374e+000
    endloop
  endfacet
  facet normal  0.000000e+000  9.999999e-001  -0.000000e+000
    outer loop
      vertex  2.705000e+001  3.000000e+000  9.174315e+000
      vertex  2.485620e+001  3.000000e+000  9.046374e+000
      vertex  2.439194e+001  3.000000e+000  9.182696e+000
    endloop
  endfacet
  facet normal  -0.000000e+000  1.000000e+000  -0.000000e+000
    outer loop
      vertex  2.705000e+001  3.000000e+000  9.174315e+000
      vertex  2.439194e+001  3.000000e+000  9.182696e+000
      vertex  2.415000e+001  3.000000e+000  1.084863e+001
    endloop
  endfacet
  facet normal  0.000000e+000  1.000000e+000  0.000000e+000
    outer loop
      vertex  2.125000e+001  3.000000e+000  5.825684e+000
      vertex  2.271987e+001  3.000000e+000  8.419089e+000
      vertex  2.251886e+001  3.000000e+000  7.978945e+000
    endloop
  endfacet
  facet normal  0.000000e+000  9.999999e-001  0.000000e+000
    outer loop
      vertex  2.125000e+001  3.000000e+000  5.825684e+000
      vertex  2.251886e+001  3.000000e+000  7.978945e+000
      vertex  2.245000e+001  3.000000e+000  7.500000e+000
    endloop
  endfacet
  facet normal  0.000000e+000  1.000000e+000  0.000000e+000
    outer loop
      vertex  2.125000e+001  3.000000e+000  5.825684e+000
      vertex  2.245000e+001  3.000000e+000  7.500000e+000
      vertex  2.251886e+001  3.000000e+000  7.021055e+000
    endloop
  endfacet
  facet normal  0.000000e+000  1.000000e+000  0.000000e+000
    outer loop
      vertex  2.125000e+001  3.000000e+000  5.825684e+000
      vertex  2.251886e+001  3.000000e+000  7.021055e+000
      vertex  2.271987e+001  3.000000e+000  6.580911e+000
    endloop
  endfacet
  facet normal  0.000000e+000  1.000000e+000  0.000000e+000
    outer loop
      vertex  2.125000e+001  3.000000e+000  5.825684e+000
      vertex  2.271987e+001  3.000000e+000  6.580911e+000
      vertex  2.303674e+001  3.000000e+000  6.215226e+000
    endloop
  endfacet
  facet normal  0.000000e+000  1.000000e+000  0.000000e+000
    outer loop
      vertex  2.125000e+001  3.000000e+000  5.825684e+000
      vertex  2.303674e+001  3.000000e+000  6.215226e+000
      vertex  2.344379e+001  3.000000e+000  5.953626e+000
    endloop
  endfacet
  facet normal  0.000000e+000  1.000000e+000  0.000000e+000
    outer loop
      vertex  2.125000e+001  3.000000e+000  5.825684e+000
      vertex  2.344379e+001  3.000000e+000  5.953626e+000
      vertex  2.390806e+001  3.000000e+000  5.817304e+000
    endloop
  endfacet
  facet normal  0.000000e+000  1.000000e+000  0.000000e+000
    outer loop
      vertex  2.125000e+001  3.000000e+000  5.825684e+000
      vertex  2.390806e+001  3.000000e+000  5.817304e+000
      vertex  2.415000e+001  3.000000e+000  4.151369e+000
    endloop
  endfacet
  facet normal -5.000000e-001  0.000000e+000  8.660254e-001
    outer loop
      vertex  2.705000e+001  1.100000e+001  5.825684e+000
      vertex  2.415000e+001  1.100000e+001  4.151369e+000
      vertex  2.705000e+001  3.000000e+000  5.825684e+000
    endloop
  endfacet
  facet normal -5.000000e-001  0.000000e+000  8.660254e-001
    outer loop
      vertex  2.705000e+001  3.000000e+000  5.825684e+000
      vertex  2.415000e+001  1.100000e+001  4.151369e+000
      vertex  2.415000e+001  3.000000e+000  4.151369e+000
    endloop
  endfacet
  facet normal -1.000000e+000  0.000000e+000  0.000000e+000
    outer loop
      vertex  2.705000e+001  1.100000e+001  9.174315e+000
      vertex  2.705000e+001  1.100000e+001  5.825684e+000
      vertex  2.705000e+001  3.000000e+000  9.174315e+000
    endloop
  endfacet
  facet normal -1.000000e+000  0.000000e+000  0.000000e+000
    outer loop
      vertex  2.705000e+001  3.000000e+000  9.174315e+000
      vertex  2.705000e+001  1.100000e+001  5.825684e+000
      vertex  2.705000e+001  3.000000e+000  5.825684e+000
    endloop
  endfacet
  facet normal -5.000002e-001  0.000000e+000 -8.660253e-001
    outer loop
      vertex  2.415000e+001  1.100000e+001  1.084863e+001
      vertex  2.705000e+001  1.100000e+001  9.174315e+000
      vertex  2.415000e+001  3.000000e+000  1.084863e+001
    endloop
  endfacet
  facet normal -5.000002e-001  0.000000e+000 -8.660253e-001
    outer loop
      vertex  2.415000e+001  3.000000e+000  1.084863e+001
      vertex  2.705000e+001  1.100000e+001  9.174315e+000
      vertex  2.705000e+001  3.000000e+000  9.174315e+000
    endloop
  endfacet
  facet normal -3.095926e-016 -1.000000e+000  0.000000e+000
    outer loop
      vertex -3.750000e+001  8.881784e-016  1.500000e+001
      vertex -3.750000e+001  8.881784e-016  0.000000e+000
      vertex -3.463114e+001  0.000000e+000  7.978945e+000
    endloop
  endfacet
  facet normal -1.461954e-016 -1.000000e+000  6.676546e-017
    outer loop
      vertex -3.750000e+001  8.881784e-016  1.500000e+001
      vertex -3.463114e+001  0.000000e+000  7.978945e+000
      vertex -3.443013e+001  0.000000e+000  8.419089e+000
    endloop
  endfacet
  facet normal -1.012484e-016 -1.000000e+000  8.773237e-017
    outer loop
      vertex -3.750000e+001  8.881784e-016  1.500000e+001
      vertex -3.443013e+001  0.000000e+000  8.419089e+000
      vertex -3.411326e+001  0.000000e+000  8.784774e+000
    endloop
  endfacet
  facet normal -8.881784e-017 -1.000000e+000  9.450592e-017
    outer loop
      vertex -3.750000e+001  8.881784e-016  1.500000e+001
      vertex -3.411326e+001  0.000000e+000  8.784774e+000
      vertex -2.750000e+001  0.000000e+000  1.500000e+001
    endloop
  endfacet
  facet normal  0.000000e+000 -1.000000e+000  -0.000000e+000
    outer loop
      vertex -2.750000e+001  0.000000e+000  0.000000e+000
      vertex -2.750000e+001  0.000000e+000  1.500000e+001
      vertex -3.130000e+001  0.000000e+000  7.500000e+000
    endloop
  endfacet
  facet normal  0.000000e+000 -1.000000e+000  -0.000000e+000
    outer loop
      vertex -2.750000e+001  0.000000e+000  0.000000e+000
      vertex -3.130000e+001  0.000000e+000  7.500000e+000
      vertex -3.136886e+001  0.000000e+000  7.021055e+000
    endloop
  endfacet
  facet normal  0.000000e+000 -1.000000e+000  -0.000000e+000
    outer loop
      vertex -2.750000e+001  0.000000e+000  0.000000e+000
      vertex -3.136886e+001  0.000000e+000  7.021055e+000
      vertex -3.156987e+001  0.000000e+000  6.580911e+000
    endloop
  endfacet
  facet normal  0.000000e+000 -1.000000e+000  -0.000000e+000
    outer loop
      vertex -2.750000e+001  0.000000e+000  0.000000e+000
      vertex -3.156987e+001  0.000000e+000  6.580911e+000
      vertex -3.188674e+001  0.000000e+000  6.215226e+000
    endloop
  endfacet
  facet normal  0.000000e+000 -1.000000e+000  -0.000000e+000
    outer loop
      vertex -2.750000e+001  0.000000e+000  0.000000e+000
      vertex -3.188674e+001  0.000000e+000  6.215226e+000
      vertex -3.229379e+001  0.000000e+000  5.953626e+000
    endloop
  endfacet
  facet normal  0.000000e+000 -1.000000e+000  -0.000000e+000
    outer loop
      vertex -2.750000e+001  0.000000e+000  0.000000e+000
      vertex -3.229379e+001  0.000000e+000  5.953626e+000
      vertex -3.275806e+001  0.000000e+000  5.817304e+000
    endloop
  endfacet
  facet normal  -0.000000e+000 -1.000000e+000  -0.000000e+000
    outer loop
      vertex -2.750000e+001  0.000000e+000  0.000000e+000
      vertex -3.275806e+001  0.000000e+000  5.817304e+000
      vertex -3.324194e+001  0.000000e+000  5.817304e+000
    endloop
  endfacet
  facet normal  -0.000000e+000 -1.000000e+000  -0.000000e+000
    outer loop
      vertex -2.750000e+001  0.000000e+000  0.000000e+000
      vertex -3.324194e+001  0.000000e+000  5.817304e+000
      vertex -3.370621e+001  0.000000e+000  5.953626e+000
    endloop
  endfacet
  facet normal  -0.000000e+000 -9.999999e-001  -0.000000e+000
    outer loop
      vertex -2.750000e+001  0.000000e+000  0.000000e+000
      vertex -3.370621e+001  0.000000e+000  5.953626e+000
      vertex -3.411326e+001  0.000000e+000  6.215226e+000
    endloop
  endfacet
  facet normal -8.881785e-017 -1.000000e+000 -9.450593e-017
    outer loop
      vertex -3.750000e+001  8.881784e-016  0.000000e+000
      vertex -2.750000e+001  0.000000e+000  0.000000e+000
      vertex -3.411326e+001  0.000000e+000  6.215226e+000
    endloop
  endfacet
  facet normal -1.012485e-016 -1.000000e+000 -8.773233e-017
    outer loop
      vertex -3.750000e+001  8.881784e-016  0.000000e+000
      vertex -3.411326e+001  0.000000e+000  6.215226e+000
      vertex -3.443013e+001  0.000000e+000  6.580911e+000
    endloop
  endfacet
  facet normal -1.461954e-016 -1.000000e+000 -6.676546e-017
    outer loop
      vertex -3.750000e+001  8.881784e-016  0.000000e+000
      vertex -3.443013e+001  0.000000e+000  6.580911e+000
      vertex -3.463114e+001  0.000000e+000  7.021055e+000
    endloop
  endfacet
  facet normal -2.290093e-016 -1.000000e+000 -3.292703e-017
    outer loop
      vertex -3.750000e+001  8.881784e-016  0.000000e+000
      vertex -3.463114e+001  0.000000e+000  7.021055e+000
      vertex -3.470000e+001  0.000000e+000  7.500000e+000
    endloop
  endfacet
  facet normal -5.158889e-016 -1.000000e+000  7.417469e-017
    outer loop
      vertex -3.750000e+001  8.881784e-016  0.000000e+000
      vertex -3.470000e+001  0.000000e+000  7.500000e+000
      vertex -3.463114e+001  0.000000e+000  7.978945e+000
    endloop
  endfacet
  facet normal  0.000000e+000 -9.999999e-001  0.000000e+000
    outer loop
      vertex -2.750000e+001  0.000000e+000  1.500000e+001
      vertex -3.411326e+001  0.000000e+000  8.784774e+000
      vertex -3.370621e+001  0.000000e+000  9.046374e+000
    endloop
  endfacet
  facet normal  0.000000e+000 -1.000000e+000  0.000000e+000
    outer loop
      vertex -2.750000e+001  0.000000e+000  1.500000e+001
      vertex -3.370621e+001  0.000000e+000  9.046374e+000
      vertex -3.324194e+001  0.000000e+000  9.182696e+000
    endloop
  endfacet
  facet normal  0.000000e+000 -1.000000e+000  0.000000e+000
    outer loop
      vertex -2.750000e+001  0.000000e+000  1.500000e+001
      vertex -3.324194e+001  0.000000e+000  9.182696e+000
      vertex -3.275806e+001  0.000000e+000  9.182696e+000
    endloop
  endfacet
  facet normal  0.000000e+000 -1.000000e+000  0.000000e+000
    outer loop
      vertex -2.750000e+001  0.000000e+000  1.500000e+001
      vertex -3.275806e+001  0.000000e+000  9.182696e+000
      vertex -3.229379e+001  0.000000e+000  9.046374e+000
    endloop
  endfacet
  facet normal  0.000000e+000 -1.000000e+000  0.000000e+000
    outer loop
      vertex -2.750000e+001  0.000000e+000  1.500000e+001
      vertex -3.229379e+001  0.000000e+000  9.046374e+000
      vertex -3.188674e+001  0.000000e+000  8.784774e+000
    endloop
  endfacet
  facet normal  0.000000e+000 -1.000000e+000  0.000000e+000
    outer loop
      vertex -2.750000e+001  0.000000e+000  1.500000e+001
      vertex -3.188674e+001  0.000000e+000  8.784774e+000
      vertex -3.156987e+001  0.000000e+000  8.419089e+000
    endloop
  endfacet
  facet normal  0.000000e+000 -1.000000e+000  0.000000e+000
    outer loop
      vertex -2.750000e+001  0.000000e+000  1.500000e+001
      vertex -3.156987e+001  0.000000e+000  8.419089e+000
      vertex -3.136886e+001  0.000000e+000  7.978945e+000
    endloop
  endfacet
  facet normal  0.000000e+000 -1.000000e+000  0.000000e+000
    outer loop
      vertex -2.750000e+001  0.000000e+000  1.500000e+001
      vertex -3.136886e+001  0.000000e+000  7.978945e+000
      vertex -3.130000e+001  0.000000e+000  7.500000e+000
    endloop
  endfacet
  facet normal -7.071068e-001  7.071068e-001  0.000000e+000
    outer loop
      vertex -3.000000e+000  2.520000e+001  0.000000e+000
      vertex -4.000000e+000  2.420000e+001  0.000000e+000
      vertex -3.000000e+000  2.520000e+001  1.500000e+001
    endloop
  endfacet
  facet normal -7.071068e-001  7.071068e-001  0.000000e+000
    outer loop
      vertex -3.000000e+000  2.520000e+001  1.500000e+001
      vertex -4.000000e+000  2.420000e+001  0.000000e+000
      vertex -4.000000e+000  2.420000e+001  1.500000e+001
    endloop
  endfacet
  facet normal  0.000000e+000  1.000000e+000  0.000000e+000
    outer loop
      vertex  0.000000e+000  2.520000e+001  0.000000e+000
      vertex -3.000000e+000  2.520000e+001  0.000000e+000
      vertex  0.000000e+000  2.520000e+001  1.500000e+001
    endloop
  endfacet
  facet normal  0.000000e+000  1.000000e+000  0.000000e+000
    outer loop
      vertex  0.000000e+000  2.520000e+001  1.500000e+001
      vertex -3.000000e+000  2.520000e+001  0.000000e+000
      vertex -3.000000e+000  2.520000e+001  1.500000e+001
    endloop
  endfacet
  facet normal  0.000000e+000  1.000000e+000  0.000000e+000
    outer loop
      vertex  3.000000e+000  2.520000e+001  0.000000e+000
      vertex  0.000000e+000  2.520000e+001  0.000000e+000
      vertex  3.000000e+000  2.520000e+001  1.500000e+001
    endloop
  endfacet
  facet normal  0.000000e+000  1.000000e+000  0.000000e+000
    outer loop
      vertex  3.000000e+000  2.520000e+001  1.500000e+001
      vertex  0.000000e+000  2.520000e+001  0.000000e+000
      vertex  0.000000e+000  2.520000e+001  1.500000e+001
    endloop
  endfacet
  facet normal  7.071068e-001  7.071068e-001  0.000000e+000
    outer loop
      vertex  4.000000e+000  2.420000e+001  0.000000e+000
      vertex  3.000000e+000  2.520000e+001  0.000000e+000
      vertex  4.000000e+000  2.420000e+001  1.500000e+001
    endloop
  endfacet
  facet normal  7.071068e-001  7.071068e-001  0.000000e+000
    outer loop
      vertex  4.000000e+000  2.420000e+001  1.500000e+001
      vertex  3.000000e+000  2.520000e+001  0.000000e+000
      vertex  3.000000e+000  2.520000e+001  1.500000e+001
    endloop
  endfacet
  facet normal  1.000000e+000  0.000000e+000  0.000000e+000
    outer loop
      vertex  2.750000e+001  3.400000e+001  0.000000e+000
      vertex  2.750000e+001  3.400000e+001  1.500000e+001
      vertex  2.750000e+001  0.000000e+000  0.000000e+000
    endloop
  endfacet
  facet normal  1.000000e+000  0.000000e+000  0.000000e+000
    outer loop
      vertex  2.750000e+001  0.000000e+000  0.000000e+000
      vertex  2.750000e+001  3.400000e+001  1.500000e+001
      vertex  2.750000e+001  0.000000e+000  1.500000e+001
    endloop
  endfacet
  facet normal -1.000000e+000  0.000000e+000  0.000000e+000
    outer loop
      vertex  1.750000e+001  2.000000e+000  0.000000e+000
      vertex  1.750000e+001  0.000000e+000  0.000000e+000
      vertex  1.750000e+001  2.000000e+000  1.500000e+001
    endloop
  endfacet
  facet normal -1.000000e+000  -0.000000e+000  0.000000e+000
    outer loop
      vertex  1.750000e+001  2.000000e+000  1.500000e+001
      vertex  1.750000e+001  0.000000e+000  0.000000e+000
      vertex  1.750000e+001  0.000000e+000  1.500000e+001
    endloop
  endfacet
  facet normal  0.000000e+000 -1.000000e+000  0.000000e+000
    outer loop
      vertex  0.000000e+000  2.000000e+000  1.500000e+001
      vertex  0.000000e+000  2.000000e+000  0.000000e+000
      vertex  1.750000e+001  2.000000e+000  1.500000e+001
    endloop
  endfacet
  facet normal  0.000000e+000 -1.000000e+000  -0.000000e+000
    outer loop
      vertex  1.750000e+001  2.000000e+000  1.500000e+001
      vertex  0.000000e+000  2.000000e+000  0.000000e+000
      vertex  1.750000e+001  2.000000e+000  0.000000e+000
    endloop
  endfacet
  facet normal  0.000000e+000 -1.000000e+000  0.000000e+000
    outer loop
      vertex -1.750000e+001  2.000000e+000  1.500000e+001
      vertex -1.750000e+001  2.000000e+000  0.000000e+000
      vertex  0.000000e+000  2.000000e+000  1.500000e+001
    endloop
  endfacet
  facet normal  0.000000e+000 -1.000000e+000  -0.000000e+000
    outer loop
      vertex  0.000000e+000  2.000000e+000  1.500000e+001
      vertex -1.750000e+001  2.000000e+000  0.000000e+000
      vertex  0.000000e+000  2.000000e+000  0.000000e+000
    endloop
  endfacet
  facet normal  1.000000e+000  0.000000e+000  0.000000e+000
    outer loop
      vertex -1.750000e+001  0.000000e+000  0.000000e+000
      vertex -1.750000e+001  2.000000e+000  0.000000e+000
      vertex -1.750000e+001  0.000000e+000  1.500000e+001
    endloop
  endfacet
  facet normal  1.000000e+000  -0.000000e+000  0.000000e+000
    outer loop
      vertex -1.750000e+001  0.000000e+000  1.500000e+001
      vertex -1.750000e+001  2.000000e+000  0.000000e+000
      vertex -1.750000e+001  2.000000e+000  1.500000e+001
    endloop
  endfacet
  facet normal -1.000000e+000  0.000000e+000  0.000000e+000
    outer loop
      vertex -3.750000e+001  6.000000e+000  0.000000e+000
      vertex -3.750000e+001  8.881784e-016  0.000000e+000
      vertex -3.750000e+001  6.000000e+000  1.500000e+001
    endloop
  endfacet
  facet normal -1.000000e+000  -0.000000e+000  0.000000e+000
    outer loop
      vertex -3.750000e+001  6.000000e+000  1.500000e+001
      vertex -3.750000e+001  8.881784e-016  0.000000e+000
      vertex -3.750000e+001  8.881784e-016  1.500000e+001
    endloop
  endfacet
  facet normal -1.000000e+000  0.000000e+000  0.000000e+000
    outer loop
      vertex -2.750000e+001  3.400000e+001  1.500000e+001
      vertex -2.750000e+001  3.400000e+001  0.000000e+000
      vertex -2.750000e+001  6.000000e+000  1.500000e+001
    endloop
  endfacet
  facet normal -1.000000e+000  0.000000e+000  0.000000e+000
    outer loop
      vertex -2.750000e+001  6.000000e+000  1.500000e+001
      vertex -2.750000e+001  3.400000e+001  0.000000e+000
      vertex -2.750000e+001  6.000000e+000  0.000000e+000
    endloop
  endfacet
endsolid CATIA STL
