solid CATIA STL
  facet normal  7.071068e-001  0.000000e+000 -7.071068e-001
    outer loop
      vertex -7.500000e+000 -7.200000e+000 -7.000000e+000
      vertex -5.500000e+000 -4.000000e+000 -5.000000e+000
      vertex -5.500000e+000 -7.200000e+000 -5.000000e+000
    endloop
  endfacet
  facet normal  7.071068e-001  0.000000e+000 -7.071068e-001
    outer loop
      vertex -5.500000e+000 -4.000000e+000 -5.000000e+000
      vertex -7.500000e+000 -7.200000e+000 -7.000000e+000
      vertex -6.000000e+000 -4.000000e+000 -5.500000e+000
    endloop
  endfacet
  facet normal  7.071068e-001  0.000000e+000 -7.071068e-001
    outer loop
      vertex -6.000000e+000 -4.000000e+000 -5.500000e+000
      vertex -7.500000e+000 -7.200000e+000 -7.000000e+000
      vertex -7.500000e+000  7.200000e+000 -7.000000e+000
    endloop
  endfacet
  facet normal  7.071068e-001  0.000000e+000 -7.071068e-001
    outer loop
      vertex -6.000000e+000 -4.000000e+000 -5.500000e+000
      vertex -7.500000e+000  7.200000e+000 -7.000000e+000
      vertex -6.000000e+000  4.000000e+000 -5.500000e+000
    endloop
  endfacet
  facet normal  7.071068e-001  0.000000e+000 -7.071068e-001
    outer loop
      vertex -6.000000e+000  4.000000e+000 -5.500000e+000
      vertex -7.500000e+000  7.200000e+000 -7.000000e+000
      vertex -5.500000e+000  7.200000e+000 -5.000000e+000
    endloop
  endfacet
  facet normal  7.071068e-001  0.000000e+000 -7.071068e-001
    outer loop
      vertex -6.000000e+000  4.000000e+000 -5.500000e+000
      vertex -5.500000e+000  7.200000e+000 -5.000000e+000
      vertex -5.500000e+000  4.000000e+000 -5.000000e+000
    endloop
  endfacet
  facet normal  9.473904e-016 -1.110223e-015  1.000000e+000
    outer loop
      vertex -1.525000e+001 -7.200000e+000  0.000000e+000
      vertex -1.150000e+001 -7.200000e+000 -3.552714e-015
      vertex -1.150000e+001 -4.000000e+000  0.000000e+000
    endloop
  endfacet
  facet normal  0.000000e+000  -0.000000e+000  1.000000e+000
    outer loop
      vertex -1.525000e+001 -7.200000e+000  0.000000e+000
      vertex -1.150000e+001 -4.000000e+000  0.000000e+000
      vertex -1.150000e+001  4.000000e+000  0.000000e+000
    endloop
  endfacet
  facet normal -3.315867e-015  1.110223e-015  1.000000e+000
    outer loop
      vertex -1.525000e+001 -7.200000e+000  0.000000e+000
      vertex -1.150000e+001  4.000000e+000  0.000000e+000
      vertex -1.150000e+001  7.200000e+000 -3.552714e-015
    endloop
  endfacet
  facet normal  9.473903e-016  0.000000e+000  1.000000e+000
    outer loop
      vertex -1.525000e+001 -7.200000e+000  0.000000e+000
      vertex -1.150000e+001  7.200000e+000 -3.552714e-015
      vertex -1.525000e+001  7.200000e+000  0.000000e+000
    endloop
  endfacet
  facet normal  0.000000e+000  0.000000e+000 -1.000000e+000
    outer loop
      vertex  5.500000e+000  7.200000e+000  2.500000e+000
      vertex  5.500000e+000 -7.200000e+000  2.500000e+000
      vertex  3.165378e+000  7.368072e-001  2.500000e+000
    endloop
  endfacet
  facet normal  0.000000e+000  0.000000e+000 -1.000000e+000
    outer loop
      vertex  5.500000e+000  7.200000e+000  2.500000e+000
      vertex  3.165378e+000  7.368072e-001  2.500000e+000
      vertex  3.011880e+000  1.221098e+000  2.500000e+000
    endloop
  endfacet
  facet normal  0.000000e+000  0.000000e+000 -1.000000e+000
    outer loop
      vertex  5.500000e+000  7.200000e+000  2.500000e+000
      vertex  3.011880e+000  1.221098e+000  2.500000e+000
      vertex  2.784786e+000  1.675550e+000  2.500000e+000
    endloop
  endfacet
  facet normal  0.000000e+000  0.000000e+000 -1.000000e+000
    outer loop
      vertex  5.500000e+000  7.200000e+000  2.500000e+000
      vertex  2.784786e+000  1.675550e+000  2.500000e+000
      vertex  2.489645e+000  2.089060e+000  2.500000e+000
    endloop
  endfacet
  facet normal  0.000000e+000  0.000000e+000 -1.000000e+000
    outer loop
      vertex  5.500000e+000  7.200000e+000  2.500000e+000
      vertex  2.489645e+000  2.089060e+000  2.500000e+000
      vertex  1.515500e+000  3.250000e+000  2.500000e+000
    endloop
  endfacet
  facet normal  0.000000e+000  0.000000e+000 -1.000000e+000
    outer loop
      vertex  5.500000e+000  7.200000e+000  2.500000e+000
      vertex  1.515500e+000  3.250000e+000  2.500000e+000
      vertex -1.515500e+000  3.250000e+000  2.500000e+000
    endloop
  endfacet
  facet normal  0.000000e+000  0.000000e+000 -1.000000e+000
    outer loop
      vertex  5.500000e+000  7.200000e+000  2.500000e+000
      vertex -1.515500e+000  3.250000e+000  2.500000e+000
      vertex -5.500000e+000  7.200000e+000  2.500000e+000
    endloop
  endfacet
  facet normal  0.000000e+000  0.000000e+000 -1.000000e+000
    outer loop
      vertex  5.500000e+000 -7.200000e+000  2.500000e+000
      vertex -5.500000e+000 -7.200000e+000  2.500000e+000
      vertex -2.540171e-001 -3.240058e+000  2.500000e+000
    endloop
  endfacet
  facet normal  0.000000e+000  0.000000e+000 -1.000000e+000
    outer loop
      vertex  5.500000e+000 -7.200000e+000  2.500000e+000
      vertex -2.540171e-001 -3.240058e+000  2.500000e+000
      vertex  2.540171e-001 -3.240058e+000  2.500000e+000
    endloop
  endfacet
  facet normal  0.000000e+000  0.000000e+000 -9.999999e-001
    outer loop
      vertex  5.500000e+000 -7.200000e+000  2.500000e+000
      vertex  2.540171e-001 -3.240058e+000  2.500000e+000
      vertex  7.558442e-001 -3.160886e+000  2.500000e+000
    endloop
  endfacet
  facet normal  0.000000e+000  0.000000e+000 -1.000000e+000
    outer loop
      vertex  5.500000e+000 -7.200000e+000  2.500000e+000
      vertex  7.558442e-001 -3.160886e+000  2.500000e+000
      vertex  1.239202e+000 -3.004476e+000  2.500000e+000
    endloop
  endfacet
  facet normal  0.000000e+000  0.000000e+000 -1.000000e+000
    outer loop
      vertex  5.500000e+000 -7.200000e+000  2.500000e+000
      vertex  1.239202e+000 -3.004476e+000  2.500000e+000
      vertex  1.692279e+000 -2.774651e+000  2.500000e+000
    endloop
  endfacet
  facet normal  0.000000e+000  0.000000e+000 -1.000000e+000
    outer loop
      vertex  5.500000e+000 -7.200000e+000  2.500000e+000
      vertex  1.692279e+000 -2.774651e+000  2.500000e+000
      vertex  2.104005e+000 -2.477027e+000  2.500000e+000
    endloop
  endfacet
  facet normal  0.000000e+000  0.000000e+000 -1.000000e+000
    outer loop
      vertex  5.500000e+000 -7.200000e+000  2.500000e+000
      vertex  2.104005e+000 -2.477027e+000  2.500000e+000
      vertex  2.464319e+000 -2.118875e+000  2.500000e+000
    endloop
  endfacet
  facet normal  0.000000e+000  0.000000e+000 -1.000000e+000
    outer loop
      vertex  5.500000e+000 -7.200000e+000  2.500000e+000
      vertex  2.464319e+000 -2.118875e+000  2.500000e+000
      vertex  2.764416e+000 -1.708948e+000  2.500000e+000
    endloop
  endfacet
  facet normal  0.000000e+000  0.000000e+000 -1.000000e+000
    outer loop
      vertex  5.500000e+000 -7.200000e+000  2.500000e+000
      vertex  2.764416e+000 -1.708948e+000  2.500000e+000
      vertex  2.996964e+000 -1.257262e+000  2.500000e+000
    endloop
  endfacet
  facet normal  0.000000e+000  0.000000e+000 -1.000000e+000
    outer loop
      vertex  5.500000e+000 -7.200000e+000  2.500000e+000
      vertex  2.996964e+000 -1.257262e+000  2.500000e+000
      vertex  3.156280e+000 -7.748538e-001  2.500000e+000
    endloop
  endfacet
  facet normal  0.000000e+000  0.000000e+000 -9.999999e-001
    outer loop
      vertex  5.500000e+000 -7.200000e+000  2.500000e+000
      vertex  3.156280e+000 -7.748538e-001  2.500000e+000
      vertex  3.238471e+000 -2.735122e-001  2.500000e+000
    endloop
  endfacet
  facet normal  0.000000e+000  0.000000e+000 -1.000000e+000
    outer loop
      vertex  5.500000e+000 -7.200000e+000  2.500000e+000
      vertex  3.238471e+000 -2.735122e-001  2.500000e+000
      vertex  3.241528e+000  2.345127e-001  2.500000e+000
    endloop
  endfacet
  facet normal  0.000000e+000  0.000000e+000 -1.000000e+000
    outer loop
      vertex  5.500000e+000 -7.200000e+000  2.500000e+000
      vertex  3.241528e+000  2.345127e-001  2.500000e+000
      vertex  3.165378e+000  7.368072e-001  2.500000e+000
    endloop
  endfacet
  facet normal  0.000000e+000  0.000000e+000 -1.000000e+000
    outer loop
      vertex -5.500000e+000 -7.200000e+000  2.500000e+000
      vertex -3.165378e+000  7.368072e-001  2.500000e+000
      vertex -3.241528e+000  2.345127e-001  2.500000e+000
    endloop
  endfacet
  facet normal  0.000000e+000  -0.000000e+000 -1.000000e+000
    outer loop
      vertex -5.500000e+000 -7.200000e+000  2.500000e+000
      vertex -3.241528e+000  2.345127e-001  2.500000e+000
      vertex -3.238471e+000 -2.735122e-001  2.500000e+000
    endloop
  endfacet
  facet normal  0.000000e+000  -0.000000e+000 -1.000000e+000
    outer loop
      vertex -5.500000e+000 -7.200000e+000  2.500000e+000
      vertex -3.238471e+000 -2.735122e-001  2.500000e+000
      vertex -3.156280e+000 -7.748538e-001  2.500000e+000
    endloop
  endfacet
  facet normal  0.000000e+000  -0.000000e+000 -1.000000e+000
    outer loop
      vertex -5.500000e+000 -7.200000e+000  2.500000e+000
      vertex -3.156280e+000 -7.748538e-001  2.500000e+000
      vertex -2.996964e+000 -1.257262e+000  2.500000e+000
    endloop
  endfacet
  facet normal  0.000000e+000  -0.000000e+000 -1.000000e+000
    outer loop
      vertex -5.500000e+000 -7.200000e+000  2.500000e+000
      vertex -2.996964e+000 -1.257262e+000  2.500000e+000
      vertex -2.764416e+000 -1.708948e+000  2.500000e+000
    endloop
  endfacet
  facet normal  0.000000e+000  -0.000000e+000 -1.000000e+000
    outer loop
      vertex -5.500000e+000 -7.200000e+000  2.500000e+000
      vertex -2.764416e+000 -1.708948e+000  2.500000e+000
      vertex -2.464319e+000 -2.118875e+000  2.500000e+000
    endloop
  endfacet
  facet normal  0.000000e+000  -0.000000e+000 -1.000000e+000
    outer loop
      vertex -5.500000e+000 -7.200000e+000  2.500000e+000
      vertex -2.464319e+000 -2.118875e+000  2.500000e+000
      vertex -2.104005e+000 -2.477027e+000  2.500000e+000
    endloop
  endfacet
  facet normal  0.000000e+000  -0.000000e+000 -1.000000e+000
    outer loop
      vertex -5.500000e+000 -7.200000e+000  2.500000e+000
      vertex -2.104005e+000 -2.477027e+000  2.500000e+000
      vertex -1.692279e+000 -2.774651e+000  2.500000e+000
    endloop
  endfacet
  facet normal  0.000000e+000  -0.000000e+000 -1.000000e+000
    outer loop
      vertex -5.500000e+000 -7.200000e+000  2.500000e+000
      vertex -1.692279e+000 -2.774651e+000  2.500000e+000
      vertex -1.239202e+000 -3.004476e+000  2.500000e+000
    endloop
  endfacet
  facet normal  0.000000e+000  -0.000000e+000 -1.000000e+000
    outer loop
      vertex -5.500000e+000 -7.200000e+000  2.500000e+000
      vertex -1.239202e+000 -3.004476e+000  2.500000e+000
      vertex -7.558442e-001 -3.160886e+000  2.500000e+000
    endloop
  endfacet
  facet normal  0.000000e+000  -0.000000e+000 -9.999999e-001
    outer loop
      vertex -5.500000e+000 -7.200000e+000  2.500000e+000
      vertex -7.558442e-001 -3.160886e+000  2.500000e+000
      vertex -2.540171e-001 -3.240058e+000  2.500000e+000
    endloop
  endfacet
  facet normal  -0.000000e+000  0.000000e+000 -1.000000e+000
    outer loop
      vertex -5.500000e+000  7.200000e+000  2.500000e+000
      vertex -1.515500e+000  3.250000e+000  2.500000e+000
      vertex -2.489645e+000  2.089060e+000  2.500000e+000
    endloop
  endfacet
  facet normal  -0.000000e+000  0.000000e+000 -1.000000e+000
    outer loop
      vertex -5.500000e+000  7.200000e+000  2.500000e+000
      vertex -2.489645e+000  2.089060e+000  2.500000e+000
      vertex -2.784786e+000  1.675550e+000  2.500000e+000
    endloop
  endfacet
  facet normal  -0.000000e+000  0.000000e+000 -1.000000e+000
    outer loop
      vertex -5.500000e+000  7.200000e+000  2.500000e+000
      vertex -2.784786e+000  1.675550e+000  2.500000e+000
      vertex -3.011880e+000  1.221098e+000  2.500000e+000
    endloop
  endfacet
  facet normal  -0.000000e+000  0.000000e+000 -1.000000e+000
    outer loop
      vertex -5.500000e+000  7.200000e+000  2.500000e+000
      vertex -3.011880e+000  1.221098e+000  2.500000e+000
      vertex -3.165378e+000  7.368072e-001  2.500000e+000
    endloop
  endfacet
  facet normal  -0.000000e+000  0.000000e+000 -1.000000e+000
    outer loop
      vertex -5.500000e+000  7.200000e+000  2.500000e+000
      vertex -3.165378e+000  7.368072e-001  2.500000e+000
      vertex -5.500000e+000 -7.200000e+000  2.500000e+000
    endloop
  endfacet
  facet normal  5.465714e-016  8.722737e-017  1.000000e+000
    outer loop
      vertex -1.625000e+001  7.200000e+000 -1.776357e-015
      vertex -1.950000e+001  7.200000e+000  0.000000e+000
      vertex -1.625000e+001 -7.200000e+000 -5.202829e-016
    endloop
  endfacet
  facet normal  1.600870e-016  0.000000e+000  1.000000e+000
    outer loop
      vertex -1.625000e+001 -7.200000e+000 -5.202829e-016
      vertex -1.950000e+001  7.200000e+000  0.000000e+000
      vertex -1.950000e+001 -7.200000e+000  0.000000e+000
    endloop
  endfacet
  facet normal -7.071068e-001  0.000000e+000  7.071068e-001
    outer loop
      vertex -1.625000e+001 -7.200000e+000 -5.202829e-016
      vertex -1.575000e+001 -7.200000e+000  5.000000e-001
      vertex -1.625000e+001  7.200000e+000 -1.776357e-015
    endloop
  endfacet
  facet normal -7.071068e-001  0.000000e+000  7.071068e-001
    outer loop
      vertex -1.625000e+001  7.200000e+000 -1.776357e-015
      vertex -1.575000e+001 -7.200000e+000  5.000000e-001
      vertex -1.575000e+001  7.200000e+000  5.000000e-001
    endloop
  endfacet
  facet normal  7.071068e-001  0.000000e+000  7.071068e-001
    outer loop
      vertex -1.575000e+001 -7.200000e+000  5.000000e-001
      vertex -1.525000e+001 -7.200000e+000  0.000000e+000
      vertex -1.575000e+001  7.200000e+000  5.000000e-001
    endloop
  endfacet
  facet normal  7.071068e-001  0.000000e+000  7.071068e-001
    outer loop
      vertex -1.575000e+001  7.200000e+000  5.000000e-001
      vertex -1.525000e+001 -7.200000e+000  0.000000e+000
      vertex -1.525000e+001  7.200000e+000  0.000000e+000
    endloop
  endfacet
  facet normal -8.585726e-016  0.000000e+000  1.000000e+000
    outer loop
      vertex  1.525000e+001  7.200000e+000  3.219647e-015
      vertex  1.150000e+001  7.200000e+000  0.000000e+000
      vertex  1.150000e+001  4.000000e+000  0.000000e+000
    endloop
  endfacet
  facet normal -8.585725e-016  0.000000e+000  1.000000e+000
    outer loop
      vertex  1.525000e+001  7.200000e+000  3.219647e-015
      vertex  1.150000e+001  4.000000e+000  0.000000e+000
      vertex  1.150000e+001 -4.000000e+000  0.000000e+000
    endloop
  endfacet
  facet normal -8.585726e-016  0.000000e+000  1.000000e+000
    outer loop
      vertex  1.525000e+001  7.200000e+000  3.219647e-015
      vertex  1.150000e+001 -4.000000e+000  0.000000e+000
      vertex  1.150000e+001 -7.200000e+000  0.000000e+000
    endloop
  endfacet
  facet normal -1.776357e-016 -1.773273e-016  1.000000e+000
    outer loop
      vertex  1.525000e+001  7.200000e+000  3.219647e-015
      vertex  1.150000e+001 -7.200000e+000  0.000000e+000
      vertex  1.525000e+001 -7.200000e+000  6.661338e-016
    endloop
  endfacet
  facet normal -7.071068e-001  0.000000e+000  7.071068e-001
    outer loop
      vertex  1.575000e+001 -7.200000e+000  5.000000e-001
      vertex  1.575000e+001  7.200000e+000  5.000000e-001
      vertex  1.525000e+001 -7.200000e+000  6.661338e-016
    endloop
  endfacet
  facet normal -7.071068e-001 -1.253893e-016  7.071068e-001
    outer loop
      vertex  1.525000e+001 -7.200000e+000  6.661338e-016
      vertex  1.575000e+001  7.200000e+000  5.000000e-001
      vertex  1.525000e+001  7.200000e+000  3.219647e-015
    endloop
  endfacet
  facet normal  7.071068e-001  0.000000e+000  7.071068e-001
    outer loop
      vertex  1.625000e+001 -7.200000e+000  0.000000e+000
      vertex  1.625000e+001  7.200000e+000  0.000000e+000
      vertex  1.575000e+001 -7.200000e+000  5.000000e-001
    endloop
  endfacet
  facet normal  7.071068e-001  -0.000000e+000  7.071068e-001
    outer loop
      vertex  1.575000e+001 -7.200000e+000  5.000000e-001
      vertex  1.625000e+001  7.200000e+000  0.000000e+000
      vertex  1.575000e+001  7.200000e+000  5.000000e-001
    endloop
  endfacet
  facet normal  1.366428e-016  0.000000e+000  1.000000e+000
    outer loop
      vertex  1.950000e+001  7.200000e+000 -4.440892e-016
      vertex  1.625000e+001  7.200000e+000  0.000000e+000
      vertex  1.950000e+001 -7.200000e+000 -4.440892e-016
    endloop
  endfacet
  facet normal  1.366428e-016  0.000000e+000  1.000000e+000
    outer loop
      vertex  1.950000e+001 -7.200000e+000 -4.440892e-016
      vertex  1.625000e+001  7.200000e+000  0.000000e+000
      vertex  1.625000e+001 -7.200000e+000  0.000000e+000
    endloop
  endfacet
  facet normal  1.000000e+000  0.000000e+000  0.000000e+000
    outer loop
      vertex  1.950000e+001 -7.200000e+000 -3.000000e+000
      vertex  1.950000e+001  7.200000e+000 -3.000000e+000
      vertex  1.950000e+001 -7.200000e+000 -4.440892e-016
    endloop
  endfacet
  facet normal  1.000000e+000  -0.000000e+000  0.000000e+000
    outer loop
      vertex  1.950000e+001 -7.200000e+000 -4.440892e-016
      vertex  1.950000e+001  7.200000e+000 -3.000000e+000
      vertex  1.950000e+001  7.200000e+000 -4.440892e-016
    endloop
  endfacet
  facet normal  4.472136e-001  0.000000e+000 -8.944272e-001
    outer loop
      vertex  1.150000e+001 -7.200000e+000 -7.000000e+000
      vertex  1.150000e+001  7.200000e+000 -7.000000e+000
      vertex  1.950000e+001 -7.200000e+000 -3.000000e+000
    endloop
  endfacet
  facet normal  4.472136e-001  0.000000e+000 -8.944272e-001
    outer loop
      vertex  1.950000e+001 -7.200000e+000 -3.000000e+000
      vertex  1.150000e+001  7.200000e+000 -7.000000e+000
      vertex  1.950000e+001  7.200000e+000 -3.000000e+000
    endloop
  endfacet
  facet normal  -0.000000e+000  0.000000e+000 -1.000000e+000
    outer loop
      vertex  7.500000e+000  7.200000e+000 -7.000000e+000
      vertex  1.150000e+001  7.200000e+000 -7.000000e+000
      vertex  7.500000e+000 -7.200000e+000 -7.000000e+000
    endloop
  endfacet
  facet normal  0.000000e+000  0.000000e+000 -1.000000e+000
    outer loop
      vertex  7.500000e+000 -7.200000e+000 -7.000000e+000
      vertex  1.150000e+001  7.200000e+000 -7.000000e+000
      vertex  1.150000e+001 -7.200000e+000 -7.000000e+000
    endloop
  endfacet
  facet normal -7.071068e-001  -0.000000e+000 -7.071068e-001
    outer loop
      vertex  5.500000e+000 -7.200000e+000 -5.000000e+000
      vertex  5.500000e+000 -4.000000e+000 -5.000000e+000
      vertex  7.500000e+000 -7.200000e+000 -7.000000e+000
    endloop
  endfacet
  facet normal -7.071068e-001  0.000000e+000 -7.071068e-001
    outer loop
      vertex  7.500000e+000 -7.200000e+000 -7.000000e+000
      vertex  5.500000e+000 -4.000000e+000 -5.000000e+000
      vertex  6.000000e+000 -4.000000e+000 -5.500000e+000
    endloop
  endfacet
  facet normal -7.071068e-001  0.000000e+000 -7.071068e-001
    outer loop
      vertex  7.500000e+000 -7.200000e+000 -7.000000e+000
      vertex  6.000000e+000 -4.000000e+000 -5.500000e+000
      vertex  7.500000e+000  7.200000e+000 -7.000000e+000
    endloop
  endfacet
  facet normal -7.071068e-001  0.000000e+000 -7.071068e-001
    outer loop
      vertex  7.500000e+000  7.200000e+000 -7.000000e+000
      vertex  6.000000e+000 -4.000000e+000 -5.500000e+000
      vertex  6.000000e+000  4.000000e+000 -5.500000e+000
    endloop
  endfacet
  facet normal -7.071068e-001  0.000000e+000 -7.071068e-001
    outer loop
      vertex  7.500000e+000  7.200000e+000 -7.000000e+000
      vertex  6.000000e+000  4.000000e+000 -5.500000e+000
      vertex  5.500000e+000  7.200000e+000 -5.000000e+000
    endloop
  endfacet
  facet normal -7.071068e-001  -0.000000e+000 -7.071068e-001
    outer loop
      vertex  5.500000e+000  7.200000e+000 -5.000000e+000
      vertex  6.000000e+000  4.000000e+000 -5.500000e+000
      vertex  5.500000e+000  4.000000e+000 -5.000000e+000
    endloop
  endfacet
  facet normal -1.000000e+000  0.000000e+000  0.000000e+000
    outer loop
      vertex  5.500000e+000  7.200000e+000 -5.000000e+000
      vertex  5.500000e+000  4.000000e+000 -5.000000e+000
      vertex  5.500000e+000  7.200000e+000  2.500000e+000
    endloop
  endfacet
  facet normal -1.000000e+000  0.000000e+000  0.000000e+000
    outer loop
      vertex  5.500000e+000  7.200000e+000  2.500000e+000
      vertex  5.500000e+000  4.000000e+000 -5.000000e+000
      vertex  5.500000e+000  4.000000e+000 -3.000000e+000
    endloop
  endfacet
  facet normal -1.000000e+000  0.000000e+000  0.000000e+000
    outer loop
      vertex  5.500000e+000  7.200000e+000  2.500000e+000
      vertex  5.500000e+000  4.000000e+000 -3.000000e+000
      vertex  5.500000e+000 -7.200000e+000  2.500000e+000
    endloop
  endfacet
  facet normal -1.000000e+000  0.000000e+000  0.000000e+000
    outer loop
      vertex  5.500000e+000 -7.200000e+000  2.500000e+000
      vertex  5.500000e+000  4.000000e+000 -3.000000e+000
      vertex  5.500000e+000 -4.000000e+000 -3.000000e+000
    endloop
  endfacet
  facet normal -1.000000e+000  -0.000000e+000  0.000000e+000
    outer loop
      vertex  5.500000e+000 -7.200000e+000  2.500000e+000
      vertex  5.500000e+000 -4.000000e+000 -3.000000e+000
      vertex  5.500000e+000 -7.200000e+000 -5.000000e+000
    endloop
  endfacet
  facet normal -1.000000e+000  0.000000e+000  0.000000e+000
    outer loop
      vertex  5.500000e+000 -7.200000e+000 -5.000000e+000
      vertex  5.500000e+000 -4.000000e+000 -3.000000e+000
      vertex  5.500000e+000 -4.000000e+000 -5.000000e+000
    endloop
  endfacet
  facet normal  -0.000000e+000  0.000000e+000 -1.000000e+000
    outer loop
      vertex -1.150000e+001  7.200000e+000 -7.000000e+000
      vertex -7.500000e+000  7.200000e+000 -7.000000e+000
      vertex -1.150000e+001 -7.200000e+000 -7.000000e+000
    endloop
  endfacet
  facet normal  0.000000e+000  0.000000e+000 -1.000000e+000
    outer loop
      vertex -1.150000e+001 -7.200000e+000 -7.000000e+000
      vertex -7.500000e+000  7.200000e+000 -7.000000e+000
      vertex -7.500000e+000 -7.200000e+000 -7.000000e+000
    endloop
  endfacet
  facet normal -4.472136e-001  0.000000e+000 -8.944272e-001
    outer loop
      vertex -1.150000e+001 -7.200000e+000 -7.000000e+000
      vertex -1.950000e+001 -7.200000e+000 -3.000000e+000
      vertex -1.150000e+001  7.200000e+000 -7.000000e+000
    endloop
  endfacet
  facet normal -4.472136e-001  0.000000e+000 -8.944272e-001
    outer loop
      vertex -1.150000e+001  7.200000e+000 -7.000000e+000
      vertex -1.950000e+001 -7.200000e+000 -3.000000e+000
      vertex -1.950000e+001  7.200000e+000 -3.000000e+000
    endloop
  endfacet
  facet normal -1.000000e+000  -0.000000e+000  0.000000e+000
    outer loop
      vertex -1.950000e+001 -7.200000e+000  0.000000e+000
      vertex -1.950000e+001  7.200000e+000  0.000000e+000
      vertex -1.950000e+001 -7.200000e+000 -3.000000e+000
    endloop
  endfacet
  facet normal -1.000000e+000  0.000000e+000  0.000000e+000
    outer loop
      vertex -1.950000e+001 -7.200000e+000 -3.000000e+000
      vertex -1.950000e+001  7.200000e+000  0.000000e+000
      vertex -1.950000e+001  7.200000e+000 -3.000000e+000
    endloop
  endfacet
  facet normal  1.000000e+000  0.000000e+000  0.000000e+000
    outer loop
      vertex  1.150000e+001  7.200000e+000  8.500000e+000
      vertex  1.150000e+001  4.000000e+000  0.000000e+000
      vertex  1.150000e+001  7.200000e+000  0.000000e+000
    endloop
  endfacet
  facet normal  1.000000e+000  0.000000e+000  0.000000e+000
    outer loop
      vertex  1.150000e+001  4.000000e+000  0.000000e+000
      vertex  1.150000e+001  7.200000e+000  8.500000e+000
      vertex  1.150000e+001  4.000000e+000  3.000000e+000
    endloop
  endfacet
  facet normal  1.000000e+000  0.000000e+000  -0.000000e+000
    outer loop
      vertex  1.150000e+001  4.000000e+000  3.000000e+000
      vertex  1.150000e+001  7.200000e+000  8.500000e+000
      vertex  1.150000e+001 -7.200000e+000  8.500000e+000
    endloop
  endfacet
  facet normal  1.000000e+000  0.000000e+000  0.000000e+000
    outer loop
      vertex  1.150000e+001  4.000000e+000  3.000000e+000
      vertex  1.150000e+001 -7.200000e+000  8.500000e+000
      vertex  1.150000e+001 -4.000000e+000  3.000000e+000
    endloop
  endfacet
  facet normal  1.000000e+000  0.000000e+000  0.000000e+000
    outer loop
      vertex  1.150000e+001 -4.000000e+000  3.000000e+000
      vertex  1.150000e+001 -7.200000e+000  8.500000e+000
      vertex  1.150000e+001 -7.200000e+000  0.000000e+000
    endloop
  endfacet
  facet normal  1.000000e+000  0.000000e+000  0.000000e+000
    outer loop
      vertex  1.150000e+001 -4.000000e+000  3.000000e+000
      vertex  1.150000e+001 -7.200000e+000  0.000000e+000
      vertex  1.150000e+001 -4.000000e+000  0.000000e+000
    endloop
  endfacet
  facet normal  0.000000e+000  0.000000e+000  1.000000e+000
    outer loop
      vertex  1.150000e+001 -7.200000e+000  8.500000e+000
      vertex  1.150000e+001  7.200000e+000  8.500000e+000
      vertex  3.241528e+000  2.345127e-001  8.500000e+000
    endloop
  endfacet
  facet normal  0.000000e+000  0.000000e+000  1.000000e+000
    outer loop
      vertex  1.150000e+001 -7.200000e+000  8.500000e+000
      vertex  3.241528e+000  2.345127e-001  8.500000e+000
      vertex  3.238471e+000 -2.735122e-001  8.500000e+000
    endloop
  endfacet
  facet normal  0.000000e+000  0.000000e+000  1.000000e+000
    outer loop
      vertex  1.150000e+001 -7.200000e+000  8.500000e+000
      vertex  3.238471e+000 -2.735122e-001  8.500000e+000
      vertex  3.156280e+000 -7.748538e-001  8.500000e+000
    endloop
  endfacet
  facet normal  0.000000e+000  0.000000e+000  1.000000e+000
    outer loop
      vertex  1.150000e+001 -7.200000e+000  8.500000e+000
      vertex  3.156280e+000 -7.748538e-001  8.500000e+000
      vertex  2.996964e+000 -1.257262e+000  8.500000e+000
    endloop
  endfacet
  facet normal  0.000000e+000  0.000000e+000  1.000000e+000
    outer loop
      vertex  1.150000e+001 -7.200000e+000  8.500000e+000
      vertex  2.996964e+000 -1.257262e+000  8.500000e+000
      vertex  2.764416e+000 -1.708948e+000  8.500000e+000
    endloop
  endfacet
  facet normal  0.000000e+000  0.000000e+000  1.000000e+000
    outer loop
      vertex  1.150000e+001 -7.200000e+000  8.500000e+000
      vertex  2.764416e+000 -1.708948e+000  8.500000e+000
      vertex  2.464319e+000 -2.118875e+000  8.500000e+000
    endloop
  endfacet
  facet normal  0.000000e+000  0.000000e+000  1.000000e+000
    outer loop
      vertex  1.150000e+001 -7.200000e+000  8.500000e+000
      vertex  2.464319e+000 -2.118875e+000  8.500000e+000
      vertex  2.104005e+000 -2.477027e+000  8.500000e+000
    endloop
  endfacet
  facet normal  0.000000e+000  0.000000e+000  1.000000e+000
    outer loop
      vertex  1.150000e+001 -7.200000e+000  8.500000e+000
      vertex  2.104005e+000 -2.477027e+000  8.500000e+000
      vertex  1.692279e+000 -2.774651e+000  8.500000e+000
    endloop
  endfacet
  facet normal  0.000000e+000  0.000000e+000  1.000000e+000
    outer loop
      vertex  1.150000e+001 -7.200000e+000  8.500000e+000
      vertex  1.692279e+000 -2.774651e+000  8.500000e+000
      vertex  1.239202e+000 -3.004476e+000  8.500000e+000
    endloop
  endfacet
  facet normal  0.000000e+000  0.000000e+000  9.999999e-001
    outer loop
      vertex  1.150000e+001 -7.200000e+000  8.500000e+000
      vertex  1.239202e+000 -3.004476e+000  8.500000e+000
      vertex  7.558442e-001 -3.160886e+000  8.500000e+000
    endloop
  endfacet
  facet normal  0.000000e+000  0.000000e+000  1.000000e+000
    outer loop
      vertex  1.150000e+001 -7.200000e+000  8.500000e+000
      vertex  7.558442e-001 -3.160886e+000  8.500000e+000
      vertex  2.540171e-001 -3.240058e+000  8.500000e+000
    endloop
  endfacet
  facet normal  0.000000e+000  0.000000e+000  1.000000e+000
    outer loop
      vertex  1.150000e+001 -7.200000e+000  8.500000e+000
      vertex  2.540171e-001 -3.240058e+000  8.500000e+000
      vertex -2.540171e-001 -3.240058e+000  8.500000e+000
    endloop
  endfacet
  facet normal  0.000000e+000  0.000000e+000  1.000000e+000
    outer loop
      vertex  1.150000e+001 -7.200000e+000  8.500000e+000
      vertex -2.540171e-001 -3.240058e+000  8.500000e+000
      vertex -1.150000e+001 -7.200000e+000  8.500000e+000
    endloop
  endfacet
  facet normal  0.000000e+000  0.000000e+000  1.000000e+000
    outer loop
      vertex -1.150000e+001 -7.200000e+000  8.500000e+000
      vertex -2.540171e-001 -3.240058e+000  8.500000e+000
      vertex -7.558442e-001 -3.160886e+000  8.500000e+000
    endloop
  endfacet
  facet normal  0.000000e+000  0.000000e+000  1.000000e+000
    outer loop
      vertex -1.150000e+001 -7.200000e+000  8.500000e+000
      vertex -7.558442e-001 -3.160886e+000  8.500000e+000
      vertex -1.239202e+000 -3.004476e+000  8.500000e+000
    endloop
  endfacet
  facet normal  0.000000e+000  0.000000e+000  1.000000e+000
    outer loop
      vertex -1.150000e+001 -7.200000e+000  8.500000e+000
      vertex -1.239202e+000 -3.004476e+000  8.500000e+000
      vertex -1.692279e+000 -2.774651e+000  8.500000e+000
    endloop
  endfacet
  facet normal  0.000000e+000  0.000000e+000  1.000000e+000
    outer loop
      vertex -1.150000e+001 -7.200000e+000  8.500000e+000
      vertex -1.692279e+000 -2.774651e+000  8.500000e+000
      vertex -2.104005e+000 -2.477027e+000  8.500000e+000
    endloop
  endfacet
  facet normal  0.000000e+000  0.000000e+000  9.999999e-001
    outer loop
      vertex -1.150000e+001 -7.200000e+000  8.500000e+000
      vertex -2.104005e+000 -2.477027e+000  8.500000e+000
      vertex -2.464319e+000 -2.118875e+000  8.500000e+000
    endloop
  endfacet
  facet normal  0.000000e+000  0.000000e+000  9.999999e-001
    outer loop
      vertex -1.150000e+001 -7.200000e+000  8.500000e+000
      vertex -2.464319e+000 -2.118875e+000  8.500000e+000
      vertex -2.764416e+000 -1.708948e+000  8.500000e+000
    endloop
  endfacet
  facet normal  0.000000e+000  0.000000e+000  1.000000e+000
    outer loop
      vertex -1.150000e+001 -7.200000e+000  8.500000e+000
      vertex -2.764416e+000 -1.708948e+000  8.500000e+000
      vertex -2.996964e+000 -1.257262e+000  8.500000e+000
    endloop
  endfacet
  facet normal  0.000000e+000  0.000000e+000  1.000000e+000
    outer loop
      vertex -1.150000e+001 -7.200000e+000  8.500000e+000
      vertex -2.996964e+000 -1.257262e+000  8.500000e+000
      vertex -3.156280e+000 -7.748538e-001  8.500000e+000
    endloop
  endfacet
  facet normal  0.000000e+000  0.000000e+000  1.000000e+000
    outer loop
      vertex -1.150000e+001 -7.200000e+000  8.500000e+000
      vertex -3.156280e+000 -7.748538e-001  8.500000e+000
      vertex -3.238471e+000 -2.735122e-001  8.500000e+000
    endloop
  endfacet
  facet normal  0.000000e+000  0.000000e+000  1.000000e+000
    outer loop
      vertex -1.150000e+001 -7.200000e+000  8.500000e+000
      vertex -3.238471e+000 -2.735122e-001  8.500000e+000
      vertex -3.241528e+000  2.345127e-001  8.500000e+000
    endloop
  endfacet
  facet normal  0.000000e+000  -0.000000e+000  9.999999e-001
    outer loop
      vertex -1.150000e+001 -7.200000e+000  8.500000e+000
      vertex -3.241528e+000  2.345127e-001  8.500000e+000
      vertex -3.165378e+000  7.368072e-001  8.500000e+000
    endloop
  endfacet
  facet normal  0.000000e+000  -0.000000e+000  1.000000e+000
    outer loop
      vertex -1.150000e+001 -7.200000e+000  8.500000e+000
      vertex -3.165378e+000  7.368072e-001  8.500000e+000
      vertex -3.011880e+000  1.221098e+000  8.500000e+000
    endloop
  endfacet
  facet normal  0.000000e+000  -0.000000e+000  9.999999e-001
    outer loop
      vertex -1.150000e+001 -7.200000e+000  8.500000e+000
      vertex -3.011880e+000  1.221098e+000  8.500000e+000
      vertex -2.784786e+000  1.675550e+000  8.500000e+000
    endloop
  endfacet
  facet normal  0.000000e+000  -0.000000e+000  9.999999e-001
    outer loop
      vertex -1.150000e+001 -7.200000e+000  8.500000e+000
      vertex -2.784786e+000  1.675550e+000  8.500000e+000
      vertex -2.489645e+000  2.089060e+000  8.500000e+000
    endloop
  endfacet
  facet normal  0.000000e+000  -0.000000e+000  1.000000e+000
    outer loop
      vertex -1.150000e+001 -7.200000e+000  8.500000e+000
      vertex -2.489645e+000  2.089060e+000  8.500000e+000
      vertex -1.515500e+000  3.250000e+000  8.500000e+000
    endloop
  endfacet
  facet normal  0.000000e+000  0.000000e+000  1.000000e+000
    outer loop
      vertex -1.150000e+001 -7.200000e+000  8.500000e+000
      vertex -1.515500e+000  3.250000e+000  8.500000e+000
      vertex -1.150000e+001  7.200000e+000  8.500000e+000
    endloop
  endfacet
  facet normal  -0.000000e+000  0.000000e+000  1.000000e+000
    outer loop
      vertex  1.150000e+001  7.200000e+000  8.500000e+000
      vertex -1.150000e+001  7.200000e+000  8.500000e+000
      vertex -1.515500e+000  3.250000e+000  8.500000e+000
    endloop
  endfacet
  facet normal  0.000000e+000  0.000000e+000  1.000000e+000
    outer loop
      vertex  1.150000e+001  7.200000e+000  8.500000e+000
      vertex -1.515500e+000  3.250000e+000  8.500000e+000
      vertex  1.515500e+000  3.250000e+000  8.500000e+000
    endloop
  endfacet
  facet normal  -0.000000e+000  0.000000e+000  1.000000e+000
    outer loop
      vertex  1.150000e+001  7.200000e+000  8.500000e+000
      vertex  1.515500e+000  3.250000e+000  8.500000e+000
      vertex  2.489645e+000  2.089060e+000  8.500000e+000
    endloop
  endfacet
  facet normal  -0.000000e+000  0.000000e+000  1.000000e+000
    outer loop
      vertex  1.150000e+001  7.200000e+000  8.500000e+000
      vertex  2.489645e+000  2.089060e+000  8.500000e+000
      vertex  2.784786e+000  1.675550e+000  8.500000e+000
    endloop
  endfacet
  facet normal  -0.000000e+000  0.000000e+000  1.000000e+000
    outer loop
      vertex  1.150000e+001  7.200000e+000  8.500000e+000
      vertex  2.784786e+000  1.675550e+000  8.500000e+000
      vertex  3.011880e+000  1.221098e+000  8.500000e+000
    endloop
  endfacet
  facet normal  -0.000000e+000  0.000000e+000  1.000000e+000
    outer loop
      vertex  1.150000e+001  7.200000e+000  8.500000e+000
      vertex  3.011880e+000  1.221098e+000  8.500000e+000
      vertex  3.165378e+000  7.368072e-001  8.500000e+000
    endloop
  endfacet
  facet normal  -0.000000e+000  0.000000e+000  1.000000e+000
    outer loop
      vertex  1.150000e+001  7.200000e+000  8.500000e+000
      vertex  3.165378e+000  7.368072e-001  8.500000e+000
      vertex  3.241528e+000  2.345127e-001  8.500000e+000
    endloop
  endfacet
  facet normal  1.000000e+000  0.000000e+000  0.000000e+000
    outer loop
      vertex -5.500000e+000 -7.200000e+000 -5.000000e+000
      vertex -5.500000e+000 -4.000000e+000 -5.000000e+000
      vertex -5.500000e+000 -7.200000e+000  2.500000e+000
    endloop
  endfacet
  facet normal  1.000000e+000  0.000000e+000  0.000000e+000
    outer loop
      vertex -5.500000e+000 -7.200000e+000  2.500000e+000
      vertex -5.500000e+000 -4.000000e+000 -5.000000e+000
      vertex -5.500000e+000 -4.000000e+000 -3.000000e+000
    endloop
  endfacet
  facet normal  1.000000e+000  0.000000e+000  -0.000000e+000
    outer loop
      vertex -5.500000e+000 -7.200000e+000  2.500000e+000
      vertex -5.500000e+000 -4.000000e+000 -3.000000e+000
      vertex -5.500000e+000  7.200000e+000  2.500000e+000
    endloop
  endfacet
  facet normal  1.000000e+000  0.000000e+000  0.000000e+000
    outer loop
      vertex -5.500000e+000  7.200000e+000  2.500000e+000
      vertex -5.500000e+000 -4.000000e+000 -3.000000e+000
      vertex -5.500000e+000  4.000000e+000 -3.000000e+000
    endloop
  endfacet
  facet normal  1.000000e+000  -0.000000e+000  0.000000e+000
    outer loop
      vertex -5.500000e+000  7.200000e+000  2.500000e+000
      vertex -5.500000e+000  4.000000e+000 -3.000000e+000
      vertex -5.500000e+000  7.200000e+000 -5.000000e+000
    endloop
  endfacet
  facet normal  1.000000e+000  0.000000e+000  0.000000e+000
    outer loop
      vertex -5.500000e+000  7.200000e+000 -5.000000e+000
      vertex -5.500000e+000  4.000000e+000 -3.000000e+000
      vertex -5.500000e+000  4.000000e+000 -5.000000e+000
    endloop
  endfacet
  facet normal -1.000000e+000  -0.000000e+000  0.000000e+000
    outer loop
      vertex -1.150000e+001 -7.200000e+000  8.500000e+000
      vertex -1.150000e+001 -4.000000e+000  0.000000e+000
      vertex -1.150000e+001 -7.200000e+000 -3.552714e-015
    endloop
  endfacet
  facet normal -1.000000e+000  0.000000e+000  0.000000e+000
    outer loop
      vertex -1.150000e+001 -4.000000e+000  0.000000e+000
      vertex -1.150000e+001 -7.200000e+000  8.500000e+000
      vertex -1.150000e+001 -4.000000e+000  3.000000e+000
    endloop
  endfacet
  facet normal -1.000000e+000  0.000000e+000  0.000000e+000
    outer loop
      vertex -1.150000e+001 -4.000000e+000  3.000000e+000
      vertex -1.150000e+001 -7.200000e+000  8.500000e+000
      vertex -1.150000e+001  7.200000e+000  8.500000e+000
    endloop
  endfacet
  facet normal -1.000000e+000  0.000000e+000  0.000000e+000
    outer loop
      vertex -1.150000e+001 -4.000000e+000  3.000000e+000
      vertex -1.150000e+001  7.200000e+000  8.500000e+000
      vertex -1.150000e+001  4.000000e+000  3.000000e+000
    endloop
  endfacet
  facet normal -1.000000e+000  0.000000e+000  0.000000e+000
    outer loop
      vertex -1.150000e+001  4.000000e+000  3.000000e+000
      vertex -1.150000e+001  7.200000e+000  8.500000e+000
      vertex -1.150000e+001  7.200000e+000 -3.552714e-015
    endloop
  endfacet
  facet normal -1.000000e+000  0.000000e+000  0.000000e+000
    outer loop
      vertex -1.150000e+001  4.000000e+000  3.000000e+000
      vertex -1.150000e+001  7.200000e+000 -3.552714e-015
      vertex -1.150000e+001  4.000000e+000  0.000000e+000
    endloop
  endfacet
  facet normal  -0.000000e+000 -1.000000e+000  -0.000000e+000
    outer loop
      vertex -6.300000e+000 -8.000000e+000 -4.668629e+000
      vertex -1.558137e+001 -8.000000e+000 -8.000000e-001
      vertex -1.591863e+001 -8.000000e+000 -8.000000e-001
    endloop
  endfacet
  facet normal  0.000000e+000 -1.000000e+000  -0.000000e+000
    outer loop
      vertex -1.558137e+001 -8.000000e+000 -8.000000e-001
      vertex -1.575000e+001 -8.000000e+000 -6.313708e-001
      vertex -1.591863e+001 -8.000000e+000 -8.000000e-001
    endloop
  endfacet
  facet normal  -0.000000e+000 -1.000000e+000  -0.000000e+000
    outer loop
      vertex  1.870000e+001 -8.000000e+000 -2.505573e+000
      vertex  1.591863e+001 -8.000000e+000 -8.000000e-001
      vertex  1.558137e+001 -8.000000e+000 -8.000000e-001
    endloop
  endfacet
  facet normal  0.000000e+000 -1.000000e+000  -0.000000e+000
    outer loop
      vertex  1.591863e+001 -8.000000e+000 -8.000000e-001
      vertex  1.575000e+001 -8.000000e+000 -6.313708e-001
      vertex  1.558137e+001 -8.000000e+000 -8.000000e-001
    endloop
  endfacet
  facet normal  0.000000e+000 -1.000000e+000  0.000000e+000
    outer loop
      vertex  1.870000e+001 -8.000000e+000 -8.000000e-001
      vertex  1.591863e+001 -8.000000e+000 -8.000000e-001
      vertex  1.870000e+001 -8.000000e+000 -2.505573e+000
    endloop
  endfacet
  facet normal  0.000000e+000 -1.000000e+000  0.000000e+000
    outer loop
      vertex -1.558137e+001 -8.000000e+000 -8.000000e-001
      vertex -6.300000e+000 -8.000000e+000 -4.668629e+000
      vertex -1.070000e+001 -8.000000e+000 -8.000000e-001
    endloop
  endfacet
  facet normal  0.000000e+000 -1.000000e+000  0.000000e+000
    outer loop
      vertex -1.070000e+001 -8.000000e+000 -8.000000e-001
      vertex -6.300000e+000 -8.000000e+000 -4.668629e+000
      vertex -6.300000e+000 -8.000000e+000  3.300000e+000
    endloop
  endfacet
  facet normal  -0.000000e+000 -1.000000e+000  0.000000e+000
    outer loop
      vertex -1.070000e+001 -8.000000e+000 -8.000000e-001
      vertex -6.300000e+000 -8.000000e+000  3.300000e+000
      vertex -1.070000e+001 -8.000000e+000  7.700000e+000
    endloop
  endfacet
  facet normal  0.000000e+000 -1.000000e+000  0.000000e+000
    outer loop
      vertex -1.070000e+001 -8.000000e+000  7.700000e+000
      vertex -6.300000e+000 -8.000000e+000  3.300000e+000
      vertex  6.300000e+000 -8.000000e+000  3.300000e+000
    endloop
  endfacet
  facet normal  0.000000e+000 -1.000000e+000  0.000000e+000
    outer loop
      vertex -1.070000e+001 -8.000000e+000  7.700000e+000
      vertex  6.300000e+000 -8.000000e+000  3.300000e+000
      vertex  1.070000e+001 -8.000000e+000  7.700000e+000
    endloop
  endfacet
  facet normal  0.000000e+000 -1.000000e+000  0.000000e+000
    outer loop
      vertex  1.070000e+001 -8.000000e+000  7.700000e+000
      vertex  6.300000e+000 -8.000000e+000  3.300000e+000
      vertex  6.300000e+000 -8.000000e+000 -4.668629e+000
    endloop
  endfacet
  facet normal  0.000000e+000 -1.000000e+000  0.000000e+000
    outer loop
      vertex  1.070000e+001 -8.000000e+000  7.700000e+000
      vertex  6.300000e+000 -8.000000e+000 -4.668629e+000
      vertex  1.070000e+001 -8.000000e+000 -8.000000e-001
    endloop
  endfacet
  facet normal  0.000000e+000 -1.000000e+000  0.000000e+000
    outer loop
      vertex  1.070000e+001 -8.000000e+000 -8.000000e-001
      vertex  6.300000e+000 -8.000000e+000 -4.668629e+000
      vertex  1.558137e+001 -8.000000e+000 -8.000000e-001
    endloop
  endfacet
  facet normal  0.000000e+000 -9.999999e-001  -0.000000e+000
    outer loop
      vertex  1.558137e+001 -8.000000e+000 -8.000000e-001
      vertex  6.300000e+000 -8.000000e+000 -4.668629e+000
      vertex  1.870000e+001 -8.000000e+000 -2.505573e+000
    endloop
  endfacet
  facet normal  0.000000e+000 -1.000000e+000  0.000000e+000
    outer loop
      vertex  6.300000e+000 -8.000000e+000 -4.668629e+000
      vertex  7.831371e+000 -8.000000e+000 -6.200000e+000
      vertex  1.870000e+001 -8.000000e+000 -2.505573e+000
    endloop
  endfacet
  facet normal  0.000000e+000 -1.000000e+000  0.000000e+000
    outer loop
      vertex  1.870000e+001 -8.000000e+000 -2.505573e+000
      vertex  7.831371e+000 -8.000000e+000 -6.200000e+000
      vertex  1.131115e+001 -8.000000e+000 -6.200000e+000
    endloop
  endfacet
  facet normal  0.000000e+000 -1.000000e+000  0.000000e+000
    outer loop
      vertex -1.870000e+001 -8.000000e+000 -8.000000e-001
      vertex -1.870000e+001 -8.000000e+000 -2.505573e+000
      vertex -1.591863e+001 -8.000000e+000 -8.000000e-001
    endloop
  endfacet
  facet normal  0.000000e+000 -1.000000e+000  -0.000000e+000
    outer loop
      vertex -1.591863e+001 -8.000000e+000 -8.000000e-001
      vertex -1.870000e+001 -8.000000e+000 -2.505573e+000
      vertex -6.300000e+000 -8.000000e+000 -4.668629e+000
    endloop
  endfacet
  facet normal  0.000000e+000 -1.000000e+000  0.000000e+000
    outer loop
      vertex -1.870000e+001 -8.000000e+000 -2.505573e+000
      vertex -1.131115e+001 -8.000000e+000 -6.200000e+000
      vertex -6.300000e+000 -8.000000e+000 -4.668629e+000
    endloop
  endfacet
  facet normal  0.000000e+000 -9.999999e-001  0.000000e+000
    outer loop
      vertex -6.300000e+000 -8.000000e+000 -4.668629e+000
      vertex -1.131115e+001 -8.000000e+000 -6.200000e+000
      vertex -7.831371e+000 -8.000000e+000 -6.200000e+000
    endloop
  endfacet
  facet normal -3.162278e-001 -7.071067e-001 -6.324555e-001
    outer loop
      vertex -1.150000e+001 -7.200000e+000 -7.000000e+000
      vertex -1.131115e+001 -8.000000e+000 -6.200000e+000
      vertex -1.950000e+001 -7.200000e+000 -3.000000e+000
    endloop
  endfacet
  facet normal -3.162279e-001 -7.071065e-001 -6.324558e-001
    outer loop
      vertex -1.950000e+001 -7.200000e+000 -3.000000e+000
      vertex -1.131115e+001 -8.000000e+000 -6.200000e+000
      vertex -1.870000e+001 -8.000000e+000 -2.505573e+000
    endloop
  endfacet
  facet normal  -0.000000e+000 -7.071068e-001 -7.071068e-001
    outer loop
      vertex -1.150000e+001 -7.200000e+000 -7.000000e+000
      vertex -7.500000e+000 -7.200000e+000 -7.000000e+000
      vertex -1.131115e+001 -8.000000e+000 -6.200000e+000
    endloop
  endfacet
  facet normal  0.000000e+000 -7.071068e-001 -7.071068e-001
    outer loop
      vertex -1.131115e+001 -8.000000e+000 -6.200000e+000
      vertex -7.500000e+000 -7.200000e+000 -7.000000e+000
      vertex -7.831371e+000 -8.000000e+000 -6.200000e+000
    endloop
  endfacet
  facet normal  5.000000e-001 -7.071068e-001 -5.000000e-001
    outer loop
      vertex -7.500000e+000 -7.200000e+000 -7.000000e+000
      vertex -5.500000e+000 -7.200000e+000 -5.000000e+000
      vertex -7.831371e+000 -8.000000e+000 -6.200000e+000
    endloop
  endfacet
  facet normal  5.000001e-001 -7.071068e-001 -5.000001e-001
    outer loop
      vertex -7.831371e+000 -8.000000e+000 -6.200000e+000
      vertex -5.500000e+000 -7.200000e+000 -5.000000e+000
      vertex -6.300000e+000 -8.000000e+000 -4.668629e+000
    endloop
  endfacet
  facet normal  7.071068e-001 -7.071068e-001  0.000000e+000
    outer loop
      vertex -5.500000e+000 -7.200000e+000  2.500000e+000
      vertex -6.300000e+000 -8.000000e+000  3.300000e+000
      vertex -5.500000e+000 -7.200000e+000 -5.000000e+000
    endloop
  endfacet
  facet normal  7.071068e-001 -7.071068e-001  0.000000e+000
    outer loop
      vertex -5.500000e+000 -7.200000e+000 -5.000000e+000
      vertex -6.300000e+000 -8.000000e+000  3.300000e+000
      vertex -6.300000e+000 -8.000000e+000 -4.668629e+000
    endloop
  endfacet
  facet normal  0.000000e+000 -7.071066e-001 -7.071069e-001
    outer loop
      vertex  5.500000e+000 -7.200000e+000  2.500000e+000
      vertex  6.300000e+000 -8.000000e+000  3.300000e+000
      vertex -5.500000e+000 -7.200000e+000  2.500000e+000
    endloop
  endfacet
  facet normal  0.000000e+000 -7.071067e-001 -7.071069e-001
    outer loop
      vertex -5.500000e+000 -7.200000e+000  2.500000e+000
      vertex  6.300000e+000 -8.000000e+000  3.300000e+000
      vertex -6.300000e+000 -8.000000e+000  3.300000e+000
    endloop
  endfacet
  facet normal -7.071067e-001 -7.071067e-001  0.000000e+000
    outer loop
      vertex  5.500000e+000 -7.200000e+000 -5.000000e+000
      vertex  6.300000e+000 -8.000000e+000 -4.668629e+000
      vertex  5.500000e+000 -7.200000e+000  2.500000e+000
    endloop
  endfacet
  facet normal -7.071068e-001 -7.071068e-001  0.000000e+000
    outer loop
      vertex  5.500000e+000 -7.200000e+000  2.500000e+000
      vertex  6.300000e+000 -8.000000e+000 -4.668629e+000
      vertex  6.300000e+000 -8.000000e+000  3.300000e+000
    endloop
  endfacet
  facet normal -5.000000e-001 -7.071068e-001 -5.000000e-001
    outer loop
      vertex  7.500000e+000 -7.200000e+000 -7.000000e+000
      vertex  7.831371e+000 -8.000000e+000 -6.200000e+000
      vertex  5.500000e+000 -7.200000e+000 -5.000000e+000
    endloop
  endfacet
  facet normal -5.000000e-001 -7.071068e-001 -5.000001e-001
    outer loop
      vertex  5.500000e+000 -7.200000e+000 -5.000000e+000
      vertex  7.831371e+000 -8.000000e+000 -6.200000e+000
      vertex  6.300000e+000 -8.000000e+000 -4.668629e+000
    endloop
  endfacet
  facet normal  -0.000000e+000 -7.071068e-001 -7.071068e-001
    outer loop
      vertex  7.500000e+000 -7.200000e+000 -7.000000e+000
      vertex  1.150000e+001 -7.200000e+000 -7.000000e+000
      vertex  7.831371e+000 -8.000000e+000 -6.200000e+000
    endloop
  endfacet
  facet normal  0.000000e+000 -7.071068e-001 -7.071068e-001
    outer loop
      vertex  7.831371e+000 -8.000000e+000 -6.200000e+000
      vertex  1.150000e+001 -7.200000e+000 -7.000000e+000
      vertex  1.131115e+001 -8.000000e+000 -6.200000e+000
    endloop
  endfacet
  facet normal  3.162278e-001 -7.071067e-001 -6.324555e-001
    outer loop
      vertex  1.150000e+001 -7.200000e+000 -7.000000e+000
      vertex  1.950000e+001 -7.200000e+000 -3.000000e+000
      vertex  1.131115e+001 -8.000000e+000 -6.200000e+000
    endloop
  endfacet
  facet normal  3.162279e-001 -7.071065e-001 -6.324558e-001
    outer loop
      vertex  1.131115e+001 -8.000000e+000 -6.200000e+000
      vertex  1.950000e+001 -7.200000e+000 -3.000000e+000
      vertex  1.870000e+001 -8.000000e+000 -2.505573e+000
    endloop
  endfacet
  facet normal  7.071072e-001 -7.071064e-001  0.000000e+000
    outer loop
      vertex  1.950000e+001 -7.200000e+000 -3.000000e+000
      vertex  1.950000e+001 -7.200000e+000 -4.440892e-016
      vertex  1.870000e+001 -8.000000e+000 -2.505573e+000
    endloop
  endfacet
  facet normal  7.071072e-001 -7.071064e-001  0.000000e+000
    outer loop
      vertex  1.870000e+001 -8.000000e+000 -2.505573e+000
      vertex  1.950000e+001 -7.200000e+000 -4.440892e-016
      vertex  1.870000e+001 -8.000000e+000 -8.000000e-001
    endloop
  endfacet
  facet normal  9.662108e-017 -7.071067e-001  7.071068e-001
    outer loop
      vertex  1.950000e+001 -7.200000e+000 -4.440892e-016
      vertex  1.625000e+001 -7.200000e+000  0.000000e+000
      vertex  1.870000e+001 -8.000000e+000 -8.000000e-001
    endloop
  endfacet
  facet normal  0.000000e+000 -7.071067e-001  7.071068e-001
    outer loop
      vertex  1.870000e+001 -8.000000e+000 -8.000000e-001
      vertex  1.625000e+001 -7.200000e+000  0.000000e+000
      vertex  1.591863e+001 -8.000000e+000 -8.000000e-001
    endloop
  endfacet
  facet normal  5.000000e-001 -7.071068e-001  5.000000e-001
    outer loop
      vertex  1.625000e+001 -7.200000e+000  0.000000e+000
      vertex  1.575000e+001 -7.200000e+000  5.000000e-001
      vertex  1.591863e+001 -8.000000e+000 -8.000000e-001
    endloop
  endfacet
  facet normal  5.000011e-001 -7.071061e-001  4.999997e-001
    outer loop
      vertex  1.591863e+001 -8.000000e+000 -8.000000e-001
      vertex  1.575000e+001 -7.200000e+000  5.000000e-001
      vertex  1.575000e+001 -8.000000e+000 -6.313708e-001
    endloop
  endfacet
  facet normal -4.999999e-001 -7.071069e-001  5.000000e-001
    outer loop
      vertex  1.525000e+001 -7.200000e+000  6.661338e-016
      vertex  1.558137e+001 -8.000000e+000 -8.000000e-001
      vertex  1.575000e+001 -7.200000e+000  5.000000e-001
    endloop
  endfacet
  facet normal -5.000011e-001 -7.071062e-001  4.999997e-001
    outer loop
      vertex  1.575000e+001 -7.200000e+000  5.000000e-001
      vertex  1.558137e+001 -8.000000e+000 -8.000000e-001
      vertex  1.575000e+001 -8.000000e+000 -6.313708e-001
    endloop
  endfacet
  facet normal -1.256074e-016 -7.071067e-001  7.071069e-001
    outer loop
      vertex  1.525000e+001 -7.200000e+000  6.661338e-016
      vertex  1.150000e+001 -7.200000e+000  0.000000e+000
      vertex  1.558137e+001 -8.000000e+000 -8.000000e-001
    endloop
  endfacet
  facet normal  0.000000e+000 -7.071067e-001  7.071069e-001
    outer loop
      vertex  1.558137e+001 -8.000000e+000 -8.000000e-001
      vertex  1.150000e+001 -7.200000e+000  0.000000e+000
      vertex  1.070000e+001 -8.000000e+000 -8.000000e-001
    endloop
  endfacet
  facet normal  7.071068e-001 -7.071068e-001  0.000000e+000
    outer loop
      vertex  1.150000e+001 -7.200000e+000  0.000000e+000
      vertex  1.150000e+001 -7.200000e+000  8.500000e+000
      vertex  1.070000e+001 -8.000000e+000 -8.000000e-001
    endloop
  endfacet
  facet normal  7.071068e-001 -7.071068e-001  0.000000e+000
    outer loop
      vertex  1.070000e+001 -8.000000e+000 -8.000000e-001
      vertex  1.150000e+001 -7.200000e+000  8.500000e+000
      vertex  1.070000e+001 -8.000000e+000  7.700000e+000
    endloop
  endfacet
  facet normal  0.000000e+000 -7.071068e-001  7.071068e-001
    outer loop
      vertex  1.150000e+001 -7.200000e+000  8.500000e+000
      vertex -1.150000e+001 -7.200000e+000  8.500000e+000
      vertex  1.070000e+001 -8.000000e+000  7.700000e+000
    endloop
  endfacet
  facet normal  0.000000e+000 -7.071068e-001  7.071068e-001
    outer loop
      vertex  1.070000e+001 -8.000000e+000  7.700000e+000
      vertex -1.150000e+001 -7.200000e+000  8.500000e+000
      vertex -1.070000e+001 -8.000000e+000  7.700000e+000
    endloop
  endfacet
  facet normal -7.071068e-001 -7.071068e-001  0.000000e+000
    outer loop
      vertex -1.150000e+001 -7.200000e+000  8.500000e+000
      vertex -1.150000e+001 -7.200000e+000 -3.552714e-015
      vertex -1.070000e+001 -8.000000e+000  7.700000e+000
    endloop
  endfacet
  facet normal -7.071068e-001 -7.071068e-001  -0.000000e+000
    outer loop
      vertex -1.070000e+001 -8.000000e+000  7.700000e+000
      vertex -1.150000e+001 -7.200000e+000 -3.552714e-015
      vertex -1.070000e+001 -8.000000e+000 -8.000000e-001
    endloop
  endfacet
  facet normal  6.699062e-016 -7.071067e-001  7.071069e-001
    outer loop
      vertex -1.150000e+001 -7.200000e+000 -3.552714e-015
      vertex -1.525000e+001 -7.200000e+000  0.000000e+000
      vertex -1.070000e+001 -8.000000e+000 -8.000000e-001
    endloop
  endfacet
  facet normal  0.000000e+000 -7.071067e-001  7.071069e-001
    outer loop
      vertex -1.070000e+001 -8.000000e+000 -8.000000e-001
      vertex -1.525000e+001 -7.200000e+000  0.000000e+000
      vertex -1.558137e+001 -8.000000e+000 -8.000000e-001
    endloop
  endfacet
  facet normal  5.000000e-001 -7.071068e-001  5.000000e-001
    outer loop
      vertex -1.525000e+001 -7.200000e+000  0.000000e+000
      vertex -1.575000e+001 -7.200000e+000  5.000000e-001
      vertex -1.558137e+001 -8.000000e+000 -8.000000e-001
    endloop
  endfacet
  facet normal  5.000011e-001 -7.071061e-001  4.999997e-001
    outer loop
      vertex -1.558137e+001 -8.000000e+000 -8.000000e-001
      vertex -1.575000e+001 -7.200000e+000  5.000000e-001
      vertex -1.575000e+001 -8.000000e+000 -6.313708e-001
    endloop
  endfacet
  facet normal -4.999999e-001 -7.071069e-001  5.000000e-001
    outer loop
      vertex -1.625000e+001 -7.200000e+000 -5.202829e-016
      vertex -1.591863e+001 -8.000000e+000 -8.000000e-001
      vertex -1.575000e+001 -7.200000e+000  5.000000e-001
    endloop
  endfacet
  facet normal -5.000011e-001 -7.071062e-001  4.999997e-001
    outer loop
      vertex -1.575000e+001 -7.200000e+000  5.000000e-001
      vertex -1.591863e+001 -8.000000e+000 -8.000000e-001
      vertex -1.575000e+001 -8.000000e+000 -6.313708e-001
    endloop
  endfacet
  facet normal  1.131986e-016 -7.071067e-001  7.071068e-001
    outer loop
      vertex -1.625000e+001 -7.200000e+000 -5.202829e-016
      vertex -1.950000e+001 -7.200000e+000  0.000000e+000
      vertex -1.591863e+001 -8.000000e+000 -8.000000e-001
    endloop
  endfacet
  facet normal  0.000000e+000 -7.071067e-001  7.071068e-001
    outer loop
      vertex -1.591863e+001 -8.000000e+000 -8.000000e-001
      vertex -1.950000e+001 -7.200000e+000  0.000000e+000
      vertex -1.870000e+001 -8.000000e+000 -8.000000e-001
    endloop
  endfacet
  facet normal -7.071072e-001 -7.071064e-001  0.000000e+000
    outer loop
      vertex -1.950000e+001 -7.200000e+000  0.000000e+000
      vertex -1.950000e+001 -7.200000e+000 -3.000000e+000
      vertex -1.870000e+001 -8.000000e+000 -8.000000e-001
    endloop
  endfacet
  facet normal -7.071072e-001 -7.071064e-001  -0.000000e+000
    outer loop
      vertex -1.870000e+001 -8.000000e+000 -8.000000e-001
      vertex -1.950000e+001 -7.200000e+000 -3.000000e+000
      vertex -1.870000e+001 -8.000000e+000 -2.505573e+000
    endloop
  endfacet
  facet normal  0.000000e+000  1.000000e+000  0.000000e+000
    outer loop
      vertex -1.591863e+001  8.000000e+000 -8.000000e-001
      vertex -1.558137e+001  8.000000e+000 -8.000000e-001
      vertex -6.300000e+000  8.000000e+000 -4.668629e+000
    endloop
  endfacet
  facet normal  0.000000e+000  1.000000e+000  0.000000e+000
    outer loop
      vertex -1.591863e+001  8.000000e+000 -8.000000e-001
      vertex -1.575000e+001  8.000000e+000 -6.313708e-001
      vertex -1.558137e+001  8.000000e+000 -8.000000e-001
    endloop
  endfacet
  facet normal  0.000000e+000  1.000000e+000  0.000000e+000
    outer loop
      vertex  1.591863e+001  8.000000e+000 -8.000000e-001
      vertex  1.558137e+001  8.000000e+000 -8.000000e-001
      vertex  1.575000e+001  8.000000e+000 -6.313708e-001
    endloop
  endfacet
  facet normal  0.000000e+000  9.999999e-001  0.000000e+000
    outer loop
      vertex  6.300000e+000  8.000000e+000 -4.668629e+000
      vertex  1.131115e+001  8.000000e+000 -6.200000e+000
      vertex  7.831371e+000  8.000000e+000 -6.200000e+000
    endloop
  endfacet
  facet normal  0.000000e+000  1.000000e+000  -0.000000e+000
    outer loop
      vertex  1.870000e+001  8.000000e+000 -2.505573e+000
      vertex  1.131115e+001  8.000000e+000 -6.200000e+000
      vertex  6.300000e+000  8.000000e+000 -4.668629e+000
    endloop
  endfacet
  facet normal  0.000000e+000  1.000000e+000  0.000000e+000
    outer loop
      vertex  1.870000e+001  8.000000e+000 -2.505573e+000
      vertex  6.300000e+000  8.000000e+000 -4.668629e+000
      vertex  1.070000e+001  8.000000e+000 -8.000000e-001
    endloop
  endfacet
  facet normal  -0.000000e+000  1.000000e+000  0.000000e+000
    outer loop
      vertex  1.870000e+001  8.000000e+000 -2.505573e+000
      vertex  1.070000e+001  8.000000e+000 -8.000000e-001
      vertex  1.558137e+001  8.000000e+000 -8.000000e-001
    endloop
  endfacet
  facet normal  -0.000000e+000  1.000000e+000  0.000000e+000
    outer loop
      vertex  1.870000e+001  8.000000e+000 -2.505573e+000
      vertex  1.558137e+001  8.000000e+000 -8.000000e-001
      vertex  1.591863e+001  8.000000e+000 -8.000000e-001
    endloop
  endfacet
  facet normal  -0.000000e+000  1.000000e+000  0.000000e+000
    outer loop
      vertex  1.870000e+001  8.000000e+000 -2.505573e+000
      vertex  1.591863e+001  8.000000e+000 -8.000000e-001
      vertex  1.870000e+001  8.000000e+000 -8.000000e-001
    endloop
  endfacet
  facet normal  0.000000e+000  1.000000e+000  0.000000e+000
    outer loop
      vertex  1.070000e+001  8.000000e+000 -8.000000e-001
      vertex  6.300000e+000  8.000000e+000 -4.668629e+000
      vertex  1.070000e+001  8.000000e+000  7.700000e+000
    endloop
  endfacet
  facet normal  0.000000e+000  1.000000e+000  0.000000e+000
    outer loop
      vertex  1.070000e+001  8.000000e+000  7.700000e+000
      vertex  6.300000e+000  8.000000e+000 -4.668629e+000
      vertex  6.300000e+000  8.000000e+000  3.300000e+000
    endloop
  endfacet
  facet normal  0.000000e+000  1.000000e+000  -0.000000e+000
    outer loop
      vertex  1.070000e+001  8.000000e+000  7.700000e+000
      vertex  6.300000e+000  8.000000e+000  3.300000e+000
      vertex -1.070000e+001  8.000000e+000  7.700000e+000
    endloop
  endfacet
  facet normal  0.000000e+000  1.000000e+000  0.000000e+000
    outer loop
      vertex -1.070000e+001  8.000000e+000  7.700000e+000
      vertex  6.300000e+000  8.000000e+000  3.300000e+000
      vertex -6.300000e+000  8.000000e+000  3.300000e+000
    endloop
  endfacet
  facet normal  0.000000e+000  1.000000e+000  0.000000e+000
    outer loop
      vertex -1.070000e+001  8.000000e+000  7.700000e+000
      vertex -6.300000e+000  8.000000e+000  3.300000e+000
      vertex -1.070000e+001  8.000000e+000 -8.000000e-001
    endloop
  endfacet
  facet normal  -0.000000e+000  1.000000e+000  0.000000e+000
    outer loop
      vertex -1.070000e+001  8.000000e+000 -8.000000e-001
      vertex -6.300000e+000  8.000000e+000  3.300000e+000
      vertex -6.300000e+000  8.000000e+000 -4.668629e+000
    endloop
  endfacet
  facet normal  0.000000e+000  1.000000e+000  0.000000e+000
    outer loop
      vertex -1.070000e+001  8.000000e+000 -8.000000e-001
      vertex -6.300000e+000  8.000000e+000 -4.668629e+000
      vertex -1.558137e+001  8.000000e+000 -8.000000e-001
    endloop
  endfacet
  facet normal  0.000000e+000  1.000000e+000  0.000000e+000
    outer loop
      vertex -1.870000e+001  8.000000e+000 -8.000000e-001
      vertex -1.591863e+001  8.000000e+000 -8.000000e-001
      vertex -1.870000e+001  8.000000e+000 -2.505573e+000
    endloop
  endfacet
  facet normal  -0.000000e+000  1.000000e+000  0.000000e+000
    outer loop
      vertex -1.870000e+001  8.000000e+000 -2.505573e+000
      vertex -1.591863e+001  8.000000e+000 -8.000000e-001
      vertex -6.300000e+000  8.000000e+000 -4.668629e+000
    endloop
  endfacet
  facet normal  0.000000e+000  1.000000e+000  0.000000e+000
    outer loop
      vertex -1.870000e+001  8.000000e+000 -2.505573e+000
      vertex -6.300000e+000  8.000000e+000 -4.668629e+000
      vertex -1.131115e+001  8.000000e+000 -6.200000e+000
    endloop
  endfacet
  facet normal  0.000000e+000  9.999999e-001  0.000000e+000
    outer loop
      vertex -1.131115e+001  8.000000e+000 -6.200000e+000
      vertex -6.300000e+000  8.000000e+000 -4.668629e+000
      vertex -7.831371e+000  8.000000e+000 -6.200000e+000
    endloop
  endfacet
  facet normal -3.162278e-001  7.071067e-001 -6.324555e-001
    outer loop
      vertex -1.150000e+001  7.200000e+000 -7.000000e+000
      vertex -1.950000e+001  7.200000e+000 -3.000000e+000
      vertex -1.131115e+001  8.000000e+000 -6.200000e+000
    endloop
  endfacet
  facet normal -3.162279e-001  7.071065e-001 -6.324558e-001
    outer loop
      vertex -1.131115e+001  8.000000e+000 -6.200000e+000
      vertex -1.950000e+001  7.200000e+000 -3.000000e+000
      vertex -1.870000e+001  8.000000e+000 -2.505573e+000
    endloop
  endfacet
  facet normal  0.000000e+000  7.071068e-001 -7.071068e-001
    outer loop
      vertex -1.150000e+001  7.200000e+000 -7.000000e+000
      vertex -1.131115e+001  8.000000e+000 -6.200000e+000
      vertex -7.500000e+000  7.200000e+000 -7.000000e+000
    endloop
  endfacet
  facet normal  0.000000e+000  7.071068e-001 -7.071068e-001
    outer loop
      vertex -7.500000e+000  7.200000e+000 -7.000000e+000
      vertex -1.131115e+001  8.000000e+000 -6.200000e+000
      vertex -7.831371e+000  8.000000e+000 -6.200000e+000
    endloop
  endfacet
  facet normal  5.000000e-001  7.071068e-001 -5.000000e-001
    outer loop
      vertex -7.500000e+000  7.200000e+000 -7.000000e+000
      vertex -7.831371e+000  8.000000e+000 -6.200000e+000
      vertex -5.500000e+000  7.200000e+000 -5.000000e+000
    endloop
  endfacet
  facet normal  5.000000e-001  7.071068e-001 -5.000001e-001
    outer loop
      vertex -5.500000e+000  7.200000e+000 -5.000000e+000
      vertex -7.831371e+000  8.000000e+000 -6.200000e+000
      vertex -6.300000e+000  8.000000e+000 -4.668629e+000
    endloop
  endfacet
  facet normal  7.071067e-001  7.071067e-001  -0.000000e+000
    outer loop
      vertex -5.500000e+000  7.200000e+000  2.500000e+000
      vertex -5.500000e+000  7.200000e+000 -5.000000e+000
      vertex -6.300000e+000  8.000000e+000  3.300000e+000
    endloop
  endfacet
  facet normal  7.071068e-001  7.071068e-001  0.000000e+000
    outer loop
      vertex -6.300000e+000  8.000000e+000  3.300000e+000
      vertex -5.500000e+000  7.200000e+000 -5.000000e+000
      vertex -6.300000e+000  8.000000e+000 -4.668629e+000
    endloop
  endfacet
  facet normal  0.000000e+000  7.071066e-001 -7.071069e-001
    outer loop
      vertex  5.500000e+000  7.200000e+000  2.500000e+000
      vertex -5.500000e+000  7.200000e+000  2.500000e+000
      vertex  6.300000e+000  8.000000e+000  3.300000e+000
    endloop
  endfacet
  facet normal  0.000000e+000  7.071067e-001 -7.071069e-001
    outer loop
      vertex  6.300000e+000  8.000000e+000  3.300000e+000
      vertex -5.500000e+000  7.200000e+000  2.500000e+000
      vertex -6.300000e+000  8.000000e+000  3.300000e+000
    endloop
  endfacet
  facet normal -7.071067e-001  7.071067e-001  0.000000e+000
    outer loop
      vertex  5.500000e+000  7.200000e+000 -5.000000e+000
      vertex  5.500000e+000  7.200000e+000  2.500000e+000
      vertex  6.300000e+000  8.000000e+000 -4.668629e+000
    endloop
  endfacet
  facet normal -7.071068e-001  7.071068e-001  0.000000e+000
    outer loop
      vertex  6.300000e+000  8.000000e+000 -4.668629e+000
      vertex  5.500000e+000  7.200000e+000  2.500000e+000
      vertex  6.300000e+000  8.000000e+000  3.300000e+000
    endloop
  endfacet
  facet normal -5.000000e-001  7.071068e-001 -5.000000e-001
    outer loop
      vertex  7.500000e+000  7.200000e+000 -7.000000e+000
      vertex  5.500000e+000  7.200000e+000 -5.000000e+000
      vertex  7.831371e+000  8.000000e+000 -6.200000e+000
    endloop
  endfacet
  facet normal -5.000001e-001  7.071068e-001 -5.000001e-001
    outer loop
      vertex  7.831371e+000  8.000000e+000 -6.200000e+000
      vertex  5.500000e+000  7.200000e+000 -5.000000e+000
      vertex  6.300000e+000  8.000000e+000 -4.668629e+000
    endloop
  endfacet
  facet normal  0.000000e+000  7.071068e-001 -7.071068e-001
    outer loop
      vertex  7.500000e+000  7.200000e+000 -7.000000e+000
      vertex  7.831371e+000  8.000000e+000 -6.200000e+000
      vertex  1.150000e+001  7.200000e+000 -7.000000e+000
    endloop
  endfacet
  facet normal  0.000000e+000  7.071068e-001 -7.071068e-001
    outer loop
      vertex  1.150000e+001  7.200000e+000 -7.000000e+000
      vertex  7.831371e+000  8.000000e+000 -6.200000e+000
      vertex  1.131115e+001  8.000000e+000 -6.200000e+000
    endloop
  endfacet
  facet normal  3.162278e-001  7.071067e-001 -6.324555e-001
    outer loop
      vertex  1.150000e+001  7.200000e+000 -7.000000e+000
      vertex  1.131115e+001  8.000000e+000 -6.200000e+000
      vertex  1.950000e+001  7.200000e+000 -3.000000e+000
    endloop
  endfacet
  facet normal  3.162279e-001  7.071065e-001 -6.324558e-001
    outer loop
      vertex  1.950000e+001  7.200000e+000 -3.000000e+000
      vertex  1.131115e+001  8.000000e+000 -6.200000e+000
      vertex  1.870000e+001  8.000000e+000 -2.505573e+000
    endloop
  endfacet
  facet normal  7.071072e-001  7.071064e-001  0.000000e+000
    outer loop
      vertex  1.950000e+001  7.200000e+000 -3.000000e+000
      vertex  1.870000e+001  8.000000e+000 -2.505573e+000
      vertex  1.950000e+001  7.200000e+000 -4.440892e-016
    endloop
  endfacet
  facet normal  7.071072e-001  7.071064e-001  0.000000e+000
    outer loop
      vertex  1.950000e+001  7.200000e+000 -4.440892e-016
      vertex  1.870000e+001  8.000000e+000 -2.505573e+000
      vertex  1.870000e+001  8.000000e+000 -8.000000e-001
    endloop
  endfacet
  facet normal  0.000000e+000  7.071066e-001  7.071068e-001
    outer loop
      vertex  1.950000e+001  7.200000e+000 -4.440892e-016
      vertex  1.870000e+001  8.000000e+000 -8.000000e-001
      vertex  1.625000e+001  7.200000e+000  0.000000e+000
    endloop
  endfacet
  facet normal  0.000000e+000  7.071067e-001  7.071068e-001
    outer loop
      vertex  1.625000e+001  7.200000e+000  0.000000e+000
      vertex  1.870000e+001  8.000000e+000 -8.000000e-001
      vertex  1.591863e+001  8.000000e+000 -8.000000e-001
    endloop
  endfacet
  facet normal  4.999999e-001  7.071069e-001  5.000000e-001
    outer loop
      vertex  1.625000e+001  7.200000e+000  0.000000e+000
      vertex  1.591863e+001  8.000000e+000 -8.000000e-001
      vertex  1.575000e+001  7.200000e+000  5.000000e-001
    endloop
  endfacet
  facet normal  5.000011e-001  7.071062e-001  4.999997e-001
    outer loop
      vertex  1.575000e+001  7.200000e+000  5.000000e-001
      vertex  1.591863e+001  8.000000e+000 -8.000000e-001
      vertex  1.575000e+001  8.000000e+000 -6.313708e-001
    endloop
  endfacet
  facet normal -5.000000e-001  7.071068e-001  5.000000e-001
    outer loop
      vertex  1.525000e+001  7.200000e+000  3.219647e-015
      vertex  1.575000e+001  7.200000e+000  5.000000e-001
      vertex  1.558137e+001  8.000000e+000 -8.000000e-001
    endloop
  endfacet
  facet normal -5.000011e-001  7.071061e-001  4.999997e-001
    outer loop
      vertex  1.558137e+001  8.000000e+000 -8.000000e-001
      vertex  1.575000e+001  7.200000e+000  5.000000e-001
      vertex  1.575000e+001  8.000000e+000 -6.313708e-001
    endloop
  endfacet
  facet normal  0.000000e+000  7.071067e-001  7.071069e-001
    outer loop
      vertex  1.525000e+001  7.200000e+000  3.219647e-015
      vertex  1.558137e+001  8.000000e+000 -8.000000e-001
      vertex  1.150000e+001  7.200000e+000  0.000000e+000
    endloop
  endfacet
  facet normal  0.000000e+000  7.071067e-001  7.071069e-001
    outer loop
      vertex  1.150000e+001  7.200000e+000  0.000000e+000
      vertex  1.558137e+001  8.000000e+000 -8.000000e-001
      vertex  1.070000e+001  8.000000e+000 -8.000000e-001
    endloop
  endfacet
  facet normal  7.071068e-001  7.071068e-001  0.000000e+000
    outer loop
      vertex  1.150000e+001  7.200000e+000  0.000000e+000
      vertex  1.070000e+001  8.000000e+000 -8.000000e-001
      vertex  1.150000e+001  7.200000e+000  8.500000e+000
    endloop
  endfacet
  facet normal  7.071068e-001  7.071068e-001  0.000000e+000
    outer loop
      vertex  1.150000e+001  7.200000e+000  8.500000e+000
      vertex  1.070000e+001  8.000000e+000 -8.000000e-001
      vertex  1.070000e+001  8.000000e+000  7.700000e+000
    endloop
  endfacet
  facet normal  0.000000e+000  7.071068e-001  7.071068e-001
    outer loop
      vertex  1.150000e+001  7.200000e+000  8.500000e+000
      vertex  1.070000e+001  8.000000e+000  7.700000e+000
      vertex -1.150000e+001  7.200000e+000  8.500000e+000
    endloop
  endfacet
  facet normal  0.000000e+000  7.071068e-001  7.071068e-001
    outer loop
      vertex -1.150000e+001  7.200000e+000  8.500000e+000
      vertex  1.070000e+001  8.000000e+000  7.700000e+000
      vertex -1.070000e+001  8.000000e+000  7.700000e+000
    endloop
  endfacet
  facet normal -7.071068e-001  7.071068e-001  0.000000e+000
    outer loop
      vertex -1.150000e+001  7.200000e+000  8.500000e+000
      vertex -1.070000e+001  8.000000e+000  7.700000e+000
      vertex -1.150000e+001  7.200000e+000 -3.552714e-015
    endloop
  endfacet
  facet normal -7.071068e-001  7.071068e-001  0.000000e+000
    outer loop
      vertex -1.150000e+001  7.200000e+000 -3.552714e-015
      vertex -1.070000e+001  8.000000e+000  7.700000e+000
      vertex -1.070000e+001  8.000000e+000 -8.000000e-001
    endloop
  endfacet
  facet normal  0.000000e+000  7.071067e-001  7.071069e-001
    outer loop
      vertex -1.150000e+001  7.200000e+000 -3.552714e-015
      vertex -1.070000e+001  8.000000e+000 -8.000000e-001
      vertex -1.525000e+001  7.200000e+000  0.000000e+000
    endloop
  endfacet
  facet normal  0.000000e+000  7.071067e-001  7.071069e-001
    outer loop
      vertex -1.525000e+001  7.200000e+000  0.000000e+000
      vertex -1.070000e+001  8.000000e+000 -8.000000e-001
      vertex -1.558137e+001  8.000000e+000 -8.000000e-001
    endloop
  endfacet
  facet normal  4.999999e-001  7.071069e-001  5.000000e-001
    outer loop
      vertex -1.525000e+001  7.200000e+000  0.000000e+000
      vertex -1.558137e+001  8.000000e+000 -8.000000e-001
      vertex -1.575000e+001  7.200000e+000  5.000000e-001
    endloop
  endfacet
  facet normal  5.000011e-001  7.071062e-001  4.999997e-001
    outer loop
      vertex -1.575000e+001  7.200000e+000  5.000000e-001
      vertex -1.558137e+001  8.000000e+000 -8.000000e-001
      vertex -1.575000e+001  8.000000e+000 -6.313708e-001
    endloop
  endfacet
  facet normal -5.000000e-001  7.071068e-001  5.000000e-001
    outer loop
      vertex -1.625000e+001  7.200000e+000 -1.776357e-015
      vertex -1.575000e+001  7.200000e+000  5.000000e-001
      vertex -1.591863e+001  8.000000e+000 -8.000000e-001
    endloop
  endfacet
  facet normal -5.000011e-001  7.071061e-001  4.999997e-001
    outer loop
      vertex -1.591863e+001  8.000000e+000 -8.000000e-001
      vertex -1.575000e+001  7.200000e+000  5.000000e-001
      vertex -1.575000e+001  8.000000e+000 -6.313708e-001
    endloop
  endfacet
  facet normal  0.000000e+000  7.071066e-001  7.071068e-001
    outer loop
      vertex -1.625000e+001  7.200000e+000 -1.776357e-015
      vertex -1.591863e+001  8.000000e+000 -8.000000e-001
      vertex -1.950000e+001  7.200000e+000  0.000000e+000
    endloop
  endfacet
  facet normal  0.000000e+000  7.071067e-001  7.071068e-001
    outer loop
      vertex -1.950000e+001  7.200000e+000  0.000000e+000
      vertex -1.591863e+001  8.000000e+000 -8.000000e-001
      vertex -1.870000e+001  8.000000e+000 -8.000000e-001
    endloop
  endfacet
  facet normal -7.071072e-001  7.071064e-001  0.000000e+000
    outer loop
      vertex -1.950000e+001  7.200000e+000  0.000000e+000
      vertex -1.870000e+001  8.000000e+000 -8.000000e-001
      vertex -1.950000e+001  7.200000e+000 -3.000000e+000
    endloop
  endfacet
  facet normal -7.071072e-001  7.071064e-001  0.000000e+000
    outer loop
      vertex -1.950000e+001  7.200000e+000 -3.000000e+000
      vertex -1.870000e+001  8.000000e+000 -8.000000e-001
      vertex -1.870000e+001  8.000000e+000 -2.505573e+000
    endloop
  endfacet
  facet normal  7.071068e-001  0.000000e+000  7.071068e-001
    outer loop
      vertex -1.150000e+001 -4.000000e+000  0.000000e+000
      vertex -6.000000e+000 -4.000000e+000 -5.500000e+000
      vertex -1.150000e+001  4.000000e+000  0.000000e+000
    endloop
  endfacet
  facet normal  7.071068e-001  0.000000e+000  7.071068e-001
    outer loop
      vertex -1.150000e+001  4.000000e+000  0.000000e+000
      vertex -6.000000e+000 -4.000000e+000 -5.500000e+000
      vertex -6.000000e+000  4.000000e+000 -5.500000e+000
    endloop
  endfacet
  facet normal  0.000000e+000 -1.000000e+000  0.000000e+000
    outer loop
      vertex -1.150000e+001  4.000000e+000  3.000000e+000
      vertex -1.150000e+001  4.000000e+000  0.000000e+000
      vertex -5.500000e+000  4.000000e+000 -3.000000e+000
    endloop
  endfacet
  facet normal  -0.000000e+000 -1.000000e+000  0.000000e+000
    outer loop
      vertex -5.500000e+000  4.000000e+000 -3.000000e+000
      vertex -1.150000e+001  4.000000e+000  0.000000e+000
      vertex -6.000000e+000  4.000000e+000 -5.500000e+000
    endloop
  endfacet
  facet normal  0.000000e+000 -1.000000e+000  0.000000e+000
    outer loop
      vertex -5.500000e+000  4.000000e+000 -3.000000e+000
      vertex -6.000000e+000  4.000000e+000 -5.500000e+000
      vertex -5.500000e+000  4.000000e+000 -5.000000e+000
    endloop
  endfacet
  facet normal  0.000000e+000  1.000000e+000  0.000000e+000
    outer loop
      vertex -5.500000e+000 -4.000000e+000 -5.000000e+000
      vertex -6.000000e+000 -4.000000e+000 -5.500000e+000
      vertex -5.500000e+000 -4.000000e+000 -3.000000e+000
    endloop
  endfacet
  facet normal  0.000000e+000  1.000000e+000  0.000000e+000
    outer loop
      vertex -5.500000e+000 -4.000000e+000 -3.000000e+000
      vertex -6.000000e+000 -4.000000e+000 -5.500000e+000
      vertex -1.150000e+001 -4.000000e+000  0.000000e+000
    endloop
  endfacet
  facet normal  -0.000000e+000  1.000000e+000  0.000000e+000
    outer loop
      vertex -5.500000e+000 -4.000000e+000 -3.000000e+000
      vertex -1.150000e+001 -4.000000e+000  0.000000e+000
      vertex -1.150000e+001 -4.000000e+000  3.000000e+000
    endloop
  endfacet
  facet normal -7.071068e-001  0.000000e+000 -7.071068e-001
    outer loop
      vertex -1.150000e+001  4.000000e+000  3.000000e+000
      vertex -5.500000e+000  4.000000e+000 -3.000000e+000
      vertex -1.150000e+001 -4.000000e+000  3.000000e+000
    endloop
  endfacet
  facet normal -7.071068e-001  0.000000e+000 -7.071068e-001
    outer loop
      vertex -1.150000e+001 -4.000000e+000  3.000000e+000
      vertex -5.500000e+000  4.000000e+000 -3.000000e+000
      vertex -5.500000e+000 -4.000000e+000 -3.000000e+000
    endloop
  endfacet
  facet normal -7.071068e-001  0.000000e+000  7.071068e-001
    outer loop
      vertex  1.150000e+001  4.000000e+000  0.000000e+000
      vertex  6.000000e+000  4.000000e+000 -5.500000e+000
      vertex  1.150000e+001 -4.000000e+000  0.000000e+000
    endloop
  endfacet
  facet normal -7.071068e-001  0.000000e+000  7.071068e-001
    outer loop
      vertex  1.150000e+001 -4.000000e+000  0.000000e+000
      vertex  6.000000e+000  4.000000e+000 -5.500000e+000
      vertex  6.000000e+000 -4.000000e+000 -5.500000e+000
    endloop
  endfacet
  facet normal  0.000000e+000  1.000000e+000  0.000000e+000
    outer loop
      vertex  5.500000e+000 -4.000000e+000 -5.000000e+000
      vertex  5.500000e+000 -4.000000e+000 -3.000000e+000
      vertex  6.000000e+000 -4.000000e+000 -5.500000e+000
    endloop
  endfacet
  facet normal  0.000000e+000  1.000000e+000  -0.000000e+000
    outer loop
      vertex  6.000000e+000 -4.000000e+000 -5.500000e+000
      vertex  5.500000e+000 -4.000000e+000 -3.000000e+000
      vertex  1.150000e+001 -4.000000e+000  3.000000e+000
    endloop
  endfacet
  facet normal  0.000000e+000  1.000000e+000  0.000000e+000
    outer loop
      vertex  6.000000e+000 -4.000000e+000 -5.500000e+000
      vertex  1.150000e+001 -4.000000e+000  3.000000e+000
      vertex  1.150000e+001 -4.000000e+000  0.000000e+000
    endloop
  endfacet
  facet normal  0.000000e+000 -1.000000e+000  0.000000e+000
    outer loop
      vertex  1.150000e+001  4.000000e+000  3.000000e+000
      vertex  5.500000e+000  4.000000e+000 -3.000000e+000
      vertex  1.150000e+001  4.000000e+000  0.000000e+000
    endloop
  endfacet
  facet normal  0.000000e+000 -1.000000e+000  0.000000e+000
    outer loop
      vertex  1.150000e+001  4.000000e+000  0.000000e+000
      vertex  5.500000e+000  4.000000e+000 -3.000000e+000
      vertex  5.500000e+000  4.000000e+000 -5.000000e+000
    endloop
  endfacet
  facet normal  0.000000e+000 -1.000000e+000  0.000000e+000
    outer loop
      vertex  1.150000e+001  4.000000e+000  0.000000e+000
      vertex  5.500000e+000  4.000000e+000 -5.000000e+000
      vertex  6.000000e+000  4.000000e+000 -5.500000e+000
    endloop
  endfacet
  facet normal  7.071068e-001  0.000000e+000 -7.071068e-001
    outer loop
      vertex  1.150000e+001 -4.000000e+000  3.000000e+000
      vertex  5.500000e+000 -4.000000e+000 -3.000000e+000
      vertex  1.150000e+001  4.000000e+000  3.000000e+000
    endloop
  endfacet
  facet normal  7.071068e-001  0.000000e+000 -7.071068e-001
    outer loop
      vertex  1.150000e+001  4.000000e+000  3.000000e+000
      vertex  5.500000e+000 -4.000000e+000 -3.000000e+000
      vertex  5.500000e+000  4.000000e+000 -3.000000e+000
    endloop
  endfacet
  facet normal -1.558402e-001  9.877822e-001  0.000000e+000
    outer loop
      vertex  2.540171e-001 -3.240058e+000  2.500000e+000
      vertex  7.558442e-001 -3.160886e+000  8.500000e+000
      vertex  7.558442e-001 -3.160886e+000  2.500000e+000
    endloop
  endfacet
  facet normal -3.078720e-001  9.514278e-001  0.000000e+000
    outer loop
      vertex  7.558442e-001 -3.160886e+000  2.500000e+000
      vertex  7.558442e-001 -3.160886e+000  8.500000e+000
      vertex  1.239202e+000 -3.004476e+000  8.500000e+000
    endloop
  endfacet
  facet normal -3.078720e-001  9.514278e-001  0.000000e+000
    outer loop
      vertex  7.558442e-001 -3.160886e+000  2.500000e+000
      vertex  1.239202e+000 -3.004476e+000  8.500000e+000
      vertex  1.239202e+000 -3.004476e+000  2.500000e+000
    endloop
  endfacet
  facet normal -4.523810e-001  8.918248e-001  0.000000e+000
    outer loop
      vertex  1.239202e+000 -3.004476e+000  2.500000e+000
      vertex  1.239202e+000 -3.004476e+000  8.500000e+000
      vertex  1.692279e+000 -2.774651e+000  8.500000e+000
    endloop
  endfacet
  facet normal -4.523810e-001  8.918248e-001  0.000000e+000
    outer loop
      vertex  1.239202e+000 -3.004476e+000  2.500000e+000
      vertex  1.692279e+000 -2.774651e+000  8.500000e+000
      vertex  1.692279e+000 -2.774651e+000  2.500000e+000
    endloop
  endfacet
  facet normal -5.858359e-001  8.104297e-001  0.000000e+000
    outer loop
      vertex  1.692279e+000 -2.774651e+000  2.500000e+000
      vertex  1.692279e+000 -2.774651e+000  8.500000e+000
      vertex  2.104005e+000 -2.477027e+000  8.500000e+000
    endloop
  endfacet
  facet normal -5.858359e-001  8.104297e-001  0.000000e+000
    outer loop
      vertex  1.692279e+000 -2.774651e+000  2.500000e+000
      vertex  2.104005e+000 -2.477027e+000  8.500000e+000
      vertex  2.104005e+000 -2.477027e+000  2.500000e+000
    endloop
  endfacet
  facet normal -7.049756e-001  7.092316e-001  0.000000e+000
    outer loop
      vertex  2.104005e+000 -2.477027e+000  2.500000e+000
      vertex  2.104005e+000 -2.477027e+000  8.500000e+000
      vertex  2.464319e+000 -2.118875e+000  8.500000e+000
    endloop
  endfacet
  facet normal -7.049756e-001  7.092316e-001  0.000000e+000
    outer loop
      vertex  2.104005e+000 -2.477027e+000  2.500000e+000
      vertex  2.464319e+000 -2.118875e+000  8.500000e+000
      vertex  2.464319e+000 -2.118875e+000  2.500000e+000
    endloop
  endfacet
  facet normal -8.068892e-001  5.907028e-001  0.000000e+000
    outer loop
      vertex  2.464319e+000 -2.118875e+000  2.500000e+000
      vertex  2.464319e+000 -2.118875e+000  8.500000e+000
      vertex  2.764416e+000 -1.708948e+000  8.500000e+000
    endloop
  endfacet
  facet normal -8.068892e-001  5.907028e-001  0.000000e+000
    outer loop
      vertex  2.464319e+000 -2.118875e+000  2.500000e+000
      vertex  2.764416e+000 -1.708948e+000  8.500000e+000
      vertex  2.764416e+000 -1.708948e+000  2.500000e+000
    endloop
  endfacet
  facet normal -8.890862e-001  4.577399e-001  0.000000e+000
    outer loop
      vertex  2.764416e+000 -1.708948e+000  2.500000e+000
      vertex  2.764416e+000 -1.708948e+000  8.500000e+000
      vertex  2.996964e+000 -1.257262e+000  8.500000e+000
    endloop
  endfacet
  facet normal -8.890862e-001  4.577399e-001  0.000000e+000
    outer loop
      vertex  2.764416e+000 -1.708948e+000  2.500000e+000
      vertex  2.996964e+000 -1.257262e+000  8.500000e+000
      vertex  2.996964e+000 -1.257262e+000  2.500000e+000
    endloop
  endfacet
  facet normal -9.495576e-001  3.135928e-001  0.000000e+000
    outer loop
      vertex  2.996964e+000 -1.257262e+000  2.500000e+000
      vertex  2.996964e+000 -1.257262e+000  8.500000e+000
      vertex  3.156280e+000 -7.748538e-001  8.500000e+000
    endloop
  endfacet
  facet normal -9.495576e-001  3.135928e-001  0.000000e+000
    outer loop
      vertex  2.996964e+000 -1.257262e+000  2.500000e+000
      vertex  3.156280e+000 -7.748538e-001  8.500000e+000
      vertex  3.156280e+000 -7.748538e-001  2.500000e+000
    endloop
  endfacet
  facet normal -9.868265e-001  1.617820e-001  0.000000e+000
    outer loop
      vertex  3.156280e+000 -7.748538e-001  2.500000e+000
      vertex  3.156280e+000 -7.748538e-001  8.500000e+000
      vertex  3.238471e+000 -2.735122e-001  8.500000e+000
    endloop
  endfacet
  facet normal -9.868265e-001  1.617820e-001  0.000000e+000
    outer loop
      vertex  3.156280e+000 -7.748538e-001  2.500000e+000
      vertex  3.238471e+000 -2.735122e-001  8.500000e+000
      vertex  3.238471e+000 -2.735122e-001  2.500000e+000
    endloop
  endfacet
  facet normal -9.999819e-001  6.018257e-003  0.000000e+000
    outer loop
      vertex  3.238471e+000 -2.735122e-001  2.500000e+000
      vertex  3.238471e+000 -2.735122e-001  8.500000e+000
      vertex  3.241528e+000  2.345127e-001  8.500000e+000
    endloop
  endfacet
  facet normal -9.999819e-001  6.018257e-003  0.000000e+000
    outer loop
      vertex  3.238471e+000 -2.735122e-001  2.500000e+000
      vertex  3.241528e+000  2.345127e-001  8.500000e+000
      vertex  3.241528e+000  2.345127e-001  2.500000e+000
    endloop
  endfacet
  facet normal -9.887023e-001 -1.498923e-001  0.000000e+000
    outer loop
      vertex  3.241528e+000  2.345127e-001  2.500000e+000
      vertex  3.241528e+000  2.345127e-001  8.500000e+000
      vertex  3.165378e+000  7.368072e-001  8.500000e+000
    endloop
  endfacet
  facet normal -9.887023e-001 -1.498923e-001  -0.000000e+000
    outer loop
      vertex  3.241528e+000  2.345127e-001  2.500000e+000
      vertex  3.165378e+000  7.368072e-001  8.500000e+000
      vertex  3.165378e+000  7.368072e-001  2.500000e+000
    endloop
  endfacet
  facet normal -9.532634e-001 -3.021405e-001  0.000000e+000
    outer loop
      vertex  3.165378e+000  7.368072e-001  2.500000e+000
      vertex  3.165378e+000  7.368072e-001  8.500000e+000
      vertex  3.011880e+000  1.221098e+000  8.500000e+000
    endloop
  endfacet
  facet normal -9.532634e-001 -3.021405e-001  -0.000000e+000
    outer loop
      vertex  3.165378e+000  7.368072e-001  2.500000e+000
      vertex  3.011880e+000  1.221098e+000  8.500000e+000
      vertex  3.011880e+000  1.221098e+000  2.500000e+000
    endloop
  endfacet
  facet normal -8.945311e-001 -4.470057e-001  0.000000e+000
    outer loop
      vertex  3.011880e+000  1.221098e+000  2.500000e+000
      vertex  3.011880e+000  1.221098e+000  8.500000e+000
      vertex  2.784786e+000  1.675550e+000  8.500000e+000
    endloop
  endfacet
  facet normal -8.945311e-001 -4.470057e-001  -0.000000e+000
    outer loop
      vertex  3.011880e+000  1.221098e+000  2.500000e+000
      vertex  2.784786e+000  1.675550e+000  8.500000e+000
      vertex  2.784786e+000  1.675550e+000  2.500000e+000
    endloop
  endfacet
  facet normal -8.139410e-001 -5.809476e-001  0.000000e+000
    outer loop
      vertex  2.784786e+000  1.675550e+000  2.500000e+000
      vertex  2.784786e+000  1.675550e+000  8.500000e+000
      vertex  2.489645e+000  2.089060e+000  8.500000e+000
    endloop
  endfacet
  facet normal -8.139410e-001 -5.809476e-001  -0.000000e+000
    outer loop
      vertex  2.784786e+000  1.675550e+000  2.500000e+000
      vertex  2.489645e+000  2.089060e+000  8.500000e+000
      vertex  2.489645e+000  2.089060e+000  2.500000e+000
    endloop
  endfacet
  facet normal -1.558402e-001  9.877822e-001  0.000000e+000
    outer loop
      vertex  7.558442e-001 -3.160886e+000  8.500000e+000
      vertex  2.540171e-001 -3.240058e+000  2.500000e+000
      vertex  2.540171e-001 -3.240058e+000  8.500000e+000
    endloop
  endfacet
  facet normal  0.000000e+000  1.000000e+000  0.000000e+000
    outer loop
      vertex  2.540171e-001 -3.240058e+000  8.500000e+000
      vertex  2.540171e-001 -3.240058e+000  2.500000e+000
      vertex -2.540171e-001 -3.240058e+000  2.500000e+000
    endloop
  endfacet
  facet normal  0.000000e+000  1.000000e+000  0.000000e+000
    outer loop
      vertex  2.540171e-001 -3.240058e+000  8.500000e+000
      vertex -2.540171e-001 -3.240058e+000  2.500000e+000
      vertex -2.540171e-001 -3.240058e+000  8.500000e+000
    endloop
  endfacet
  facet normal  1.558402e-001  9.877822e-001  0.000000e+000
    outer loop
      vertex -2.540171e-001 -3.240058e+000  8.500000e+000
      vertex -2.540171e-001 -3.240058e+000  2.500000e+000
      vertex -7.558442e-001 -3.160886e+000  2.500000e+000
    endloop
  endfacet
  facet normal  1.558402e-001  9.877822e-001  -0.000000e+000
    outer loop
      vertex -2.540171e-001 -3.240058e+000  8.500000e+000
      vertex -7.558442e-001 -3.160886e+000  2.500000e+000
      vertex -7.558442e-001 -3.160886e+000  8.500000e+000
    endloop
  endfacet
  facet normal  3.078720e-001  9.514278e-001  0.000000e+000
    outer loop
      vertex -7.558442e-001 -3.160886e+000  8.500000e+000
      vertex -7.558442e-001 -3.160886e+000  2.500000e+000
      vertex -1.239202e+000 -3.004476e+000  2.500000e+000
    endloop
  endfacet
  facet normal  3.078720e-001  9.514278e-001  -0.000000e+000
    outer loop
      vertex -7.558442e-001 -3.160886e+000  8.500000e+000
      vertex -1.239202e+000 -3.004476e+000  2.500000e+000
      vertex -1.239202e+000 -3.004476e+000  8.500000e+000
    endloop
  endfacet
  facet normal  4.523810e-001  8.918248e-001  0.000000e+000
    outer loop
      vertex -1.239202e+000 -3.004476e+000  8.500000e+000
      vertex -1.239202e+000 -3.004476e+000  2.500000e+000
      vertex -1.692279e+000 -2.774651e+000  2.500000e+000
    endloop
  endfacet
  facet normal  4.523810e-001  8.918248e-001  -0.000000e+000
    outer loop
      vertex -1.239202e+000 -3.004476e+000  8.500000e+000
      vertex -1.692279e+000 -2.774651e+000  2.500000e+000
      vertex -1.692279e+000 -2.774651e+000  8.500000e+000
    endloop
  endfacet
  facet normal  5.858359e-001  8.104297e-001  0.000000e+000
    outer loop
      vertex -1.692279e+000 -2.774651e+000  8.500000e+000
      vertex -1.692279e+000 -2.774651e+000  2.500000e+000
      vertex -2.104005e+000 -2.477027e+000  2.500000e+000
    endloop
  endfacet
  facet normal  5.858359e-001  8.104297e-001  -0.000000e+000
    outer loop
      vertex -1.692279e+000 -2.774651e+000  8.500000e+000
      vertex -2.104005e+000 -2.477027e+000  2.500000e+000
      vertex -2.104005e+000 -2.477027e+000  8.500000e+000
    endloop
  endfacet
  facet normal  7.049756e-001  7.092316e-001  0.000000e+000
    outer loop
      vertex -2.104005e+000 -2.477027e+000  8.500000e+000
      vertex -2.104005e+000 -2.477027e+000  2.500000e+000
      vertex -2.464319e+000 -2.118875e+000  2.500000e+000
    endloop
  endfacet
  facet normal  7.049756e-001  7.092316e-001  -0.000000e+000
    outer loop
      vertex -2.104005e+000 -2.477027e+000  8.500000e+000
      vertex -2.464319e+000 -2.118875e+000  2.500000e+000
      vertex -2.464319e+000 -2.118875e+000  8.500000e+000
    endloop
  endfacet
  facet normal  8.068892e-001  5.907028e-001  0.000000e+000
    outer loop
      vertex -2.464319e+000 -2.118875e+000  8.500000e+000
      vertex -2.464319e+000 -2.118875e+000  2.500000e+000
      vertex -2.764416e+000 -1.708948e+000  2.500000e+000
    endloop
  endfacet
  facet normal  8.068892e-001  5.907028e-001  -0.000000e+000
    outer loop
      vertex -2.464319e+000 -2.118875e+000  8.500000e+000
      vertex -2.764416e+000 -1.708948e+000  2.500000e+000
      vertex -2.764416e+000 -1.708948e+000  8.500000e+000
    endloop
  endfacet
  facet normal  8.890862e-001  4.577399e-001  0.000000e+000
    outer loop
      vertex -2.764416e+000 -1.708948e+000  8.500000e+000
      vertex -2.764416e+000 -1.708948e+000  2.500000e+000
      vertex -2.996964e+000 -1.257262e+000  2.500000e+000
    endloop
  endfacet
  facet normal  8.890862e-001  4.577399e-001  -0.000000e+000
    outer loop
      vertex -2.764416e+000 -1.708948e+000  8.500000e+000
      vertex -2.996964e+000 -1.257262e+000  2.500000e+000
      vertex -2.996964e+000 -1.257262e+000  8.500000e+000
    endloop
  endfacet
  facet normal  9.495576e-001  3.135928e-001  0.000000e+000
    outer loop
      vertex -2.996964e+000 -1.257262e+000  8.500000e+000
      vertex -2.996964e+000 -1.257262e+000  2.500000e+000
      vertex -3.156280e+000 -7.748538e-001  2.500000e+000
    endloop
  endfacet
  facet normal  9.495576e-001  3.135928e-001  -0.000000e+000
    outer loop
      vertex -2.996964e+000 -1.257262e+000  8.500000e+000
      vertex -3.156280e+000 -7.748538e-001  2.500000e+000
      vertex -3.156280e+000 -7.748538e-001  8.500000e+000
    endloop
  endfacet
  facet normal  9.868265e-001  1.617820e-001  0.000000e+000
    outer loop
      vertex -3.156280e+000 -7.748538e-001  8.500000e+000
      vertex -3.156280e+000 -7.748538e-001  2.500000e+000
      vertex -3.238471e+000 -2.735122e-001  2.500000e+000
    endloop
  endfacet
  facet normal  9.868265e-001  1.617820e-001  -0.000000e+000
    outer loop
      vertex -3.156280e+000 -7.748538e-001  8.500000e+000
      vertex -3.238471e+000 -2.735122e-001  2.500000e+000
      vertex -3.238471e+000 -2.735122e-001  8.500000e+000
    endloop
  endfacet
  facet normal  9.999819e-001  6.018257e-003  0.000000e+000
    outer loop
      vertex -3.238471e+000 -2.735122e-001  8.500000e+000
      vertex -3.238471e+000 -2.735122e-001  2.500000e+000
      vertex -3.241528e+000  2.345127e-001  2.500000e+000
    endloop
  endfacet
  facet normal  9.999819e-001  6.018257e-003  -0.000000e+000
    outer loop
      vertex -3.238471e+000 -2.735122e-001  8.500000e+000
      vertex -3.241528e+000  2.345127e-001  2.500000e+000
      vertex -3.241528e+000  2.345127e-001  8.500000e+000
    endloop
  endfacet
  facet normal  9.887023e-001 -1.498923e-001  0.000000e+000
    outer loop
      vertex -3.241528e+000  2.345127e-001  8.500000e+000
      vertex -3.241528e+000  2.345127e-001  2.500000e+000
      vertex -3.165378e+000  7.368072e-001  2.500000e+000
    endloop
  endfacet
  facet normal  9.887023e-001 -1.498923e-001  0.000000e+000
    outer loop
      vertex -3.241528e+000  2.345127e-001  8.500000e+000
      vertex -3.165378e+000  7.368072e-001  2.500000e+000
      vertex -3.165378e+000  7.368072e-001  8.500000e+000
    endloop
  endfacet
  facet normal  9.532634e-001 -3.021405e-001  0.000000e+000
    outer loop
      vertex -3.165378e+000  7.368072e-001  8.500000e+000
      vertex -3.165378e+000  7.368072e-001  2.500000e+000
      vertex -3.011880e+000  1.221098e+000  2.500000e+000
    endloop
  endfacet
  facet normal  9.532634e-001 -3.021405e-001  0.000000e+000
    outer loop
      vertex -3.165378e+000  7.368072e-001  8.500000e+000
      vertex -3.011880e+000  1.221098e+000  2.500000e+000
      vertex -3.011880e+000  1.221098e+000  8.500000e+000
    endloop
  endfacet
  facet normal  8.945311e-001 -4.470057e-001  0.000000e+000
    outer loop
      vertex -3.011880e+000  1.221098e+000  8.500000e+000
      vertex -3.011880e+000  1.221098e+000  2.500000e+000
      vertex -2.784786e+000  1.675550e+000  2.500000e+000
    endloop
  endfacet
  facet normal  8.945311e-001 -4.470057e-001  0.000000e+000
    outer loop
      vertex -3.011880e+000  1.221098e+000  8.500000e+000
      vertex -2.784786e+000  1.675550e+000  2.500000e+000
      vertex -2.784786e+000  1.675550e+000  8.500000e+000
    endloop
  endfacet
  facet normal  8.139410e-001 -5.809476e-001  0.000000e+000
    outer loop
      vertex -2.784786e+000  1.675550e+000  8.500000e+000
      vertex -2.784786e+000  1.675550e+000  2.500000e+000
      vertex -2.489645e+000  2.089060e+000  2.500000e+000
    endloop
  endfacet
  facet normal  8.139410e-001 -5.809476e-001  0.000000e+000
    outer loop
      vertex -2.784786e+000  1.675550e+000  8.500000e+000
      vertex -2.489645e+000  2.089060e+000  2.500000e+000
      vertex -2.489645e+000  2.089060e+000  8.500000e+000
    endloop
  endfacet
  facet normal -7.660444e-001 -6.427877e-001  0.000000e+000
    outer loop
      vertex  1.515500e+000  3.250000e+000  8.500000e+000
      vertex  1.515500e+000  3.250000e+000  2.500000e+000
      vertex  2.489645e+000  2.089060e+000  8.500000e+000
    endloop
  endfacet
  facet normal -7.660444e-001 -6.427877e-001  -0.000000e+000
    outer loop
      vertex  2.489645e+000  2.089060e+000  8.500000e+000
      vertex  1.515500e+000  3.250000e+000  2.500000e+000
      vertex  2.489645e+000  2.089060e+000  2.500000e+000
    endloop
  endfacet
  facet normal  0.000000e+000 -1.000000e+000  0.000000e+000
    outer loop
      vertex -1.515500e+000  3.250000e+000  8.500000e+000
      vertex -1.515500e+000  3.250000e+000  2.500000e+000
      vertex  1.515500e+000  3.250000e+000  8.500000e+000
    endloop
  endfacet
  facet normal  0.000000e+000 -1.000000e+000  -0.000000e+000
    outer loop
      vertex  1.515500e+000  3.250000e+000  8.500000e+000
      vertex -1.515500e+000  3.250000e+000  2.500000e+000
      vertex  1.515500e+000  3.250000e+000  2.500000e+000
    endloop
  endfacet
  facet normal  7.660444e-001 -6.427877e-001  0.000000e+000
    outer loop
      vertex -2.489645e+000  2.089060e+000  8.500000e+000
      vertex -2.489645e+000  2.089060e+000  2.500000e+000
      vertex -1.515500e+000  3.250000e+000  8.500000e+000
    endloop
  endfacet
  facet normal  7.660444e-001 -6.427877e-001  0.000000e+000
    outer loop
      vertex -1.515500e+000  3.250000e+000  8.500000e+000
      vertex -2.489645e+000  2.089060e+000  2.500000e+000
      vertex -1.515500e+000  3.250000e+000  2.500000e+000
    endloop
  endfacet
endsolid CATIA STL
