solid CATIA STL
  facet normal  1.000000e+000  0.000000e+000  0.000000e+000
    outer loop
      vertex -2.350000e+001  6.000000e+000  4.084381e+000
      vertex -2.350000e+001  6.000000e+000  0.000000e+000
      vertex -2.350000e+001  1.100000e+001  4.084381e+000
    endloop
  endfacet
  facet normal  1.000000e+000  0.000000e+000  0.000000e+000
    outer loop
      vertex -2.350000e+001  1.100000e+001  4.084381e+000
      vertex -2.350000e+001  6.000000e+000  0.000000e+000
      vertex -2.350000e+001  3.000000e+001  0.000000e+000
    endloop
  endfacet
  facet normal  1.000000e+000  0.000000e+000  0.000000e+000
    outer loop
      vertex -2.350000e+001  1.100000e+001  4.084381e+000
      vertex -2.350000e+001  3.000000e+001  0.000000e+000
      vertex -2.350000e+001  1.100000e+001  9.915619e+000
    endloop
  endfacet
  facet normal  1.000000e+000  -0.000000e+000  0.000000e+000
    outer loop
      vertex -2.350000e+001  1.100000e+001  9.915619e+000
      vertex -2.350000e+001  3.000000e+001  0.000000e+000
      vertex -2.350000e+001  3.000000e+001  1.400000e+001
    endloop
  endfacet
  facet normal  1.000000e+000  0.000000e+000  0.000000e+000
    outer loop
      vertex -2.350000e+001  1.100000e+001  9.915619e+000
      vertex -2.350000e+001  3.000000e+001  1.400000e+001
      vertex -2.350000e+001  6.000000e+000  9.915619e+000
    endloop
  endfacet
  facet normal  1.000000e+000  0.000000e+000  0.000000e+000
    outer loop
      vertex -2.350000e+001  6.000000e+000  9.915619e+000
      vertex -2.350000e+001  3.000000e+001  1.400000e+001
      vertex -2.350000e+001  6.000000e+000  1.400000e+001
    endloop
  endfacet
  facet normal  0.000000e+000  1.000000e+000  0.000000e+000
    outer loop
      vertex -2.350000e+001  6.000000e+000  0.000000e+000
      vertex -2.350000e+001  6.000000e+000  4.084381e+000
      vertex -4.000000e+000  6.000000e+000  0.000000e+000
    endloop
  endfacet
  facet normal  0.000000e+000  1.000000e+000  0.000000e+000
    outer loop
      vertex -4.000000e+000  6.000000e+000  0.000000e+000
      vertex -2.350000e+001  6.000000e+000  4.084381e+000
      vertex -2.130000e+001  6.000000e+000  5.354552e+000
    endloop
  endfacet
  facet normal  -0.000000e+000  1.000000e+000  0.000000e+000
    outer loop
      vertex -4.000000e+000  6.000000e+000  0.000000e+000
      vertex -2.130000e+001  6.000000e+000  5.354552e+000
      vertex -4.000000e+000  6.000000e+000  1.400000e+001
    endloop
  endfacet
  facet normal  0.000000e+000  9.999999e-001  0.000000e+000
    outer loop
      vertex -4.000000e+000  6.000000e+000  1.400000e+001
      vertex -2.130000e+001  6.000000e+000  5.354552e+000
      vertex -2.130000e+001  6.000000e+000  8.645449e+000
    endloop
  endfacet
  facet normal  0.000000e+000  1.000000e+000  -0.000000e+000
    outer loop
      vertex -4.000000e+000  6.000000e+000  1.400000e+001
      vertex -2.130000e+001  6.000000e+000  8.645449e+000
      vertex -2.350000e+001  6.000000e+000  1.400000e+001
    endloop
  endfacet
  facet normal  0.000000e+000  1.000000e+000  0.000000e+000
    outer loop
      vertex -2.350000e+001  6.000000e+000  1.400000e+001
      vertex -2.130000e+001  6.000000e+000  8.645449e+000
      vertex -2.350000e+001  6.000000e+000  9.915619e+000
    endloop
  endfacet
  facet normal  0.000000e+000  1.000000e+000  -0.000000e+000
    outer loop
      vertex  2.350000e+001  6.000000e+000  1.400000e+001
      vertex  2.350000e+001  6.000000e+000  9.915619e+000
      vertex  4.000000e+000  6.000000e+000  1.400000e+001
    endloop
  endfacet
  facet normal  0.000000e+000  1.000000e+000  0.000000e+000
    outer loop
      vertex  4.000000e+000  6.000000e+000  1.400000e+001
      vertex  2.350000e+001  6.000000e+000  9.915619e+000
      vertex  2.130000e+001  6.000000e+000  8.645449e+000
    endloop
  endfacet
  facet normal  0.000000e+000  9.999999e-001  0.000000e+000
    outer loop
      vertex  4.000000e+000  6.000000e+000  1.400000e+001
      vertex  2.130000e+001  6.000000e+000  8.645449e+000
      vertex  4.000000e+000  6.000000e+000  0.000000e+000
    endloop
  endfacet
  facet normal  0.000000e+000  1.000000e+000  0.000000e+000
    outer loop
      vertex  4.000000e+000  6.000000e+000  0.000000e+000
      vertex  2.130000e+001  6.000000e+000  8.645449e+000
      vertex  2.130000e+001  6.000000e+000  5.354552e+000
    endloop
  endfacet
  facet normal  0.000000e+000  1.000000e+000  0.000000e+000
    outer loop
      vertex  4.000000e+000  6.000000e+000  0.000000e+000
      vertex  2.130000e+001  6.000000e+000  5.354552e+000
      vertex  2.350000e+001  6.000000e+000  0.000000e+000
    endloop
  endfacet
  facet normal  0.000000e+000  1.000000e+000  -0.000000e+000
    outer loop
      vertex  2.350000e+001  6.000000e+000  0.000000e+000
      vertex  2.130000e+001  6.000000e+000  5.354552e+000
      vertex  2.350000e+001  6.000000e+000  4.084381e+000
    endloop
  endfacet
  facet normal -1.000000e+000  0.000000e+000  0.000000e+000
    outer loop
      vertex  2.350000e+001  6.000000e+000  0.000000e+000
      vertex  2.350000e+001  6.000000e+000  4.084381e+000
      vertex  2.350000e+001  3.000000e+001  0.000000e+000
    endloop
  endfacet
  facet normal -1.000000e+000  0.000000e+000  0.000000e+000
    outer loop
      vertex  2.350000e+001  3.000000e+001  0.000000e+000
      vertex  2.350000e+001  6.000000e+000  4.084381e+000
      vertex  2.350000e+001  1.100000e+001  4.084381e+000
    endloop
  endfacet
  facet normal -1.000000e+000  0.000000e+000  0.000000e+000
    outer loop
      vertex  2.350000e+001  3.000000e+001  0.000000e+000
      vertex  2.350000e+001  1.100000e+001  4.084381e+000
      vertex  2.350000e+001  3.000000e+001  1.400000e+001
    endloop
  endfacet
  facet normal -1.000000e+000  0.000000e+000  0.000000e+000
    outer loop
      vertex  2.350000e+001  3.000000e+001  1.400000e+001
      vertex  2.350000e+001  1.100000e+001  4.084381e+000
      vertex  2.350000e+001  1.100000e+001  9.915619e+000
    endloop
  endfacet
  facet normal -1.000000e+000  0.000000e+000  0.000000e+000
    outer loop
      vertex  2.350000e+001  3.000000e+001  1.400000e+001
      vertex  2.350000e+001  1.100000e+001  9.915619e+000
      vertex  2.350000e+001  6.000000e+000  1.400000e+001
    endloop
  endfacet
  facet normal -1.000000e+000  0.000000e+000  0.000000e+000
    outer loop
      vertex  2.350000e+001  6.000000e+000  1.400000e+001
      vertex  2.350000e+001  1.100000e+001  9.915619e+000
      vertex  2.350000e+001  6.000000e+000  9.915619e+000
    endloop
  endfacet
  facet normal  9.914448e-001  0.000000e+000 -1.305264e-001
    outer loop
      vertex -2.585000e+001  0.000000e+000  7.000000e+000
      vertex -2.585000e+001  3.000000e+000  7.000000e+000
      vertex -2.579207e+001  0.000000e+000  7.439992e+000
    endloop
  endfacet
  facet normal  9.914448e-001  0.000000e+000 -1.305264e-001
    outer loop
      vertex -2.579207e+001  0.000000e+000  7.439992e+000
      vertex -2.585000e+001  3.000000e+000  7.000000e+000
      vertex -2.579207e+001  3.000000e+000  7.439992e+000
    endloop
  endfacet
  facet normal  9.238798e-001  0.000000e+000 -3.826828e-001
    outer loop
      vertex -2.579207e+001  0.000000e+000  7.439992e+000
      vertex -2.579207e+001  3.000000e+000  7.439992e+000
      vertex -2.562224e+001  0.000000e+000  7.850000e+000
    endloop
  endfacet
  facet normal  9.238798e-001  0.000000e+000 -3.826828e-001
    outer loop
      vertex -2.562224e+001  0.000000e+000  7.850000e+000
      vertex -2.579207e+001  3.000000e+000  7.439992e+000
      vertex -2.562224e+001  3.000000e+000  7.850000e+000
    endloop
  endfacet
  facet normal  7.933525e-001  0.000000e+000 -6.087624e-001
    outer loop
      vertex -2.562224e+001  0.000000e+000  7.850000e+000
      vertex -2.562224e+001  3.000000e+000  7.850000e+000
      vertex -2.535208e+001  0.000000e+000  8.202082e+000
    endloop
  endfacet
  facet normal  7.933525e-001  0.000000e+000 -6.087624e-001
    outer loop
      vertex -2.535208e+001  0.000000e+000  8.202082e+000
      vertex -2.562224e+001  3.000000e+000  7.850000e+000
      vertex -2.535208e+001  3.000000e+000  8.202082e+000
    endloop
  endfacet
  facet normal  6.087616e-001  0.000000e+000 -7.933531e-001
    outer loop
      vertex -2.535208e+001  0.000000e+000  8.202082e+000
      vertex -2.535208e+001  3.000000e+000  8.202082e+000
      vertex -2.500000e+001  0.000000e+000  8.472243e+000
    endloop
  endfacet
  facet normal  6.087616e-001  0.000000e+000 -7.933531e-001
    outer loop
      vertex -2.500000e+001  0.000000e+000  8.472243e+000
      vertex -2.535208e+001  3.000000e+000  8.202082e+000
      vertex -2.500000e+001  3.000000e+000  8.472243e+000
    endloop
  endfacet
  facet normal  3.826828e-001  0.000000e+000 -9.238798e-001
    outer loop
      vertex -2.500000e+001  0.000000e+000  8.472243e+000
      vertex -2.500000e+001  3.000000e+000  8.472243e+000
      vertex -2.458999e+001  0.000000e+000  8.642074e+000
    endloop
  endfacet
  facet normal  3.826828e-001  0.000000e+000 -9.238798e-001
    outer loop
      vertex -2.458999e+001  0.000000e+000  8.642074e+000
      vertex -2.500000e+001  3.000000e+000  8.472243e+000
      vertex -2.458999e+001  3.000000e+000  8.642074e+000
    endloop
  endfacet
  facet normal  1.305262e-001  0.000000e+000 -9.914448e-001
    outer loop
      vertex -2.458999e+001  0.000000e+000  8.642074e+000
      vertex -2.458999e+001  3.000000e+000  8.642074e+000
      vertex -2.415000e+001  0.000000e+000  8.700000e+000
    endloop
  endfacet
  facet normal  1.305262e-001  0.000000e+000 -9.914448e-001
    outer loop
      vertex -2.415000e+001  0.000000e+000  8.700000e+000
      vertex -2.458999e+001  3.000000e+000  8.642074e+000
      vertex -2.415000e+001  3.000000e+000  8.700000e+000
    endloop
  endfacet
  facet normal -1.305262e-001  -0.000000e+000 -9.914448e-001
    outer loop
      vertex -2.415000e+001  0.000000e+000  8.700000e+000
      vertex -2.415000e+001  3.000000e+000  8.700000e+000
      vertex -2.371001e+001  0.000000e+000  8.642074e+000
    endloop
  endfacet
  facet normal -1.305262e-001  0.000000e+000 -9.914448e-001
    outer loop
      vertex -2.371001e+001  0.000000e+000  8.642074e+000
      vertex -2.415000e+001  3.000000e+000  8.700000e+000
      vertex -2.371001e+001  3.000000e+000  8.642074e+000
    endloop
  endfacet
  facet normal -3.826828e-001  -0.000000e+000 -9.238798e-001
    outer loop
      vertex -2.371001e+001  0.000000e+000  8.642074e+000
      vertex -2.371001e+001  3.000000e+000  8.642074e+000
      vertex -2.330000e+001  0.000000e+000  8.472243e+000
    endloop
  endfacet
  facet normal -3.826828e-001  0.000000e+000 -9.238798e-001
    outer loop
      vertex -2.330000e+001  0.000000e+000  8.472243e+000
      vertex -2.371001e+001  3.000000e+000  8.642074e+000
      vertex -2.330000e+001  3.000000e+000  8.472243e+000
    endloop
  endfacet
  facet normal -6.087616e-001  -0.000000e+000 -7.933531e-001
    outer loop
      vertex -2.330000e+001  0.000000e+000  8.472243e+000
      vertex -2.330000e+001  3.000000e+000  8.472243e+000
      vertex -2.294792e+001  0.000000e+000  8.202082e+000
    endloop
  endfacet
  facet normal -6.087616e-001  0.000000e+000 -7.933531e-001
    outer loop
      vertex -2.294792e+001  0.000000e+000  8.202082e+000
      vertex -2.330000e+001  3.000000e+000  8.472243e+000
      vertex -2.294792e+001  3.000000e+000  8.202082e+000
    endloop
  endfacet
  facet normal -7.933546e-001  -0.000000e+000 -6.087598e-001
    outer loop
      vertex -2.294792e+001  0.000000e+000  8.202082e+000
      vertex -2.294792e+001  3.000000e+000  8.202082e+000
      vertex -2.267776e+001  0.000000e+000  7.850000e+000
    endloop
  endfacet
  facet normal -7.933546e-001  0.000000e+000 -6.087598e-001
    outer loop
      vertex -2.267776e+001  0.000000e+000  7.850000e+000
      vertex -2.294792e+001  3.000000e+000  8.202082e+000
      vertex -2.267776e+001  3.000000e+000  7.850000e+000
    endloop
  endfacet
  facet normal -9.238798e-001  -0.000000e+000 -3.826828e-001
    outer loop
      vertex -2.267776e+001  0.000000e+000  7.850000e+000
      vertex -2.267776e+001  3.000000e+000  7.850000e+000
      vertex -2.250793e+001  0.000000e+000  7.439992e+000
    endloop
  endfacet
  facet normal -9.238798e-001  0.000000e+000 -3.826828e-001
    outer loop
      vertex -2.250793e+001  0.000000e+000  7.439992e+000
      vertex -2.267776e+001  3.000000e+000  7.850000e+000
      vertex -2.250793e+001  3.000000e+000  7.439992e+000
    endloop
  endfacet
  facet normal -9.914448e-001  -0.000000e+000 -1.305264e-001
    outer loop
      vertex -2.250793e+001  0.000000e+000  7.439992e+000
      vertex -2.250793e+001  3.000000e+000  7.439992e+000
      vertex -2.245000e+001  0.000000e+000  7.000000e+000
    endloop
  endfacet
  facet normal -9.914448e-001  0.000000e+000 -1.305264e-001
    outer loop
      vertex -2.245000e+001  0.000000e+000  7.000000e+000
      vertex -2.250793e+001  3.000000e+000  7.439992e+000
      vertex -2.245000e+001  3.000000e+000  7.000000e+000
    endloop
  endfacet
  facet normal -9.914448e-001  0.000000e+000  1.305264e-001
    outer loop
      vertex -2.245000e+001  0.000000e+000  7.000000e+000
      vertex -2.245000e+001  3.000000e+000  7.000000e+000
      vertex -2.250793e+001  0.000000e+000  6.560008e+000
    endloop
  endfacet
  facet normal -9.914448e-001  0.000000e+000  1.305264e-001
    outer loop
      vertex -2.250793e+001  0.000000e+000  6.560008e+000
      vertex -2.245000e+001  3.000000e+000  7.000000e+000
      vertex -2.250793e+001  3.000000e+000  6.560008e+000
    endloop
  endfacet
  facet normal -9.238798e-001  0.000000e+000  3.826828e-001
    outer loop
      vertex -2.250793e+001  0.000000e+000  6.560008e+000
      vertex -2.250793e+001  3.000000e+000  6.560008e+000
      vertex -2.267776e+001  0.000000e+000  6.150000e+000
    endloop
  endfacet
  facet normal -9.238798e-001  0.000000e+000  3.826828e-001
    outer loop
      vertex -2.267776e+001  0.000000e+000  6.150000e+000
      vertex -2.250793e+001  3.000000e+000  6.560008e+000
      vertex -2.267776e+001  3.000000e+000  6.150000e+000
    endloop
  endfacet
  facet normal -7.933546e-001  0.000000e+000  6.087598e-001
    outer loop
      vertex -2.267776e+001  0.000000e+000  6.150000e+000
      vertex -2.267776e+001  3.000000e+000  6.150000e+000
      vertex -2.294792e+001  0.000000e+000  5.797918e+000
    endloop
  endfacet
  facet normal -7.933546e-001  0.000000e+000  6.087598e-001
    outer loop
      vertex -2.294792e+001  0.000000e+000  5.797918e+000
      vertex -2.267776e+001  3.000000e+000  6.150000e+000
      vertex -2.294792e+001  3.000000e+000  5.797918e+000
    endloop
  endfacet
  facet normal -6.087616e-001  0.000000e+000  7.933531e-001
    outer loop
      vertex -2.294792e+001  0.000000e+000  5.797918e+000
      vertex -2.294792e+001  3.000000e+000  5.797918e+000
      vertex -2.330000e+001  0.000000e+000  5.527757e+000
    endloop
  endfacet
  facet normal -6.087616e-001  0.000000e+000  7.933531e-001
    outer loop
      vertex -2.330000e+001  0.000000e+000  5.527757e+000
      vertex -2.294792e+001  3.000000e+000  5.797918e+000
      vertex -2.330000e+001  3.000000e+000  5.527757e+000
    endloop
  endfacet
  facet normal -3.826837e-001  0.000000e+000  9.238794e-001
    outer loop
      vertex -2.330000e+001  0.000000e+000  5.527757e+000
      vertex -2.330000e+001  3.000000e+000  5.527757e+000
      vertex -2.371001e+001  0.000000e+000  5.357926e+000
    endloop
  endfacet
  facet normal -3.826837e-001  0.000000e+000  9.238794e-001
    outer loop
      vertex -2.371001e+001  0.000000e+000  5.357926e+000
      vertex -2.330000e+001  3.000000e+000  5.527757e+000
      vertex -2.371001e+001  3.000000e+000  5.357926e+000
    endloop
  endfacet
  facet normal -1.305252e-001  0.000000e+000  9.914450e-001
    outer loop
      vertex -2.371001e+001  0.000000e+000  5.357926e+000
      vertex -2.371001e+001  3.000000e+000  5.357926e+000
      vertex -2.415000e+001  0.000000e+000  5.300000e+000
    endloop
  endfacet
  facet normal -1.305252e-001  0.000000e+000  9.914450e-001
    outer loop
      vertex -2.415000e+001  0.000000e+000  5.300000e+000
      vertex -2.371001e+001  3.000000e+000  5.357926e+000
      vertex -2.415000e+001  3.000000e+000  5.300000e+000
    endloop
  endfacet
  facet normal  1.305252e-001  0.000000e+000  9.914450e-001
    outer loop
      vertex -2.415000e+001  0.000000e+000  5.300000e+000
      vertex -2.415000e+001  3.000000e+000  5.300000e+000
      vertex -2.458999e+001  0.000000e+000  5.357926e+000
    endloop
  endfacet
  facet normal  1.305252e-001  -0.000000e+000  9.914450e-001
    outer loop
      vertex -2.458999e+001  0.000000e+000  5.357926e+000
      vertex -2.415000e+001  3.000000e+000  5.300000e+000
      vertex -2.458999e+001  3.000000e+000  5.357926e+000
    endloop
  endfacet
  facet normal  3.826837e-001  0.000000e+000  9.238794e-001
    outer loop
      vertex -2.458999e+001  0.000000e+000  5.357926e+000
      vertex -2.458999e+001  3.000000e+000  5.357926e+000
      vertex -2.500000e+001  0.000000e+000  5.527757e+000
    endloop
  endfacet
  facet normal  3.826837e-001  -0.000000e+000  9.238794e-001
    outer loop
      vertex -2.500000e+001  0.000000e+000  5.527757e+000
      vertex -2.458999e+001  3.000000e+000  5.357926e+000
      vertex -2.500000e+001  3.000000e+000  5.527757e+000
    endloop
  endfacet
  facet normal  6.087616e-001  0.000000e+000  7.933531e-001
    outer loop
      vertex -2.500000e+001  0.000000e+000  5.527757e+000
      vertex -2.500000e+001  3.000000e+000  5.527757e+000
      vertex -2.535208e+001  0.000000e+000  5.797918e+000
    endloop
  endfacet
  facet normal  6.087616e-001  -0.000000e+000  7.933531e-001
    outer loop
      vertex -2.535208e+001  0.000000e+000  5.797918e+000
      vertex -2.500000e+001  3.000000e+000  5.527757e+000
      vertex -2.535208e+001  3.000000e+000  5.797918e+000
    endloop
  endfacet
  facet normal  7.933525e-001  0.000000e+000  6.087624e-001
    outer loop
      vertex -2.535208e+001  0.000000e+000  5.797918e+000
      vertex -2.535208e+001  3.000000e+000  5.797918e+000
      vertex -2.562224e+001  0.000000e+000  6.150000e+000
    endloop
  endfacet
  facet normal  7.933525e-001  -0.000000e+000  6.087624e-001
    outer loop
      vertex -2.562224e+001  0.000000e+000  6.150000e+000
      vertex -2.535208e+001  3.000000e+000  5.797918e+000
      vertex -2.562224e+001  3.000000e+000  6.150000e+000
    endloop
  endfacet
  facet normal  9.238798e-001  0.000000e+000  3.826828e-001
    outer loop
      vertex -2.562224e+001  0.000000e+000  6.150000e+000
      vertex -2.562224e+001  3.000000e+000  6.150000e+000
      vertex -2.579207e+001  0.000000e+000  6.560008e+000
    endloop
  endfacet
  facet normal  9.238798e-001  -0.000000e+000  3.826828e-001
    outer loop
      vertex -2.579207e+001  0.000000e+000  6.560008e+000
      vertex -2.562224e+001  3.000000e+000  6.150000e+000
      vertex -2.579207e+001  3.000000e+000  6.560008e+000
    endloop
  endfacet
  facet normal  9.914448e-001  0.000000e+000  1.305264e-001
    outer loop
      vertex -2.579207e+001  0.000000e+000  6.560008e+000
      vertex -2.579207e+001  3.000000e+000  6.560008e+000
      vertex -2.585000e+001  0.000000e+000  7.000000e+000
    endloop
  endfacet
  facet normal  9.914448e-001  -0.000000e+000  1.305264e-001
    outer loop
      vertex -2.585000e+001  0.000000e+000  7.000000e+000
      vertex -2.579207e+001  3.000000e+000  6.560008e+000
      vertex -2.585000e+001  3.000000e+000  7.000000e+000
    endloop
  endfacet
  facet normal -9.914448e-001  0.000000e+000  1.305264e-001
    outer loop
      vertex  2.585000e+001  0.000000e+000  7.000000e+000
      vertex  2.585000e+001  3.000000e+000  7.000000e+000
      vertex  2.579207e+001  0.000000e+000  6.560008e+000
    endloop
  endfacet
  facet normal -9.914448e-001  0.000000e+000  1.305264e-001
    outer loop
      vertex  2.579207e+001  0.000000e+000  6.560008e+000
      vertex  2.585000e+001  3.000000e+000  7.000000e+000
      vertex  2.579207e+001  3.000000e+000  6.560008e+000
    endloop
  endfacet
  facet normal -9.238798e-001  0.000000e+000  3.826828e-001
    outer loop
      vertex  2.579207e+001  0.000000e+000  6.560008e+000
      vertex  2.579207e+001  3.000000e+000  6.560008e+000
      vertex  2.562224e+001  0.000000e+000  6.150000e+000
    endloop
  endfacet
  facet normal -9.238798e-001  0.000000e+000  3.826828e-001
    outer loop
      vertex  2.562224e+001  0.000000e+000  6.150000e+000
      vertex  2.579207e+001  3.000000e+000  6.560008e+000
      vertex  2.562224e+001  3.000000e+000  6.150000e+000
    endloop
  endfacet
  facet normal -7.933525e-001  0.000000e+000  6.087624e-001
    outer loop
      vertex  2.562224e+001  0.000000e+000  6.150000e+000
      vertex  2.562224e+001  3.000000e+000  6.150000e+000
      vertex  2.535208e+001  0.000000e+000  5.797918e+000
    endloop
  endfacet
  facet normal -7.933525e-001  0.000000e+000  6.087624e-001
    outer loop
      vertex  2.535208e+001  0.000000e+000  5.797918e+000
      vertex  2.562224e+001  3.000000e+000  6.150000e+000
      vertex  2.535208e+001  3.000000e+000  5.797918e+000
    endloop
  endfacet
  facet normal -6.087616e-001  0.000000e+000  7.933531e-001
    outer loop
      vertex  2.535208e+001  0.000000e+000  5.797918e+000
      vertex  2.535208e+001  3.000000e+000  5.797918e+000
      vertex  2.500000e+001  0.000000e+000  5.527757e+000
    endloop
  endfacet
  facet normal -6.087616e-001  0.000000e+000  7.933531e-001
    outer loop
      vertex  2.500000e+001  0.000000e+000  5.527757e+000
      vertex  2.535208e+001  3.000000e+000  5.797918e+000
      vertex  2.500000e+001  3.000000e+000  5.527757e+000
    endloop
  endfacet
  facet normal -3.826837e-001  0.000000e+000  9.238794e-001
    outer loop
      vertex  2.500000e+001  0.000000e+000  5.527757e+000
      vertex  2.500000e+001  3.000000e+000  5.527757e+000
      vertex  2.458999e+001  0.000000e+000  5.357926e+000
    endloop
  endfacet
  facet normal -3.826837e-001  0.000000e+000  9.238794e-001
    outer loop
      vertex  2.458999e+001  0.000000e+000  5.357926e+000
      vertex  2.500000e+001  3.000000e+000  5.527757e+000
      vertex  2.458999e+001  3.000000e+000  5.357926e+000
    endloop
  endfacet
  facet normal -1.305252e-001  0.000000e+000  9.914450e-001
    outer loop
      vertex  2.458999e+001  0.000000e+000  5.357926e+000
      vertex  2.458999e+001  3.000000e+000  5.357926e+000
      vertex  2.415000e+001  0.000000e+000  5.300000e+000
    endloop
  endfacet
  facet normal -1.305252e-001  0.000000e+000  9.914450e-001
    outer loop
      vertex  2.415000e+001  0.000000e+000  5.300000e+000
      vertex  2.458999e+001  3.000000e+000  5.357926e+000
      vertex  2.415000e+001  3.000000e+000  5.300000e+000
    endloop
  endfacet
  facet normal  1.305252e-001  0.000000e+000  9.914450e-001
    outer loop
      vertex  2.415000e+001  0.000000e+000  5.300000e+000
      vertex  2.415000e+001  3.000000e+000  5.300000e+000
      vertex  2.371001e+001  0.000000e+000  5.357926e+000
    endloop
  endfacet
  facet normal  1.305252e-001  -0.000000e+000  9.914450e-001
    outer loop
      vertex  2.371001e+001  0.000000e+000  5.357926e+000
      vertex  2.415000e+001  3.000000e+000  5.300000e+000
      vertex  2.371001e+001  3.000000e+000  5.357926e+000
    endloop
  endfacet
  facet normal  3.826837e-001  0.000000e+000  9.238794e-001
    outer loop
      vertex  2.371001e+001  0.000000e+000  5.357926e+000
      vertex  2.371001e+001  3.000000e+000  5.357926e+000
      vertex  2.330000e+001  0.000000e+000  5.527757e+000
    endloop
  endfacet
  facet normal  3.826837e-001  -0.000000e+000  9.238794e-001
    outer loop
      vertex  2.330000e+001  0.000000e+000  5.527757e+000
      vertex  2.371001e+001  3.000000e+000  5.357926e+000
      vertex  2.330000e+001  3.000000e+000  5.527757e+000
    endloop
  endfacet
  facet normal  6.087616e-001  0.000000e+000  7.933531e-001
    outer loop
      vertex  2.330000e+001  0.000000e+000  5.527757e+000
      vertex  2.330000e+001  3.000000e+000  5.527757e+000
      vertex  2.294792e+001  0.000000e+000  5.797918e+000
    endloop
  endfacet
  facet normal  6.087616e-001  -0.000000e+000  7.933531e-001
    outer loop
      vertex  2.294792e+001  0.000000e+000  5.797918e+000
      vertex  2.330000e+001  3.000000e+000  5.527757e+000
      vertex  2.294792e+001  3.000000e+000  5.797918e+000
    endloop
  endfacet
  facet normal  7.933546e-001  0.000000e+000  6.087598e-001
    outer loop
      vertex  2.294792e+001  0.000000e+000  5.797918e+000
      vertex  2.294792e+001  3.000000e+000  5.797918e+000
      vertex  2.267776e+001  0.000000e+000  6.150000e+000
    endloop
  endfacet
  facet normal  7.933546e-001  -0.000000e+000  6.087598e-001
    outer loop
      vertex  2.267776e+001  0.000000e+000  6.150000e+000
      vertex  2.294792e+001  3.000000e+000  5.797918e+000
      vertex  2.267776e+001  3.000000e+000  6.150000e+000
    endloop
  endfacet
  facet normal  9.238798e-001  0.000000e+000  3.826828e-001
    outer loop
      vertex  2.267776e+001  0.000000e+000  6.150000e+000
      vertex  2.267776e+001  3.000000e+000  6.150000e+000
      vertex  2.250793e+001  0.000000e+000  6.560008e+000
    endloop
  endfacet
  facet normal  9.238798e-001  -0.000000e+000  3.826828e-001
    outer loop
      vertex  2.250793e+001  0.000000e+000  6.560008e+000
      vertex  2.267776e+001  3.000000e+000  6.150000e+000
      vertex  2.250793e+001  3.000000e+000  6.560008e+000
    endloop
  endfacet
  facet normal  9.914448e-001  0.000000e+000  1.305264e-001
    outer loop
      vertex  2.250793e+001  0.000000e+000  6.560008e+000
      vertex  2.250793e+001  3.000000e+000  6.560008e+000
      vertex  2.245000e+001  0.000000e+000  7.000000e+000
    endloop
  endfacet
  facet normal  9.914448e-001  -0.000000e+000  1.305264e-001
    outer loop
      vertex  2.245000e+001  0.000000e+000  7.000000e+000
      vertex  2.250793e+001  3.000000e+000  6.560008e+000
      vertex  2.245000e+001  3.000000e+000  7.000000e+000
    endloop
  endfacet
  facet normal  9.914448e-001  0.000000e+000 -1.305264e-001
    outer loop
      vertex  2.245000e+001  0.000000e+000  7.000000e+000
      vertex  2.245000e+001  3.000000e+000  7.000000e+000
      vertex  2.250793e+001  0.000000e+000  7.439992e+000
    endloop
  endfacet
  facet normal  9.914448e-001  0.000000e+000 -1.305264e-001
    outer loop
      vertex  2.250793e+001  0.000000e+000  7.439992e+000
      vertex  2.245000e+001  3.000000e+000  7.000000e+000
      vertex  2.250793e+001  3.000000e+000  7.439992e+000
    endloop
  endfacet
  facet normal  9.238798e-001  0.000000e+000 -3.826828e-001
    outer loop
      vertex  2.250793e+001  0.000000e+000  7.439992e+000
      vertex  2.250793e+001  3.000000e+000  7.439992e+000
      vertex  2.267776e+001  0.000000e+000  7.850000e+000
    endloop
  endfacet
  facet normal  9.238798e-001  0.000000e+000 -3.826828e-001
    outer loop
      vertex  2.267776e+001  0.000000e+000  7.850000e+000
      vertex  2.250793e+001  3.000000e+000  7.439992e+000
      vertex  2.267776e+001  3.000000e+000  7.850000e+000
    endloop
  endfacet
  facet normal  7.933546e-001  0.000000e+000 -6.087598e-001
    outer loop
      vertex  2.267776e+001  0.000000e+000  7.850000e+000
      vertex  2.267776e+001  3.000000e+000  7.850000e+000
      vertex  2.294792e+001  0.000000e+000  8.202082e+000
    endloop
  endfacet
  facet normal  7.933546e-001  0.000000e+000 -6.087598e-001
    outer loop
      vertex  2.294792e+001  0.000000e+000  8.202082e+000
      vertex  2.267776e+001  3.000000e+000  7.850000e+000
      vertex  2.294792e+001  3.000000e+000  8.202082e+000
    endloop
  endfacet
  facet normal  6.087616e-001  0.000000e+000 -7.933531e-001
    outer loop
      vertex  2.294792e+001  0.000000e+000  8.202082e+000
      vertex  2.294792e+001  3.000000e+000  8.202082e+000
      vertex  2.330000e+001  0.000000e+000  8.472243e+000
    endloop
  endfacet
  facet normal  6.087616e-001  0.000000e+000 -7.933531e-001
    outer loop
      vertex  2.330000e+001  0.000000e+000  8.472243e+000
      vertex  2.294792e+001  3.000000e+000  8.202082e+000
      vertex  2.330000e+001  3.000000e+000  8.472243e+000
    endloop
  endfacet
  facet normal  3.826828e-001  0.000000e+000 -9.238798e-001
    outer loop
      vertex  2.330000e+001  0.000000e+000  8.472243e+000
      vertex  2.330000e+001  3.000000e+000  8.472243e+000
      vertex  2.371001e+001  0.000000e+000  8.642074e+000
    endloop
  endfacet
  facet normal  3.826828e-001  0.000000e+000 -9.238798e-001
    outer loop
      vertex  2.371001e+001  0.000000e+000  8.642074e+000
      vertex  2.330000e+001  3.000000e+000  8.472243e+000
      vertex  2.371001e+001  3.000000e+000  8.642074e+000
    endloop
  endfacet
  facet normal  1.305262e-001  0.000000e+000 -9.914448e-001
    outer loop
      vertex  2.371001e+001  0.000000e+000  8.642074e+000
      vertex  2.371001e+001  3.000000e+000  8.642074e+000
      vertex  2.415000e+001  0.000000e+000  8.700000e+000
    endloop
  endfacet
  facet normal  1.305262e-001  0.000000e+000 -9.914448e-001
    outer loop
      vertex  2.415000e+001  0.000000e+000  8.700000e+000
      vertex  2.371001e+001  3.000000e+000  8.642074e+000
      vertex  2.415000e+001  3.000000e+000  8.700000e+000
    endloop
  endfacet
  facet normal -1.305262e-001  -0.000000e+000 -9.914448e-001
    outer loop
      vertex  2.415000e+001  0.000000e+000  8.700000e+000
      vertex  2.415000e+001  3.000000e+000  8.700000e+000
      vertex  2.458999e+001  0.000000e+000  8.642074e+000
    endloop
  endfacet
  facet normal -1.305262e-001  0.000000e+000 -9.914448e-001
    outer loop
      vertex  2.458999e+001  0.000000e+000  8.642074e+000
      vertex  2.415000e+001  3.000000e+000  8.700000e+000
      vertex  2.458999e+001  3.000000e+000  8.642074e+000
    endloop
  endfacet
  facet normal -3.826828e-001  -0.000000e+000 -9.238798e-001
    outer loop
      vertex  2.458999e+001  0.000000e+000  8.642074e+000
      vertex  2.458999e+001  3.000000e+000  8.642074e+000
      vertex  2.500000e+001  0.000000e+000  8.472243e+000
    endloop
  endfacet
  facet normal -3.826828e-001  0.000000e+000 -9.238798e-001
    outer loop
      vertex  2.500000e+001  0.000000e+000  8.472243e+000
      vertex  2.458999e+001  3.000000e+000  8.642074e+000
      vertex  2.500000e+001  3.000000e+000  8.472243e+000
    endloop
  endfacet
  facet normal -6.087616e-001  -0.000000e+000 -7.933531e-001
    outer loop
      vertex  2.500000e+001  0.000000e+000  8.472243e+000
      vertex  2.500000e+001  3.000000e+000  8.472243e+000
      vertex  2.535208e+001  0.000000e+000  8.202082e+000
    endloop
  endfacet
  facet normal -6.087616e-001  0.000000e+000 -7.933531e-001
    outer loop
      vertex  2.535208e+001  0.000000e+000  8.202082e+000
      vertex  2.500000e+001  3.000000e+000  8.472243e+000
      vertex  2.535208e+001  3.000000e+000  8.202082e+000
    endloop
  endfacet
  facet normal -7.933525e-001  -0.000000e+000 -6.087624e-001
    outer loop
      vertex  2.535208e+001  0.000000e+000  8.202082e+000
      vertex  2.535208e+001  3.000000e+000  8.202082e+000
      vertex  2.562224e+001  0.000000e+000  7.850000e+000
    endloop
  endfacet
  facet normal -7.933525e-001  0.000000e+000 -6.087624e-001
    outer loop
      vertex  2.562224e+001  0.000000e+000  7.850000e+000
      vertex  2.535208e+001  3.000000e+000  8.202082e+000
      vertex  2.562224e+001  3.000000e+000  7.850000e+000
    endloop
  endfacet
  facet normal -9.238798e-001  -0.000000e+000 -3.826828e-001
    outer loop
      vertex  2.562224e+001  0.000000e+000  7.850000e+000
      vertex  2.562224e+001  3.000000e+000  7.850000e+000
      vertex  2.579207e+001  0.000000e+000  7.439992e+000
    endloop
  endfacet
  facet normal -9.238798e-001  0.000000e+000 -3.826828e-001
    outer loop
      vertex  2.579207e+001  0.000000e+000  7.439992e+000
      vertex  2.562224e+001  3.000000e+000  7.850000e+000
      vertex  2.579207e+001  3.000000e+000  7.439992e+000
    endloop
  endfacet
  facet normal -9.914448e-001  -0.000000e+000 -1.305264e-001
    outer loop
      vertex  2.579207e+001  0.000000e+000  7.439992e+000
      vertex  2.579207e+001  3.000000e+000  7.439992e+000
      vertex  2.585000e+001  0.000000e+000  7.000000e+000
    endloop
  endfacet
  facet normal -9.914448e-001  0.000000e+000 -1.305264e-001
    outer loop
      vertex  2.585000e+001  0.000000e+000  7.000000e+000
      vertex  2.579207e+001  3.000000e+000  7.439992e+000
      vertex  2.585000e+001  3.000000e+000  7.000000e+000
    endloop
  endfacet
  facet normal -1.000000e+000  0.000000e+000  0.000000e+000
    outer loop
      vertex -2.130000e+001  6.000000e+000  8.645449e+000
      vertex -2.130000e+001  6.000000e+000  5.354552e+000
      vertex -2.130000e+001  3.000000e+000  8.645449e+000
    endloop
  endfacet
  facet normal -1.000000e+000  0.000000e+000  0.000000e+000
    outer loop
      vertex -2.130000e+001  3.000000e+000  8.645449e+000
      vertex -2.130000e+001  6.000000e+000  5.354552e+000
      vertex -2.130000e+001  3.000000e+000  5.354552e+000
    endloop
  endfacet
  facet normal -5.000000e-001  0.000000e+000  8.660255e-001
    outer loop
      vertex -2.130000e+001  3.000000e+000  5.354552e+000
      vertex -2.130000e+001  6.000000e+000  5.354552e+000
      vertex -2.415000e+001  3.000000e+000  3.709104e+000
    endloop
  endfacet
  facet normal -4.999999e-001 -4.796390e-008  8.660254e-001
    outer loop
      vertex -2.415000e+001  3.000000e+000  3.709104e+000
      vertex -2.130000e+001  6.000000e+000  5.354552e+000
      vertex -2.350000e+001  6.000000e+000  4.084381e+000
    endloop
  endfacet
  facet normal -5.000000e-001  0.000000e+000  8.660253e-001
    outer loop
      vertex -2.415000e+001  3.000000e+000  3.709104e+000
      vertex -2.350000e+001  6.000000e+000  4.084381e+000
      vertex -2.415000e+001  1.100000e+001  3.709104e+000
    endloop
  endfacet
  facet normal -5.000001e-001  0.000000e+000  8.660254e-001
    outer loop
      vertex -2.415000e+001  1.100000e+001  3.709104e+000
      vertex -2.350000e+001  6.000000e+000  4.084381e+000
      vertex -2.350000e+001  1.100000e+001  4.084381e+000
    endloop
  endfacet
  facet normal -5.000000e-001  0.000000e+000 -8.660253e-001
    outer loop
      vertex -2.415000e+001  1.100000e+001  1.029090e+001
      vertex -2.350000e+001  1.100000e+001  9.915619e+000
      vertex -2.415000e+001  3.000000e+000  1.029090e+001
    endloop
  endfacet
  facet normal -5.000001e-001  0.000000e+000 -8.660254e-001
    outer loop
      vertex -2.415000e+001  3.000000e+000  1.029090e+001
      vertex -2.350000e+001  1.100000e+001  9.915619e+000
      vertex -2.350000e+001  6.000000e+000  9.915619e+000
    endloop
  endfacet
  facet normal -4.999999e-001 -6.841886e-008 -8.660256e-001
    outer loop
      vertex -2.415000e+001  3.000000e+000  1.029090e+001
      vertex -2.350000e+001  6.000000e+000  9.915619e+000
      vertex -2.130000e+001  3.000000e+000  8.645449e+000
    endloop
  endfacet
  facet normal -4.999998e-001  0.000000e+000 -8.660255e-001
    outer loop
      vertex -2.130000e+001  3.000000e+000  8.645449e+000
      vertex -2.350000e+001  6.000000e+000  9.915619e+000
      vertex -2.130000e+001  6.000000e+000  8.645449e+000
    endloop
  endfacet
  facet normal  0.000000e+000 -1.000000e+000  0.000000e+000
    outer loop
      vertex -2.700000e+001  1.100000e+001  5.354552e+000
      vertex -2.415000e+001  1.100000e+001  3.709104e+000
      vertex -2.350000e+001  1.100000e+001  4.084381e+000
    endloop
  endfacet
  facet normal  0.000000e+000 -1.000000e+000  0.000000e+000
    outer loop
      vertex -2.700000e+001  1.100000e+001  5.354552e+000
      vertex -2.350000e+001  1.100000e+001  4.084381e+000
      vertex -2.700000e+001  1.100000e+001  8.645449e+000
    endloop
  endfacet
  facet normal  0.000000e+000 -1.000000e+000  0.000000e+000
    outer loop
      vertex -2.700000e+001  1.100000e+001  8.645449e+000
      vertex -2.350000e+001  1.100000e+001  4.084381e+000
      vertex -2.350000e+001  1.100000e+001  9.915619e+000
    endloop
  endfacet
  facet normal  -0.000000e+000 -1.000000e+000  0.000000e+000
    outer loop
      vertex -2.700000e+001  1.100000e+001  8.645449e+000
      vertex -2.350000e+001  1.100000e+001  9.915619e+000
      vertex -2.415000e+001  1.100000e+001  1.029090e+001
    endloop
  endfacet
  facet normal  0.000000e+000  1.000000e+000  0.000000e+000
    outer loop
      vertex -2.130000e+001  3.000000e+000  5.354552e+000
      vertex -2.415000e+001  3.000000e+000  3.709104e+000
      vertex -2.415000e+001  3.000000e+000  5.300000e+000
    endloop
  endfacet
  facet normal  0.000000e+000  1.000000e+000  0.000000e+000
    outer loop
      vertex -2.130000e+001  3.000000e+000  5.354552e+000
      vertex -2.415000e+001  3.000000e+000  5.300000e+000
      vertex -2.371001e+001  3.000000e+000  5.357926e+000
    endloop
  endfacet
  facet normal  -0.000000e+000  1.000000e+000  0.000000e+000
    outer loop
      vertex -2.130000e+001  3.000000e+000  5.354552e+000
      vertex -2.371001e+001  3.000000e+000  5.357926e+000
      vertex -2.330000e+001  3.000000e+000  5.527757e+000
    endloop
  endfacet
  facet normal  -0.000000e+000  1.000000e+000  0.000000e+000
    outer loop
      vertex -2.130000e+001  3.000000e+000  5.354552e+000
      vertex -2.330000e+001  3.000000e+000  5.527757e+000
      vertex -2.294792e+001  3.000000e+000  5.797918e+000
    endloop
  endfacet
  facet normal  -0.000000e+000  1.000000e+000  0.000000e+000
    outer loop
      vertex -2.130000e+001  3.000000e+000  5.354552e+000
      vertex -2.294792e+001  3.000000e+000  5.797918e+000
      vertex -2.267776e+001  3.000000e+000  6.150000e+000
    endloop
  endfacet
  facet normal  -0.000000e+000  1.000000e+000  0.000000e+000
    outer loop
      vertex -2.130000e+001  3.000000e+000  5.354552e+000
      vertex -2.267776e+001  3.000000e+000  6.150000e+000
      vertex -2.250793e+001  3.000000e+000  6.560008e+000
    endloop
  endfacet
  facet normal  -0.000000e+000  1.000000e+000  0.000000e+000
    outer loop
      vertex -2.130000e+001  3.000000e+000  5.354552e+000
      vertex -2.250793e+001  3.000000e+000  6.560008e+000
      vertex -2.245000e+001  3.000000e+000  7.000000e+000
    endloop
  endfacet
  facet normal  -0.000000e+000  1.000000e+000  -0.000000e+000
    outer loop
      vertex -2.130000e+001  3.000000e+000  5.354552e+000
      vertex -2.245000e+001  3.000000e+000  7.000000e+000
      vertex -2.250793e+001  3.000000e+000  7.439992e+000
    endloop
  endfacet
  facet normal  -0.000000e+000  1.000000e+000  -0.000000e+000
    outer loop
      vertex -2.130000e+001  3.000000e+000  5.354552e+000
      vertex -2.250793e+001  3.000000e+000  7.439992e+000
      vertex -2.267776e+001  3.000000e+000  7.850000e+000
    endloop
  endfacet
  facet normal  0.000000e+000  1.000000e+000  -0.000000e+000
    outer loop
      vertex -2.130000e+001  3.000000e+000  8.645449e+000
      vertex -2.130000e+001  3.000000e+000  5.354552e+000
      vertex -2.267776e+001  3.000000e+000  7.850000e+000
    endloop
  endfacet
  facet normal  0.000000e+000  1.000000e+000  -0.000000e+000
    outer loop
      vertex -2.130000e+001  3.000000e+000  8.645449e+000
      vertex -2.267776e+001  3.000000e+000  7.850000e+000
      vertex -2.294792e+001  3.000000e+000  8.202082e+000
    endloop
  endfacet
  facet normal  0.000000e+000  1.000000e+000  -0.000000e+000
    outer loop
      vertex -2.130000e+001  3.000000e+000  8.645449e+000
      vertex -2.294792e+001  3.000000e+000  8.202082e+000
      vertex -2.330000e+001  3.000000e+000  8.472243e+000
    endloop
  endfacet
  facet normal  0.000000e+000  1.000000e+000  -0.000000e+000
    outer loop
      vertex -2.130000e+001  3.000000e+000  8.645449e+000
      vertex -2.330000e+001  3.000000e+000  8.472243e+000
      vertex -2.371001e+001  3.000000e+000  8.642074e+000
    endloop
  endfacet
  facet normal  0.000000e+000  1.000000e+000  -0.000000e+000
    outer loop
      vertex -2.130000e+001  3.000000e+000  8.645449e+000
      vertex -2.371001e+001  3.000000e+000  8.642074e+000
      vertex -2.415000e+001  3.000000e+000  8.700000e+000
    endloop
  endfacet
  facet normal  -0.000000e+000  1.000000e+000  0.000000e+000
    outer loop
      vertex -2.130000e+001  3.000000e+000  8.645449e+000
      vertex -2.415000e+001  3.000000e+000  8.700000e+000
      vertex -2.415000e+001  3.000000e+000  1.029090e+001
    endloop
  endfacet
  facet normal  0.000000e+000  1.000000e+000  0.000000e+000
    outer loop
      vertex -2.700000e+001  3.000000e+000  5.354552e+000
      vertex -2.562224e+001  3.000000e+000  7.850000e+000
      vertex -2.579207e+001  3.000000e+000  7.439992e+000
    endloop
  endfacet
  facet normal  0.000000e+000  1.000000e+000  0.000000e+000
    outer loop
      vertex -2.700000e+001  3.000000e+000  5.354552e+000
      vertex -2.579207e+001  3.000000e+000  7.439992e+000
      vertex -2.585000e+001  3.000000e+000  7.000000e+000
    endloop
  endfacet
  facet normal  0.000000e+000  1.000000e+000  0.000000e+000
    outer loop
      vertex -2.700000e+001  3.000000e+000  5.354552e+000
      vertex -2.585000e+001  3.000000e+000  7.000000e+000
      vertex -2.579207e+001  3.000000e+000  6.560008e+000
    endloop
  endfacet
  facet normal  0.000000e+000  1.000000e+000  0.000000e+000
    outer loop
      vertex -2.700000e+001  3.000000e+000  5.354552e+000
      vertex -2.579207e+001  3.000000e+000  6.560008e+000
      vertex -2.562224e+001  3.000000e+000  6.150000e+000
    endloop
  endfacet
  facet normal  0.000000e+000  1.000000e+000  0.000000e+000
    outer loop
      vertex -2.700000e+001  3.000000e+000  5.354552e+000
      vertex -2.562224e+001  3.000000e+000  6.150000e+000
      vertex -2.535208e+001  3.000000e+000  5.797918e+000
    endloop
  endfacet
  facet normal  0.000000e+000  1.000000e+000  0.000000e+000
    outer loop
      vertex -2.700000e+001  3.000000e+000  5.354552e+000
      vertex -2.535208e+001  3.000000e+000  5.797918e+000
      vertex -2.500000e+001  3.000000e+000  5.527757e+000
    endloop
  endfacet
  facet normal  0.000000e+000  1.000000e+000  0.000000e+000
    outer loop
      vertex -2.700000e+001  3.000000e+000  5.354552e+000
      vertex -2.500000e+001  3.000000e+000  5.527757e+000
      vertex -2.458999e+001  3.000000e+000  5.357926e+000
    endloop
  endfacet
  facet normal  0.000000e+000  1.000000e+000  0.000000e+000
    outer loop
      vertex -2.700000e+001  3.000000e+000  5.354552e+000
      vertex -2.458999e+001  3.000000e+000  5.357926e+000
      vertex -2.415000e+001  3.000000e+000  5.300000e+000
    endloop
  endfacet
  facet normal  0.000000e+000  1.000000e+000  0.000000e+000
    outer loop
      vertex -2.700000e+001  3.000000e+000  5.354552e+000
      vertex -2.415000e+001  3.000000e+000  5.300000e+000
      vertex -2.415000e+001  3.000000e+000  3.709104e+000
    endloop
  endfacet
  facet normal  0.000000e+000  1.000000e+000  0.000000e+000
    outer loop
      vertex -2.700000e+001  3.000000e+000  8.645449e+000
      vertex -2.415000e+001  3.000000e+000  1.029090e+001
      vertex -2.415000e+001  3.000000e+000  8.700000e+000
    endloop
  endfacet
  facet normal  0.000000e+000  1.000000e+000  0.000000e+000
    outer loop
      vertex -2.700000e+001  3.000000e+000  8.645449e+000
      vertex -2.415000e+001  3.000000e+000  8.700000e+000
      vertex -2.458999e+001  3.000000e+000  8.642074e+000
    endloop
  endfacet
  facet normal  0.000000e+000  1.000000e+000  0.000000e+000
    outer loop
      vertex -2.700000e+001  3.000000e+000  8.645449e+000
      vertex -2.458999e+001  3.000000e+000  8.642074e+000
      vertex -2.500000e+001  3.000000e+000  8.472243e+000
    endloop
  endfacet
  facet normal  0.000000e+000  1.000000e+000  0.000000e+000
    outer loop
      vertex -2.700000e+001  3.000000e+000  8.645449e+000
      vertex -2.500000e+001  3.000000e+000  8.472243e+000
      vertex -2.535208e+001  3.000000e+000  8.202082e+000
    endloop
  endfacet
  facet normal  0.000000e+000  1.000000e+000  0.000000e+000
    outer loop
      vertex -2.700000e+001  3.000000e+000  8.645449e+000
      vertex -2.535208e+001  3.000000e+000  8.202082e+000
      vertex -2.562224e+001  3.000000e+000  7.850000e+000
    endloop
  endfacet
  facet normal  0.000000e+000  1.000000e+000  0.000000e+000
    outer loop
      vertex -2.700000e+001  3.000000e+000  8.645449e+000
      vertex -2.562224e+001  3.000000e+000  7.850000e+000
      vertex -2.700000e+001  3.000000e+000  5.354552e+000
    endloop
  endfacet
  facet normal  1.000000e+000  0.000000e+000  0.000000e+000
    outer loop
      vertex  2.130000e+001  6.000000e+000  5.354552e+000
      vertex  2.130000e+001  6.000000e+000  8.645449e+000
      vertex  2.130000e+001  3.000000e+000  5.354552e+000
    endloop
  endfacet
  facet normal  1.000000e+000  0.000000e+000  0.000000e+000
    outer loop
      vertex  2.130000e+001  3.000000e+000  5.354552e+000
      vertex  2.130000e+001  6.000000e+000  8.645449e+000
      vertex  2.130000e+001  3.000000e+000  8.645449e+000
    endloop
  endfacet
  facet normal  4.999999e-001  0.000000e+000 -8.660256e-001
    outer loop
      vertex  2.130000e+001  3.000000e+000  8.645449e+000
      vertex  2.130000e+001  6.000000e+000  8.645449e+000
      vertex  2.415000e+001  3.000000e+000  1.029090e+001
    endloop
  endfacet
  facet normal  4.999998e-001 -8.863349e-008 -8.660255e-001
    outer loop
      vertex  2.415000e+001  3.000000e+000  1.029090e+001
      vertex  2.130000e+001  6.000000e+000  8.645449e+000
      vertex  2.350000e+001  6.000000e+000  9.915619e+000
    endloop
  endfacet
  facet normal  5.000000e-001  0.000000e+000 -8.660253e-001
    outer loop
      vertex  2.415000e+001  3.000000e+000  1.029090e+001
      vertex  2.350000e+001  6.000000e+000  9.915619e+000
      vertex  2.415000e+001  1.100000e+001  1.029090e+001
    endloop
  endfacet
  facet normal  5.000001e-001  0.000000e+000 -8.660254e-001
    outer loop
      vertex  2.415000e+001  1.100000e+001  1.029090e+001
      vertex  2.350000e+001  6.000000e+000  9.915619e+000
      vertex  2.350000e+001  1.100000e+001  9.915619e+000
    endloop
  endfacet
  facet normal  5.000000e-001  0.000000e+000  8.660253e-001
    outer loop
      vertex  2.415000e+001  1.100000e+001  3.709104e+000
      vertex  2.350000e+001  1.100000e+001  4.084381e+000
      vertex  2.415000e+001  3.000000e+000  3.709104e+000
    endloop
  endfacet
  facet normal  5.000001e-001  0.000000e+000  8.660254e-001
    outer loop
      vertex  2.415000e+001  3.000000e+000  3.709104e+000
      vertex  2.350000e+001  1.100000e+001  4.084381e+000
      vertex  2.350000e+001  6.000000e+000  4.084381e+000
    endloop
  endfacet
  facet normal  5.000000e-001 -3.702477e-008  8.660255e-001
    outer loop
      vertex  2.415000e+001  3.000000e+000  3.709104e+000
      vertex  2.350000e+001  6.000000e+000  4.084381e+000
      vertex  2.130000e+001  3.000000e+000  5.354552e+000
    endloop
  endfacet
  facet normal  4.999999e-001  -0.000000e+000  8.660254e-001
    outer loop
      vertex  2.130000e+001  3.000000e+000  5.354552e+000
      vertex  2.350000e+001  6.000000e+000  4.084381e+000
      vertex  2.130000e+001  6.000000e+000  5.354552e+000
    endloop
  endfacet
  facet normal  0.000000e+000 -1.000000e+000  -0.000000e+000
    outer loop
      vertex  2.700000e+001  1.100000e+001  8.645449e+000
      vertex  2.415000e+001  1.100000e+001  1.029090e+001
      vertex  2.350000e+001  1.100000e+001  9.915619e+000
    endloop
  endfacet
  facet normal  0.000000e+000 -1.000000e+000  0.000000e+000
    outer loop
      vertex  2.700000e+001  1.100000e+001  8.645449e+000
      vertex  2.350000e+001  1.100000e+001  9.915619e+000
      vertex  2.700000e+001  1.100000e+001  5.354552e+000
    endloop
  endfacet
  facet normal  -0.000000e+000 -1.000000e+000  0.000000e+000
    outer loop
      vertex  2.700000e+001  1.100000e+001  5.354552e+000
      vertex  2.350000e+001  1.100000e+001  9.915619e+000
      vertex  2.350000e+001  1.100000e+001  4.084381e+000
    endloop
  endfacet
  facet normal  0.000000e+000 -1.000000e+000  0.000000e+000
    outer loop
      vertex  2.700000e+001  1.100000e+001  5.354552e+000
      vertex  2.350000e+001  1.100000e+001  4.084381e+000
      vertex  2.415000e+001  1.100000e+001  3.709104e+000
    endloop
  endfacet
  facet normal  0.000000e+000  1.000000e+000  0.000000e+000
    outer loop
      vertex  2.700000e+001  3.000000e+000  5.354552e+000
      vertex  2.415000e+001  3.000000e+000  3.709104e+000
      vertex  2.415000e+001  3.000000e+000  5.300000e+000
    endloop
  endfacet
  facet normal  0.000000e+000  1.000000e+000  0.000000e+000
    outer loop
      vertex  2.700000e+001  3.000000e+000  5.354552e+000
      vertex  2.415000e+001  3.000000e+000  5.300000e+000
      vertex  2.458999e+001  3.000000e+000  5.357926e+000
    endloop
  endfacet
  facet normal  -0.000000e+000  1.000000e+000  0.000000e+000
    outer loop
      vertex  2.700000e+001  3.000000e+000  5.354552e+000
      vertex  2.458999e+001  3.000000e+000  5.357926e+000
      vertex  2.500000e+001  3.000000e+000  5.527757e+000
    endloop
  endfacet
  facet normal  -0.000000e+000  1.000000e+000  0.000000e+000
    outer loop
      vertex  2.700000e+001  3.000000e+000  5.354552e+000
      vertex  2.500000e+001  3.000000e+000  5.527757e+000
      vertex  2.535208e+001  3.000000e+000  5.797918e+000
    endloop
  endfacet
  facet normal  -0.000000e+000  1.000000e+000  0.000000e+000
    outer loop
      vertex  2.700000e+001  3.000000e+000  5.354552e+000
      vertex  2.535208e+001  3.000000e+000  5.797918e+000
      vertex  2.562224e+001  3.000000e+000  6.150000e+000
    endloop
  endfacet
  facet normal  -0.000000e+000  1.000000e+000  0.000000e+000
    outer loop
      vertex  2.700000e+001  3.000000e+000  5.354552e+000
      vertex  2.562224e+001  3.000000e+000  6.150000e+000
      vertex  2.579207e+001  3.000000e+000  6.560008e+000
    endloop
  endfacet
  facet normal  -0.000000e+000  1.000000e+000  0.000000e+000
    outer loop
      vertex  2.700000e+001  3.000000e+000  5.354552e+000
      vertex  2.579207e+001  3.000000e+000  6.560008e+000
      vertex  2.585000e+001  3.000000e+000  7.000000e+000
    endloop
  endfacet
  facet normal  -0.000000e+000  1.000000e+000  -0.000000e+000
    outer loop
      vertex  2.700000e+001  3.000000e+000  5.354552e+000
      vertex  2.585000e+001  3.000000e+000  7.000000e+000
      vertex  2.579207e+001  3.000000e+000  7.439992e+000
    endloop
  endfacet
  facet normal  -0.000000e+000  1.000000e+000  -0.000000e+000
    outer loop
      vertex  2.700000e+001  3.000000e+000  5.354552e+000
      vertex  2.579207e+001  3.000000e+000  7.439992e+000
      vertex  2.562224e+001  3.000000e+000  7.850000e+000
    endloop
  endfacet
  facet normal  0.000000e+000  1.000000e+000  -0.000000e+000
    outer loop
      vertex  2.700000e+001  3.000000e+000  8.645449e+000
      vertex  2.700000e+001  3.000000e+000  5.354552e+000
      vertex  2.562224e+001  3.000000e+000  7.850000e+000
    endloop
  endfacet
  facet normal  0.000000e+000  1.000000e+000  -0.000000e+000
    outer loop
      vertex  2.700000e+001  3.000000e+000  8.645449e+000
      vertex  2.562224e+001  3.000000e+000  7.850000e+000
      vertex  2.535208e+001  3.000000e+000  8.202082e+000
    endloop
  endfacet
  facet normal  0.000000e+000  1.000000e+000  -0.000000e+000
    outer loop
      vertex  2.700000e+001  3.000000e+000  8.645449e+000
      vertex  2.535208e+001  3.000000e+000  8.202082e+000
      vertex  2.500000e+001  3.000000e+000  8.472243e+000
    endloop
  endfacet
  facet normal  0.000000e+000  1.000000e+000  -0.000000e+000
    outer loop
      vertex  2.700000e+001  3.000000e+000  8.645449e+000
      vertex  2.500000e+001  3.000000e+000  8.472243e+000
      vertex  2.458999e+001  3.000000e+000  8.642074e+000
    endloop
  endfacet
  facet normal  0.000000e+000  1.000000e+000  -0.000000e+000
    outer loop
      vertex  2.700000e+001  3.000000e+000  8.645449e+000
      vertex  2.458999e+001  3.000000e+000  8.642074e+000
      vertex  2.415000e+001  3.000000e+000  8.700000e+000
    endloop
  endfacet
  facet normal  -0.000000e+000  1.000000e+000  0.000000e+000
    outer loop
      vertex  2.700000e+001  3.000000e+000  8.645449e+000
      vertex  2.415000e+001  3.000000e+000  8.700000e+000
      vertex  2.415000e+001  3.000000e+000  1.029090e+001
    endloop
  endfacet
  facet normal  0.000000e+000  1.000000e+000  0.000000e+000
    outer loop
      vertex  2.130000e+001  3.000000e+000  5.354552e+000
      vertex  2.267776e+001  3.000000e+000  7.850000e+000
      vertex  2.250793e+001  3.000000e+000  7.439992e+000
    endloop
  endfacet
  facet normal  0.000000e+000  1.000000e+000  0.000000e+000
    outer loop
      vertex  2.130000e+001  3.000000e+000  5.354552e+000
      vertex  2.250793e+001  3.000000e+000  7.439992e+000
      vertex  2.245000e+001  3.000000e+000  7.000000e+000
    endloop
  endfacet
  facet normal  0.000000e+000  1.000000e+000  0.000000e+000
    outer loop
      vertex  2.130000e+001  3.000000e+000  5.354552e+000
      vertex  2.245000e+001  3.000000e+000  7.000000e+000
      vertex  2.250793e+001  3.000000e+000  6.560008e+000
    endloop
  endfacet
  facet normal  0.000000e+000  1.000000e+000  0.000000e+000
    outer loop
      vertex  2.130000e+001  3.000000e+000  5.354552e+000
      vertex  2.250793e+001  3.000000e+000  6.560008e+000
      vertex  2.267776e+001  3.000000e+000  6.150000e+000
    endloop
  endfacet
  facet normal  0.000000e+000  1.000000e+000  0.000000e+000
    outer loop
      vertex  2.130000e+001  3.000000e+000  5.354552e+000
      vertex  2.267776e+001  3.000000e+000  6.150000e+000
      vertex  2.294792e+001  3.000000e+000  5.797918e+000
    endloop
  endfacet
  facet normal  0.000000e+000  1.000000e+000  0.000000e+000
    outer loop
      vertex  2.130000e+001  3.000000e+000  5.354552e+000
      vertex  2.294792e+001  3.000000e+000  5.797918e+000
      vertex  2.330000e+001  3.000000e+000  5.527757e+000
    endloop
  endfacet
  facet normal  0.000000e+000  1.000000e+000  0.000000e+000
    outer loop
      vertex  2.130000e+001  3.000000e+000  5.354552e+000
      vertex  2.330000e+001  3.000000e+000  5.527757e+000
      vertex  2.371001e+001  3.000000e+000  5.357926e+000
    endloop
  endfacet
  facet normal  0.000000e+000  1.000000e+000  0.000000e+000
    outer loop
      vertex  2.130000e+001  3.000000e+000  5.354552e+000
      vertex  2.371001e+001  3.000000e+000  5.357926e+000
      vertex  2.415000e+001  3.000000e+000  5.300000e+000
    endloop
  endfacet
  facet normal  0.000000e+000  1.000000e+000  0.000000e+000
    outer loop
      vertex  2.130000e+001  3.000000e+000  5.354552e+000
      vertex  2.415000e+001  3.000000e+000  5.300000e+000
      vertex  2.415000e+001  3.000000e+000  3.709104e+000
    endloop
  endfacet
  facet normal  0.000000e+000  1.000000e+000  0.000000e+000
    outer loop
      vertex  2.130000e+001  3.000000e+000  8.645449e+000
      vertex  2.415000e+001  3.000000e+000  1.029090e+001
      vertex  2.415000e+001  3.000000e+000  8.700000e+000
    endloop
  endfacet
  facet normal  0.000000e+000  1.000000e+000  0.000000e+000
    outer loop
      vertex  2.130000e+001  3.000000e+000  8.645449e+000
      vertex  2.415000e+001  3.000000e+000  8.700000e+000
      vertex  2.371001e+001  3.000000e+000  8.642074e+000
    endloop
  endfacet
  facet normal  0.000000e+000  1.000000e+000  0.000000e+000
    outer loop
      vertex  2.130000e+001  3.000000e+000  8.645449e+000
      vertex  2.371001e+001  3.000000e+000  8.642074e+000
      vertex  2.330000e+001  3.000000e+000  8.472243e+000
    endloop
  endfacet
  facet normal  0.000000e+000  1.000000e+000  0.000000e+000
    outer loop
      vertex  2.130000e+001  3.000000e+000  8.645449e+000
      vertex  2.330000e+001  3.000000e+000  8.472243e+000
      vertex  2.294792e+001  3.000000e+000  8.202082e+000
    endloop
  endfacet
  facet normal  0.000000e+000  1.000000e+000  0.000000e+000
    outer loop
      vertex  2.130000e+001  3.000000e+000  8.645449e+000
      vertex  2.294792e+001  3.000000e+000  8.202082e+000
      vertex  2.267776e+001  3.000000e+000  7.850000e+000
    endloop
  endfacet
  facet normal  0.000000e+000  1.000000e+000  0.000000e+000
    outer loop
      vertex  2.130000e+001  3.000000e+000  8.645449e+000
      vertex  2.267776e+001  3.000000e+000  7.850000e+000
      vertex  2.130000e+001  3.000000e+000  5.354552e+000
    endloop
  endfacet
  facet normal  4.999998e-001  0.000000e+000 -8.660255e-001
    outer loop
      vertex -2.700000e+001  1.100000e+001  8.645449e+000
      vertex -2.415000e+001  1.100000e+001  1.029090e+001
      vertex -2.700000e+001  3.000000e+000  8.645449e+000
    endloop
  endfacet
  facet normal  4.999998e-001  0.000000e+000 -8.660255e-001
    outer loop
      vertex -2.700000e+001  3.000000e+000  8.645449e+000
      vertex -2.415000e+001  1.100000e+001  1.029090e+001
      vertex -2.415000e+001  3.000000e+000  1.029090e+001
    endloop
  endfacet
  facet normal  1.000000e+000  0.000000e+000  0.000000e+000
    outer loop
      vertex -2.700000e+001  1.100000e+001  5.354552e+000
      vertex -2.700000e+001  1.100000e+001  8.645449e+000
      vertex -2.700000e+001  3.000000e+000  5.354552e+000
    endloop
  endfacet
  facet normal  1.000000e+000  0.000000e+000  0.000000e+000
    outer loop
      vertex -2.700000e+001  3.000000e+000  5.354552e+000
      vertex -2.700000e+001  1.100000e+001  8.645449e+000
      vertex -2.700000e+001  3.000000e+000  8.645449e+000
    endloop
  endfacet
  facet normal  4.999999e-001  0.000000e+000  8.660254e-001
    outer loop
      vertex -2.415000e+001  1.100000e+001  3.709104e+000
      vertex -2.700000e+001  1.100000e+001  5.354552e+000
      vertex -2.415000e+001  3.000000e+000  3.709104e+000
    endloop
  endfacet
  facet normal  4.999999e-001  0.000000e+000  8.660254e-001
    outer loop
      vertex -2.415000e+001  3.000000e+000  3.709104e+000
      vertex -2.700000e+001  1.100000e+001  5.354552e+000
      vertex -2.700000e+001  3.000000e+000  5.354552e+000
    endloop
  endfacet
  facet normal -4.999999e-001  0.000000e+000  8.660254e-001
    outer loop
      vertex  2.700000e+001  1.100000e+001  5.354552e+000
      vertex  2.415000e+001  1.100000e+001  3.709104e+000
      vertex  2.700000e+001  3.000000e+000  5.354552e+000
    endloop
  endfacet
  facet normal -4.999999e-001  0.000000e+000  8.660254e-001
    outer loop
      vertex  2.700000e+001  3.000000e+000  5.354552e+000
      vertex  2.415000e+001  1.100000e+001  3.709104e+000
      vertex  2.415000e+001  3.000000e+000  3.709104e+000
    endloop
  endfacet
  facet normal -1.000000e+000  0.000000e+000  0.000000e+000
    outer loop
      vertex  2.700000e+001  1.100000e+001  8.645449e+000
      vertex  2.700000e+001  1.100000e+001  5.354552e+000
      vertex  2.700000e+001  3.000000e+000  8.645449e+000
    endloop
  endfacet
  facet normal -1.000000e+000  0.000000e+000  0.000000e+000
    outer loop
      vertex  2.700000e+001  3.000000e+000  8.645449e+000
      vertex  2.700000e+001  1.100000e+001  5.354552e+000
      vertex  2.700000e+001  3.000000e+000  5.354552e+000
    endloop
  endfacet
  facet normal -4.999998e-001  0.000000e+000 -8.660255e-001
    outer loop
      vertex  2.415000e+001  1.100000e+001  1.029090e+001
      vertex  2.700000e+001  1.100000e+001  8.645449e+000
      vertex  2.415000e+001  3.000000e+000  1.029090e+001
    endloop
  endfacet
  facet normal -4.999998e-001  0.000000e+000 -8.660255e-001
    outer loop
      vertex  2.415000e+001  3.000000e+000  1.029090e+001
      vertex  2.700000e+001  1.100000e+001  8.645449e+000
      vertex  2.700000e+001  3.000000e+000  8.645449e+000
    endloop
  endfacet
  facet normal -7.105427e-016 -9.999999e-001  6.676497e-016
    outer loop
      vertex -1.750000e+001  0.000000e+000  1.400000e+001
      vertex -2.750000e+001  7.105427e-015  1.400000e+001
      vertex -2.294792e+001  0.000000e+000  8.202082e+000
    endloop
  endfacet
  facet normal  0.000000e+000 -1.000000e+000  0.000000e+000
    outer loop
      vertex -1.750000e+001  0.000000e+000  1.400000e+001
      vertex -2.294792e+001  0.000000e+000  8.202082e+000
      vertex -2.267776e+001  0.000000e+000  7.850000e+000
    endloop
  endfacet
  facet normal  0.000000e+000 -1.000000e+000  0.000000e+000
    outer loop
      vertex -1.750000e+001  0.000000e+000  1.400000e+001
      vertex -2.267776e+001  0.000000e+000  7.850000e+000
      vertex -2.250793e+001  0.000000e+000  7.439992e+000
    endloop
  endfacet
  facet normal  0.000000e+000 -1.000000e+000  0.000000e+000
    outer loop
      vertex -1.750000e+001  0.000000e+000  1.400000e+001
      vertex -2.250793e+001  0.000000e+000  7.439992e+000
      vertex -1.750000e+001  0.000000e+000  0.000000e+000
    endloop
  endfacet
  facet normal  2.365394e-015 -1.000000e+000 -3.082640e-015
    outer loop
      vertex -2.750000e+001  7.105427e-015  0.000000e+000
      vertex -2.294792e+001  0.000000e+000  5.797918e+000
      vertex -2.330000e+001  0.000000e+000  5.527757e+000
    endloop
  endfacet
  facet normal  7.769593e-016 -1.000000e+000 -1.875744e-015
    outer loop
      vertex -2.750000e+001  7.105427e-015  0.000000e+000
      vertex -2.330000e+001  0.000000e+000  5.527757e+000
      vertex -2.371001e+001  0.000000e+000  5.357926e+000
    endloop
  endfacet
  facet normal  1.925182e-016 -1.000000e+000 -1.462333e-015
    outer loop
      vertex -2.750000e+001  7.105427e-015  0.000000e+000
      vertex -2.371001e+001  0.000000e+000  5.357926e+000
      vertex -2.415000e+001  0.000000e+000  5.300000e+000
    endloop
  endfacet
  facet normal -1.629393e-016 -1.000000e+000 -1.237657e-015
    outer loop
      vertex -2.750000e+001  7.105427e-015  0.000000e+000
      vertex -2.415000e+001  0.000000e+000  5.300000e+000
      vertex -2.458999e+001  0.000000e+000  5.357926e+000
    endloop
  endfacet
  facet normal -4.484285e-016 -1.000000e+000 -1.082601e-015
    outer loop
      vertex -2.750000e+001  7.105427e-015  0.000000e+000
      vertex -2.458999e+001  0.000000e+000  5.357926e+000
      vertex -2.500000e+001  0.000000e+000  5.527757e+000
    endloop
  endfacet
  facet normal -7.322232e-016 -1.000000e+000 -9.542514e-016
    outer loop
      vertex -2.750000e+001  7.105427e-015  0.000000e+000
      vertex -2.500000e+001  0.000000e+000  5.527757e+000
      vertex -2.535208e+001  0.000000e+000  5.797918e+000
    endloop
  endfacet
  facet normal -1.077097e-015 -1.000000e+000 -8.264880e-016
    outer loop
      vertex -2.750000e+001  7.105427e-015  0.000000e+000
      vertex -2.535208e+001  0.000000e+000  5.797918e+000
      vertex -2.562224e+001  0.000000e+000  6.150000e+000
    endloop
  endfacet
  facet normal -1.605687e-015 -1.000000e+000 -6.650958e-016
    outer loop
      vertex -2.750000e+001  7.105427e-015  0.000000e+000
      vertex -2.562224e+001  0.000000e+000  6.150000e+000
      vertex -2.579207e+001  0.000000e+000  6.560008e+000
    endloop
  endfacet
  facet normal -2.763072e-015 -1.000000e+000 -3.637658e-016
    outer loop
      vertex -2.750000e+001  7.105427e-015  0.000000e+000
      vertex -2.579207e+001  0.000000e+000  6.560008e+000
      vertex -2.585000e+001  0.000000e+000  7.000000e+000
    endloop
  endfacet
  facet normal -4.306321e-015 -1.000000e+000  0.000000e+000
    outer loop
      vertex -2.750000e+001  7.105427e-015  0.000000e+000
      vertex -2.585000e+001  0.000000e+000  7.000000e+000
      vertex -2.750000e+001  7.105427e-015  1.400000e+001
    endloop
  endfacet
  facet normal  0.000000e+000 -1.000000e+000  0.000000e+000
    outer loop
      vertex -1.750000e+001  0.000000e+000  0.000000e+000
      vertex -2.250793e+001  0.000000e+000  7.439992e+000
      vertex -2.245000e+001  0.000000e+000  7.000000e+000
    endloop
  endfacet
  facet normal  0.000000e+000 -1.000000e+000  -0.000000e+000
    outer loop
      vertex -1.750000e+001  0.000000e+000  0.000000e+000
      vertex -2.245000e+001  0.000000e+000  7.000000e+000
      vertex -2.250793e+001  0.000000e+000  6.560008e+000
    endloop
  endfacet
  facet normal  0.000000e+000 -1.000000e+000  -0.000000e+000
    outer loop
      vertex -1.750000e+001  0.000000e+000  0.000000e+000
      vertex -2.250793e+001  0.000000e+000  6.560008e+000
      vertex -2.267776e+001  0.000000e+000  6.150000e+000
    endloop
  endfacet
  facet normal  0.000000e+000 -1.000000e+000  -0.000000e+000
    outer loop
      vertex -1.750000e+001  0.000000e+000  0.000000e+000
      vertex -2.267776e+001  0.000000e+000  6.150000e+000
      vertex -2.294792e+001  0.000000e+000  5.797918e+000
    endloop
  endfacet
  facet normal -7.105427e-016 -9.999999e-001 -6.676497e-016
    outer loop
      vertex -1.750000e+001  0.000000e+000  0.000000e+000
      vertex -2.294792e+001  0.000000e+000  5.797918e+000
      vertex -2.750000e+001  7.105427e-015  0.000000e+000
    endloop
  endfacet
  facet normal -2.763072e-015 -1.000000e+000  3.637658e-016
    outer loop
      vertex -2.750000e+001  7.105427e-015  1.400000e+001
      vertex -2.585000e+001  0.000000e+000  7.000000e+000
      vertex -2.579207e+001  0.000000e+000  7.439992e+000
    endloop
  endfacet
  facet normal -1.605687e-015 -1.000000e+000  6.650958e-016
    outer loop
      vertex -2.750000e+001  7.105427e-015  1.400000e+001
      vertex -2.579207e+001  0.000000e+000  7.439992e+000
      vertex -2.562224e+001  0.000000e+000  7.850000e+000
    endloop
  endfacet
  facet normal -1.077097e-015 -1.000000e+000  8.264880e-016
    outer loop
      vertex -2.750000e+001  7.105427e-015  1.400000e+001
      vertex -2.562224e+001  0.000000e+000  7.850000e+000
      vertex -2.535208e+001  0.000000e+000  8.202082e+000
    endloop
  endfacet
  facet normal -7.322232e-016 -1.000000e+000  9.542514e-016
    outer loop
      vertex -2.750000e+001  7.105427e-015  1.400000e+001
      vertex -2.535208e+001  0.000000e+000  8.202082e+000
      vertex -2.500000e+001  0.000000e+000  8.472243e+000
    endloop
  endfacet
  facet normal -4.484274e-016 -9.999999e-001  1.082602e-015
    outer loop
      vertex -2.750000e+001  7.105427e-015  1.400000e+001
      vertex -2.500000e+001  0.000000e+000  8.472243e+000
      vertex -2.458999e+001  0.000000e+000  8.642074e+000
    endloop
  endfacet
  facet normal -1.629405e-016 -1.000000e+000  1.237656e-015
    outer loop
      vertex -2.750000e+001  7.105427e-015  1.400000e+001
      vertex -2.458999e+001  0.000000e+000  8.642074e+000
      vertex -2.415000e+001  0.000000e+000  8.700000e+000
    endloop
  endfacet
  facet normal  1.925199e-016 -1.000000e+000  1.462334e-015
    outer loop
      vertex -2.750000e+001  7.105427e-015  1.400000e+001
      vertex -2.415000e+001  0.000000e+000  8.700000e+000
      vertex -2.371001e+001  0.000000e+000  8.642074e+000
    endloop
  endfacet
  facet normal  7.769561e-016 -9.999999e-001  1.875742e-015
    outer loop
      vertex -2.750000e+001  7.105427e-015  1.400000e+001
      vertex -2.371001e+001  0.000000e+000  8.642074e+000
      vertex -2.330000e+001  0.000000e+000  8.472243e+000
    endloop
  endfacet
  facet normal  2.365394e-015 -1.000000e+000  3.082640e-015
    outer loop
      vertex -2.750000e+001  7.105427e-015  1.400000e+001
      vertex -2.330000e+001  0.000000e+000  8.472243e+000
      vertex -2.294792e+001  0.000000e+000  8.202082e+000
    endloop
  endfacet
  facet normal  0.000000e+000 -1.000000e+000  0.000000e+000
    outer loop
      vertex  2.750000e+001  0.000000e+000  1.400000e+001
      vertex  1.750000e+001  0.000000e+000  1.400000e+001
      vertex  2.500000e+001  0.000000e+000  8.472243e+000
    endloop
  endfacet
  facet normal  0.000000e+000 -1.000000e+000  0.000000e+000
    outer loop
      vertex  2.750000e+001  0.000000e+000  1.400000e+001
      vertex  2.500000e+001  0.000000e+000  8.472243e+000
      vertex  2.535208e+001  0.000000e+000  8.202082e+000
    endloop
  endfacet
  facet normal  0.000000e+000 -1.000000e+000  0.000000e+000
    outer loop
      vertex  2.750000e+001  0.000000e+000  1.400000e+001
      vertex  2.535208e+001  0.000000e+000  8.202082e+000
      vertex  2.562224e+001  0.000000e+000  7.850000e+000
    endloop
  endfacet
  facet normal  0.000000e+000 -1.000000e+000  0.000000e+000
    outer loop
      vertex  2.750000e+001  0.000000e+000  1.400000e+001
      vertex  2.562224e+001  0.000000e+000  7.850000e+000
      vertex  2.579207e+001  0.000000e+000  7.439992e+000
    endloop
  endfacet
  facet normal  0.000000e+000 -1.000000e+000  0.000000e+000
    outer loop
      vertex  2.750000e+001  0.000000e+000  1.400000e+001
      vertex  2.579207e+001  0.000000e+000  7.439992e+000
      vertex  2.750000e+001  0.000000e+000  0.000000e+000
    endloop
  endfacet
  facet normal  0.000000e+000 -9.999999e-001  0.000000e+000
    outer loop
      vertex  1.750000e+001  0.000000e+000  0.000000e+000
      vertex  2.500000e+001  0.000000e+000  5.527757e+000
      vertex  2.458999e+001  0.000000e+000  5.357926e+000
    endloop
  endfacet
  facet normal  0.000000e+000 -1.000000e+000  0.000000e+000
    outer loop
      vertex  1.750000e+001  0.000000e+000  0.000000e+000
      vertex  2.458999e+001  0.000000e+000  5.357926e+000
      vertex  2.415000e+001  0.000000e+000  5.300000e+000
    endloop
  endfacet
  facet normal  -0.000000e+000 -1.000000e+000  0.000000e+000
    outer loop
      vertex  1.750000e+001  0.000000e+000  0.000000e+000
      vertex  2.415000e+001  0.000000e+000  5.300000e+000
      vertex  2.371001e+001  0.000000e+000  5.357926e+000
    endloop
  endfacet
  facet normal  -0.000000e+000 -1.000000e+000  0.000000e+000
    outer loop
      vertex  1.750000e+001  0.000000e+000  0.000000e+000
      vertex  2.371001e+001  0.000000e+000  5.357926e+000
      vertex  2.330000e+001  0.000000e+000  5.527757e+000
    endloop
  endfacet
  facet normal  -0.000000e+000 -1.000000e+000  0.000000e+000
    outer loop
      vertex  1.750000e+001  0.000000e+000  0.000000e+000
      vertex  2.330000e+001  0.000000e+000  5.527757e+000
      vertex  2.294792e+001  0.000000e+000  5.797918e+000
    endloop
  endfacet
  facet normal  -0.000000e+000 -1.000000e+000  0.000000e+000
    outer loop
      vertex  1.750000e+001  0.000000e+000  0.000000e+000
      vertex  2.294792e+001  0.000000e+000  5.797918e+000
      vertex  2.267776e+001  0.000000e+000  6.150000e+000
    endloop
  endfacet
  facet normal  -0.000000e+000 -1.000000e+000  0.000000e+000
    outer loop
      vertex  1.750000e+001  0.000000e+000  0.000000e+000
      vertex  2.267776e+001  0.000000e+000  6.150000e+000
      vertex  2.250793e+001  0.000000e+000  6.560008e+000
    endloop
  endfacet
  facet normal  -0.000000e+000 -1.000000e+000  0.000000e+000
    outer loop
      vertex  1.750000e+001  0.000000e+000  0.000000e+000
      vertex  2.250793e+001  0.000000e+000  6.560008e+000
      vertex  2.245000e+001  0.000000e+000  7.000000e+000
    endloop
  endfacet
  facet normal  -0.000000e+000 -1.000000e+000  0.000000e+000
    outer loop
      vertex  1.750000e+001  0.000000e+000  0.000000e+000
      vertex  2.245000e+001  0.000000e+000  7.000000e+000
      vertex  1.750000e+001  0.000000e+000  1.400000e+001
    endloop
  endfacet
  facet normal  0.000000e+000 -1.000000e+000  0.000000e+000
    outer loop
      vertex  2.750000e+001  0.000000e+000  0.000000e+000
      vertex  2.579207e+001  0.000000e+000  7.439992e+000
      vertex  2.585000e+001  0.000000e+000  7.000000e+000
    endloop
  endfacet
  facet normal  0.000000e+000 -1.000000e+000  -0.000000e+000
    outer loop
      vertex  2.750000e+001  0.000000e+000  0.000000e+000
      vertex  2.585000e+001  0.000000e+000  7.000000e+000
      vertex  2.579207e+001  0.000000e+000  6.560008e+000
    endloop
  endfacet
  facet normal  0.000000e+000 -1.000000e+000  -0.000000e+000
    outer loop
      vertex  2.750000e+001  0.000000e+000  0.000000e+000
      vertex  2.579207e+001  0.000000e+000  6.560008e+000
      vertex  2.562224e+001  0.000000e+000  6.150000e+000
    endloop
  endfacet
  facet normal  0.000000e+000 -1.000000e+000  -0.000000e+000
    outer loop
      vertex  2.750000e+001  0.000000e+000  0.000000e+000
      vertex  2.562224e+001  0.000000e+000  6.150000e+000
      vertex  2.535208e+001  0.000000e+000  5.797918e+000
    endloop
  endfacet
  facet normal  0.000000e+000 -1.000000e+000  -0.000000e+000
    outer loop
      vertex  2.750000e+001  0.000000e+000  0.000000e+000
      vertex  2.535208e+001  0.000000e+000  5.797918e+000
      vertex  2.500000e+001  0.000000e+000  5.527757e+000
    endloop
  endfacet
  facet normal  0.000000e+000 -1.000000e+000  -0.000000e+000
    outer loop
      vertex  2.750000e+001  0.000000e+000  0.000000e+000
      vertex  2.500000e+001  0.000000e+000  5.527757e+000
      vertex  1.750000e+001  0.000000e+000  0.000000e+000
    endloop
  endfacet
  facet normal  0.000000e+000 -1.000000e+000  0.000000e+000
    outer loop
      vertex  1.750000e+001  0.000000e+000  1.400000e+001
      vertex  2.245000e+001  0.000000e+000  7.000000e+000
      vertex  2.250793e+001  0.000000e+000  7.439992e+000
    endloop
  endfacet
  facet normal  0.000000e+000 -1.000000e+000  0.000000e+000
    outer loop
      vertex  1.750000e+001  0.000000e+000  1.400000e+001
      vertex  2.250793e+001  0.000000e+000  7.439992e+000
      vertex  2.267776e+001  0.000000e+000  7.850000e+000
    endloop
  endfacet
  facet normal  0.000000e+000 -1.000000e+000  0.000000e+000
    outer loop
      vertex  1.750000e+001  0.000000e+000  1.400000e+001
      vertex  2.267776e+001  0.000000e+000  7.850000e+000
      vertex  2.294792e+001  0.000000e+000  8.202082e+000
    endloop
  endfacet
  facet normal  0.000000e+000 -1.000000e+000  0.000000e+000
    outer loop
      vertex  1.750000e+001  0.000000e+000  1.400000e+001
      vertex  2.294792e+001  0.000000e+000  8.202082e+000
      vertex  2.330000e+001  0.000000e+000  8.472243e+000
    endloop
  endfacet
  facet normal  0.000000e+000 -1.000000e+000  0.000000e+000
    outer loop
      vertex  1.750000e+001  0.000000e+000  1.400000e+001
      vertex  2.330000e+001  0.000000e+000  8.472243e+000
      vertex  2.371001e+001  0.000000e+000  8.642074e+000
    endloop
  endfacet
  facet normal  0.000000e+000 -1.000000e+000  0.000000e+000
    outer loop
      vertex  1.750000e+001  0.000000e+000  1.400000e+001
      vertex  2.371001e+001  0.000000e+000  8.642074e+000
      vertex  2.415000e+001  0.000000e+000  8.700000e+000
    endloop
  endfacet
  facet normal  0.000000e+000 -1.000000e+000  0.000000e+000
    outer loop
      vertex  1.750000e+001  0.000000e+000  1.400000e+001
      vertex  2.415000e+001  0.000000e+000  8.700000e+000
      vertex  2.458999e+001  0.000000e+000  8.642074e+000
    endloop
  endfacet
  facet normal  0.000000e+000 -1.000000e+000  0.000000e+000
    outer loop
      vertex  1.750000e+001  0.000000e+000  1.400000e+001
      vertex  2.458999e+001  0.000000e+000  8.642074e+000
      vertex  2.500000e+001  0.000000e+000  8.472243e+000
    endloop
  endfacet
  facet normal  -0.000000e+000  0.000000e+000  1.000000e+000
    outer loop
      vertex -1.750000e+001  2.000000e+000  1.400000e+001
      vertex -2.750000e+001  7.105427e-015  1.400000e+001
      vertex -1.750000e+001  0.000000e+000  1.400000e+001
    endloop
  endfacet
  facet normal  0.000000e+000  0.000000e+000  1.000000e+000
    outer loop
      vertex  1.750000e+001  2.000000e+000  1.400000e+001
      vertex  1.750000e+001  0.000000e+000  1.400000e+001
      vertex  2.350000e+001  6.000000e+000  1.400000e+001
    endloop
  endfacet
  facet normal  0.000000e+000  0.000000e+000  1.000000e+000
    outer loop
      vertex  1.750000e+001  2.000000e+000  1.400000e+001
      vertex  2.350000e+001  6.000000e+000  1.400000e+001
      vertex  4.000000e+000  6.000000e+000  1.400000e+001
    endloop
  endfacet
  facet normal  0.000000e+000  0.000000e+000  1.000000e+000
    outer loop
      vertex  1.750000e+001  2.000000e+000  1.400000e+001
      vertex  4.000000e+000  6.000000e+000  1.400000e+001
      vertex -4.000000e+000  6.000000e+000  1.400000e+001
    endloop
  endfacet
  facet normal  0.000000e+000  0.000000e+000  1.000000e+000
    outer loop
      vertex  1.750000e+001  2.000000e+000  1.400000e+001
      vertex -4.000000e+000  6.000000e+000  1.400000e+001
      vertex -2.350000e+001  6.000000e+000  1.400000e+001
    endloop
  endfacet
  facet normal  0.000000e+000  0.000000e+000  1.000000e+000
    outer loop
      vertex -2.350000e+001  6.000000e+000  1.400000e+001
      vertex -2.350000e+001  3.000000e+001  1.400000e+001
      vertex -2.750000e+001  3.400000e+001  1.400000e+001
    endloop
  endfacet
  facet normal  0.000000e+000  0.000000e+000  1.000000e+000
    outer loop
      vertex -2.350000e+001  6.000000e+000  1.400000e+001
      vertex -2.750000e+001  3.400000e+001  1.400000e+001
      vertex -2.750000e+001  7.105427e-015  1.400000e+001
    endloop
  endfacet
  facet normal  0.000000e+000  0.000000e+000  1.000000e+000
    outer loop
      vertex -2.350000e+001  6.000000e+000  1.400000e+001
      vertex -2.750000e+001  7.105427e-015  1.400000e+001
      vertex -1.750000e+001  2.000000e+000  1.400000e+001
    endloop
  endfacet
  facet normal  0.000000e+000  -0.000000e+000  1.000000e+000
    outer loop
      vertex -2.350000e+001  6.000000e+000  1.400000e+001
      vertex -1.750000e+001  2.000000e+000  1.400000e+001
      vertex  0.000000e+000  2.000000e+000  1.400000e+001
    endloop
  endfacet
  facet normal  0.000000e+000  -0.000000e+000  1.000000e+000
    outer loop
      vertex -2.350000e+001  6.000000e+000  1.400000e+001
      vertex  0.000000e+000  2.000000e+000  1.400000e+001
      vertex  1.750000e+001  2.000000e+000  1.400000e+001
    endloop
  endfacet
  facet normal  0.000000e+000  0.000000e+000  1.000000e+000
    outer loop
      vertex  2.350000e+001  3.400000e+001  1.400000e+001
      vertex  2.200000e+001  3.000000e+001  1.400000e+001
      vertex  2.750000e+001  3.400000e+001  1.400000e+001
    endloop
  endfacet
  facet normal  0.000000e+000  0.000000e+000  1.000000e+000
    outer loop
      vertex  2.750000e+001  3.400000e+001  1.400000e+001
      vertex  2.200000e+001  3.000000e+001  1.400000e+001
      vertex  2.350000e+001  3.000000e+001  1.400000e+001
    endloop
  endfacet
  facet normal  -0.000000e+000  0.000000e+000  1.000000e+000
    outer loop
      vertex  2.750000e+001  3.400000e+001  1.400000e+001
      vertex  2.350000e+001  3.000000e+001  1.400000e+001
      vertex  2.750000e+001  0.000000e+000  1.400000e+001
    endloop
  endfacet
  facet normal  0.000000e+000  0.000000e+000  1.000000e+000
    outer loop
      vertex  2.750000e+001  0.000000e+000  1.400000e+001
      vertex  2.350000e+001  3.000000e+001  1.400000e+001
      vertex  2.350000e+001  6.000000e+000  1.400000e+001
    endloop
  endfacet
  facet normal  0.000000e+000  0.000000e+000  1.000000e+000
    outer loop
      vertex  2.750000e+001  0.000000e+000  1.400000e+001
      vertex  2.350000e+001  6.000000e+000  1.400000e+001
      vertex  1.750000e+001  0.000000e+000  1.400000e+001
    endloop
  endfacet
  facet normal  0.000000e+000  0.000000e+000  1.000000e+000
    outer loop
      vertex  4.000000e+000  6.000000e+000  1.400000e+001
      vertex  4.000000e+000  2.550000e+001  1.400000e+001
      vertex -4.000000e+000  6.000000e+000  1.400000e+001
    endloop
  endfacet
  facet normal  0.000000e+000  0.000000e+000  1.000000e+000
    outer loop
      vertex -4.000000e+000  6.000000e+000  1.400000e+001
      vertex  4.000000e+000  2.550000e+001  1.400000e+001
      vertex  0.000000e+000  2.550000e+001  1.400000e+001
    endloop
  endfacet
  facet normal  0.000000e+000  0.000000e+000  1.000000e+000
    outer loop
      vertex -4.000000e+000  6.000000e+000  1.400000e+001
      vertex  0.000000e+000  2.550000e+001  1.400000e+001
      vertex -4.000000e+000  2.550000e+001  1.400000e+001
    endloop
  endfacet
  facet normal  0.000000e+000  0.000000e+000  1.000000e+000
    outer loop
      vertex -2.350000e+001  3.000000e+001  1.400000e+001
      vertex -2.200000e+001  3.000000e+001  1.400000e+001
      vertex -2.750000e+001  3.400000e+001  1.400000e+001
    endloop
  endfacet
  facet normal  -0.000000e+000  0.000000e+000  1.000000e+000
    outer loop
      vertex -2.750000e+001  3.400000e+001  1.400000e+001
      vertex -2.200000e+001  3.000000e+001  1.400000e+001
      vertex -2.350000e+001  3.400000e+001  1.400000e+001
    endloop
  endfacet
  facet normal  0.000000e+000  0.000000e+000 -1.000000e+000
    outer loop
      vertex -1.750000e+001  0.000000e+000  0.000000e+000
      vertex -2.750000e+001  7.105427e-015  0.000000e+000
      vertex -1.750000e+001  2.000000e+000  0.000000e+000
    endloop
  endfacet
  facet normal  0.000000e+000  0.000000e+000 -1.000000e+000
    outer loop
      vertex  1.750000e+001  2.000000e+000  0.000000e+000
      vertex -2.350000e+001  6.000000e+000  0.000000e+000
      vertex -4.000000e+000  6.000000e+000  0.000000e+000
    endloop
  endfacet
  facet normal  0.000000e+000  0.000000e+000 -1.000000e+000
    outer loop
      vertex  1.750000e+001  2.000000e+000  0.000000e+000
      vertex -4.000000e+000  6.000000e+000  0.000000e+000
      vertex  4.000000e+000  6.000000e+000  0.000000e+000
    endloop
  endfacet
  facet normal  0.000000e+000  0.000000e+000 -1.000000e+000
    outer loop
      vertex  1.750000e+001  2.000000e+000  0.000000e+000
      vertex  4.000000e+000  6.000000e+000  0.000000e+000
      vertex  2.350000e+001  6.000000e+000  0.000000e+000
    endloop
  endfacet
  facet normal  0.000000e+000  0.000000e+000 -1.000000e+000
    outer loop
      vertex  1.750000e+001  2.000000e+000  0.000000e+000
      vertex  2.350000e+001  6.000000e+000  0.000000e+000
      vertex  1.750000e+001  0.000000e+000  0.000000e+000
    endloop
  endfacet
  facet normal  0.000000e+000  0.000000e+000 -1.000000e+000
    outer loop
      vertex -2.350000e+001  6.000000e+000  0.000000e+000
      vertex  1.750000e+001  2.000000e+000  0.000000e+000
      vertex  0.000000e+000  2.000000e+000  0.000000e+000
    endloop
  endfacet
  facet normal  0.000000e+000  0.000000e+000 -1.000000e+000
    outer loop
      vertex -2.350000e+001  6.000000e+000  0.000000e+000
      vertex  0.000000e+000  2.000000e+000  0.000000e+000
      vertex -1.750000e+001  2.000000e+000  0.000000e+000
    endloop
  endfacet
  facet normal  -0.000000e+000  0.000000e+000 -1.000000e+000
    outer loop
      vertex -2.350000e+001  6.000000e+000  0.000000e+000
      vertex -1.750000e+001  2.000000e+000  0.000000e+000
      vertex -2.750000e+001  7.105427e-015  0.000000e+000
    endloop
  endfacet
  facet normal  0.000000e+000  0.000000e+000 -1.000000e+000
    outer loop
      vertex -2.350000e+001  6.000000e+000  0.000000e+000
      vertex -2.750000e+001  7.105427e-015  0.000000e+000
      vertex -2.750000e+001  3.400000e+001  0.000000e+000
    endloop
  endfacet
  facet normal  0.000000e+000  0.000000e+000 -1.000000e+000
    outer loop
      vertex -2.350000e+001  6.000000e+000  0.000000e+000
      vertex -2.750000e+001  3.400000e+001  0.000000e+000
      vertex -2.350000e+001  3.000000e+001  0.000000e+000
    endloop
  endfacet
  facet normal  0.000000e+000  -0.000000e+000 -1.000000e+000
    outer loop
      vertex  2.200000e+001  3.000000e+001  0.000000e+000
      vertex  2.350000e+001  3.400000e+001  0.000000e+000
      vertex  2.350000e+001  3.000000e+001  0.000000e+000
    endloop
  endfacet
  facet normal  0.000000e+000  0.000000e+000 -1.000000e+000
    outer loop
      vertex  2.350000e+001  3.000000e+001  0.000000e+000
      vertex  2.350000e+001  3.400000e+001  0.000000e+000
      vertex  2.750000e+001  3.400000e+001  0.000000e+000
    endloop
  endfacet
  facet normal  0.000000e+000  0.000000e+000 -1.000000e+000
    outer loop
      vertex  2.350000e+001  3.000000e+001  0.000000e+000
      vertex  2.750000e+001  3.400000e+001  0.000000e+000
      vertex  2.350000e+001  6.000000e+000  0.000000e+000
    endloop
  endfacet
  facet normal  0.000000e+000  0.000000e+000 -1.000000e+000
    outer loop
      vertex  2.350000e+001  6.000000e+000  0.000000e+000
      vertex  2.750000e+001  3.400000e+001  0.000000e+000
      vertex  2.750000e+001  0.000000e+000  0.000000e+000
    endloop
  endfacet
  facet normal  0.000000e+000  0.000000e+000 -1.000000e+000
    outer loop
      vertex  2.350000e+001  6.000000e+000  0.000000e+000
      vertex  2.750000e+001  0.000000e+000  0.000000e+000
      vertex  1.750000e+001  0.000000e+000  0.000000e+000
    endloop
  endfacet
  facet normal  0.000000e+000  0.000000e+000 -1.000000e+000
    outer loop
      vertex  4.000000e+000  2.550000e+001  0.000000e+000
      vertex  4.000000e+000  6.000000e+000  0.000000e+000
      vertex  0.000000e+000  2.550000e+001  0.000000e+000
    endloop
  endfacet
  facet normal  0.000000e+000  -0.000000e+000 -1.000000e+000
    outer loop
      vertex  0.000000e+000  2.550000e+001  0.000000e+000
      vertex  4.000000e+000  6.000000e+000  0.000000e+000
      vertex -4.000000e+000  6.000000e+000  0.000000e+000
    endloop
  endfacet
  facet normal  0.000000e+000  0.000000e+000 -1.000000e+000
    outer loop
      vertex  0.000000e+000  2.550000e+001  0.000000e+000
      vertex -4.000000e+000  6.000000e+000  0.000000e+000
      vertex -4.000000e+000  2.550000e+001  0.000000e+000
    endloop
  endfacet
  facet normal  0.000000e+000  0.000000e+000 -1.000000e+000
    outer loop
      vertex -2.200000e+001  3.000000e+001  0.000000e+000
      vertex -2.350000e+001  3.000000e+001  0.000000e+000
      vertex -2.350000e+001  3.400000e+001  0.000000e+000
    endloop
  endfacet
  facet normal  -0.000000e+000  -0.000000e+000 -1.000000e+000
    outer loop
      vertex -2.350000e+001  3.400000e+001  0.000000e+000
      vertex -2.350000e+001  3.000000e+001  0.000000e+000
      vertex -2.750000e+001  3.400000e+001  0.000000e+000
    endloop
  endfacet
  facet normal  0.000000e+000  1.000000e+000  -0.000000e+000
    outer loop
      vertex -2.350000e+001  3.400000e+001  1.400000e+001
      vertex -2.350000e+001  3.400000e+001  0.000000e+000
      vertex -2.750000e+001  3.400000e+001  1.400000e+001
    endloop
  endfacet
  facet normal  0.000000e+000  1.000000e+000  0.000000e+000
    outer loop
      vertex -2.750000e+001  3.400000e+001  1.400000e+001
      vertex -2.350000e+001  3.400000e+001  0.000000e+000
      vertex -2.750000e+001  3.400000e+001  0.000000e+000
    endloop
  endfacet
  facet normal  9.363292e-001  3.511235e-001  0.000000e+000
    outer loop
      vertex -2.200000e+001  3.000000e+001  0.000000e+000
      vertex -2.350000e+001  3.400000e+001  0.000000e+000
      vertex -2.200000e+001  3.000000e+001  1.400000e+001
    endloop
  endfacet
  facet normal  9.363292e-001  3.511235e-001  0.000000e+000
    outer loop
      vertex -2.200000e+001  3.000000e+001  1.400000e+001
      vertex -2.350000e+001  3.400000e+001  0.000000e+000
      vertex -2.350000e+001  3.400000e+001  1.400000e+001
    endloop
  endfacet
  facet normal  0.000000e+000 -1.000000e+000  0.000000e+000
    outer loop
      vertex -2.350000e+001  3.000000e+001  1.400000e+001
      vertex -2.350000e+001  3.000000e+001  0.000000e+000
      vertex -2.200000e+001  3.000000e+001  1.400000e+001
    endloop
  endfacet
  facet normal  0.000000e+000 -1.000000e+000  -0.000000e+000
    outer loop
      vertex -2.200000e+001  3.000000e+001  1.400000e+001
      vertex -2.350000e+001  3.000000e+001  0.000000e+000
      vertex -2.200000e+001  3.000000e+001  0.000000e+000
    endloop
  endfacet
  facet normal -1.000000e+000  0.000000e+000  0.000000e+000
    outer loop
      vertex -4.000000e+000  6.000000e+000  0.000000e+000
      vertex -4.000000e+000  6.000000e+000  1.400000e+001
      vertex -4.000000e+000  2.550000e+001  0.000000e+000
    endloop
  endfacet
  facet normal -1.000000e+000  0.000000e+000  0.000000e+000
    outer loop
      vertex -4.000000e+000  2.550000e+001  0.000000e+000
      vertex -4.000000e+000  6.000000e+000  1.400000e+001
      vertex -4.000000e+000  2.550000e+001  1.400000e+001
    endloop
  endfacet
  facet normal  0.000000e+000  1.000000e+000  0.000000e+000
    outer loop
      vertex  0.000000e+000  2.550000e+001  0.000000e+000
      vertex -4.000000e+000  2.550000e+001  0.000000e+000
      vertex  0.000000e+000  2.550000e+001  1.400000e+001
    endloop
  endfacet
  facet normal  0.000000e+000  1.000000e+000  0.000000e+000
    outer loop
      vertex  0.000000e+000  2.550000e+001  1.400000e+001
      vertex -4.000000e+000  2.550000e+001  0.000000e+000
      vertex -4.000000e+000  2.550000e+001  1.400000e+001
    endloop
  endfacet
  facet normal  0.000000e+000  1.000000e+000  0.000000e+000
    outer loop
      vertex  4.000000e+000  2.550000e+001  0.000000e+000
      vertex  0.000000e+000  2.550000e+001  0.000000e+000
      vertex  4.000000e+000  2.550000e+001  1.400000e+001
    endloop
  endfacet
  facet normal  0.000000e+000  1.000000e+000  0.000000e+000
    outer loop
      vertex  4.000000e+000  2.550000e+001  1.400000e+001
      vertex  0.000000e+000  2.550000e+001  0.000000e+000
      vertex  0.000000e+000  2.550000e+001  1.400000e+001
    endloop
  endfacet
  facet normal  1.000000e+000  0.000000e+000  0.000000e+000
    outer loop
      vertex  4.000000e+000  6.000000e+000  1.400000e+001
      vertex  4.000000e+000  6.000000e+000  0.000000e+000
      vertex  4.000000e+000  2.550000e+001  1.400000e+001
    endloop
  endfacet
  facet normal  1.000000e+000  0.000000e+000  0.000000e+000
    outer loop
      vertex  4.000000e+000  2.550000e+001  1.400000e+001
      vertex  4.000000e+000  6.000000e+000  0.000000e+000
      vertex  4.000000e+000  2.550000e+001  0.000000e+000
    endloop
  endfacet
  facet normal  0.000000e+000 -1.000000e+000  0.000000e+000
    outer loop
      vertex  2.200000e+001  3.000000e+001  1.400000e+001
      vertex  2.200000e+001  3.000000e+001  0.000000e+000
      vertex  2.350000e+001  3.000000e+001  1.400000e+001
    endloop
  endfacet
  facet normal  0.000000e+000 -1.000000e+000  -0.000000e+000
    outer loop
      vertex  2.350000e+001  3.000000e+001  1.400000e+001
      vertex  2.200000e+001  3.000000e+001  0.000000e+000
      vertex  2.350000e+001  3.000000e+001  0.000000e+000
    endloop
  endfacet
  facet normal -9.363292e-001  3.511235e-001  0.000000e+000
    outer loop
      vertex  2.350000e+001  3.400000e+001  0.000000e+000
      vertex  2.200000e+001  3.000000e+001  0.000000e+000
      vertex  2.350000e+001  3.400000e+001  1.400000e+001
    endloop
  endfacet
  facet normal -9.363292e-001  3.511235e-001  0.000000e+000
    outer loop
      vertex  2.350000e+001  3.400000e+001  1.400000e+001
      vertex  2.200000e+001  3.000000e+001  0.000000e+000
      vertex  2.200000e+001  3.000000e+001  1.400000e+001
    endloop
  endfacet
  facet normal  0.000000e+000  1.000000e+000  -0.000000e+000
    outer loop
      vertex  2.750000e+001  3.400000e+001  1.400000e+001
      vertex  2.750000e+001  3.400000e+001  0.000000e+000
      vertex  2.350000e+001  3.400000e+001  1.400000e+001
    endloop
  endfacet
  facet normal  0.000000e+000  1.000000e+000  0.000000e+000
    outer loop
      vertex  2.350000e+001  3.400000e+001  1.400000e+001
      vertex  2.750000e+001  3.400000e+001  0.000000e+000
      vertex  2.350000e+001  3.400000e+001  0.000000e+000
    endloop
  endfacet
  facet normal  1.000000e+000  0.000000e+000  0.000000e+000
    outer loop
      vertex  2.750000e+001  3.400000e+001  0.000000e+000
      vertex  2.750000e+001  3.400000e+001  1.400000e+001
      vertex  2.750000e+001  0.000000e+000  0.000000e+000
    endloop
  endfacet
  facet normal  1.000000e+000  0.000000e+000  0.000000e+000
    outer loop
      vertex  2.750000e+001  0.000000e+000  0.000000e+000
      vertex  2.750000e+001  3.400000e+001  1.400000e+001
      vertex  2.750000e+001  0.000000e+000  1.400000e+001
    endloop
  endfacet
  facet normal -1.000000e+000  0.000000e+000  0.000000e+000
    outer loop
      vertex  1.750000e+001  2.000000e+000  0.000000e+000
      vertex  1.750000e+001  0.000000e+000  0.000000e+000
      vertex  1.750000e+001  2.000000e+000  1.400000e+001
    endloop
  endfacet
  facet normal -1.000000e+000  -0.000000e+000  0.000000e+000
    outer loop
      vertex  1.750000e+001  2.000000e+000  1.400000e+001
      vertex  1.750000e+001  0.000000e+000  0.000000e+000
      vertex  1.750000e+001  0.000000e+000  1.400000e+001
    endloop
  endfacet
  facet normal  0.000000e+000 -9.999999e-001  0.000000e+000
    outer loop
      vertex  0.000000e+000  2.000000e+000  1.400000e+001
      vertex  0.000000e+000  2.000000e+000  0.000000e+000
      vertex  1.750000e+001  2.000000e+000  1.400000e+001
    endloop
  endfacet
  facet normal  0.000000e+000 -9.999999e-001  -0.000000e+000
    outer loop
      vertex  1.750000e+001  2.000000e+000  1.400000e+001
      vertex  0.000000e+000  2.000000e+000  0.000000e+000
      vertex  1.750000e+001  2.000000e+000  0.000000e+000
    endloop
  endfacet
  facet normal  0.000000e+000 -9.999999e-001  0.000000e+000
    outer loop
      vertex -1.750000e+001  2.000000e+000  1.400000e+001
      vertex -1.750000e+001  2.000000e+000  0.000000e+000
      vertex  0.000000e+000  2.000000e+000  1.400000e+001
    endloop
  endfacet
  facet normal  0.000000e+000 -9.999999e-001  -0.000000e+000
    outer loop
      vertex  0.000000e+000  2.000000e+000  1.400000e+001
      vertex -1.750000e+001  2.000000e+000  0.000000e+000
      vertex  0.000000e+000  2.000000e+000  0.000000e+000
    endloop
  endfacet
  facet normal  1.000000e+000  0.000000e+000  0.000000e+000
    outer loop
      vertex -1.750000e+001  0.000000e+000  0.000000e+000
      vertex -1.750000e+001  2.000000e+000  0.000000e+000
      vertex -1.750000e+001  0.000000e+000  1.400000e+001
    endloop
  endfacet
  facet normal  1.000000e+000  -0.000000e+000  0.000000e+000
    outer loop
      vertex -1.750000e+001  0.000000e+000  1.400000e+001
      vertex -1.750000e+001  2.000000e+000  0.000000e+000
      vertex -1.750000e+001  2.000000e+000  1.400000e+001
    endloop
  endfacet
  facet normal -1.000000e+000  0.000000e+000  0.000000e+000
    outer loop
      vertex -2.750000e+001  3.400000e+001  1.400000e+001
      vertex -2.750000e+001  3.400000e+001  0.000000e+000
      vertex -2.750000e+001  7.105427e-015  1.400000e+001
    endloop
  endfacet
  facet normal -1.000000e+000  0.000000e+000  0.000000e+000
    outer loop
      vertex -2.750000e+001  7.105427e-015  1.400000e+001
      vertex -2.750000e+001  3.400000e+001  0.000000e+000
      vertex -2.750000e+001  7.105427e-015  0.000000e+000
    endloop
  endfacet
endsolid CATIA STL
