solid CATIA STL
  facet normal  1.000000e+000  0.000000e+000  0.000000e+000
    outer loop
      vertex -2.350000e+001  6.000000e+000  4.584381e+000
      vertex -2.350000e+001  6.000000e+000  0.000000e+000
      vertex -2.350000e+001  1.100000e+001  4.584381e+000
    endloop
  endfacet
  facet normal  9.999999e-001  0.000000e+000  0.000000e+000
    outer loop
      vertex -2.350000e+001  1.100000e+001  4.584381e+000
      vertex -2.350000e+001  6.000000e+000  0.000000e+000
      vertex -2.350000e+001  3.000000e+001  0.000000e+000
    endloop
  endfacet
  facet normal  1.000000e+000  0.000000e+000  0.000000e+000
    outer loop
      vertex -2.350000e+001  1.100000e+001  4.584381e+000
      vertex -2.350000e+001  3.000000e+001  0.000000e+000
      vertex -2.350000e+001  1.100000e+001  1.041562e+001
    endloop
  endfacet
  facet normal  1.000000e+000  -0.000000e+000  0.000000e+000
    outer loop
      vertex -2.350000e+001  1.100000e+001  1.041562e+001
      vertex -2.350000e+001  3.000000e+001  0.000000e+000
      vertex -2.350000e+001  3.000000e+001  1.500000e+001
    endloop
  endfacet
  facet normal  1.000000e+000  0.000000e+000  0.000000e+000
    outer loop
      vertex -2.350000e+001  1.100000e+001  1.041562e+001
      vertex -2.350000e+001  3.000000e+001  1.500000e+001
      vertex -2.350000e+001  6.000000e+000  1.041562e+001
    endloop
  endfacet
  facet normal  9.999999e-001  0.000000e+000  0.000000e+000
    outer loop
      vertex -2.350000e+001  6.000000e+000  1.041562e+001
      vertex -2.350000e+001  3.000000e+001  1.500000e+001
      vertex -2.350000e+001  6.000000e+000  1.500000e+001
    endloop
  endfacet
  facet normal  0.000000e+000  1.000000e+000  0.000000e+000
    outer loop
      vertex -2.350000e+001  6.000000e+000  0.000000e+000
      vertex -2.350000e+001  6.000000e+000  4.584381e+000
      vertex -4.000000e+000  6.000000e+000  0.000000e+000
    endloop
  endfacet
  facet normal  0.000000e+000  1.000000e+000  0.000000e+000
    outer loop
      vertex -4.000000e+000  6.000000e+000  0.000000e+000
      vertex -2.350000e+001  6.000000e+000  4.584381e+000
      vertex -2.130000e+001  6.000000e+000  5.854552e+000
    endloop
  endfacet
  facet normal  -0.000000e+000  1.000000e+000  0.000000e+000
    outer loop
      vertex -4.000000e+000  6.000000e+000  0.000000e+000
      vertex -2.130000e+001  6.000000e+000  5.854552e+000
      vertex -4.000000e+000  6.000000e+000  1.500000e+001
    endloop
  endfacet
  facet normal  0.000000e+000  9.999999e-001  0.000000e+000
    outer loop
      vertex -4.000000e+000  6.000000e+000  1.500000e+001
      vertex -2.130000e+001  6.000000e+000  5.854552e+000
      vertex -2.130000e+001  6.000000e+000  9.145449e+000
    endloop
  endfacet
  facet normal  0.000000e+000  1.000000e+000  -0.000000e+000
    outer loop
      vertex -4.000000e+000  6.000000e+000  1.500000e+001
      vertex -2.130000e+001  6.000000e+000  9.145449e+000
      vertex -2.350000e+001  6.000000e+000  1.500000e+001
    endloop
  endfacet
  facet normal  0.000000e+000  1.000000e+000  0.000000e+000
    outer loop
      vertex -2.350000e+001  6.000000e+000  1.500000e+001
      vertex -2.130000e+001  6.000000e+000  9.145449e+000
      vertex -2.350000e+001  6.000000e+000  1.041562e+001
    endloop
  endfacet
  facet normal  0.000000e+000  1.000000e+000  -0.000000e+000
    outer loop
      vertex  2.350000e+001  6.000000e+000  1.500000e+001
      vertex  2.350000e+001  6.000000e+000  1.041562e+001
      vertex  4.000000e+000  6.000000e+000  1.500000e+001
    endloop
  endfacet
  facet normal  0.000000e+000  1.000000e+000  0.000000e+000
    outer loop
      vertex  4.000000e+000  6.000000e+000  1.500000e+001
      vertex  2.350000e+001  6.000000e+000  1.041562e+001
      vertex  2.130000e+001  6.000000e+000  9.145449e+000
    endloop
  endfacet
  facet normal  0.000000e+000  1.000000e+000  0.000000e+000
    outer loop
      vertex  4.000000e+000  6.000000e+000  1.500000e+001
      vertex  2.130000e+001  6.000000e+000  9.145449e+000
      vertex  4.000000e+000  6.000000e+000  0.000000e+000
    endloop
  endfacet
  facet normal  0.000000e+000  1.000000e+000  0.000000e+000
    outer loop
      vertex  4.000000e+000  6.000000e+000  0.000000e+000
      vertex  2.130000e+001  6.000000e+000  9.145449e+000
      vertex  2.130000e+001  6.000000e+000  5.854552e+000
    endloop
  endfacet
  facet normal  0.000000e+000  1.000000e+000  0.000000e+000
    outer loop
      vertex  4.000000e+000  6.000000e+000  0.000000e+000
      vertex  2.130000e+001  6.000000e+000  5.854552e+000
      vertex  2.350000e+001  6.000000e+000  0.000000e+000
    endloop
  endfacet
  facet normal  0.000000e+000  1.000000e+000  -0.000000e+000
    outer loop
      vertex  2.350000e+001  6.000000e+000  0.000000e+000
      vertex  2.130000e+001  6.000000e+000  5.854552e+000
      vertex  2.350000e+001  6.000000e+000  4.584381e+000
    endloop
  endfacet
  facet normal -9.999999e-001  0.000000e+000  0.000000e+000
    outer loop
      vertex  2.350000e+001  6.000000e+000  0.000000e+000
      vertex  2.350000e+001  6.000000e+000  4.584381e+000
      vertex  2.350000e+001  3.000000e+001  0.000000e+000
    endloop
  endfacet
  facet normal -1.000000e+000  0.000000e+000  0.000000e+000
    outer loop
      vertex  2.350000e+001  3.000000e+001  0.000000e+000
      vertex  2.350000e+001  6.000000e+000  4.584381e+000
      vertex  2.350000e+001  1.100000e+001  4.584381e+000
    endloop
  endfacet
  facet normal -1.000000e+000  0.000000e+000  0.000000e+000
    outer loop
      vertex  2.350000e+001  3.000000e+001  0.000000e+000
      vertex  2.350000e+001  1.100000e+001  4.584381e+000
      vertex  2.350000e+001  3.000000e+001  1.500000e+001
    endloop
  endfacet
  facet normal -1.000000e+000  0.000000e+000  0.000000e+000
    outer loop
      vertex  2.350000e+001  3.000000e+001  1.500000e+001
      vertex  2.350000e+001  1.100000e+001  4.584381e+000
      vertex  2.350000e+001  1.100000e+001  1.041562e+001
    endloop
  endfacet
  facet normal -9.999999e-001  0.000000e+000  0.000000e+000
    outer loop
      vertex  2.350000e+001  3.000000e+001  1.500000e+001
      vertex  2.350000e+001  1.100000e+001  1.041562e+001
      vertex  2.350000e+001  6.000000e+000  1.500000e+001
    endloop
  endfacet
  facet normal -1.000000e+000  0.000000e+000  0.000000e+000
    outer loop
      vertex  2.350000e+001  6.000000e+000  1.500000e+001
      vertex  2.350000e+001  1.100000e+001  1.041562e+001
      vertex  2.350000e+001  6.000000e+000  1.041562e+001
    endloop
  endfacet
  facet normal  9.914448e-001  0.000000e+000 -1.305264e-001
    outer loop
      vertex -2.585000e+001  0.000000e+000  7.500000e+000
      vertex -2.585000e+001  3.000000e+000  7.500000e+000
      vertex -2.579207e+001  0.000000e+000  7.939992e+000
    endloop
  endfacet
  facet normal  9.914448e-001  0.000000e+000 -1.305264e-001
    outer loop
      vertex -2.579207e+001  0.000000e+000  7.939992e+000
      vertex -2.585000e+001  3.000000e+000  7.500000e+000
      vertex -2.579207e+001  3.000000e+000  7.939992e+000
    endloop
  endfacet
  facet normal  9.238799e-001  0.000000e+000 -3.826824e-001
    outer loop
      vertex -2.579207e+001  0.000000e+000  7.939992e+000
      vertex -2.579207e+001  3.000000e+000  7.939992e+000
      vertex -2.562224e+001  0.000000e+000  8.350000e+000
    endloop
  endfacet
  facet normal  9.238799e-001  0.000000e+000 -3.826824e-001
    outer loop
      vertex -2.562224e+001  0.000000e+000  8.350000e+000
      vertex -2.579207e+001  3.000000e+000  7.939992e+000
      vertex -2.562224e+001  3.000000e+000  8.350000e+000
    endloop
  endfacet
  facet normal  7.933521e-001  0.000000e+000 -6.087630e-001
    outer loop
      vertex -2.562224e+001  0.000000e+000  8.350000e+000
      vertex -2.562224e+001  3.000000e+000  8.350000e+000
      vertex -2.535208e+001  0.000000e+000  8.702082e+000
    endloop
  endfacet
  facet normal  7.933521e-001  0.000000e+000 -6.087630e-001
    outer loop
      vertex -2.535208e+001  0.000000e+000  8.702082e+000
      vertex -2.562224e+001  3.000000e+000  8.350000e+000
      vertex -2.535208e+001  3.000000e+000  8.702082e+000
    endloop
  endfacet
  facet normal  6.087616e-001  0.000000e+000 -7.933531e-001
    outer loop
      vertex -2.535208e+001  0.000000e+000  8.702082e+000
      vertex -2.535208e+001  3.000000e+000  8.702082e+000
      vertex -2.500000e+001  0.000000e+000  8.972243e+000
    endloop
  endfacet
  facet normal  6.087616e-001  0.000000e+000 -7.933531e-001
    outer loop
      vertex -2.500000e+001  0.000000e+000  8.972243e+000
      vertex -2.535208e+001  3.000000e+000  8.702082e+000
      vertex -2.500000e+001  3.000000e+000  8.972243e+000
    endloop
  endfacet
  facet normal  3.826828e-001  0.000000e+000 -9.238798e-001
    outer loop
      vertex -2.500000e+001  0.000000e+000  8.972243e+000
      vertex -2.500000e+001  3.000000e+000  8.972243e+000
      vertex -2.458999e+001  0.000000e+000  9.142074e+000
    endloop
  endfacet
  facet normal  3.826828e-001  0.000000e+000 -9.238798e-001
    outer loop
      vertex -2.458999e+001  0.000000e+000  9.142074e+000
      vertex -2.500000e+001  3.000000e+000  8.972243e+000
      vertex -2.458999e+001  3.000000e+000  9.142074e+000
    endloop
  endfacet
  facet normal  1.305262e-001  0.000000e+000 -9.914448e-001
    outer loop
      vertex -2.458999e+001  0.000000e+000  9.142074e+000
      vertex -2.458999e+001  3.000000e+000  9.142074e+000
      vertex -2.415000e+001  0.000000e+000  9.200000e+000
    endloop
  endfacet
  facet normal  1.305262e-001  0.000000e+000 -9.914448e-001
    outer loop
      vertex -2.415000e+001  0.000000e+000  9.200000e+000
      vertex -2.458999e+001  3.000000e+000  9.142074e+000
      vertex -2.415000e+001  3.000000e+000  9.200000e+000
    endloop
  endfacet
  facet normal -1.305262e-001  -0.000000e+000 -9.914448e-001
    outer loop
      vertex -2.415000e+001  0.000000e+000  9.200000e+000
      vertex -2.415000e+001  3.000000e+000  9.200000e+000
      vertex -2.371001e+001  0.000000e+000  9.142074e+000
    endloop
  endfacet
  facet normal -1.305262e-001  0.000000e+000 -9.914448e-001
    outer loop
      vertex -2.371001e+001  0.000000e+000  9.142074e+000
      vertex -2.415000e+001  3.000000e+000  9.200000e+000
      vertex -2.371001e+001  3.000000e+000  9.142074e+000
    endloop
  endfacet
  facet normal -3.826828e-001  -0.000000e+000 -9.238798e-001
    outer loop
      vertex -2.371001e+001  0.000000e+000  9.142074e+000
      vertex -2.371001e+001  3.000000e+000  9.142074e+000
      vertex -2.330000e+001  0.000000e+000  8.972243e+000
    endloop
  endfacet
  facet normal -3.826828e-001  0.000000e+000 -9.238798e-001
    outer loop
      vertex -2.330000e+001  0.000000e+000  8.972243e+000
      vertex -2.371001e+001  3.000000e+000  9.142074e+000
      vertex -2.330000e+001  3.000000e+000  8.972243e+000
    endloop
  endfacet
  facet normal -6.087616e-001  -0.000000e+000 -7.933531e-001
    outer loop
      vertex -2.330000e+001  0.000000e+000  8.972243e+000
      vertex -2.330000e+001  3.000000e+000  8.972243e+000
      vertex -2.294792e+001  0.000000e+000  8.702082e+000
    endloop
  endfacet
  facet normal -6.087616e-001  0.000000e+000 -7.933531e-001
    outer loop
      vertex -2.294792e+001  0.000000e+000  8.702082e+000
      vertex -2.330000e+001  3.000000e+000  8.972243e+000
      vertex -2.294792e+001  3.000000e+000  8.702082e+000
    endloop
  endfacet
  facet normal -7.933542e-001  -0.000000e+000 -6.087603e-001
    outer loop
      vertex -2.294792e+001  0.000000e+000  8.702082e+000
      vertex -2.294792e+001  3.000000e+000  8.702082e+000
      vertex -2.267776e+001  0.000000e+000  8.350000e+000
    endloop
  endfacet
  facet normal -7.933542e-001  0.000000e+000 -6.087603e-001
    outer loop
      vertex -2.267776e+001  0.000000e+000  8.350000e+000
      vertex -2.294792e+001  3.000000e+000  8.702082e+000
      vertex -2.267776e+001  3.000000e+000  8.350000e+000
    endloop
  endfacet
  facet normal -9.238799e-001  -0.000000e+000 -3.826824e-001
    outer loop
      vertex -2.267776e+001  0.000000e+000  8.350000e+000
      vertex -2.267776e+001  3.000000e+000  8.350000e+000
      vertex -2.250793e+001  0.000000e+000  7.939992e+000
    endloop
  endfacet
  facet normal -9.238799e-001  0.000000e+000 -3.826824e-001
    outer loop
      vertex -2.250793e+001  0.000000e+000  7.939992e+000
      vertex -2.267776e+001  3.000000e+000  8.350000e+000
      vertex -2.250793e+001  3.000000e+000  7.939992e+000
    endloop
  endfacet
  facet normal -9.914448e-001  -0.000000e+000 -1.305264e-001
    outer loop
      vertex -2.250793e+001  0.000000e+000  7.939992e+000
      vertex -2.250793e+001  3.000000e+000  7.939992e+000
      vertex -2.245000e+001  0.000000e+000  7.500000e+000
    endloop
  endfacet
  facet normal -9.914448e-001  0.000000e+000 -1.305264e-001
    outer loop
      vertex -2.245000e+001  0.000000e+000  7.500000e+000
      vertex -2.250793e+001  3.000000e+000  7.939992e+000
      vertex -2.245000e+001  3.000000e+000  7.500000e+000
    endloop
  endfacet
  facet normal -9.914448e-001  0.000000e+000  1.305264e-001
    outer loop
      vertex -2.245000e+001  0.000000e+000  7.500000e+000
      vertex -2.245000e+001  3.000000e+000  7.500000e+000
      vertex -2.250793e+001  0.000000e+000  7.060008e+000
    endloop
  endfacet
  facet normal -9.914448e-001  0.000000e+000  1.305264e-001
    outer loop
      vertex -2.250793e+001  0.000000e+000  7.060008e+000
      vertex -2.245000e+001  3.000000e+000  7.500000e+000
      vertex -2.250793e+001  3.000000e+000  7.060008e+000
    endloop
  endfacet
  facet normal -9.238798e-001  0.000000e+000  3.826828e-001
    outer loop
      vertex -2.250793e+001  0.000000e+000  7.060008e+000
      vertex -2.250793e+001  3.000000e+000  7.060008e+000
      vertex -2.267776e+001  0.000000e+000  6.650000e+000
    endloop
  endfacet
  facet normal -9.238798e-001  0.000000e+000  3.826828e-001
    outer loop
      vertex -2.267776e+001  0.000000e+000  6.650000e+000
      vertex -2.250793e+001  3.000000e+000  7.060008e+000
      vertex -2.267776e+001  3.000000e+000  6.650000e+000
    endloop
  endfacet
  facet normal -7.933546e-001  0.000000e+000  6.087598e-001
    outer loop
      vertex -2.267776e+001  0.000000e+000  6.650000e+000
      vertex -2.267776e+001  3.000000e+000  6.650000e+000
      vertex -2.294792e+001  0.000000e+000  6.297918e+000
    endloop
  endfacet
  facet normal -7.933546e-001  0.000000e+000  6.087598e-001
    outer loop
      vertex -2.294792e+001  0.000000e+000  6.297918e+000
      vertex -2.267776e+001  3.000000e+000  6.650000e+000
      vertex -2.294792e+001  3.000000e+000  6.297918e+000
    endloop
  endfacet
  facet normal -6.087616e-001  0.000000e+000  7.933531e-001
    outer loop
      vertex -2.294792e+001  0.000000e+000  6.297918e+000
      vertex -2.294792e+001  3.000000e+000  6.297918e+000
      vertex -2.330000e+001  0.000000e+000  6.027757e+000
    endloop
  endfacet
  facet normal -6.087616e-001  0.000000e+000  7.933531e-001
    outer loop
      vertex -2.330000e+001  0.000000e+000  6.027757e+000
      vertex -2.294792e+001  3.000000e+000  6.297918e+000
      vertex -2.330000e+001  3.000000e+000  6.027757e+000
    endloop
  endfacet
  facet normal -3.826837e-001  0.000000e+000  9.238794e-001
    outer loop
      vertex -2.330000e+001  0.000000e+000  6.027757e+000
      vertex -2.330000e+001  3.000000e+000  6.027757e+000
      vertex -2.371001e+001  0.000000e+000  5.857926e+000
    endloop
  endfacet
  facet normal -3.826837e-001  0.000000e+000  9.238794e-001
    outer loop
      vertex -2.371001e+001  0.000000e+000  5.857926e+000
      vertex -2.330000e+001  3.000000e+000  6.027757e+000
      vertex -2.371001e+001  3.000000e+000  5.857926e+000
    endloop
  endfacet
  facet normal -1.305252e-001  0.000000e+000  9.914450e-001
    outer loop
      vertex -2.371001e+001  0.000000e+000  5.857926e+000
      vertex -2.371001e+001  3.000000e+000  5.857926e+000
      vertex -2.415000e+001  0.000000e+000  5.800000e+000
    endloop
  endfacet
  facet normal -1.305252e-001  0.000000e+000  9.914450e-001
    outer loop
      vertex -2.415000e+001  0.000000e+000  5.800000e+000
      vertex -2.371001e+001  3.000000e+000  5.857926e+000
      vertex -2.415000e+001  3.000000e+000  5.800000e+000
    endloop
  endfacet
  facet normal  1.305252e-001  0.000000e+000  9.914450e-001
    outer loop
      vertex -2.415000e+001  0.000000e+000  5.800000e+000
      vertex -2.415000e+001  3.000000e+000  5.800000e+000
      vertex -2.458999e+001  0.000000e+000  5.857926e+000
    endloop
  endfacet
  facet normal  1.305252e-001  -0.000000e+000  9.914450e-001
    outer loop
      vertex -2.458999e+001  0.000000e+000  5.857926e+000
      vertex -2.415000e+001  3.000000e+000  5.800000e+000
      vertex -2.458999e+001  3.000000e+000  5.857926e+000
    endloop
  endfacet
  facet normal  3.826837e-001  0.000000e+000  9.238794e-001
    outer loop
      vertex -2.458999e+001  0.000000e+000  5.857926e+000
      vertex -2.458999e+001  3.000000e+000  5.857926e+000
      vertex -2.500000e+001  0.000000e+000  6.027757e+000
    endloop
  endfacet
  facet normal  3.826837e-001  -0.000000e+000  9.238794e-001
    outer loop
      vertex -2.500000e+001  0.000000e+000  6.027757e+000
      vertex -2.458999e+001  3.000000e+000  5.857926e+000
      vertex -2.500000e+001  3.000000e+000  6.027757e+000
    endloop
  endfacet
  facet normal  6.087616e-001  0.000000e+000  7.933531e-001
    outer loop
      vertex -2.500000e+001  0.000000e+000  6.027757e+000
      vertex -2.500000e+001  3.000000e+000  6.027757e+000
      vertex -2.535208e+001  0.000000e+000  6.297918e+000
    endloop
  endfacet
  facet normal  6.087616e-001  -0.000000e+000  7.933531e-001
    outer loop
      vertex -2.535208e+001  0.000000e+000  6.297918e+000
      vertex -2.500000e+001  3.000000e+000  6.027757e+000
      vertex -2.535208e+001  3.000000e+000  6.297918e+000
    endloop
  endfacet
  facet normal  7.933525e-001  0.000000e+000  6.087624e-001
    outer loop
      vertex -2.535208e+001  0.000000e+000  6.297918e+000
      vertex -2.535208e+001  3.000000e+000  6.297918e+000
      vertex -2.562224e+001  0.000000e+000  6.650000e+000
    endloop
  endfacet
  facet normal  7.933525e-001  -0.000000e+000  6.087624e-001
    outer loop
      vertex -2.562224e+001  0.000000e+000  6.650000e+000
      vertex -2.535208e+001  3.000000e+000  6.297918e+000
      vertex -2.562224e+001  3.000000e+000  6.650000e+000
    endloop
  endfacet
  facet normal  9.238798e-001  0.000000e+000  3.826828e-001
    outer loop
      vertex -2.562224e+001  0.000000e+000  6.650000e+000
      vertex -2.562224e+001  3.000000e+000  6.650000e+000
      vertex -2.579207e+001  0.000000e+000  7.060008e+000
    endloop
  endfacet
  facet normal  9.238798e-001  -0.000000e+000  3.826828e-001
    outer loop
      vertex -2.579207e+001  0.000000e+000  7.060008e+000
      vertex -2.562224e+001  3.000000e+000  6.650000e+000
      vertex -2.579207e+001  3.000000e+000  7.060008e+000
    endloop
  endfacet
  facet normal  9.914448e-001  0.000000e+000  1.305264e-001
    outer loop
      vertex -2.579207e+001  0.000000e+000  7.060008e+000
      vertex -2.579207e+001  3.000000e+000  7.060008e+000
      vertex -2.585000e+001  0.000000e+000  7.500000e+000
    endloop
  endfacet
  facet normal  9.914448e-001  -0.000000e+000  1.305264e-001
    outer loop
      vertex -2.585000e+001  0.000000e+000  7.500000e+000
      vertex -2.579207e+001  3.000000e+000  7.060008e+000
      vertex -2.585000e+001  3.000000e+000  7.500000e+000
    endloop
  endfacet
  facet normal -9.914448e-001  0.000000e+000  1.305264e-001
    outer loop
      vertex  2.585000e+001  0.000000e+000  7.500000e+000
      vertex  2.585000e+001  3.000000e+000  7.500000e+000
      vertex  2.579207e+001  0.000000e+000  7.060008e+000
    endloop
  endfacet
  facet normal -9.914448e-001  0.000000e+000  1.305264e-001
    outer loop
      vertex  2.579207e+001  0.000000e+000  7.060008e+000
      vertex  2.585000e+001  3.000000e+000  7.500000e+000
      vertex  2.579207e+001  3.000000e+000  7.060008e+000
    endloop
  endfacet
  facet normal -9.238798e-001  0.000000e+000  3.826828e-001
    outer loop
      vertex  2.579207e+001  0.000000e+000  7.060008e+000
      vertex  2.579207e+001  3.000000e+000  7.060008e+000
      vertex  2.562224e+001  0.000000e+000  6.650000e+000
    endloop
  endfacet
  facet normal -9.238798e-001  0.000000e+000  3.826828e-001
    outer loop
      vertex  2.562224e+001  0.000000e+000  6.650000e+000
      vertex  2.579207e+001  3.000000e+000  7.060008e+000
      vertex  2.562224e+001  3.000000e+000  6.650000e+000
    endloop
  endfacet
  facet normal -7.933525e-001  0.000000e+000  6.087624e-001
    outer loop
      vertex  2.562224e+001  0.000000e+000  6.650000e+000
      vertex  2.562224e+001  3.000000e+000  6.650000e+000
      vertex  2.535208e+001  0.000000e+000  6.297918e+000
    endloop
  endfacet
  facet normal -7.933525e-001  0.000000e+000  6.087624e-001
    outer loop
      vertex  2.535208e+001  0.000000e+000  6.297918e+000
      vertex  2.562224e+001  3.000000e+000  6.650000e+000
      vertex  2.535208e+001  3.000000e+000  6.297918e+000
    endloop
  endfacet
  facet normal -6.087616e-001  0.000000e+000  7.933531e-001
    outer loop
      vertex  2.535208e+001  0.000000e+000  6.297918e+000
      vertex  2.535208e+001  3.000000e+000  6.297918e+000
      vertex  2.500000e+001  0.000000e+000  6.027757e+000
    endloop
  endfacet
  facet normal -6.087616e-001  0.000000e+000  7.933531e-001
    outer loop
      vertex  2.500000e+001  0.000000e+000  6.027757e+000
      vertex  2.535208e+001  3.000000e+000  6.297918e+000
      vertex  2.500000e+001  3.000000e+000  6.027757e+000
    endloop
  endfacet
  facet normal -3.826837e-001  0.000000e+000  9.238794e-001
    outer loop
      vertex  2.500000e+001  0.000000e+000  6.027757e+000
      vertex  2.500000e+001  3.000000e+000  6.027757e+000
      vertex  2.458999e+001  0.000000e+000  5.857926e+000
    endloop
  endfacet
  facet normal -3.826837e-001  0.000000e+000  9.238794e-001
    outer loop
      vertex  2.458999e+001  0.000000e+000  5.857926e+000
      vertex  2.500000e+001  3.000000e+000  6.027757e+000
      vertex  2.458999e+001  3.000000e+000  5.857926e+000
    endloop
  endfacet
  facet normal -1.305252e-001  0.000000e+000  9.914450e-001
    outer loop
      vertex  2.458999e+001  0.000000e+000  5.857926e+000
      vertex  2.458999e+001  3.000000e+000  5.857926e+000
      vertex  2.415000e+001  0.000000e+000  5.800000e+000
    endloop
  endfacet
  facet normal -1.305252e-001  0.000000e+000  9.914450e-001
    outer loop
      vertex  2.415000e+001  0.000000e+000  5.800000e+000
      vertex  2.458999e+001  3.000000e+000  5.857926e+000
      vertex  2.415000e+001  3.000000e+000  5.800000e+000
    endloop
  endfacet
  facet normal  1.305252e-001  0.000000e+000  9.914450e-001
    outer loop
      vertex  2.415000e+001  0.000000e+000  5.800000e+000
      vertex  2.415000e+001  3.000000e+000  5.800000e+000
      vertex  2.371001e+001  0.000000e+000  5.857926e+000
    endloop
  endfacet
  facet normal  1.305252e-001  -0.000000e+000  9.914450e-001
    outer loop
      vertex  2.371001e+001  0.000000e+000  5.857926e+000
      vertex  2.415000e+001  3.000000e+000  5.800000e+000
      vertex  2.371001e+001  3.000000e+000  5.857926e+000
    endloop
  endfacet
  facet normal  3.826837e-001  0.000000e+000  9.238794e-001
    outer loop
      vertex  2.371001e+001  0.000000e+000  5.857926e+000
      vertex  2.371001e+001  3.000000e+000  5.857926e+000
      vertex  2.330000e+001  0.000000e+000  6.027757e+000
    endloop
  endfacet
  facet normal  3.826837e-001  -0.000000e+000  9.238794e-001
    outer loop
      vertex  2.330000e+001  0.000000e+000  6.027757e+000
      vertex  2.371001e+001  3.000000e+000  5.857926e+000
      vertex  2.330000e+001  3.000000e+000  6.027757e+000
    endloop
  endfacet
  facet normal  6.087616e-001  0.000000e+000  7.933531e-001
    outer loop
      vertex  2.330000e+001  0.000000e+000  6.027757e+000
      vertex  2.330000e+001  3.000000e+000  6.027757e+000
      vertex  2.294792e+001  0.000000e+000  6.297918e+000
    endloop
  endfacet
  facet normal  6.087616e-001  -0.000000e+000  7.933531e-001
    outer loop
      vertex  2.294792e+001  0.000000e+000  6.297918e+000
      vertex  2.330000e+001  3.000000e+000  6.027757e+000
      vertex  2.294792e+001  3.000000e+000  6.297918e+000
    endloop
  endfacet
  facet normal  7.933546e-001  0.000000e+000  6.087598e-001
    outer loop
      vertex  2.294792e+001  0.000000e+000  6.297918e+000
      vertex  2.294792e+001  3.000000e+000  6.297918e+000
      vertex  2.267776e+001  0.000000e+000  6.650000e+000
    endloop
  endfacet
  facet normal  7.933546e-001  -0.000000e+000  6.087598e-001
    outer loop
      vertex  2.267776e+001  0.000000e+000  6.650000e+000
      vertex  2.294792e+001  3.000000e+000  6.297918e+000
      vertex  2.267776e+001  3.000000e+000  6.650000e+000
    endloop
  endfacet
  facet normal  9.238798e-001  0.000000e+000  3.826828e-001
    outer loop
      vertex  2.267776e+001  0.000000e+000  6.650000e+000
      vertex  2.267776e+001  3.000000e+000  6.650000e+000
      vertex  2.250793e+001  0.000000e+000  7.060008e+000
    endloop
  endfacet
  facet normal  9.238798e-001  -0.000000e+000  3.826828e-001
    outer loop
      vertex  2.250793e+001  0.000000e+000  7.060008e+000
      vertex  2.267776e+001  3.000000e+000  6.650000e+000
      vertex  2.250793e+001  3.000000e+000  7.060008e+000
    endloop
  endfacet
  facet normal  9.914448e-001  0.000000e+000  1.305264e-001
    outer loop
      vertex  2.250793e+001  0.000000e+000  7.060008e+000
      vertex  2.250793e+001  3.000000e+000  7.060008e+000
      vertex  2.245000e+001  0.000000e+000  7.500000e+000
    endloop
  endfacet
  facet normal  9.914448e-001  -0.000000e+000  1.305264e-001
    outer loop
      vertex  2.245000e+001  0.000000e+000  7.500000e+000
      vertex  2.250793e+001  3.000000e+000  7.060008e+000
      vertex  2.245000e+001  3.000000e+000  7.500000e+000
    endloop
  endfacet
  facet normal  9.914448e-001  0.000000e+000 -1.305264e-001
    outer loop
      vertex  2.245000e+001  0.000000e+000  7.500000e+000
      vertex  2.245000e+001  3.000000e+000  7.500000e+000
      vertex  2.250793e+001  0.000000e+000  7.939992e+000
    endloop
  endfacet
  facet normal  9.914448e-001  0.000000e+000 -1.305264e-001
    outer loop
      vertex  2.250793e+001  0.000000e+000  7.939992e+000
      vertex  2.245000e+001  3.000000e+000  7.500000e+000
      vertex  2.250793e+001  3.000000e+000  7.939992e+000
    endloop
  endfacet
  facet normal  9.238799e-001  0.000000e+000 -3.826824e-001
    outer loop
      vertex  2.250793e+001  0.000000e+000  7.939992e+000
      vertex  2.250793e+001  3.000000e+000  7.939992e+000
      vertex  2.267776e+001  0.000000e+000  8.350000e+000
    endloop
  endfacet
  facet normal  9.238799e-001  0.000000e+000 -3.826824e-001
    outer loop
      vertex  2.267776e+001  0.000000e+000  8.350000e+000
      vertex  2.250793e+001  3.000000e+000  7.939992e+000
      vertex  2.267776e+001  3.000000e+000  8.350000e+000
    endloop
  endfacet
  facet normal  7.933542e-001  0.000000e+000 -6.087603e-001
    outer loop
      vertex  2.267776e+001  0.000000e+000  8.350000e+000
      vertex  2.267776e+001  3.000000e+000  8.350000e+000
      vertex  2.294792e+001  0.000000e+000  8.702082e+000
    endloop
  endfacet
  facet normal  7.933542e-001  0.000000e+000 -6.087603e-001
    outer loop
      vertex  2.294792e+001  0.000000e+000  8.702082e+000
      vertex  2.267776e+001  3.000000e+000  8.350000e+000
      vertex  2.294792e+001  3.000000e+000  8.702082e+000
    endloop
  endfacet
  facet normal  6.087616e-001  0.000000e+000 -7.933531e-001
    outer loop
      vertex  2.294792e+001  0.000000e+000  8.702082e+000
      vertex  2.294792e+001  3.000000e+000  8.702082e+000
      vertex  2.330000e+001  0.000000e+000  8.972243e+000
    endloop
  endfacet
  facet normal  6.087616e-001  0.000000e+000 -7.933531e-001
    outer loop
      vertex  2.330000e+001  0.000000e+000  8.972243e+000
      vertex  2.294792e+001  3.000000e+000  8.702082e+000
      vertex  2.330000e+001  3.000000e+000  8.972243e+000
    endloop
  endfacet
  facet normal  3.826828e-001  0.000000e+000 -9.238798e-001
    outer loop
      vertex  2.330000e+001  0.000000e+000  8.972243e+000
      vertex  2.330000e+001  3.000000e+000  8.972243e+000
      vertex  2.371001e+001  0.000000e+000  9.142074e+000
    endloop
  endfacet
  facet normal  3.826828e-001  0.000000e+000 -9.238798e-001
    outer loop
      vertex  2.371001e+001  0.000000e+000  9.142074e+000
      vertex  2.330000e+001  3.000000e+000  8.972243e+000
      vertex  2.371001e+001  3.000000e+000  9.142074e+000
    endloop
  endfacet
  facet normal  1.305262e-001  0.000000e+000 -9.914448e-001
    outer loop
      vertex  2.371001e+001  0.000000e+000  9.142074e+000
      vertex  2.371001e+001  3.000000e+000  9.142074e+000
      vertex  2.415000e+001  0.000000e+000  9.200000e+000
    endloop
  endfacet
  facet normal  1.305262e-001  0.000000e+000 -9.914448e-001
    outer loop
      vertex  2.415000e+001  0.000000e+000  9.200000e+000
      vertex  2.371001e+001  3.000000e+000  9.142074e+000
      vertex  2.415000e+001  3.000000e+000  9.200000e+000
    endloop
  endfacet
  facet normal -1.305262e-001  -0.000000e+000 -9.914448e-001
    outer loop
      vertex  2.415000e+001  0.000000e+000  9.200000e+000
      vertex  2.415000e+001  3.000000e+000  9.200000e+000
      vertex  2.458999e+001  0.000000e+000  9.142074e+000
    endloop
  endfacet
  facet normal -1.305262e-001  0.000000e+000 -9.914448e-001
    outer loop
      vertex  2.458999e+001  0.000000e+000  9.142074e+000
      vertex  2.415000e+001  3.000000e+000  9.200000e+000
      vertex  2.458999e+001  3.000000e+000  9.142074e+000
    endloop
  endfacet
  facet normal -3.826828e-001  -0.000000e+000 -9.238798e-001
    outer loop
      vertex  2.458999e+001  0.000000e+000  9.142074e+000
      vertex  2.458999e+001  3.000000e+000  9.142074e+000
      vertex  2.500000e+001  0.000000e+000  8.972243e+000
    endloop
  endfacet
  facet normal -3.826828e-001  0.000000e+000 -9.238798e-001
    outer loop
      vertex  2.500000e+001  0.000000e+000  8.972243e+000
      vertex  2.458999e+001  3.000000e+000  9.142074e+000
      vertex  2.500000e+001  3.000000e+000  8.972243e+000
    endloop
  endfacet
  facet normal -6.087616e-001  -0.000000e+000 -7.933531e-001
    outer loop
      vertex  2.500000e+001  0.000000e+000  8.972243e+000
      vertex  2.500000e+001  3.000000e+000  8.972243e+000
      vertex  2.535208e+001  0.000000e+000  8.702082e+000
    endloop
  endfacet
  facet normal -6.087616e-001  0.000000e+000 -7.933531e-001
    outer loop
      vertex  2.535208e+001  0.000000e+000  8.702082e+000
      vertex  2.500000e+001  3.000000e+000  8.972243e+000
      vertex  2.535208e+001  3.000000e+000  8.702082e+000
    endloop
  endfacet
  facet normal -7.933521e-001  -0.000000e+000 -6.087630e-001
    outer loop
      vertex  2.535208e+001  0.000000e+000  8.702082e+000
      vertex  2.535208e+001  3.000000e+000  8.702082e+000
      vertex  2.562224e+001  0.000000e+000  8.350000e+000
    endloop
  endfacet
  facet normal -7.933521e-001  0.000000e+000 -6.087630e-001
    outer loop
      vertex  2.562224e+001  0.000000e+000  8.350000e+000
      vertex  2.535208e+001  3.000000e+000  8.702082e+000
      vertex  2.562224e+001  3.000000e+000  8.350000e+000
    endloop
  endfacet
  facet normal -9.238799e-001  -0.000000e+000 -3.826824e-001
    outer loop
      vertex  2.562224e+001  0.000000e+000  8.350000e+000
      vertex  2.562224e+001  3.000000e+000  8.350000e+000
      vertex  2.579207e+001  0.000000e+000  7.939992e+000
    endloop
  endfacet
  facet normal -9.238799e-001  0.000000e+000 -3.826824e-001
    outer loop
      vertex  2.579207e+001  0.000000e+000  7.939992e+000
      vertex  2.562224e+001  3.000000e+000  8.350000e+000
      vertex  2.579207e+001  3.000000e+000  7.939992e+000
    endloop
  endfacet
  facet normal -9.914448e-001  -0.000000e+000 -1.305264e-001
    outer loop
      vertex  2.579207e+001  0.000000e+000  7.939992e+000
      vertex  2.579207e+001  3.000000e+000  7.939992e+000
      vertex  2.585000e+001  0.000000e+000  7.500000e+000
    endloop
  endfacet
  facet normal -9.914448e-001  0.000000e+000 -1.305264e-001
    outer loop
      vertex  2.585000e+001  0.000000e+000  7.500000e+000
      vertex  2.579207e+001  3.000000e+000  7.939992e+000
      vertex  2.585000e+001  3.000000e+000  7.500000e+000
    endloop
  endfacet
  facet normal -1.000000e+000  0.000000e+000  0.000000e+000
    outer loop
      vertex -2.130000e+001  6.000000e+000  9.145449e+000
      vertex -2.130000e+001  6.000000e+000  5.854552e+000
      vertex -2.130000e+001  3.000000e+000  9.145449e+000
    endloop
  endfacet
  facet normal -1.000000e+000  0.000000e+000  0.000000e+000
    outer loop
      vertex -2.130000e+001  3.000000e+000  9.145449e+000
      vertex -2.130000e+001  6.000000e+000  5.854552e+000
      vertex -2.130000e+001  3.000000e+000  5.854552e+000
    endloop
  endfacet
  facet normal -5.000000e-001  0.000000e+000  8.660255e-001
    outer loop
      vertex -2.130000e+001  3.000000e+000  5.854552e+000
      vertex -2.130000e+001  6.000000e+000  5.854552e+000
      vertex -2.415000e+001  3.000000e+000  4.209104e+000
    endloop
  endfacet
  facet normal -4.999999e-001 -4.796390e-008  8.660254e-001
    outer loop
      vertex -2.415000e+001  3.000000e+000  4.209104e+000
      vertex -2.130000e+001  6.000000e+000  5.854552e+000
      vertex -2.350000e+001  6.000000e+000  4.584381e+000
    endloop
  endfacet
  facet normal -5.000000e-001  0.000000e+000  8.660253e-001
    outer loop
      vertex -2.415000e+001  3.000000e+000  4.209104e+000
      vertex -2.350000e+001  6.000000e+000  4.584381e+000
      vertex -2.415000e+001  1.100000e+001  4.209104e+000
    endloop
  endfacet
  facet normal -5.000001e-001  0.000000e+000  8.660254e-001
    outer loop
      vertex -2.415000e+001  1.100000e+001  4.209104e+000
      vertex -2.350000e+001  6.000000e+000  4.584381e+000
      vertex -2.350000e+001  1.100000e+001  4.584381e+000
    endloop
  endfacet
  facet normal -5.000000e-001  0.000000e+000 -8.660253e-001
    outer loop
      vertex -2.415000e+001  1.100000e+001  1.079090e+001
      vertex -2.350000e+001  1.100000e+001  1.041562e+001
      vertex -2.415000e+001  3.000000e+000  1.079090e+001
    endloop
  endfacet
  facet normal -5.000001e-001  0.000000e+000 -8.660254e-001
    outer loop
      vertex -2.415000e+001  3.000000e+000  1.079090e+001
      vertex -2.350000e+001  1.100000e+001  1.041562e+001
      vertex -2.350000e+001  6.000000e+000  1.041562e+001
    endloop
  endfacet
  facet normal -4.999999e-001 -6.841886e-008 -8.660256e-001
    outer loop
      vertex -2.415000e+001  3.000000e+000  1.079090e+001
      vertex -2.350000e+001  6.000000e+000  1.041562e+001
      vertex -2.130000e+001  3.000000e+000  9.145449e+000
    endloop
  endfacet
  facet normal -4.999998e-001  0.000000e+000 -8.660255e-001
    outer loop
      vertex -2.130000e+001  3.000000e+000  9.145449e+000
      vertex -2.350000e+001  6.000000e+000  1.041562e+001
      vertex -2.130000e+001  6.000000e+000  9.145449e+000
    endloop
  endfacet
  facet normal  0.000000e+000 -1.000000e+000  0.000000e+000
    outer loop
      vertex -2.700000e+001  1.100000e+001  5.854552e+000
      vertex -2.415000e+001  1.100000e+001  4.209104e+000
      vertex -2.350000e+001  1.100000e+001  4.584381e+000
    endloop
  endfacet
  facet normal  0.000000e+000 -1.000000e+000  0.000000e+000
    outer loop
      vertex -2.700000e+001  1.100000e+001  5.854552e+000
      vertex -2.350000e+001  1.100000e+001  4.584381e+000
      vertex -2.700000e+001  1.100000e+001  9.145449e+000
    endloop
  endfacet
  facet normal  0.000000e+000 -1.000000e+000  0.000000e+000
    outer loop
      vertex -2.700000e+001  1.100000e+001  9.145449e+000
      vertex -2.350000e+001  1.100000e+001  4.584381e+000
      vertex -2.350000e+001  1.100000e+001  1.041562e+001
    endloop
  endfacet
  facet normal  -0.000000e+000 -1.000000e+000  0.000000e+000
    outer loop
      vertex -2.700000e+001  1.100000e+001  9.145449e+000
      vertex -2.350000e+001  1.100000e+001  1.041562e+001
      vertex -2.415000e+001  1.100000e+001  1.079090e+001
    endloop
  endfacet
  facet normal  0.000000e+000  1.000000e+000  0.000000e+000
    outer loop
      vertex -2.130000e+001  3.000000e+000  5.854552e+000
      vertex -2.415000e+001  3.000000e+000  4.209104e+000
      vertex -2.415000e+001  3.000000e+000  5.800000e+000
    endloop
  endfacet
  facet normal  0.000000e+000  1.000000e+000  0.000000e+000
    outer loop
      vertex -2.130000e+001  3.000000e+000  5.854552e+000
      vertex -2.415000e+001  3.000000e+000  5.800000e+000
      vertex -2.371001e+001  3.000000e+000  5.857926e+000
    endloop
  endfacet
  facet normal  -0.000000e+000  1.000000e+000  0.000000e+000
    outer loop
      vertex -2.130000e+001  3.000000e+000  5.854552e+000
      vertex -2.371001e+001  3.000000e+000  5.857926e+000
      vertex -2.330000e+001  3.000000e+000  6.027757e+000
    endloop
  endfacet
  facet normal  -0.000000e+000  1.000000e+000  0.000000e+000
    outer loop
      vertex -2.130000e+001  3.000000e+000  5.854552e+000
      vertex -2.330000e+001  3.000000e+000  6.027757e+000
      vertex -2.294792e+001  3.000000e+000  6.297918e+000
    endloop
  endfacet
  facet normal  -0.000000e+000  1.000000e+000  0.000000e+000
    outer loop
      vertex -2.130000e+001  3.000000e+000  5.854552e+000
      vertex -2.294792e+001  3.000000e+000  6.297918e+000
      vertex -2.267776e+001  3.000000e+000  6.650000e+000
    endloop
  endfacet
  facet normal  -0.000000e+000  1.000000e+000  0.000000e+000
    outer loop
      vertex -2.130000e+001  3.000000e+000  5.854552e+000
      vertex -2.267776e+001  3.000000e+000  6.650000e+000
      vertex -2.250793e+001  3.000000e+000  7.060008e+000
    endloop
  endfacet
  facet normal  -0.000000e+000  1.000000e+000  0.000000e+000
    outer loop
      vertex -2.130000e+001  3.000000e+000  5.854552e+000
      vertex -2.250793e+001  3.000000e+000  7.060008e+000
      vertex -2.245000e+001  3.000000e+000  7.500000e+000
    endloop
  endfacet
  facet normal  -0.000000e+000  1.000000e+000  -0.000000e+000
    outer loop
      vertex -2.130000e+001  3.000000e+000  5.854552e+000
      vertex -2.245000e+001  3.000000e+000  7.500000e+000
      vertex -2.250793e+001  3.000000e+000  7.939992e+000
    endloop
  endfacet
  facet normal  -0.000000e+000  1.000000e+000  -0.000000e+000
    outer loop
      vertex -2.130000e+001  3.000000e+000  5.854552e+000
      vertex -2.250793e+001  3.000000e+000  7.939992e+000
      vertex -2.267776e+001  3.000000e+000  8.350000e+000
    endloop
  endfacet
  facet normal  0.000000e+000  1.000000e+000  -0.000000e+000
    outer loop
      vertex -2.130000e+001  3.000000e+000  9.145449e+000
      vertex -2.130000e+001  3.000000e+000  5.854552e+000
      vertex -2.267776e+001  3.000000e+000  8.350000e+000
    endloop
  endfacet
  facet normal  0.000000e+000  1.000000e+000  -0.000000e+000
    outer loop
      vertex -2.130000e+001  3.000000e+000  9.145449e+000
      vertex -2.267776e+001  3.000000e+000  8.350000e+000
      vertex -2.294792e+001  3.000000e+000  8.702082e+000
    endloop
  endfacet
  facet normal  0.000000e+000  1.000000e+000  -0.000000e+000
    outer loop
      vertex -2.130000e+001  3.000000e+000  9.145449e+000
      vertex -2.294792e+001  3.000000e+000  8.702082e+000
      vertex -2.330000e+001  3.000000e+000  8.972243e+000
    endloop
  endfacet
  facet normal  0.000000e+000  1.000000e+000  -0.000000e+000
    outer loop
      vertex -2.130000e+001  3.000000e+000  9.145449e+000
      vertex -2.330000e+001  3.000000e+000  8.972243e+000
      vertex -2.371001e+001  3.000000e+000  9.142074e+000
    endloop
  endfacet
  facet normal  0.000000e+000  1.000000e+000  -0.000000e+000
    outer loop
      vertex -2.130000e+001  3.000000e+000  9.145449e+000
      vertex -2.371001e+001  3.000000e+000  9.142074e+000
      vertex -2.415000e+001  3.000000e+000  9.200000e+000
    endloop
  endfacet
  facet normal  -0.000000e+000  1.000000e+000  0.000000e+000
    outer loop
      vertex -2.130000e+001  3.000000e+000  9.145449e+000
      vertex -2.415000e+001  3.000000e+000  9.200000e+000
      vertex -2.415000e+001  3.000000e+000  1.079090e+001
    endloop
  endfacet
  facet normal  0.000000e+000  1.000000e+000  0.000000e+000
    outer loop
      vertex -2.700000e+001  3.000000e+000  5.854552e+000
      vertex -2.562224e+001  3.000000e+000  8.350000e+000
      vertex -2.579207e+001  3.000000e+000  7.939992e+000
    endloop
  endfacet
  facet normal  0.000000e+000  1.000000e+000  0.000000e+000
    outer loop
      vertex -2.700000e+001  3.000000e+000  5.854552e+000
      vertex -2.579207e+001  3.000000e+000  7.939992e+000
      vertex -2.585000e+001  3.000000e+000  7.500000e+000
    endloop
  endfacet
  facet normal  0.000000e+000  1.000000e+000  0.000000e+000
    outer loop
      vertex -2.700000e+001  3.000000e+000  5.854552e+000
      vertex -2.585000e+001  3.000000e+000  7.500000e+000
      vertex -2.579207e+001  3.000000e+000  7.060008e+000
    endloop
  endfacet
  facet normal  0.000000e+000  1.000000e+000  0.000000e+000
    outer loop
      vertex -2.700000e+001  3.000000e+000  5.854552e+000
      vertex -2.579207e+001  3.000000e+000  7.060008e+000
      vertex -2.562224e+001  3.000000e+000  6.650000e+000
    endloop
  endfacet
  facet normal  0.000000e+000  1.000000e+000  0.000000e+000
    outer loop
      vertex -2.700000e+001  3.000000e+000  5.854552e+000
      vertex -2.562224e+001  3.000000e+000  6.650000e+000
      vertex -2.535208e+001  3.000000e+000  6.297918e+000
    endloop
  endfacet
  facet normal  0.000000e+000  1.000000e+000  0.000000e+000
    outer loop
      vertex -2.700000e+001  3.000000e+000  5.854552e+000
      vertex -2.535208e+001  3.000000e+000  6.297918e+000
      vertex -2.500000e+001  3.000000e+000  6.027757e+000
    endloop
  endfacet
  facet normal  0.000000e+000  1.000000e+000  0.000000e+000
    outer loop
      vertex -2.700000e+001  3.000000e+000  5.854552e+000
      vertex -2.500000e+001  3.000000e+000  6.027757e+000
      vertex -2.458999e+001  3.000000e+000  5.857926e+000
    endloop
  endfacet
  facet normal  0.000000e+000  1.000000e+000  0.000000e+000
    outer loop
      vertex -2.700000e+001  3.000000e+000  5.854552e+000
      vertex -2.458999e+001  3.000000e+000  5.857926e+000
      vertex -2.415000e+001  3.000000e+000  5.800000e+000
    endloop
  endfacet
  facet normal  0.000000e+000  1.000000e+000  0.000000e+000
    outer loop
      vertex -2.700000e+001  3.000000e+000  5.854552e+000
      vertex -2.415000e+001  3.000000e+000  5.800000e+000
      vertex -2.415000e+001  3.000000e+000  4.209104e+000
    endloop
  endfacet
  facet normal  0.000000e+000  1.000000e+000  0.000000e+000
    outer loop
      vertex -2.700000e+001  3.000000e+000  9.145449e+000
      vertex -2.415000e+001  3.000000e+000  1.079090e+001
      vertex -2.415000e+001  3.000000e+000  9.200000e+000
    endloop
  endfacet
  facet normal  0.000000e+000  1.000000e+000  0.000000e+000
    outer loop
      vertex -2.700000e+001  3.000000e+000  9.145449e+000
      vertex -2.415000e+001  3.000000e+000  9.200000e+000
      vertex -2.458999e+001  3.000000e+000  9.142074e+000
    endloop
  endfacet
  facet normal  0.000000e+000  1.000000e+000  0.000000e+000
    outer loop
      vertex -2.700000e+001  3.000000e+000  9.145449e+000
      vertex -2.458999e+001  3.000000e+000  9.142074e+000
      vertex -2.500000e+001  3.000000e+000  8.972243e+000
    endloop
  endfacet
  facet normal  0.000000e+000  1.000000e+000  0.000000e+000
    outer loop
      vertex -2.700000e+001  3.000000e+000  9.145449e+000
      vertex -2.500000e+001  3.000000e+000  8.972243e+000
      vertex -2.535208e+001  3.000000e+000  8.702082e+000
    endloop
  endfacet
  facet normal  0.000000e+000  1.000000e+000  0.000000e+000
    outer loop
      vertex -2.700000e+001  3.000000e+000  9.145449e+000
      vertex -2.535208e+001  3.000000e+000  8.702082e+000
      vertex -2.562224e+001  3.000000e+000  8.350000e+000
    endloop
  endfacet
  facet normal  0.000000e+000  1.000000e+000  0.000000e+000
    outer loop
      vertex -2.700000e+001  3.000000e+000  9.145449e+000
      vertex -2.562224e+001  3.000000e+000  8.350000e+000
      vertex -2.700000e+001  3.000000e+000  5.854552e+000
    endloop
  endfacet
  facet normal  1.000000e+000  0.000000e+000  0.000000e+000
    outer loop
      vertex  2.130000e+001  6.000000e+000  5.854552e+000
      vertex  2.130000e+001  6.000000e+000  9.145449e+000
      vertex  2.130000e+001  3.000000e+000  5.854552e+000
    endloop
  endfacet
  facet normal  1.000000e+000  0.000000e+000  0.000000e+000
    outer loop
      vertex  2.130000e+001  3.000000e+000  5.854552e+000
      vertex  2.130000e+001  6.000000e+000  9.145449e+000
      vertex  2.130000e+001  3.000000e+000  9.145449e+000
    endloop
  endfacet
  facet normal  4.999999e-001  0.000000e+000 -8.660256e-001
    outer loop
      vertex  2.130000e+001  3.000000e+000  9.145449e+000
      vertex  2.130000e+001  6.000000e+000  9.145449e+000
      vertex  2.415000e+001  3.000000e+000  1.079090e+001
    endloop
  endfacet
  facet normal  4.999998e-001 -8.863349e-008 -8.660255e-001
    outer loop
      vertex  2.415000e+001  3.000000e+000  1.079090e+001
      vertex  2.130000e+001  6.000000e+000  9.145449e+000
      vertex  2.350000e+001  6.000000e+000  1.041562e+001
    endloop
  endfacet
  facet normal  5.000000e-001  0.000000e+000 -8.660253e-001
    outer loop
      vertex  2.415000e+001  3.000000e+000  1.079090e+001
      vertex  2.350000e+001  6.000000e+000  1.041562e+001
      vertex  2.415000e+001  1.100000e+001  1.079090e+001
    endloop
  endfacet
  facet normal  5.000001e-001  0.000000e+000 -8.660254e-001
    outer loop
      vertex  2.415000e+001  1.100000e+001  1.079090e+001
      vertex  2.350000e+001  6.000000e+000  1.041562e+001
      vertex  2.350000e+001  1.100000e+001  1.041562e+001
    endloop
  endfacet
  facet normal  5.000000e-001  0.000000e+000  8.660253e-001
    outer loop
      vertex  2.415000e+001  1.100000e+001  4.209104e+000
      vertex  2.350000e+001  1.100000e+001  4.584381e+000
      vertex  2.415000e+001  3.000000e+000  4.209104e+000
    endloop
  endfacet
  facet normal  5.000001e-001  0.000000e+000  8.660254e-001
    outer loop
      vertex  2.415000e+001  3.000000e+000  4.209104e+000
      vertex  2.350000e+001  1.100000e+001  4.584381e+000
      vertex  2.350000e+001  6.000000e+000  4.584381e+000
    endloop
  endfacet
  facet normal  5.000000e-001 -3.702477e-008  8.660255e-001
    outer loop
      vertex  2.415000e+001  3.000000e+000  4.209104e+000
      vertex  2.350000e+001  6.000000e+000  4.584381e+000
      vertex  2.130000e+001  3.000000e+000  5.854552e+000
    endloop
  endfacet
  facet normal  4.999999e-001  -0.000000e+000  8.660254e-001
    outer loop
      vertex  2.130000e+001  3.000000e+000  5.854552e+000
      vertex  2.350000e+001  6.000000e+000  4.584381e+000
      vertex  2.130000e+001  6.000000e+000  5.854552e+000
    endloop
  endfacet
  facet normal  0.000000e+000 -1.000000e+000  -0.000000e+000
    outer loop
      vertex  2.700000e+001  1.100000e+001  9.145449e+000
      vertex  2.415000e+001  1.100000e+001  1.079090e+001
      vertex  2.350000e+001  1.100000e+001  1.041562e+001
    endloop
  endfacet
  facet normal  0.000000e+000 -1.000000e+000  0.000000e+000
    outer loop
      vertex  2.700000e+001  1.100000e+001  9.145449e+000
      vertex  2.350000e+001  1.100000e+001  1.041562e+001
      vertex  2.700000e+001  1.100000e+001  5.854552e+000
    endloop
  endfacet
  facet normal  -0.000000e+000 -1.000000e+000  0.000000e+000
    outer loop
      vertex  2.700000e+001  1.100000e+001  5.854552e+000
      vertex  2.350000e+001  1.100000e+001  1.041562e+001
      vertex  2.350000e+001  1.100000e+001  4.584381e+000
    endloop
  endfacet
  facet normal  0.000000e+000 -1.000000e+000  0.000000e+000
    outer loop
      vertex  2.700000e+001  1.100000e+001  5.854552e+000
      vertex  2.350000e+001  1.100000e+001  4.584381e+000
      vertex  2.415000e+001  1.100000e+001  4.209104e+000
    endloop
  endfacet
  facet normal  0.000000e+000  1.000000e+000  0.000000e+000
    outer loop
      vertex  2.700000e+001  3.000000e+000  5.854552e+000
      vertex  2.415000e+001  3.000000e+000  4.209104e+000
      vertex  2.415000e+001  3.000000e+000  5.800000e+000
    endloop
  endfacet
  facet normal  0.000000e+000  1.000000e+000  0.000000e+000
    outer loop
      vertex  2.700000e+001  3.000000e+000  5.854552e+000
      vertex  2.415000e+001  3.000000e+000  5.800000e+000
      vertex  2.458999e+001  3.000000e+000  5.857926e+000
    endloop
  endfacet
  facet normal  -0.000000e+000  1.000000e+000  0.000000e+000
    outer loop
      vertex  2.700000e+001  3.000000e+000  5.854552e+000
      vertex  2.458999e+001  3.000000e+000  5.857926e+000
      vertex  2.500000e+001  3.000000e+000  6.027757e+000
    endloop
  endfacet
  facet normal  -0.000000e+000  1.000000e+000  0.000000e+000
    outer loop
      vertex  2.700000e+001  3.000000e+000  5.854552e+000
      vertex  2.500000e+001  3.000000e+000  6.027757e+000
      vertex  2.535208e+001  3.000000e+000  6.297918e+000
    endloop
  endfacet
  facet normal  -0.000000e+000  1.000000e+000  0.000000e+000
    outer loop
      vertex  2.700000e+001  3.000000e+000  5.854552e+000
      vertex  2.535208e+001  3.000000e+000  6.297918e+000
      vertex  2.562224e+001  3.000000e+000  6.650000e+000
    endloop
  endfacet
  facet normal  -0.000000e+000  1.000000e+000  0.000000e+000
    outer loop
      vertex  2.700000e+001  3.000000e+000  5.854552e+000
      vertex  2.562224e+001  3.000000e+000  6.650000e+000
      vertex  2.579207e+001  3.000000e+000  7.060008e+000
    endloop
  endfacet
  facet normal  -0.000000e+000  1.000000e+000  0.000000e+000
    outer loop
      vertex  2.700000e+001  3.000000e+000  5.854552e+000
      vertex  2.579207e+001  3.000000e+000  7.060008e+000
      vertex  2.585000e+001  3.000000e+000  7.500000e+000
    endloop
  endfacet
  facet normal  -0.000000e+000  1.000000e+000  -0.000000e+000
    outer loop
      vertex  2.700000e+001  3.000000e+000  5.854552e+000
      vertex  2.585000e+001  3.000000e+000  7.500000e+000
      vertex  2.579207e+001  3.000000e+000  7.939992e+000
    endloop
  endfacet
  facet normal  -0.000000e+000  1.000000e+000  -0.000000e+000
    outer loop
      vertex  2.700000e+001  3.000000e+000  5.854552e+000
      vertex  2.579207e+001  3.000000e+000  7.939992e+000
      vertex  2.562224e+001  3.000000e+000  8.350000e+000
    endloop
  endfacet
  facet normal  0.000000e+000  1.000000e+000  -0.000000e+000
    outer loop
      vertex  2.700000e+001  3.000000e+000  9.145449e+000
      vertex  2.700000e+001  3.000000e+000  5.854552e+000
      vertex  2.562224e+001  3.000000e+000  8.350000e+000
    endloop
  endfacet
  facet normal  0.000000e+000  1.000000e+000  -0.000000e+000
    outer loop
      vertex  2.700000e+001  3.000000e+000  9.145449e+000
      vertex  2.562224e+001  3.000000e+000  8.350000e+000
      vertex  2.535208e+001  3.000000e+000  8.702082e+000
    endloop
  endfacet
  facet normal  0.000000e+000  1.000000e+000  -0.000000e+000
    outer loop
      vertex  2.700000e+001  3.000000e+000  9.145449e+000
      vertex  2.535208e+001  3.000000e+000  8.702082e+000
      vertex  2.500000e+001  3.000000e+000  8.972243e+000
    endloop
  endfacet
  facet normal  0.000000e+000  1.000000e+000  -0.000000e+000
    outer loop
      vertex  2.700000e+001  3.000000e+000  9.145449e+000
      vertex  2.500000e+001  3.000000e+000  8.972243e+000
      vertex  2.458999e+001  3.000000e+000  9.142074e+000
    endloop
  endfacet
  facet normal  0.000000e+000  1.000000e+000  -0.000000e+000
    outer loop
      vertex  2.700000e+001  3.000000e+000  9.145449e+000
      vertex  2.458999e+001  3.000000e+000  9.142074e+000
      vertex  2.415000e+001  3.000000e+000  9.200000e+000
    endloop
  endfacet
  facet normal  -0.000000e+000  1.000000e+000  0.000000e+000
    outer loop
      vertex  2.700000e+001  3.000000e+000  9.145449e+000
      vertex  2.415000e+001  3.000000e+000  9.200000e+000
      vertex  2.415000e+001  3.000000e+000  1.079090e+001
    endloop
  endfacet
  facet normal  0.000000e+000  1.000000e+000  0.000000e+000
    outer loop
      vertex  2.130000e+001  3.000000e+000  5.854552e+000
      vertex  2.267776e+001  3.000000e+000  8.350000e+000
      vertex  2.250793e+001  3.000000e+000  7.939992e+000
    endloop
  endfacet
  facet normal  0.000000e+000  1.000000e+000  0.000000e+000
    outer loop
      vertex  2.130000e+001  3.000000e+000  5.854552e+000
      vertex  2.250793e+001  3.000000e+000  7.939992e+000
      vertex  2.245000e+001  3.000000e+000  7.500000e+000
    endloop
  endfacet
  facet normal  0.000000e+000  1.000000e+000  0.000000e+000
    outer loop
      vertex  2.130000e+001  3.000000e+000  5.854552e+000
      vertex  2.245000e+001  3.000000e+000  7.500000e+000
      vertex  2.250793e+001  3.000000e+000  7.060008e+000
    endloop
  endfacet
  facet normal  0.000000e+000  1.000000e+000  0.000000e+000
    outer loop
      vertex  2.130000e+001  3.000000e+000  5.854552e+000
      vertex  2.250793e+001  3.000000e+000  7.060008e+000
      vertex  2.267776e+001  3.000000e+000  6.650000e+000
    endloop
  endfacet
  facet normal  0.000000e+000  1.000000e+000  0.000000e+000
    outer loop
      vertex  2.130000e+001  3.000000e+000  5.854552e+000
      vertex  2.267776e+001  3.000000e+000  6.650000e+000
      vertex  2.294792e+001  3.000000e+000  6.297918e+000
    endloop
  endfacet
  facet normal  0.000000e+000  1.000000e+000  0.000000e+000
    outer loop
      vertex  2.130000e+001  3.000000e+000  5.854552e+000
      vertex  2.294792e+001  3.000000e+000  6.297918e+000
      vertex  2.330000e+001  3.000000e+000  6.027757e+000
    endloop
  endfacet
  facet normal  0.000000e+000  1.000000e+000  0.000000e+000
    outer loop
      vertex  2.130000e+001  3.000000e+000  5.854552e+000
      vertex  2.330000e+001  3.000000e+000  6.027757e+000
      vertex  2.371001e+001  3.000000e+000  5.857926e+000
    endloop
  endfacet
  facet normal  0.000000e+000  1.000000e+000  0.000000e+000
    outer loop
      vertex  2.130000e+001  3.000000e+000  5.854552e+000
      vertex  2.371001e+001  3.000000e+000  5.857926e+000
      vertex  2.415000e+001  3.000000e+000  5.800000e+000
    endloop
  endfacet
  facet normal  0.000000e+000  1.000000e+000  0.000000e+000
    outer loop
      vertex  2.130000e+001  3.000000e+000  5.854552e+000
      vertex  2.415000e+001  3.000000e+000  5.800000e+000
      vertex  2.415000e+001  3.000000e+000  4.209104e+000
    endloop
  endfacet
  facet normal  0.000000e+000  1.000000e+000  0.000000e+000
    outer loop
      vertex  2.130000e+001  3.000000e+000  9.145449e+000
      vertex  2.415000e+001  3.000000e+000  1.079090e+001
      vertex  2.415000e+001  3.000000e+000  9.200000e+000
    endloop
  endfacet
  facet normal  0.000000e+000  1.000000e+000  0.000000e+000
    outer loop
      vertex  2.130000e+001  3.000000e+000  9.145449e+000
      vertex  2.415000e+001  3.000000e+000  9.200000e+000
      vertex  2.371001e+001  3.000000e+000  9.142074e+000
    endloop
  endfacet
  facet normal  0.000000e+000  1.000000e+000  0.000000e+000
    outer loop
      vertex  2.130000e+001  3.000000e+000  9.145449e+000
      vertex  2.371001e+001  3.000000e+000  9.142074e+000
      vertex  2.330000e+001  3.000000e+000  8.972243e+000
    endloop
  endfacet
  facet normal  0.000000e+000  1.000000e+000  0.000000e+000
    outer loop
      vertex  2.130000e+001  3.000000e+000  9.145449e+000
      vertex  2.330000e+001  3.000000e+000  8.972243e+000
      vertex  2.294792e+001  3.000000e+000  8.702082e+000
    endloop
  endfacet
  facet normal  0.000000e+000  1.000000e+000  0.000000e+000
    outer loop
      vertex  2.130000e+001  3.000000e+000  9.145449e+000
      vertex  2.294792e+001  3.000000e+000  8.702082e+000
      vertex  2.267776e+001  3.000000e+000  8.350000e+000
    endloop
  endfacet
  facet normal  0.000000e+000  1.000000e+000  0.000000e+000
    outer loop
      vertex  2.130000e+001  3.000000e+000  9.145449e+000
      vertex  2.267776e+001  3.000000e+000  8.350000e+000
      vertex  2.130000e+001  3.000000e+000  5.854552e+000
    endloop
  endfacet
  facet normal  4.999998e-001  0.000000e+000 -8.660255e-001
    outer loop
      vertex -2.700000e+001  1.100000e+001  9.145449e+000
      vertex -2.415000e+001  1.100000e+001  1.079090e+001
      vertex -2.700000e+001  3.000000e+000  9.145449e+000
    endloop
  endfacet
  facet normal  4.999998e-001  0.000000e+000 -8.660255e-001
    outer loop
      vertex -2.700000e+001  3.000000e+000  9.145449e+000
      vertex -2.415000e+001  1.100000e+001  1.079090e+001
      vertex -2.415000e+001  3.000000e+000  1.079090e+001
    endloop
  endfacet
  facet normal  1.000000e+000  0.000000e+000  0.000000e+000
    outer loop
      vertex -2.700000e+001  1.100000e+001  5.854552e+000
      vertex -2.700000e+001  1.100000e+001  9.145449e+000
      vertex -2.700000e+001  3.000000e+000  5.854552e+000
    endloop
  endfacet
  facet normal  1.000000e+000  0.000000e+000  0.000000e+000
    outer loop
      vertex -2.700000e+001  3.000000e+000  5.854552e+000
      vertex -2.700000e+001  1.100000e+001  9.145449e+000
      vertex -2.700000e+001  3.000000e+000  9.145449e+000
    endloop
  endfacet
  facet normal  4.999999e-001  0.000000e+000  8.660254e-001
    outer loop
      vertex -2.415000e+001  1.100000e+001  4.209104e+000
      vertex -2.700000e+001  1.100000e+001  5.854552e+000
      vertex -2.415000e+001  3.000000e+000  4.209104e+000
    endloop
  endfacet
  facet normal  4.999999e-001  0.000000e+000  8.660254e-001
    outer loop
      vertex -2.415000e+001  3.000000e+000  4.209104e+000
      vertex -2.700000e+001  1.100000e+001  5.854552e+000
      vertex -2.700000e+001  3.000000e+000  5.854552e+000
    endloop
  endfacet
  facet normal -4.999999e-001  0.000000e+000  8.660254e-001
    outer loop
      vertex  2.700000e+001  1.100000e+001  5.854552e+000
      vertex  2.415000e+001  1.100000e+001  4.209104e+000
      vertex  2.700000e+001  3.000000e+000  5.854552e+000
    endloop
  endfacet
  facet normal -4.999999e-001  0.000000e+000  8.660254e-001
    outer loop
      vertex  2.700000e+001  3.000000e+000  5.854552e+000
      vertex  2.415000e+001  1.100000e+001  4.209104e+000
      vertex  2.415000e+001  3.000000e+000  4.209104e+000
    endloop
  endfacet
  facet normal -1.000000e+000  0.000000e+000  0.000000e+000
    outer loop
      vertex  2.700000e+001  1.100000e+001  9.145449e+000
      vertex  2.700000e+001  1.100000e+001  5.854552e+000
      vertex  2.700000e+001  3.000000e+000  9.145449e+000
    endloop
  endfacet
  facet normal -1.000000e+000  0.000000e+000  0.000000e+000
    outer loop
      vertex  2.700000e+001  3.000000e+000  9.145449e+000
      vertex  2.700000e+001  1.100000e+001  5.854552e+000
      vertex  2.700000e+001  3.000000e+000  5.854552e+000
    endloop
  endfacet
  facet normal -4.999998e-001  0.000000e+000 -8.660255e-001
    outer loop
      vertex  2.415000e+001  1.100000e+001  1.079090e+001
      vertex  2.700000e+001  1.100000e+001  9.145449e+000
      vertex  2.415000e+001  3.000000e+000  1.079090e+001
    endloop
  endfacet
  facet normal -4.999998e-001  0.000000e+000 -8.660255e-001
    outer loop
      vertex  2.415000e+001  3.000000e+000  1.079090e+001
      vertex  2.700000e+001  1.100000e+001  9.145449e+000
      vertex  2.700000e+001  3.000000e+000  9.145449e+000
    endloop
  endfacet
  facet normal  2.533494e-014 -1.000000e+000 -1.944010e-014
    outer loop
      vertex -2.750000e+001  7.105427e-015  0.000000e+000
      vertex -2.267776e+001  0.000000e+000  6.650000e+000
      vertex -2.294792e+001  0.000000e+000  6.297918e+000
    endloop
  endfacet
  facet normal  1.943753e-015 -1.000000e+000 -2.533146e-015
    outer loop
      vertex -2.750000e+001  7.105427e-015  0.000000e+000
      vertex -2.294792e+001  0.000000e+000  6.297918e+000
      vertex -2.330000e+001  0.000000e+000  6.027757e+000
    endloop
  endfacet
  facet normal  6.863636e-016 -1.000000e+000 -1.657027e-015
    outer loop
      vertex -2.750000e+001  7.105427e-015  0.000000e+000
      vertex -2.330000e+001  0.000000e+000  6.027757e+000
      vertex -2.371001e+001  0.000000e+000  5.857926e+000
    endloop
  endfacet
  facet normal  1.745560e-016 -1.000000e+000 -1.325895e-015
    outer loop
      vertex -2.750000e+001  7.105427e-015  0.000000e+000
      vertex -2.371001e+001  0.000000e+000  5.857926e+000
      vertex -2.415000e+001  0.000000e+000  5.800000e+000
    endloop
  endfacet
  facet normal -1.498854e-016 -9.999999e-001 -1.138502e-015
    outer loop
      vertex -2.750000e+001  7.105427e-015  0.000000e+000
      vertex -2.415000e+001  0.000000e+000  5.800000e+000
      vertex -2.458999e+001  0.000000e+000  5.857926e+000
    endloop
  endfacet
  facet normal -4.166849e-016 -1.000000e+000 -1.005965e-015
    outer loop
      vertex -2.750000e+001  7.105427e-015  0.000000e+000
      vertex -2.458999e+001  0.000000e+000  5.857926e+000
      vertex -2.500000e+001  0.000000e+000  6.027757e+000
    endloop
  endfacet
  facet normal -6.861487e-016 -1.000000e+000 -8.942059e-016
    outer loop
      vertex -2.750000e+001  7.105427e-015  0.000000e+000
      vertex -2.500000e+001  0.000000e+000  6.027757e+000
      vertex -2.535208e+001  0.000000e+000  6.297918e+000
    endloop
  endfacet
  facet normal -1.017897e-015 -1.000000e+000 -7.810623e-016
    outer loop
      vertex -2.750000e+001  7.105427e-015  0.000000e+000
      vertex -2.535208e+001  0.000000e+000  6.297918e+000
      vertex -2.562224e+001  0.000000e+000  6.650000e+000
    endloop
  endfacet
  facet normal -1.533897e-015 -9.999999e-001 -6.353597e-016
    outer loop
      vertex -2.750000e+001  7.105427e-015  0.000000e+000
      vertex -2.562224e+001  0.000000e+000  6.650000e+000
      vertex -2.579207e+001  0.000000e+000  7.060008e+000
    endloop
  endfacet
  facet normal -2.694109e-015 -1.000000e+000 -3.546866e-016
    outer loop
      vertex -2.750000e+001  7.105427e-015  0.000000e+000
      vertex -2.579207e+001  0.000000e+000  7.060008e+000
      vertex -2.585000e+001  0.000000e+000  7.500000e+000
    endloop
  endfacet
  facet normal -4.306321e-015 -1.000000e+000  0.000000e+000
    outer loop
      vertex -2.750000e+001  7.105427e-015  0.000000e+000
      vertex -2.585000e+001  0.000000e+000  7.500000e+000
      vertex -2.750000e+001  7.105427e-015  1.500000e+001
    endloop
  endfacet
  facet normal  0.000000e+000 -1.000000e+000  -0.000000e+000
    outer loop
      vertex -1.750000e+001  0.000000e+000  0.000000e+000
      vertex -1.750000e+001  0.000000e+000  1.500000e+001
      vertex -2.267776e+001  0.000000e+000  8.350000e+000
    endloop
  endfacet
  facet normal  0.000000e+000 -1.000000e+000  0.000000e+000
    outer loop
      vertex -1.750000e+001  0.000000e+000  0.000000e+000
      vertex -2.267776e+001  0.000000e+000  8.350000e+000
      vertex -2.250793e+001  0.000000e+000  7.939992e+000
    endloop
  endfacet
  facet normal  0.000000e+000 -1.000000e+000  0.000000e+000
    outer loop
      vertex -1.750000e+001  0.000000e+000  0.000000e+000
      vertex -2.250793e+001  0.000000e+000  7.939992e+000
      vertex -2.245000e+001  0.000000e+000  7.500000e+000
    endloop
  endfacet
  facet normal  0.000000e+000 -1.000000e+000  -0.000000e+000
    outer loop
      vertex -1.750000e+001  0.000000e+000  0.000000e+000
      vertex -2.245000e+001  0.000000e+000  7.500000e+000
      vertex -2.250793e+001  0.000000e+000  7.060008e+000
    endloop
  endfacet
  facet normal  0.000000e+000 -1.000000e+000  -0.000000e+000
    outer loop
      vertex -1.750000e+001  0.000000e+000  0.000000e+000
      vertex -2.250793e+001  0.000000e+000  7.060008e+000
      vertex -2.267776e+001  0.000000e+000  6.650000e+000
    endloop
  endfacet
  facet normal -7.105427e-016 -1.000000e+000 -5.532358e-016
    outer loop
      vertex -1.750000e+001  0.000000e+000  0.000000e+000
      vertex -2.267776e+001  0.000000e+000  6.650000e+000
      vertex -2.750000e+001  7.105427e-015  0.000000e+000
    endloop
  endfacet
  facet normal -2.694109e-015 -1.000000e+000  3.546866e-016
    outer loop
      vertex -2.750000e+001  7.105427e-015  1.500000e+001
      vertex -2.585000e+001  0.000000e+000  7.500000e+000
      vertex -2.579207e+001  0.000000e+000  7.939992e+000
    endloop
  endfacet
  facet normal -1.533898e-015 -1.000000e+000  6.353595e-016
    outer loop
      vertex -2.750000e+001  7.105427e-015  1.500000e+001
      vertex -2.579207e+001  0.000000e+000  7.939992e+000
      vertex -2.562224e+001  0.000000e+000  8.350000e+000
    endloop
  endfacet
  facet normal -1.017897e-015 -1.000000e+000  7.810626e-016
    outer loop
      vertex -2.750000e+001  7.105427e-015  1.500000e+001
      vertex -2.562224e+001  0.000000e+000  8.350000e+000
      vertex -2.535208e+001  0.000000e+000  8.702082e+000
    endloop
  endfacet
  facet normal -6.861487e-016 -1.000000e+000  8.942059e-016
    outer loop
      vertex -2.750000e+001  7.105427e-015  1.500000e+001
      vertex -2.535208e+001  0.000000e+000  8.702082e+000
      vertex -2.500000e+001  0.000000e+000  8.972243e+000
    endloop
  endfacet
  facet normal -4.166839e-016 -1.000000e+000  1.005966e-015
    outer loop
      vertex -2.750000e+001  7.105427e-015  1.500000e+001
      vertex -2.500000e+001  0.000000e+000  8.972243e+000
      vertex -2.458999e+001  0.000000e+000  9.142074e+000
    endloop
  endfacet
  facet normal -1.498866e-016 -1.000000e+000  1.138501e-015
    outer loop
      vertex -2.750000e+001  7.105427e-015  1.500000e+001
      vertex -2.458999e+001  0.000000e+000  9.142074e+000
      vertex -2.415000e+001  0.000000e+000  9.200000e+000
    endloop
  endfacet
  facet normal  1.745575e-016 -1.000000e+000  1.325896e-015
    outer loop
      vertex -2.750000e+001  7.105427e-015  1.500000e+001
      vertex -2.415000e+001  0.000000e+000  9.200000e+000
      vertex -2.371001e+001  0.000000e+000  9.142074e+000
    endloop
  endfacet
  facet normal  6.863609e-016 -1.000000e+000  1.657025e-015
    outer loop
      vertex -2.750000e+001  7.105427e-015  1.500000e+001
      vertex -2.371001e+001  0.000000e+000  9.142074e+000
      vertex -2.330000e+001  0.000000e+000  8.972243e+000
    endloop
  endfacet
  facet normal  1.943753e-015 -1.000000e+000  2.533146e-015
    outer loop
      vertex -2.750000e+001  7.105427e-015  1.500000e+001
      vertex -2.330000e+001  0.000000e+000  8.972243e+000
      vertex -2.294792e+001  0.000000e+000  8.702082e+000
    endloop
  endfacet
  facet normal  2.533434e-014 -1.000000e+000  1.943967e-014
    outer loop
      vertex -2.750000e+001  7.105427e-015  1.500000e+001
      vertex -2.294792e+001  0.000000e+000  8.702082e+000
      vertex -2.267776e+001  0.000000e+000  8.350000e+000
    endloop
  endfacet
  facet normal -7.105427e-016 -1.000000e+000  5.532358e-016
    outer loop
      vertex -2.750000e+001  7.105427e-015  1.500000e+001
      vertex -2.267776e+001  0.000000e+000  8.350000e+000
      vertex -1.750000e+001  0.000000e+000  1.500000e+001
    endloop
  endfacet
  facet normal  0.000000e+000 -1.000000e+000  0.000000e+000
    outer loop
      vertex  2.750000e+001  0.000000e+000  1.500000e+001
      vertex  1.750000e+001  0.000000e+000  1.500000e+001
      vertex  2.500000e+001  0.000000e+000  8.972243e+000
    endloop
  endfacet
  facet normal  0.000000e+000 -1.000000e+000  0.000000e+000
    outer loop
      vertex  2.750000e+001  0.000000e+000  1.500000e+001
      vertex  2.500000e+001  0.000000e+000  8.972243e+000
      vertex  2.535208e+001  0.000000e+000  8.702082e+000
    endloop
  endfacet
  facet normal  0.000000e+000 -1.000000e+000  0.000000e+000
    outer loop
      vertex  2.750000e+001  0.000000e+000  1.500000e+001
      vertex  2.535208e+001  0.000000e+000  8.702082e+000
      vertex  2.562224e+001  0.000000e+000  8.350000e+000
    endloop
  endfacet
  facet normal  0.000000e+000 -1.000000e+000  0.000000e+000
    outer loop
      vertex  2.750000e+001  0.000000e+000  1.500000e+001
      vertex  2.562224e+001  0.000000e+000  8.350000e+000
      vertex  2.579207e+001  0.000000e+000  7.939992e+000
    endloop
  endfacet
  facet normal  0.000000e+000 -1.000000e+000  0.000000e+000
    outer loop
      vertex  2.750000e+001  0.000000e+000  1.500000e+001
      vertex  2.579207e+001  0.000000e+000  7.939992e+000
      vertex  2.750000e+001  0.000000e+000  0.000000e+000
    endloop
  endfacet
  facet normal  0.000000e+000 -1.000000e+000  0.000000e+000
    outer loop
      vertex  1.750000e+001  0.000000e+000  0.000000e+000
      vertex  2.500000e+001  0.000000e+000  6.027757e+000
      vertex  2.458999e+001  0.000000e+000  5.857926e+000
    endloop
  endfacet
  facet normal  0.000000e+000 -9.999999e-001  0.000000e+000
    outer loop
      vertex  1.750000e+001  0.000000e+000  0.000000e+000
      vertex  2.458999e+001  0.000000e+000  5.857926e+000
      vertex  2.415000e+001  0.000000e+000  5.800000e+000
    endloop
  endfacet
  facet normal  -0.000000e+000 -1.000000e+000  0.000000e+000
    outer loop
      vertex  1.750000e+001  0.000000e+000  0.000000e+000
      vertex  2.415000e+001  0.000000e+000  5.800000e+000
      vertex  2.371001e+001  0.000000e+000  5.857926e+000
    endloop
  endfacet
  facet normal  -0.000000e+000 -9.999999e-001  0.000000e+000
    outer loop
      vertex  1.750000e+001  0.000000e+000  0.000000e+000
      vertex  2.371001e+001  0.000000e+000  5.857926e+000
      vertex  2.330000e+001  0.000000e+000  6.027757e+000
    endloop
  endfacet
  facet normal  -0.000000e+000 -1.000000e+000  0.000000e+000
    outer loop
      vertex  1.750000e+001  0.000000e+000  0.000000e+000
      vertex  2.330000e+001  0.000000e+000  6.027757e+000
      vertex  2.294792e+001  0.000000e+000  6.297918e+000
    endloop
  endfacet
  facet normal  -0.000000e+000 -1.000000e+000  0.000000e+000
    outer loop
      vertex  1.750000e+001  0.000000e+000  0.000000e+000
      vertex  2.294792e+001  0.000000e+000  6.297918e+000
      vertex  2.267776e+001  0.000000e+000  6.650000e+000
    endloop
  endfacet
  facet normal  -0.000000e+000 -1.000000e+000  0.000000e+000
    outer loop
      vertex  1.750000e+001  0.000000e+000  0.000000e+000
      vertex  2.267776e+001  0.000000e+000  6.650000e+000
      vertex  2.250793e+001  0.000000e+000  7.060008e+000
    endloop
  endfacet
  facet normal  -0.000000e+000 -1.000000e+000  0.000000e+000
    outer loop
      vertex  1.750000e+001  0.000000e+000  0.000000e+000
      vertex  2.250793e+001  0.000000e+000  7.060008e+000
      vertex  2.245000e+001  0.000000e+000  7.500000e+000
    endloop
  endfacet
  facet normal  -0.000000e+000 -1.000000e+000  0.000000e+000
    outer loop
      vertex  1.750000e+001  0.000000e+000  0.000000e+000
      vertex  2.245000e+001  0.000000e+000  7.500000e+000
      vertex  1.750000e+001  0.000000e+000  1.500000e+001
    endloop
  endfacet
  facet normal  0.000000e+000 -1.000000e+000  0.000000e+000
    outer loop
      vertex  2.750000e+001  0.000000e+000  0.000000e+000
      vertex  2.579207e+001  0.000000e+000  7.939992e+000
      vertex  2.585000e+001  0.000000e+000  7.500000e+000
    endloop
  endfacet
  facet normal  0.000000e+000 -1.000000e+000  -0.000000e+000
    outer loop
      vertex  2.750000e+001  0.000000e+000  0.000000e+000
      vertex  2.585000e+001  0.000000e+000  7.500000e+000
      vertex  2.579207e+001  0.000000e+000  7.060008e+000
    endloop
  endfacet
  facet normal  0.000000e+000 -9.999999e-001  -0.000000e+000
    outer loop
      vertex  2.750000e+001  0.000000e+000  0.000000e+000
      vertex  2.579207e+001  0.000000e+000  7.060008e+000
      vertex  2.562224e+001  0.000000e+000  6.650000e+000
    endloop
  endfacet
  facet normal  0.000000e+000 -1.000000e+000  -0.000000e+000
    outer loop
      vertex  2.750000e+001  0.000000e+000  0.000000e+000
      vertex  2.562224e+001  0.000000e+000  6.650000e+000
      vertex  2.535208e+001  0.000000e+000  6.297918e+000
    endloop
  endfacet
  facet normal  0.000000e+000 -1.000000e+000  -0.000000e+000
    outer loop
      vertex  2.750000e+001  0.000000e+000  0.000000e+000
      vertex  2.535208e+001  0.000000e+000  6.297918e+000
      vertex  2.500000e+001  0.000000e+000  6.027757e+000
    endloop
  endfacet
  facet normal  0.000000e+000 -1.000000e+000  -0.000000e+000
    outer loop
      vertex  2.750000e+001  0.000000e+000  0.000000e+000
      vertex  2.500000e+001  0.000000e+000  6.027757e+000
      vertex  1.750000e+001  0.000000e+000  0.000000e+000
    endloop
  endfacet
  facet normal  0.000000e+000 -1.000000e+000  0.000000e+000
    outer loop
      vertex  1.750000e+001  0.000000e+000  1.500000e+001
      vertex  2.245000e+001  0.000000e+000  7.500000e+000
      vertex  2.250793e+001  0.000000e+000  7.939992e+000
    endloop
  endfacet
  facet normal  0.000000e+000 -9.999999e-001  0.000000e+000
    outer loop
      vertex  1.750000e+001  0.000000e+000  1.500000e+001
      vertex  2.250793e+001  0.000000e+000  7.939992e+000
      vertex  2.267776e+001  0.000000e+000  8.350000e+000
    endloop
  endfacet
  facet normal  0.000000e+000 -1.000000e+000  0.000000e+000
    outer loop
      vertex  1.750000e+001  0.000000e+000  1.500000e+001
      vertex  2.267776e+001  0.000000e+000  8.350000e+000
      vertex  2.294792e+001  0.000000e+000  8.702082e+000
    endloop
  endfacet
  facet normal  0.000000e+000 -1.000000e+000  0.000000e+000
    outer loop
      vertex  1.750000e+001  0.000000e+000  1.500000e+001
      vertex  2.294792e+001  0.000000e+000  8.702082e+000
      vertex  2.330000e+001  0.000000e+000  8.972243e+000
    endloop
  endfacet
  facet normal  0.000000e+000 -1.000000e+000  0.000000e+000
    outer loop
      vertex  1.750000e+001  0.000000e+000  1.500000e+001
      vertex  2.330000e+001  0.000000e+000  8.972243e+000
      vertex  2.371001e+001  0.000000e+000  9.142074e+000
    endloop
  endfacet
  facet normal  0.000000e+000 -1.000000e+000  0.000000e+000
    outer loop
      vertex  1.750000e+001  0.000000e+000  1.500000e+001
      vertex  2.371001e+001  0.000000e+000  9.142074e+000
      vertex  2.415000e+001  0.000000e+000  9.200000e+000
    endloop
  endfacet
  facet normal  0.000000e+000 -1.000000e+000  0.000000e+000
    outer loop
      vertex  1.750000e+001  0.000000e+000  1.500000e+001
      vertex  2.415000e+001  0.000000e+000  9.200000e+000
      vertex  2.458999e+001  0.000000e+000  9.142074e+000
    endloop
  endfacet
  facet normal  0.000000e+000 -1.000000e+000  0.000000e+000
    outer loop
      vertex  1.750000e+001  0.000000e+000  1.500000e+001
      vertex  2.458999e+001  0.000000e+000  9.142074e+000
      vertex  2.500000e+001  0.000000e+000  8.972243e+000
    endloop
  endfacet
  facet normal  -0.000000e+000  0.000000e+000  1.000000e+000
    outer loop
      vertex -1.750000e+001  2.000000e+000  1.500000e+001
      vertex -2.750000e+001  7.105427e-015  1.500000e+001
      vertex -1.750000e+001  0.000000e+000  1.500000e+001
    endloop
  endfacet
  facet normal  0.000000e+000  0.000000e+000  1.000000e+000
    outer loop
      vertex  1.750000e+001  2.000000e+000  1.500000e+001
      vertex  1.750000e+001  0.000000e+000  1.500000e+001
      vertex  2.350000e+001  6.000000e+000  1.500000e+001
    endloop
  endfacet
  facet normal  0.000000e+000  0.000000e+000  1.000000e+000
    outer loop
      vertex  1.750000e+001  2.000000e+000  1.500000e+001
      vertex  2.350000e+001  6.000000e+000  1.500000e+001
      vertex  4.000000e+000  6.000000e+000  1.500000e+001
    endloop
  endfacet
  facet normal  0.000000e+000  0.000000e+000  1.000000e+000
    outer loop
      vertex  1.750000e+001  2.000000e+000  1.500000e+001
      vertex  4.000000e+000  6.000000e+000  1.500000e+001
      vertex -4.000000e+000  6.000000e+000  1.500000e+001
    endloop
  endfacet
  facet normal  0.000000e+000  0.000000e+000  1.000000e+000
    outer loop
      vertex  1.750000e+001  2.000000e+000  1.500000e+001
      vertex -4.000000e+000  6.000000e+000  1.500000e+001
      vertex -2.350000e+001  6.000000e+000  1.500000e+001
    endloop
  endfacet
  facet normal  0.000000e+000  0.000000e+000  1.000000e+000
    outer loop
      vertex -2.350000e+001  6.000000e+000  1.500000e+001
      vertex -2.350000e+001  3.000000e+001  1.500000e+001
      vertex -2.750000e+001  3.400000e+001  1.500000e+001
    endloop
  endfacet
  facet normal  0.000000e+000  0.000000e+000  1.000000e+000
    outer loop
      vertex -2.350000e+001  6.000000e+000  1.500000e+001
      vertex -2.750000e+001  3.400000e+001  1.500000e+001
      vertex -2.750000e+001  7.105427e-015  1.500000e+001
    endloop
  endfacet
  facet normal  0.000000e+000  0.000000e+000  1.000000e+000
    outer loop
      vertex -2.350000e+001  6.000000e+000  1.500000e+001
      vertex -2.750000e+001  7.105427e-015  1.500000e+001
      vertex -1.750000e+001  2.000000e+000  1.500000e+001
    endloop
  endfacet
  facet normal  0.000000e+000  -0.000000e+000  1.000000e+000
    outer loop
      vertex -2.350000e+001  6.000000e+000  1.500000e+001
      vertex -1.750000e+001  2.000000e+000  1.500000e+001
      vertex  0.000000e+000  2.000000e+000  1.500000e+001
    endloop
  endfacet
  facet normal  0.000000e+000  -0.000000e+000  1.000000e+000
    outer loop
      vertex -2.350000e+001  6.000000e+000  1.500000e+001
      vertex  0.000000e+000  2.000000e+000  1.500000e+001
      vertex  1.750000e+001  2.000000e+000  1.500000e+001
    endloop
  endfacet
  facet normal  0.000000e+000  0.000000e+000  1.000000e+000
    outer loop
      vertex  2.350000e+001  3.400000e+001  1.500000e+001
      vertex  2.200000e+001  3.000000e+001  1.500000e+001
      vertex  2.750000e+001  3.400000e+001  1.500000e+001
    endloop
  endfacet
  facet normal  0.000000e+000  0.000000e+000  1.000000e+000
    outer loop
      vertex  2.750000e+001  3.400000e+001  1.500000e+001
      vertex  2.200000e+001  3.000000e+001  1.500000e+001
      vertex  2.350000e+001  3.000000e+001  1.500000e+001
    endloop
  endfacet
  facet normal  -0.000000e+000  0.000000e+000  1.000000e+000
    outer loop
      vertex  2.750000e+001  3.400000e+001  1.500000e+001
      vertex  2.350000e+001  3.000000e+001  1.500000e+001
      vertex  2.750000e+001  0.000000e+000  1.500000e+001
    endloop
  endfacet
  facet normal  0.000000e+000  0.000000e+000  1.000000e+000
    outer loop
      vertex  2.750000e+001  0.000000e+000  1.500000e+001
      vertex  2.350000e+001  3.000000e+001  1.500000e+001
      vertex  2.350000e+001  6.000000e+000  1.500000e+001
    endloop
  endfacet
  facet normal  0.000000e+000  0.000000e+000  1.000000e+000
    outer loop
      vertex  2.750000e+001  0.000000e+000  1.500000e+001
      vertex  2.350000e+001  6.000000e+000  1.500000e+001
      vertex  1.750000e+001  0.000000e+000  1.500000e+001
    endloop
  endfacet
  facet normal  0.000000e+000  0.000000e+000  1.000000e+000
    outer loop
      vertex  4.000000e+000  6.000000e+000  1.500000e+001
      vertex  4.000000e+000  2.550000e+001  1.500000e+001
      vertex -4.000000e+000  6.000000e+000  1.500000e+001
    endloop
  endfacet
  facet normal  0.000000e+000  0.000000e+000  1.000000e+000
    outer loop
      vertex -4.000000e+000  6.000000e+000  1.500000e+001
      vertex  4.000000e+000  2.550000e+001  1.500000e+001
      vertex  0.000000e+000  2.550000e+001  1.500000e+001
    endloop
  endfacet
  facet normal  0.000000e+000  0.000000e+000  1.000000e+000
    outer loop
      vertex -4.000000e+000  6.000000e+000  1.500000e+001
      vertex  0.000000e+000  2.550000e+001  1.500000e+001
      vertex -4.000000e+000  2.550000e+001  1.500000e+001
    endloop
  endfacet
  facet normal  0.000000e+000  0.000000e+000  1.000000e+000
    outer loop
      vertex -2.350000e+001  3.000000e+001  1.500000e+001
      vertex -2.200000e+001  3.000000e+001  1.500000e+001
      vertex -2.750000e+001  3.400000e+001  1.500000e+001
    endloop
  endfacet
  facet normal  -0.000000e+000  0.000000e+000  1.000000e+000
    outer loop
      vertex -2.750000e+001  3.400000e+001  1.500000e+001
      vertex -2.200000e+001  3.000000e+001  1.500000e+001
      vertex -2.350000e+001  3.400000e+001  1.500000e+001
    endloop
  endfacet
  facet normal  0.000000e+000  0.000000e+000 -1.000000e+000
    outer loop
      vertex -1.750000e+001  0.000000e+000  0.000000e+000
      vertex -2.750000e+001  7.105427e-015  0.000000e+000
      vertex -1.750000e+001  2.000000e+000  0.000000e+000
    endloop
  endfacet
  facet normal  0.000000e+000  0.000000e+000 -1.000000e+000
    outer loop
      vertex  1.750000e+001  2.000000e+000  0.000000e+000
      vertex -2.350000e+001  6.000000e+000  0.000000e+000
      vertex -4.000000e+000  6.000000e+000  0.000000e+000
    endloop
  endfacet
  facet normal  0.000000e+000  0.000000e+000 -1.000000e+000
    outer loop
      vertex  1.750000e+001  2.000000e+000  0.000000e+000
      vertex -4.000000e+000  6.000000e+000  0.000000e+000
      vertex  4.000000e+000  6.000000e+000  0.000000e+000
    endloop
  endfacet
  facet normal  0.000000e+000  0.000000e+000 -1.000000e+000
    outer loop
      vertex  1.750000e+001  2.000000e+000  0.000000e+000
      vertex  4.000000e+000  6.000000e+000  0.000000e+000
      vertex  2.350000e+001  6.000000e+000  0.000000e+000
    endloop
  endfacet
  facet normal  0.000000e+000  0.000000e+000 -1.000000e+000
    outer loop
      vertex  1.750000e+001  2.000000e+000  0.000000e+000
      vertex  2.350000e+001  6.000000e+000  0.000000e+000
      vertex  1.750000e+001  0.000000e+000  0.000000e+000
    endloop
  endfacet
  facet normal  0.000000e+000  0.000000e+000 -1.000000e+000
    outer loop
      vertex -2.350000e+001  6.000000e+000  0.000000e+000
      vertex  1.750000e+001  2.000000e+000  0.000000e+000
      vertex  0.000000e+000  2.000000e+000  0.000000e+000
    endloop
  endfacet
  facet normal  0.000000e+000  0.000000e+000 -1.000000e+000
    outer loop
      vertex -2.350000e+001  6.000000e+000  0.000000e+000
      vertex  0.000000e+000  2.000000e+000  0.000000e+000
      vertex -1.750000e+001  2.000000e+000  0.000000e+000
    endloop
  endfacet
  facet normal  -0.000000e+000  0.000000e+000 -1.000000e+000
    outer loop
      vertex -2.350000e+001  6.000000e+000  0.000000e+000
      vertex -1.750000e+001  2.000000e+000  0.000000e+000
      vertex -2.750000e+001  7.105427e-015  0.000000e+000
    endloop
  endfacet
  facet normal  0.000000e+000  0.000000e+000 -1.000000e+000
    outer loop
      vertex -2.350000e+001  6.000000e+000  0.000000e+000
      vertex -2.750000e+001  7.105427e-015  0.000000e+000
      vertex -2.750000e+001  3.400000e+001  0.000000e+000
    endloop
  endfacet
  facet normal  0.000000e+000  0.000000e+000 -1.000000e+000
    outer loop
      vertex -2.350000e+001  6.000000e+000  0.000000e+000
      vertex -2.750000e+001  3.400000e+001  0.000000e+000
      vertex -2.350000e+001  3.000000e+001  0.000000e+000
    endloop
  endfacet
  facet normal  0.000000e+000  -0.000000e+000 -1.000000e+000
    outer loop
      vertex  2.200000e+001  3.000000e+001  0.000000e+000
      vertex  2.350000e+001  3.400000e+001  0.000000e+000
      vertex  2.350000e+001  3.000000e+001  0.000000e+000
    endloop
  endfacet
  facet normal  0.000000e+000  0.000000e+000 -1.000000e+000
    outer loop
      vertex  2.350000e+001  3.000000e+001  0.000000e+000
      vertex  2.350000e+001  3.400000e+001  0.000000e+000
      vertex  2.750000e+001  3.400000e+001  0.000000e+000
    endloop
  endfacet
  facet normal  0.000000e+000  0.000000e+000 -1.000000e+000
    outer loop
      vertex  2.350000e+001  3.000000e+001  0.000000e+000
      vertex  2.750000e+001  3.400000e+001  0.000000e+000
      vertex  2.350000e+001  6.000000e+000  0.000000e+000
    endloop
  endfacet
  facet normal  0.000000e+000  0.000000e+000 -1.000000e+000
    outer loop
      vertex  2.350000e+001  6.000000e+000  0.000000e+000
      vertex  2.750000e+001  3.400000e+001  0.000000e+000
      vertex  2.750000e+001  0.000000e+000  0.000000e+000
    endloop
  endfacet
  facet normal  0.000000e+000  0.000000e+000 -1.000000e+000
    outer loop
      vertex  2.350000e+001  6.000000e+000  0.000000e+000
      vertex  2.750000e+001  0.000000e+000  0.000000e+000
      vertex  1.750000e+001  0.000000e+000  0.000000e+000
    endloop
  endfacet
  facet normal  0.000000e+000  0.000000e+000 -1.000000e+000
    outer loop
      vertex  4.000000e+000  2.550000e+001  0.000000e+000
      vertex  4.000000e+000  6.000000e+000  0.000000e+000
      vertex  0.000000e+000  2.550000e+001  0.000000e+000
    endloop
  endfacet
  facet normal  0.000000e+000  -0.000000e+000 -1.000000e+000
    outer loop
      vertex  0.000000e+000  2.550000e+001  0.000000e+000
      vertex  4.000000e+000  6.000000e+000  0.000000e+000
      vertex -4.000000e+000  6.000000e+000  0.000000e+000
    endloop
  endfacet
  facet normal  0.000000e+000  0.000000e+000 -1.000000e+000
    outer loop
      vertex  0.000000e+000  2.550000e+001  0.000000e+000
      vertex -4.000000e+000  6.000000e+000  0.000000e+000
      vertex -4.000000e+000  2.550000e+001  0.000000e+000
    endloop
  endfacet
  facet normal  0.000000e+000  0.000000e+000 -1.000000e+000
    outer loop
      vertex -2.200000e+001  3.000000e+001  0.000000e+000
      vertex -2.350000e+001  3.000000e+001  0.000000e+000
      vertex -2.350000e+001  3.400000e+001  0.000000e+000
    endloop
  endfacet
  facet normal  -0.000000e+000  -0.000000e+000 -1.000000e+000
    outer loop
      vertex -2.350000e+001  3.400000e+001  0.000000e+000
      vertex -2.350000e+001  3.000000e+001  0.000000e+000
      vertex -2.750000e+001  3.400000e+001  0.000000e+000
    endloop
  endfacet
  facet normal  0.000000e+000  1.000000e+000  -0.000000e+000
    outer loop
      vertex -2.350000e+001  3.400000e+001  1.500000e+001
      vertex -2.350000e+001  3.400000e+001  0.000000e+000
      vertex -2.750000e+001  3.400000e+001  1.500000e+001
    endloop
  endfacet
  facet normal  0.000000e+000  1.000000e+000  0.000000e+000
    outer loop
      vertex -2.750000e+001  3.400000e+001  1.500000e+001
      vertex -2.350000e+001  3.400000e+001  0.000000e+000
      vertex -2.750000e+001  3.400000e+001  0.000000e+000
    endloop
  endfacet
  facet normal  9.363292e-001  3.511235e-001  0.000000e+000
    outer loop
      vertex -2.200000e+001  3.000000e+001  0.000000e+000
      vertex -2.350000e+001  3.400000e+001  0.000000e+000
      vertex -2.200000e+001  3.000000e+001  1.500000e+001
    endloop
  endfacet
  facet normal  9.363292e-001  3.511235e-001  0.000000e+000
    outer loop
      vertex -2.200000e+001  3.000000e+001  1.500000e+001
      vertex -2.350000e+001  3.400000e+001  0.000000e+000
      vertex -2.350000e+001  3.400000e+001  1.500000e+001
    endloop
  endfacet
  facet normal  0.000000e+000 -1.000000e+000  0.000000e+000
    outer loop
      vertex -2.350000e+001  3.000000e+001  1.500000e+001
      vertex -2.350000e+001  3.000000e+001  0.000000e+000
      vertex -2.200000e+001  3.000000e+001  1.500000e+001
    endloop
  endfacet
  facet normal  0.000000e+000 -1.000000e+000  -0.000000e+000
    outer loop
      vertex -2.200000e+001  3.000000e+001  1.500000e+001
      vertex -2.350000e+001  3.000000e+001  0.000000e+000
      vertex -2.200000e+001  3.000000e+001  0.000000e+000
    endloop
  endfacet
  facet normal -1.000000e+000  0.000000e+000  0.000000e+000
    outer loop
      vertex -4.000000e+000  6.000000e+000  0.000000e+000
      vertex -4.000000e+000  6.000000e+000  1.500000e+001
      vertex -4.000000e+000  2.550000e+001  0.000000e+000
    endloop
  endfacet
  facet normal -1.000000e+000  0.000000e+000  0.000000e+000
    outer loop
      vertex -4.000000e+000  2.550000e+001  0.000000e+000
      vertex -4.000000e+000  6.000000e+000  1.500000e+001
      vertex -4.000000e+000  2.550000e+001  1.500000e+001
    endloop
  endfacet
  facet normal  0.000000e+000  1.000000e+000  0.000000e+000
    outer loop
      vertex  0.000000e+000  2.550000e+001  0.000000e+000
      vertex -4.000000e+000  2.550000e+001  0.000000e+000
      vertex  0.000000e+000  2.550000e+001  1.500000e+001
    endloop
  endfacet
  facet normal  0.000000e+000  1.000000e+000  0.000000e+000
    outer loop
      vertex  0.000000e+000  2.550000e+001  1.500000e+001
      vertex -4.000000e+000  2.550000e+001  0.000000e+000
      vertex -4.000000e+000  2.550000e+001  1.500000e+001
    endloop
  endfacet
  facet normal  0.000000e+000  1.000000e+000  0.000000e+000
    outer loop
      vertex  4.000000e+000  2.550000e+001  0.000000e+000
      vertex  0.000000e+000  2.550000e+001  0.000000e+000
      vertex  4.000000e+000  2.550000e+001  1.500000e+001
    endloop
  endfacet
  facet normal  0.000000e+000  1.000000e+000  0.000000e+000
    outer loop
      vertex  4.000000e+000  2.550000e+001  1.500000e+001
      vertex  0.000000e+000  2.550000e+001  0.000000e+000
      vertex  0.000000e+000  2.550000e+001  1.500000e+001
    endloop
  endfacet
  facet normal  1.000000e+000  0.000000e+000  0.000000e+000
    outer loop
      vertex  4.000000e+000  6.000000e+000  1.500000e+001
      vertex  4.000000e+000  6.000000e+000  0.000000e+000
      vertex  4.000000e+000  2.550000e+001  1.500000e+001
    endloop
  endfacet
  facet normal  1.000000e+000  0.000000e+000  0.000000e+000
    outer loop
      vertex  4.000000e+000  2.550000e+001  1.500000e+001
      vertex  4.000000e+000  6.000000e+000  0.000000e+000
      vertex  4.000000e+000  2.550000e+001  0.000000e+000
    endloop
  endfacet
  facet normal  0.000000e+000 -1.000000e+000  0.000000e+000
    outer loop
      vertex  2.200000e+001  3.000000e+001  1.500000e+001
      vertex  2.200000e+001  3.000000e+001  0.000000e+000
      vertex  2.350000e+001  3.000000e+001  1.500000e+001
    endloop
  endfacet
  facet normal  0.000000e+000 -1.000000e+000  -0.000000e+000
    outer loop
      vertex  2.350000e+001  3.000000e+001  1.500000e+001
      vertex  2.200000e+001  3.000000e+001  0.000000e+000
      vertex  2.350000e+001  3.000000e+001  0.000000e+000
    endloop
  endfacet
  facet normal -9.363292e-001  3.511235e-001  0.000000e+000
    outer loop
      vertex  2.350000e+001  3.400000e+001  0.000000e+000
      vertex  2.200000e+001  3.000000e+001  0.000000e+000
      vertex  2.350000e+001  3.400000e+001  1.500000e+001
    endloop
  endfacet
  facet normal -9.363292e-001  3.511235e-001  0.000000e+000
    outer loop
      vertex  2.350000e+001  3.400000e+001  1.500000e+001
      vertex  2.200000e+001  3.000000e+001  0.000000e+000
      vertex  2.200000e+001  3.000000e+001  1.500000e+001
    endloop
  endfacet
  facet normal  0.000000e+000  1.000000e+000  -0.000000e+000
    outer loop
      vertex  2.750000e+001  3.400000e+001  1.500000e+001
      vertex  2.750000e+001  3.400000e+001  0.000000e+000
      vertex  2.350000e+001  3.400000e+001  1.500000e+001
    endloop
  endfacet
  facet normal  0.000000e+000  1.000000e+000  0.000000e+000
    outer loop
      vertex  2.350000e+001  3.400000e+001  1.500000e+001
      vertex  2.750000e+001  3.400000e+001  0.000000e+000
      vertex  2.350000e+001  3.400000e+001  0.000000e+000
    endloop
  endfacet
  facet normal  1.000000e+000  0.000000e+000  0.000000e+000
    outer loop
      vertex  2.750000e+001  3.400000e+001  0.000000e+000
      vertex  2.750000e+001  3.400000e+001  1.500000e+001
      vertex  2.750000e+001  0.000000e+000  0.000000e+000
    endloop
  endfacet
  facet normal  1.000000e+000  0.000000e+000  0.000000e+000
    outer loop
      vertex  2.750000e+001  0.000000e+000  0.000000e+000
      vertex  2.750000e+001  3.400000e+001  1.500000e+001
      vertex  2.750000e+001  0.000000e+000  1.500000e+001
    endloop
  endfacet
  facet normal -1.000000e+000  0.000000e+000  0.000000e+000
    outer loop
      vertex  1.750000e+001  2.000000e+000  0.000000e+000
      vertex  1.750000e+001  0.000000e+000  0.000000e+000
      vertex  1.750000e+001  2.000000e+000  1.500000e+001
    endloop
  endfacet
  facet normal -1.000000e+000  -0.000000e+000  0.000000e+000
    outer loop
      vertex  1.750000e+001  2.000000e+000  1.500000e+001
      vertex  1.750000e+001  0.000000e+000  0.000000e+000
      vertex  1.750000e+001  0.000000e+000  1.500000e+001
    endloop
  endfacet
  facet normal  0.000000e+000 -1.000000e+000  0.000000e+000
    outer loop
      vertex  0.000000e+000  2.000000e+000  1.500000e+001
      vertex  0.000000e+000  2.000000e+000  0.000000e+000
      vertex  1.750000e+001  2.000000e+000  1.500000e+001
    endloop
  endfacet
  facet normal  0.000000e+000 -1.000000e+000  -0.000000e+000
    outer loop
      vertex  1.750000e+001  2.000000e+000  1.500000e+001
      vertex  0.000000e+000  2.000000e+000  0.000000e+000
      vertex  1.750000e+001  2.000000e+000  0.000000e+000
    endloop
  endfacet
  facet normal  0.000000e+000 -1.000000e+000  0.000000e+000
    outer loop
      vertex -1.750000e+001  2.000000e+000  1.500000e+001
      vertex -1.750000e+001  2.000000e+000  0.000000e+000
      vertex  0.000000e+000  2.000000e+000  1.500000e+001
    endloop
  endfacet
  facet normal  0.000000e+000 -1.000000e+000  -0.000000e+000
    outer loop
      vertex  0.000000e+000  2.000000e+000  1.500000e+001
      vertex -1.750000e+001  2.000000e+000  0.000000e+000
      vertex  0.000000e+000  2.000000e+000  0.000000e+000
    endloop
  endfacet
  facet normal  1.000000e+000  0.000000e+000  0.000000e+000
    outer loop
      vertex -1.750000e+001  0.000000e+000  0.000000e+000
      vertex -1.750000e+001  2.000000e+000  0.000000e+000
      vertex -1.750000e+001  0.000000e+000  1.500000e+001
    endloop
  endfacet
  facet normal  1.000000e+000  -0.000000e+000  0.000000e+000
    outer loop
      vertex -1.750000e+001  0.000000e+000  1.500000e+001
      vertex -1.750000e+001  2.000000e+000  0.000000e+000
      vertex -1.750000e+001  2.000000e+000  1.500000e+001
    endloop
  endfacet
  facet normal -1.000000e+000  0.000000e+000  0.000000e+000
    outer loop
      vertex -2.750000e+001  3.400000e+001  1.500000e+001
      vertex -2.750000e+001  3.400000e+001  0.000000e+000
      vertex -2.750000e+001  7.105427e-015  1.500000e+001
    endloop
  endfacet
  facet normal -1.000000e+000  0.000000e+000  0.000000e+000
    outer loop
      vertex -2.750000e+001  7.105427e-015  1.500000e+001
      vertex -2.750000e+001  3.400000e+001  0.000000e+000
      vertex -2.750000e+001  7.105427e-015  0.000000e+000
    endloop
  endfacet
endsolid CATIA STL
